<svg xmlns="http://www.w3.org/2000/svg" viewBox="0 0 60 50" baseProfile="tiny" version="1.2"><path d="M17.4 35.7c.7-.6 1.4-1.2 2-1.9.7-.6 1.2-1.3 1.9-2 1.2-1.3 2.3-2.7 3.3-4.1.5-.7 1-1.4 1.6-2 .6-.7 1.1-1.4 1.6-2.1s.9-1.5 1.5-2.1c-.8.5-1.3 1.2-1.9 1.9-.5.6-1 1.2-1.5 1.9h-.8c-.5 0-1-.1-1.5-.3-.2-.1-.5-.1-.5-.4-.1-.2-.1-.6-.3-.7-.1.3-.2.9 0 1.2.2.4.7.5 1 .5.4.1.8.1 1.2 0l.7-.1s0 .1-.1.1l-3.2 4.2s-2.2 2.7-3.4 4-2.6 2.5-3.9 3.6l-2.7 2c1.5-.9 2.9-2 4.3-3.1.4-.2.6-.4.7-.6zM1.7 45.4h.2c.1 0 .2 0 .3-.1l.6-.2c.6-.1 1.2-.3 1.8-.5.3-.1.6-.1.9-.1s.7 0 1-.1c-.3-.1-.7-.1-1.1-.1.5-.4 1-.8 1.5-1.1.9-.7 1.8-1.3 2.7-1.9l2.2-1.7.2-.2c-1.8.9-3.5 2.1-5 3.4-.6.5-1.3 1-1.7 1.7h-.1c-.9 0-1.7 0-2.5.4l-.6.2c-.1.1-.5.2-.5.4 0-.1 0-.1.1-.1zM10.7 46c-.6.1-1.2.2-1.7.4l-1.4.4s-.9.3-1.3.4-.9.2-1.3.2c-.8 0-1.4-.2-2.1-.6-.5-.3-1-.8-1.6-1.1.5.7 1.2 1.3 1.9 1.7 1 .6 2 .6 3 .4.9-.2 1.8-.6 2.7-.9l3.1-.8c.3-.1.7-.2 1-.2l1-.2c-1.1 0-2.2.2-3.3.3zM32.1 31.7l.5-1c.1 0 .2-.1.3-.2.4-.2.8-.4 1.2-.7.4-.2.9-.4 1.2-.6l.1-.1c-.5.1-.9.2-1.4.4-.4.2-.9.4-1.3.5l.3-1.3c-.2.5-.4 1-.6 1.4-.1 0-.2.1-.4.2l-1 .4s-.7.2-.9.5c.7.1 1.3-.1 1.9-.4-.5.8-1 1.5-1.6 2.2-1.2 1.3-2.5 2.4-4 3.3-1.5 1-3.2 1.6-4.9 1.9-1 .2-1.9.4-2.9.7s-1.9.8-2.6 1.6c-.4.5-.8 1.1-1 1.7l-.2.6h-.1c-.5 0-1.1-.1-1.3-.5-.1-.2-.1-.5-.1-.7v-.3c-.1-.1-.2.1-.2.2-.1.5 0 1 .3 1.3s.9.3 1.3.3h.1c-.1.4-.1.7-.1 1.1 0-.4.1-.7.2-1.1.2 0 .5-.1.7-.2-.2 0-.4.1-.7.1.5-1.5 1.7-2.8 3.1-3.3h.1c1-.3 1.9-.5 2.9-.7s1.9-.4 2.9-.7c1.7-.5 3.2-1.5 4.5-2.6 1.7-1.3 2.9-2.5 3.7-4zM57.9 39.1c-.5-1-1-1.9-1.5-2.8-.4-.9-.9-2-.9-3-.1.5-.2 1-.2 1.4.1.5.2 1 .4 1.5l1.4 2.9c.4.8.8 1.8.9 2.7.1 1-.1 2-.4 2.9-.7 1.8-2.3 2.8-4 3.5-.5.2-.9.3-1.4.4-.4.1-1 .2-1.4.4 1.6-.2 3.3-.6 4.7-1.4l.2-.1c1.9-1.2 2.9-3.3 2.9-5.5.1-1-.3-2-.7-2.9zM40 43.1c-1-1.6-1.8-3.3-2.6-5.1-.4-.9-.7-1.8-1.1-2.6-.4-.9-.9-1.7-1.4-2.5l-.4-.5c.2.4.4.9.5 1.3l.6 1.3 1.1 2.7c.7 1.8 1.5 3.6 2.6 5.2 1.1 1.8 2.6 3.2 4.4 4.3 1 .6 2 1.1 3.1 1.5 1 .3 2.3.5 3.4.4-2 0-4-.6-5.7-1.6-1.8-1.1-3.3-2.6-4.5-4.4zM35.2 44.9c-.5-.9-.7-1.7-.8-2.7-.2-1-.1-2-.2-3s-.3-2.1-.5-3.1c-.1-.6-.3-1.2-.5-1.8-.1-.3-.2-.6-.3-.8l-.4-.8c.1.5 0 1 .2 1.5.1.5.2 1 .4 1.5.2 1 .5 2 .6 3.1l.3 2.9s.3 1.9.7 2.8c.8 1.8 2.3 3.2 4.1 3.8.9.3 2 .5 3 .4-1.8-.2-3.5-.7-4.8-1.7-.8-.6-1.4-1.3-1.8-2.1zM52.1 36.6c.6.6 1.3 1.2 1.9 1.7.5.4.9.9 1.4 1.2-.4-.5-.8-1-1.2-1.4-.6-.7-1.3-1.4-1.9-2-.3-.3-.7-.6-1-1l-.6-.6c-.2-.1-.5-.3-.7-.1h-.1c.4.2.7.5 1 .9l1.2 1.3zM27 19.4c1.6-1 3.5-1.6 5.4-1.9.9-.2 1.8-.3 2.7-.3.5 0 .9.1 1.2.5.3.2.6.6.8.9 0 0 .1.1.1.2 1.1 1.5 1.8 3.2 2.6 4.9l.5 1s.4.8.7.9c-.3-.3-.5-.8-.7-1.2s-.4-.9-.6-1.3c-.3-.8-.7-1.6-1.1-2.4-.1-.2-.2-.5-.4-.7l-.7-1.2h1c.9-.1 1.9-.4 2.6-1 .3-.3.7-.7.8-1.1v-.3c0-.1-.1-.3-.2-.2l-.4.6c-.2.4-.7.6-1 .9s-.7.5-1 .6c-.6.3-1.3.4-1.9.5l-.9-1.1c-.4-.4-.9-.6-1.5-.6h-1.4c-1 0-1.9.3-2.9.5-.9.2-1.9.5-2.7 1-1.9.9-3.7 2.3-4.9 4.2-.3.5-.5.9-.7 1.4 1.2-2.2 2.9-3.7 4.6-4.8zM48 26c-.2 0-.3-.3-.3-.4-.1-.2-.4-.5-.5-.1 0 .2.1.5.2.6.2.2.4.4.7.3s.4-.4.4-.6c0-.3-.2-.5-.4-.5-.1 0-.6-.1-.6 0l.3.1s.2.1.3.1c.1.1 0 .5-.1.5zM21 47.7c-.6.2-1.2.4-1.8.3-.3 0-.5-.2-.7-.3l-.4-.2c-.2-.1-.2-.1-.4 0 .2.3.6.6.9.8.4.2.8.3 1.3.2.4-.1.8-.2 1.2-.4s.8-.3 1.2-.5c-.5-.1-.9 0-1.3.1zM22.5 42.2c-.4.3-.7.7-1 1.1s-.4.9-.5 1.3-.2.9-.4 1.3c-.3.5-.7.6-1.2.8l-.9.2c.5 0 1 0 1.5-.2s.9-.6 1.1-1.1l.4-1.3s.4-.8.8-1.1c.7-.6 1.5-1.3 2.1-2 .4-.5.6-1 .8-1.5s.4-1.1 1-1.4c-1 .1-1.3 1.3-1.7 2.1-.7.6-1.4 1.2-2 1.8zM17.3 42.5v-.2c-.6.6-.1 1.7-.1 2.5 0 .4-.1.7-.5 1-.4.2-.8.3-1.2.3-.6 0-1.2 0-1.8.1.6.1 1.2.2 1.7.3.9 0 2.1-.2 2.2-1.4 0-.4-.1-.9-.2-1.3 0-.6 0-.9-.1-1.3zM31.2 34l-.7 1.1c-.3.4-.4.9-.5 1.4s-.2 1-.3 1.4c-.1.5-.1.9-.1 1.4s.1 1 .2 1.5.2 1 .3 1.4l.4 1.4c0 .4.1 1.2-.4 1.3-.2.1-.4.1-.6 0-.1 0-.3-.1-.5-.1l-1.8-.7c-1.1-.2-2.1.1-2.9.9-.4.4-.7.8-1 1.2-.2.2-.4.4-.5.6s-.4.3-.5.5c0 0 0 .1-.1.1 1-.2 1.7-1.3 2.4-2 .3-.4.6-.7 1.1-.9.4-.2.8-.2 1.2-.2l2 .4h-.1c.5.2 1.2.5 1.7.1s.4-1.3.3-1.9c-.1-1-.5-1.9-.5-2.9-.1-1 0-2 .2-3 .2-.8.4-1.6.7-2.4.1-.4.4-.7.6-1l.6-1.1c-.6.7-1 1.2-1.2 1.5zM52.9 12.1c-.7-.3-1.4-.4-2.1-.6-1-.2-1.9-.6-2.9-1.1-.4-.2-.8-.5-1.2-.8l-1-.9-.6-.6c.1 1 .9 1.6 1.7 2.2s1.8 1 2.8 1.3c.7.2 1.5.4 2.3.5-.2 0-.4 0-.6.1-.7.1-1.5.5-1.7 1.1.8-.5 1.9-.8 2.9-.6.4 0 .9.2 1.2.5s.6.7.7 1.1c.2.6.4 1.3.4 2l.1 1s0 .7.2 1c0-.6 0-1.3-.1-1.9l.2.9c.3 1.9.5 3.9.6 5.8s.3 3.9-.1 5.8c-.3 1.6-.9 3.1-1.4 4.7 0-.1-.1-.1-.1-.1-.2-.1-.2.1-.2.2l.1.6c0 .5-.3.7-.8.8-.1-.1-.3-.1-.5-.1h-.6c.3.2.6.2.9.3.4 0 .9 0 1.2-.3.4-.3.4-1 .2-1.4.5-1.4 1.1-2.8 1.5-4.2.5-1.9.4-3.9.3-5.9 0-1.3-.5-5.1-1.3-7.9-.1-.9-.3-2-.9-2.7-.4-.4-.8-.6-1.3-.7l.1-.1zM44.2 18c-.2.3-.5.8-.5 1.1l.6-.7c.3-.4.6-.8.8-1.2.1-.4.3-.9-.1-1.3 0 0-.2-.2-.3-.1v.4l-.1.6-.4 1.2zM32.6 10c.3.2.7.2 1 .1v.2c-.1.5-.4.9-.6 1.3-.1.2-.1.4-.1.6-.1.1-.1.2-.1.3l.1-.1c0 .2.1.4.2.5.3.3.8.4 1.2.5.2 0 .4.1.5.3s0 .5-.1.7-.7 1.3-.3 1.5c.1-.2.2-.4.2-.6l.4-.7c.1-.4.2-.8 0-1.1.4.3.8.5 1.2.7.3.3.5.6.5 1.1 0 .2 0 .5-.1.7-.1.3-.1.5.2.7.4.2 1 0 1.3-.2.2.4 1 .6 1.3.3-.1 0-.2-.1-.3-.2-.2 0-.4-.2-.6-.3-.1-.1-.1-.2-.2-.2-.2 0-.2.2-.1.3l-.7.1c-.1 0-.8 0-.5-.3.2-.5.2-1 .1-1.5-.2-.5-.5-.8-.9-1 .2-.3.4-.6.5-1l1.6 1.4c.3.3.7.6 1.1.7.4.2.8.3 1.2.4.9.3 1.8.4 2.8.3 1 0 2.1-.2 2.5-1.2.3-.7.4-1.5.3-2.3 0-.3-.2-2.1-.7-1.9.2.5.3 1.1.4 1.7 0 .6.1 1.2-.1 1.8-.3 1-1 1.6-2 1.6-.9 0-1.9-.1-2.8-.3-1-.2-1.8-.7-2.6-1.2l-1-.7-.6-.3v-.2c0-.5-.5-1-.7-1.4-.3-.4-.5-.8-.4-1.3s.5-.8.8-1.2c0 0 0-.1.1-.1h.3v.1c.1.3.2.6.4.9l.3.4c.1 0 .2.1.2 0l.3-.1c.2.1-.1.6-.2.7.1-.2.4-.5.3-.7-.1-.1-.2-.1-.3-.1-.2 0-.3 0-.4-.2-.3-.5-.3-1-.5-1.4.1-.1.2-.1.2-.2.1-.1.2-.3.2-.5s-.1-.3-.1-.4c.2-.1.5-.2.7-.4l.6.2c.4.2.7.5 1.1.8.7.6 1.6.7 2.4 1.1.3.2.7.4.9.7l.8.8c-.4-.7-1-1.4-1.8-1.8-.4-.3-1-.4-1.5-.7-.4-.2-.7-.7-1.1-1s-.8-.5-1.3-.6c0-.2-.2-.3-.4-.3h-.3c-.2-.1-.3-.3-.4-.5v-.4c.5.1.9.1 1.3.1.5 0 .9.1 1.3.2l.5.2.1.2c.1.1.5.5.6.3l-.3-.3c.4.2.8.4 1.1.7 0 .2 0 .4.2.6v-.5c.4.3.8.5 1.2.7s.9.3 1.3.4c.1 0 .2 0 .3.1s.2.1.4.1c.1 0 .2.1.4.2s.3.2.5.4c.1.1.1.3.3.4 0-.2-.1-.4-.2-.6h.1c.4.2 1 0 1.4.1.4 0 .8.1 1.2.4.2.1.3.3.3.5s-.1.5 0 .7c.2-.6.3-1.1-.2-1.5-.4-.3-1-.4-1.5-.4h-.7c-.3 0-.3-.1-.3-.4 0-.2-.2-.5-.3-.7-.1-.1-.2-.2-.3-.2-.1-.4-.2-.8-.5-1.1 0-.1 0-.3-.1-.4-.1-.6-.6-.8-1.1-1-.3-.1-.6-.2-.8-.4s-.4-.3-.6-.5-.5-.4-.8-.4c-.1 0-.3 0-.4.1v-.7c.2 0 .4-.1.5-.1.9-.1 1.7.3 2.5.6.6.3 1.3.8 1.5 1.7-.2.1-.3.2-.4.5.1-.1.3-.2.5-.2.2.8.2 1.8.9 2.4.4.3.9.5 1.3.6.2 0 .5.1.8.1l.3.2c.6.7 0 1.9.8 2.6.4.3 1 .3 1.5.4.5 0 1 .1 1.4.1l-1.4-.3c-.4-.1-.9-.1-1.3-.4-.3-.3-.3-.9-.3-1.4s-.1-1-.4-1.4-.7-.6-1.2-.7c-.5-.2-.7-.3-.8-.8s-.1-1.1-.6-1.5c-.2-.2-.5-.3-.7-.3-.1-.4-.2-.7-.5-1-.3-.4-.8-.7-1.2-.9-.8-.4-1.8-.9-2.7-.9-.3 0-.7 0-1 .1-.3-.3-.7-.3-1 .1l-.2.3-.7.3s-.4.2-.7.1l.5-1.3c-.1-.7-1-.3-1.3 0-.4.3-.9.8-1.1 1.4-.3-.2-.5 0-.7.3-.2.2-.4.5-.4.8 0 .4.2.5.6.5-.2-.1-.3-.1-.4-.2v-.3c.1-.3.3-.5.5-.6 0 .2.2.4.3.5v.30000000000000004c-.1 0-.1 0-.2.1-.5.3-.4 1-.1 1.6-.7-.2-1.3.9-1.1 1.6-.1.1-.1.2-.1.3-.1-.1-.3-.2-.3-.4.1-.1.2-.2.2-.4s-.1-.3-.3-.4-.5-.1-.8-.2c0-.2.2-.4.4-.5l.5-.5s.1-.1.1-.2h.1c.1 0 .2-.2.3-.3s.2-.1.3-.1h-.4c.1-.1.1-.2 0-.2-.3-.1-.5.1-.8.2l-.3.1s-.1 0-.1.1c0-.3.3-.5.4-.6l.6-.4c-.3.1-.5.2-.7.4-.2.1-.5.3-.5.5-.2.1-.5.3-.6.6l-.3.7-.1.7s.2.5.3.7.1.4 0 .6c-.3.7-.9 1.7-.2 2.2zm14-5.1c.4.3.4.8.5 1.3s.3 1 .8 1.2l.7.3c-.5-.2-1.1-.3-1.6-.7-.7-.5-.7-1.4-.8-2.2v-.1l.4.2zm-10.6-1.8zm-3.1 6.6c-.4-.2-.2-.6 0-.9 0 0 .1.1.1.2.2.2.4.5.5.7-.2.1-.4.1-.6 0zm1.1 1c.1-.2.1-.5.1-.7v-.2c.2 0 .4-.1.5-.2 0 .2-.2.5-.4.7l-.1.2s0 .2-.1.2zm1.9.6c.3.3.6.6.6 1l-.3-.1.3.3c0 .2-.1.5-.2.7 0 .1-.1.2-.2.4-.4-.2-.9-.5-1.1-.8s-.5-.7-.3-1.1c.1-.2.1-.2.1-.4-.4.2-.7.5-.6 1 .1.4.4.7.7 1-.4-.2-.8-.2-1.2-.5-.3-.2-.2-.6 0-.9.1-.1.1-.2.2-.2-.1.3-.1.6 0 .7l.3-.7s.2-.4.3-.5l.3-.3.6-.6c-.2.2.1.6.5 1zm.6-3.4zm-.2-3.5c.1.2.2.3.4.4-.1.1-.1.2-.1.4v.3c-.1-.1-.1-.2-.2-.4-.2-.2-.3-.6-.1-.7zm2.7.3l-1.6-.1-.3-.1h-.1c.2 0 .3 0 .4-.1l1.1-.3h-1.2c-.2 0-.4 0-.6-.1h-.1l-.1-.1v-.1h.4c.5 0 1.1-.2 1.5-.5.4-.2.9-.3 1.2.1l.3 1.5v.1c-.3-.2-.6-.2-.9-.3zm.5-2zm.7 2.4v-.1l.3.1s.3.1.4.1.2-.2.4-.2c.3-.1.4.2.4.4v.6l-.4-.3-1.1-.6zm5.4 2.5c0 .1 0 .2.1.3-.1-.1-.2-.2-.4-.3.1-.1.1-.3.1-.4 0 .1.1.2.2.4zm-3.9-4.3c.3.3.6.7 1 .9.4.3.8.4 1.2.6-.2 0-.4 0-.5.2-.3.3-.1.8.2 1 0-.2-.2-.9.2-.8.1 0 .2.2.3.3l.2.2v.1c0 .5.3.8.7 1.1v.2c0 .1 0 .3-.1.4l-1.3-.5c-.6-.2-1.2-.5-1.8-.8.1-.5.2-1.1-.2-1.4-.3-.2-.5 0-.7 0s-.4-.1-.6-.2 0-.2.1-.4.3-.4.4-.6.1-.4.2-.6c.2 0 .5.1.7.3zm-1.2-.6c-.1.4-.2.9-.4 1.3 0-.3-.1-.6-.2-.9-.1-.1-.2-.2-.3-.2v-.1c.2-.1.4-.2.6-.2l.3-.1v.2zm-3.1-.9c.2-.2.5-.4.8-.5 0 .2-.1.3-.2.5s-.2.4-.3.7c0 .2 0 .3.1.4-.1 0-.1 0-.2.1-.3.1-.6.3-1 .2l.3-.5c-.1.1-.2.2-.4.3 0-.1-.1-.2-.1-.2.1-.2.2-.3.3-.4.3-.2.5-.4.7-.6zm-1.3 4.1c.1.1.2.3.4.3.2.1.5.2.8.2h.1c-.1.1-.2.1-.4.2-.3.2-.2.5-.1.7 0 .1 0 .3-.2.4-.1-.3-.2-.6-.6-.5h-.1c-.4-.1-.7.3-1.1.3 0-.1.2-.2.3-.3l.5-.5c.2-.1.4-.5.4-.8zm-.5.1c-.1.4-.4.6-.7.8.1-.3.4-.7.7-.8zm-.5 1.9l.6-.3.3-.1c0 .1 0 .3.1.4-.1.4-.5.8-.7 1-.1.2-.2.3-.2.5-.1-.2-.3-.1-.5-.1s-.7-.1-.6-.4c.1-.4.4-.7.6-1v-.1c0 .1.2.2.4.1zm-1.1.4c-.1.2-.3.4-.3.6l-.1-.1c-.2-.2-.3-.5-.3-.7 0-.1.1-.2.1-.4.1-.2.2-.4.4-.6l.3.4c.3.2.1.5-.1.8zm.2-3.6c-.2.2-.5.3-.8.5.1-.1.1-.2.2-.2.2-.2.4-.4.6-.5.1.1.1.1 0 .2zm-1.2 1.3c0 .4.6.5.9.6h.1c-.1.1-.2.2-.2.3l-.5.3-.4-.6.1-.6zM52.1 30.7c-.2-.4-.6-.9-1-1.2h-.1c-.2-.6-.4-1.2-.4-1.8-.1-1-.1-2-.1-3v-1.5l-.1-1.5c0-.9-.2-2-.8-2.6.4 1.9.5 3.9.6 5.8 0 1 .1 2 .3 2.9.1.5.2.9.4 1.3l.1.2c-.1 0-.2-.1-.4-.1-.2-.1-.5-.1-.7 0-.1 0-.2.2-.1.2.1.1.2.1.3.1.2 0 .4.1.6.2.4.2.7.4 1.1.7l.5.6.3.7c-.2-.4-.4-.7-.5-1zM35.9 27.7l-1.5.3c-.8.2-1.5.3-2.4.4h-1.1c-.3 0-.8-.1-1.1.1.8.6 2.1.4 3 .2.5-.1 1-.2 1.5-.4l.7-.3s.5-.2.7-.3c.1.1.1.1.2 0zM34.4 26.5c-.8.1-1.6 0-2.4 0-.4 0-.8 0-1.2-.2-.4-.1-.8-.3-1.1-.3.4.8 1.8 1.1 2.6.9l1.3-.1c.4 0 .9-.1 1.3-.2s.8-.2 1.1-.3c-.5.2-1 .2-1.6.2zM39.9 29.6c.2 0 .4-.1.6-.2 1.3.4 2.6.9 3.8 1.6 1.5.9 3 1.8 4.5 2.6.5.3 1.1.5 1.7.7.2.1.5.2.8.2.2.1.6.2.8.1-1.1-.3-2.1-.7-3-1.3l-4.4-2.9c-.7-.4-1.5-.8-2.2-1.1-.4-.2-.9-.3-1.4-.4.3-.3.5-.7.4-1.2-.4.2-.5.6-.8.9s-.8.4-1.2.5c-.8.2-1.6.5-2.4.8l-1 .3 1.5-.2c.7 0 1.5-.2 2.3-.4zM31.9 19.3l-.3.3c-.1.1-.2.2-.3.4s-.3.4-.5.6c-.3.1-.7.2-1 .4-.2.2-.6.6-.3.9.2-.4.5-.5.9-.7.4-.1.7-.2 1.1-.2.8 0 1.5.7 1.5 1.4.2-.4 0-.9-.3-1.2-.3-.4-.9-.7-1.4-.7.2-.2.4-.4.6-.7l.2-.2c.2.7.8 1.4 1.3 1.9.7.7 1.5 1.3 2 2.1l-.7-.1c-.5 0-1.1 0-1.5.3 1.4 0 2.7.4 4 .8h-.8c-.4 0-.8.1-1.3.1h-.7c-.2 0-.4 0-.7-.1-.2-.1-.5-.2-.6-.2-.3.1.1.4.2.5.3.2.7.3 1.2.4.5 0 1-.1 1.5-.2s1-.1 1.5-.3l1 .3c.9.3 1.9.6 2.8 1l1.4.6 1.5.6 1.3.5.4.3c.2.1.5.2.8.2l.3.1c.8.3 1.6.6 2.5.8-.7-.3-1.3-.6-2-1h-.1c.4-.1.8-.2 1.1-.4-.5.1-1.1.2-1.6.2l-1.3-.6c-.4-.3-.6-.7-.9-1.1-.2-.4-.5-.7-.6-1.1s-.3-.8-.5-1.2c-.1-.1-.1-.2-.2-.4.1 1.2.5 2.5 1.2 3.4l-1.4-.5c-.4-.2-.8-.3-1.2-.4-.4-.2-.8-.4-1.1-.7-.6-.5-1-1-1.5-1.6l-.6-.9-.3-.4-.2-.2c-.1-.1-.1-.1-.3-.1 0 .5.3 1 .5 1.4.3.5.6.8 1 1.2.3.3.7.7 1.2 1l-.7-.3-1.5-.6c-.4-.2-.8-.4-1.2-.5s-.8-.3-1.2-.4l-.4-.1c-.1-.4-.3-.8-.6-1.1-.2-.3-.5-.6-.8-.9-.2-.3-.4-.6-.7-.8l-.3-.4-.3-.5s-.2-.3-.4-.5-.2-.2-.5-.3v.1c-.1-.3-.2-.2-.2-.2zm9.9 6.8h-.2l-.3-.2c.1.1.3.1.5.2z"/></svg>