<svg baseProfile="tiny" xmlns="http://www.w3.org/2000/svg" viewBox="0 0 50 50"><path d="M27.8 27.8c-.6 0-1.2-.1-1.8-.4-.3-.1-.5-.3-.7-.5l-.3-.2c-.1-.1-.2-.2-.3-.2 0 .3.4.6.6.8.3.3.5.5.9.6.6.3 1.2.3 1.9.2.3 0 .7-.1 1-.2h-1.3zm-10-6.9c.9-.9 1.4-2.1 1.9-3.2.1-.1.2-.3.2-.4.1-.1.1-.3.2-.5.1-.1.1-.3.1-.4 0-.1 0-.1.1-.2v-.2c-.2.2-.4.4-.5.7-.2.3-.3.6-.4.8-.3.6-.5 1.2-.8 1.7-.3.5-.6 1.1-1 1.5-.4.5-.9.8-1.4 1.1.6-.1 1.2-.5 1.6-.9zm6.3 18.4c-.4-1-.8-2-1.2-3.1-.4-1-.7-2.1-.9-3.1-.2-1-.5-2.1-.6-3.2-.2-1.1-.3-2.1-.3-3.2s-.1-2.2-.2-3.2c-.1-.9-.1-1.9-.1-2.8l-.1 3.2c0 1.1 0 2.2.1 3.2.1 1.1.2 2.2.3 3.2.2 1.1.4 2.1.7 3.2.3 1.1.6 2.1 1 3.1l1.2 3c.4 1 .9 2 1.4 3 .4.8.7 1.6 1.2 2.3l-1.3-3c-.6-.9-.9-1.8-1.2-2.6zm5.7-.2c-.5-1.3-.8-2.7-.8-4 0-1.2.2-2.3.5-3.3l1-3.2c.3-1 .5-2.1.7-3.2.2-1.1.2-2.2.1-3.2v-.4c0 .5-.1 1-.2 1.6l-.2 1.6c-.1 1.1-.3 2.1-.6 3.2l-1 3.2c-.3 1.1-.6 2.2-.6 3.2 0 1.4.3 2.8.7 4 .4 1.3 1 2.6 1.6 3.8.3.7.7 1.4 1.1 2.1-.6-1.3-1.2-2.5-1.7-3.7-.2-.8-.4-1.2-.6-1.7zm8 7.4c-.5-1.1-1.2-2.1-2.2-3-.5-.5-1-.9-1.6-1.3-.5-.4-1.1-.8-1.5-1.3l-1.2-1.4c-.1 0-.3-.3-.3-.5-.1-.2-.3-.5-.3-.8 0 .3 0 .7.1 1s.3.6.5.8c.4.6.8 1.1 1.3 1.6 1 .9 2.1 1.7 3.1 2.5.9.8 1.6 1.7 2 2.8.5 1.1.7 2.2.8 3.3-.2-1.3-.4-2.5-.7-3.7.1.1.1 0 0 0zm-20.9-4.7c-.6-1.1-1.2-2.2-1.7-3.2-.5-1.1-1-2.3-1.4-3.3-.4-1.1-.9-2.1-1.2-3.2-.4-1-.6-2.1-.7-3.2-.1-.5-.1-1-.2-1.4-.1-.5-.3-1.1-.2-1.7-.2.5-.2 1.1-.1 1.7l.1 1.7c.2 1.1.5 2.2.8 3.2.4 1.1.8 2.1 1.3 3.1l1.5 3.2c.5 1.1 1.1 2.2 1.8 3.1.6 1.1 1.3 2.1 2.1 3.1.4.5.8 1 1.3 1.3-.8-.9-1.5-1.8-2.2-2.8-.5-.4-.9-1-1.2-1.6zm1.4 8.6c.1-.7.3-1.4.4-2.2l.1-1v-1c0-.3-.1-.6-.1-1l-.2-.9c-.1-.3-.2-.6-.4-.9l-.3-.4-.3-.3c-.1 0-.1 0-.2-.1.2.3.3.5.4.8l.4.8c.2.6.3 1.2.3 1.8 0 .7.1 1.3 0 2l-.3 2.1m10.2-28.2c-.2-.2-.5-.4-.8-.5-.2-.1-.5-.3-.8-.4-.3-.1-.6-.2-.9-.2-.3-.1-.6-.2-.8-.3h-.3c-.1 0-.1 0-.2-.1h-.2c.3.5 1 .7 1.6.9l.8.2.8.3c.3.2.6.3.9.6.3.2.4.5.6.8-.1-.5-.4-.9-.7-1.3zm-16.9-17c-.2-.2-.6-.4-.9-.5-.4-.1-.6 0-.9.2-.1.1-.2.2-.3.4l-.3.4c-.1.1-.1.3-.1.5 0 .1 0 .4.1.4h.1c0-.3.2-.6.4-.9.1-.1.2-.2.4-.3.1-.1.2-.2.3-.2.6-.2 1.2.3 1.5.7.1.1.2.3.2.4-.1-.5-.2-.9-.5-1.1zm-1.5 16.4c-.3-1.2-.5-2.4-.7-3.5-.3-1.4-.4-2.7-.4-4v-3.1c.1-1.1.2-2.2.1-3.3l-.1-1.3c0 .7-.1 1.3-.2 2 0 .6-.1 1.2-.1 1.7l-.1 3c0 1.1.1 2.2.2 3.2.1 1.3.4 2.5.7 3.7.3 1.2.5 2.3.9 3.4l.5 1.6.6 1.7c-.4-1.1-.7-2.3-1-3.4-.2-.7-.3-1.2-.4-1.7zm4.3-4.4l-.1-1.9c0-.6-.1-1.2-.2-1.7-.1-.6-.3-1.2-.5-1.7s-.3-1.1-.6-1.6l-.2-.3-.3-.3.2.8.3.7.6 1.8c.2.6.3 1.1.4 1.7.1.6.2 1.2.2 1.8.1.6.1 1.2.1 1.9 0 .3 0 .5.1.8 0 .2 0 .6.1.8-.1-1.1-.1-1.9-.1-2.8zm1.8 3.3c-.2-.5-.4-.9-.6-1.3l-.7-1.3c-.1-.2-.2-.4-.4-.6-.1-.2-.3-.4-.5-.5.1.5.4.9.6 1.3l.7 1.2.7 1.2c.2.4.4.9.7 1.3-.2-.4-.4-.8-.5-1.3zm1.4-10.2l-1-.4c-.3-.1-.6-.2-1-.3l-1.7-.5c-.6-.2-1.3-.3-1.8.2.5-.1 1.1-.1 1.5.1.5.1 1.1.3 1.6.5l2 .6c.6.2 1.2.6 1.8.9-.4-.5-.9-.8-1.4-1.1zm1.7-2.7c-.6-.3-1.1-.6-1.6-.9-.6-.3-1.2-.6-1.8-.8l-1.8-.6c-.6-.2-1.2-.4-1.9-.4.3.1.6.2.9.4l.9.3c.6.2 1.2.4 1.8.7 1.2.3 2.4.8 3.5 1.3l1 .7.5.3c.2.1.3.3.5.3-.6-.5-1.3-1-2-1.3zm15.6-1c0-.6-.1-1.3-.5-1.8-.4-.6-1.2-.8-1.8-.7-.1 0-.3 0-.3.2l1 .1c.3 0 .6.1.8.3.4.4.6.9.7 1.5.1.5.1 1.1.1 1.7-.1-.4 0-.9 0-1.3zm-1.1 13.6c.3-1.1.6-2.3.8-3.3s.4-2.2.5-3.3c.1-1.3.2-2.5.1-3.7 0-.6-.1-1.2-.2-1.8s-.2-1.1-.2-1.7v2l.2 2c0 1.2-.1 2.4-.2 3.5s-.3 2.2-.5 3.2l-.7 3.2-.9 3.2-.2.7c.4-1.1.8-2.1 1.1-3.2-.1-.1 0-.5.2-.8zm-15.8-8.5c.4-.5.9-.9 1.3-1.3.2-.2.4-.4.7-.5l.4-.2c.1 0 .2 0 .2-.1h.2c-.2-.2-.6-.1-.8 0-.3.1-.5.3-.8.5-.5.5-1 .9-1.4 1.5-.2.3-.5.7-.6 1.1.3-.4.5-.7.8-1zm.4 4.1l-.2-1.8v-1.6c0-.1-.1-.1-.2 0s-.1.3-.1.4v1.4c0 .6.1 1.2.3 1.8.1.3.2.6.4.9-.1-.3-.2-.7-.2-1.1zm3.2 0c.5-.5 1-1 1.4-1.6.4-.6.6-1.2.7-2 .1-.3.1-.7.1-1s0-.7-.1-1c-.1.7-.1 1.4-.3 2.1-.2.6-.4 1.3-.8 1.8-.7 1.1-1.7 2-2.8 2.7.7-.3 1.3-.6 1.8-1zm7.7-6.3l-.9-.2h-1c-.6 0-1.2.2-1.7.5-.3.2-.7.3-1 .6-.3.3-.6.7-.6 1.1.4-.5.9-.9 1.5-1.2.6-.3 1.2-.5 1.8-.6.6-.1 1.2-.1 1.8.1l1.8.4h.1c-.6-.3-1.2-.5-1.8-.7zm1.8.7c.4-.3.8-.6 1.1-1l.5-.6c.1-.1.3-.5.3-.6l-.4.3-.3.4-.6.7c-.5.5-1 .9-1.5 1.2l.9-.4zm-3.8 8.6l1.1-1.5c.3-.5.7-1 .9-1.6.3-.6.4-1.2.5-1.8l.1-.9c.1-.3.1-.6.2-1l.1-.9v-.8c-.2.4-.3.7-.4 1l-.2.9-.3 1.8c-.1.6-.3 1.2-.5 1.7s-.5 1.1-.8 1.6c-.6 1-1.4 2-2.1 3l-.3.5-.3.4c.7-.8 1.4-1.6 2-2.4zm3-14c-1.1.3-2.3.7-3.3 1.1-1.1.4-2.1 1-3.1 1.6-.5.3-1 .6-1.5 1-.4.3-1.1.7-1.3 1.2v.2c.2-.6.8-.8 1.3-1.1l1.5-.9c.5-.3 1-.5 1.6-.8.5-.3 1-.5 1.6-.8 1-.5 2.1-.9 3.2-1.2 1.1-.3 2.3-.5 3.3-.5h.2c-1.2-.2-2.4 0-3.5.2zm-3.1 10.1c-.4-1.1-.9-2.2-1.8-2.9l-.6-.3c-.2-.1-.5-.1-.7 0 .3.1.6.1.9.3.3.2.5.4.7.6.4.4.7.9 1 1.4.4.8.7 1.6 1 2.5-.2-.6-.3-1.1-.5-1.6zm-3.5 3.1c-.5-.3-.9-.6-1.2-1.1-.2-.3-.3-.5-.4-.8l-.2-.4-.2-.4c0 .3.1.7.2 1 .1.3.3.7.5.9.4.6 1.1.8 1.7 1 .2.1.4.1.5.2-.2-.1-.6-.3-.9-.4zm1.4.6c-.1-.6-.4-1.1-.8-1.6l-.5-.7-.3-.3c-.1-.1-.2-.3-.3-.3.1.3.3.5.5.7l.6.8c.3.5.7 1 .8 1.6.1.3.1.6.1 1 0-.4 0-.8-.1-1.2zm.9 0c0-.6-.1-1.2-.3-1.8l-.3-.9-.2-.4c-.1-.1-.1-.3-.3-.4l.3.8.3.9.5 1.8v1.1-1.1zm-3.2-11c.2-.1.3-.2.3-.3l.1-.5c0-.3.1-.7-.1-1-.1-.3-.2-.6-.5-.7-.3-.1-.6.1-.9.3s-.8.7-.7 1.1c0-.6.8-1.3 1.3-1.2.2 0 .3.1.3.3 0 .1.1.3.2.4.1.2 0 .3 0 .5v1.1c-.2.1-.2.3 0 .3.1 0 .2-.2.3-.3.2-.2.4-.3.5-.4.1-.1.2-.2.3-.1.1 0 .1.2.1.3 0-.1 0-.3-.1-.3s-.3.1-.4.2c-.1.1-.2.1-.4.2l-.3.1zm-1.9-.7c.1-.1.8-.2.4-.4-.1-.1-.3.1-.4.1h-.3c0-.3.4-.5.6-.5.3-.1.6 0 .9.1-.3-.3-1-.3-1.3-.1-.2.1-.5.4-.3.6.1.1.3.1.4 0l.3-.1v-.1c-.1.1-.2.1-.4.1l-.3.2c-.2.3-.4.5-.5.7.2-.2.6-.4.9-.6zm-3.6 13.2c-.2-.6-.4-1.2-.2-1.9s.7-1.3 1-1.9c.3-.6.4-1.3 0-1.9-.3-.5-.7-1-1.1-1.4-.1-.1-.3-.3-.4-.5-.1-.1-.1-.2-.2-.2v-.3c0-.2.1-.4.3-.5.2-.2.4 0 .5.2-.1-.1-.1-.3-.3-.3-.1 0-.3.1-.3.2-.1.1-.2.3-.2.4 0 .2 0 .3.1.4.3.5.8 1 1.1 1.4.4.4.6.9.6 1.5-.1.7-.5 1.3-.8 1.9-.3.6-.5 1.3-.4 2l.3.9c.1.4.1.7 0 1-.1.7-.5 1.4-1 1.9.4-.4.7-.9.9-1.4.1-.3.2-.5.2-.8l-.1-.7zm1.7 0c.2-.8-.8-.8-1.2-1.3-.2-.2-.1-.6 0-.9s.2-.5.4-.8l.2-.3.1-.3c-.2.2-.4.4-.6.7-.2.2-.4.5-.4.8-.1.3-.1.7.1.9.2.2.5.3.8.5.1.1.3.1.4.3.1.2 0 .4 0 .6-.1.3-.4.7-.6 1l.8-1.2zm8.4-5.3c.1-.3.4-.6.6-.8.2-.3.4-.6.5-1 0-.1.2-.3 0-.4l-.5-.2c-.1 0-.4 0-.5-.1-.1-.1-.1-.3-.1-.4 0-.4.4-1.4-.1-1.6.5.4 0 1.2 0 1.8 0 .2 0 .3.2.4.2.1.3.1.5.1.1 0 .4.1.3.2l-.2.5c-.2.3-.4.5-.6.7-.2.2-.4.5-.5.8-.2.6.4 1.2.4 1.8 0-.3-.1-.6-.2-1 .1-.3 0-.6.2-.8zm.8.1l.6-1.7.2-.9c0-.4-.1-.7-.3-1l-.3-.4c-.1-.1-.2-.3-.3-.3.2.3.4.5.5.8.1.3.2.6.2.9 0 .7-.3 1.3-.5 1.9-.3.7-.6 1.4-.3 2.2-.1-.5 0-1 .2-1.5zm-9 .7c-.1-.5-.1-1-.1-1.5v-1c0-.1.1-.3 0-.4-.2.2-.2.5-.2.7l-.1.8c0 .5 0 1.2.3 1.7.1.3.3.5.7.4-.4 0-.6-.4-.6-.7zm1.1.2l.6-.5c.2-.2.3-.4.4-.6.1-.1.4-.5.2-.7-.1-.1-.2.3-.2.3l-.3.4c-.2.3-.4.6-.7.8l-.6.6.6-.3zm6.4 3.3c.1-.5.1-1.1.1-1.6l-.3-1.5-.2-.7c0-.1-.1-.2-.2-.3l-.2-.3c0 .2.1.5.2.7l.2.7.3 1.5c.1.9 0 1.9-.3 2.8l.4-1.3zm-10.3 10.4c-.5.3-1 .4-1.6.3-.3 0-.6-.1-.8-.1-.3-.1-.5-.2-.7-.3-.1-.1-.3-.2-.4-.1.1.2.4.4.6.5l.8.3c.6.1 1.2.1 1.7-.1.6-.2 1-.7 1.4-1.2-.3.3-.6.5-1 .7z"/></svg>