<svg xmlns="http://www.w3.org/2000/svg" viewBox="16.9 -0.1 22 24" enable-background="new 16.9 -0.1 22 24"><path d="M27.7 8.2v-.1h-.1v1l-.1 1.3c0 .1 0 .3.2.2.1 0 .2-.2.2-.3l-.1-.6-.1-1.3v-.2zm-6.3 14.2v-.1c0-.3 0-.6-.1-.8-.1.4 0 .9 0 1.3m10.9-7.5c-.3-.2-.3-.4-.3-.7-.4 1.1 1.4 1.1 2 1.1.8 0 1.8-.1 2.6.2.9.3 1.2 1.3 1.2 2.2 0 .8-.1 1.7-.2 2.5v.4c0 .1 0 .2.1.3.4-.3.4-.8.5-1.3.1-.4.1-.8.1-1.2l-.1-1.2c-.1-.5-.2-1-.6-1.4-.6-.7-1.7-.7-2.6-.6h-1.3c-.5 0-1-.1-1.4-.3zm5.1 7.3c.1-.2.1-.5.1-.7m-3.3-.9l.4-.6c-.3.3-.6.7-.8 1.1l-.6 1.2m-15.1-.5c.1-.6.1-1.3.2-2 0-.3.1-.7.2-1-.2.4-.2.9-.3 1.3l-.1 1.4m13-9.6v-.2c-.1 0-.1.1-.1.2l-.1.6c0 .4 0 .9.1 1.3 0 .2.1.4.2.6.1.1.3.4.5.3.1-.1 0-.4-.1-.5l-.3-.4c-.1-.7-.3-1.3-.2-1.9zm-5.5-.2l-.3-.4c.3.8 1.1 1.5 1.9 1.9.4.2.8.4 1.3.4s.9-.3 1.3-.5c.6-.5 1.2-1.2 1.5-1.9-.6.7-1.1 1.5-1.9 2.1-.8.6-1.7.2-2.4-.2l-1.4-1.4zm.1.9c0-.3-.1-.5-.2-.8.1.4.3.8.1 1.3-.2.4-.5.7-.9 1-.8.5-1.7.8-2.6 1-.8.1-1.8.1-2.6.6s-1.1 1.4-1.4 2.3l-.4 1.2c-.2-.1.1-1.1.1-1.3.1-.5.3-.9.5-1.3.5-.8 1.3-1.3 2.2-1.5.9-.1 1.8-.2 2.7-.5.8-.3 1.9-.7 2.1-1.6.4-.2.4-.3.4-.4zm1.2 4.5c-.1 0-.3-.1-.2 0l.2.1c.2.1.4.3.7.3.5 0 .7-.5 1.2-.6.1 0 .5 0 .5-.2s-.3-.4-.5-.3c-.3 0-.3.2-.5.4-.2.1-.3.3-.5.5-.3.2-.7-.1-.9-.2zm-.8-4.1c0-.1 0-.3-.1-.4-.2.2.2.9.3 1.1.2.4.5.7.6 1.2.1.4.1.9.1 1.3v.6c0 .1 0 .6.2.4.1-.1.2-.4.2-.6v-.6c-.1-.4-.1-.8-.3-1.2-.1-.6-.8-1.1-1-1.8zm-.2-10.2c.1-.3.2-.7.4-1-.5.6-.7 1.7-.5 2.5.3.9 1.1 1.4 1.9 1.8.7.4 1.6.7 2.3 1.3.7.6 1.3 1.4 1.7 2.3.2.5.2 1.1.2 1.6 0 .3 0 .6-.1.8l-.1.4v.4c.4-.3.6-.9.7-1.3.1-.5.1-1-.1-1.6-.2-.4-.5-.8-.8-1.2-.3-.4-.6-.8-.9-1.1-.7-.6-1.5-1-2.3-1.4-.7-.4-1.6-.8-2.1-1.5-.4-.6-.5-1.4-.3-2zm-.3 1.2l.3-.5c-.1.2-.2.4-.3.5-.2.2-.4.5-.5.7-.3.5-.5.9-.7 1.5-.3 1-.6 2.1-.5 3.1 0 .5.1 1 .4 1.5.1.1.1.2.2.2h.1v-.2c0-.2-.1-.4-.1-.7l-.3-1.4v-.7c0-.3 0-.5.1-.8.3-1.1.7-2.2 1.3-3.2zm-.1-1.6c0-.5 0-1 .2-1.4-.4.8-.3 1.8 0 2.6.3.9.9 1.6 1.7 2.1.8.5 1.7.7 2.7 1 .9.3 1.8.6 2.6 1 .9.4 1.7.8 2.4 1.4.3.3.6.6.8 1 .2.4.2.8.1 1.3-.1.4-.3.8-.6 1.2l-.3.5-.3.5c.7-.6 1.6-1.5 1.7-2.5.2-1.1-.6-1.9-1.4-2.5-1.6-1.1-3.4-1.6-5.2-2.2-.9-.3-1.8-.6-2.6-1.1-.8-.5-1.3-1.3-1.6-2.2-.1-.2-.2-.4-.2-.7zm0-1.4c.3-.2.6-.3.9-.4-1.7.3-3 1.9-3.6 3.5-.6 1.8-.4 3.9.4 5.5.2.4.5.8.8 1.2.3.3.6.7 1 .9-.3-.3-.6-.6-.8-1l-.6-1.2c-.2-.4-.4-.8-.5-1.2-.2-.4-.2-.9-.3-1.3-.2-1.8.2-3.5 1.3-4.9.5-.4.9-.8 1.4-1.1z"/></svg>