<svg baseProfile="tiny" xmlns="http://www.w3.org/2000/svg" viewBox="0 0 50 50"><path d="M17 23.6c1.9-2.2 3.6-4.8 5-7.5.6-1.3 1.3-2.7 1.7-4.1.4-1.3 1-2.9 1-4.3.1-1.2-.1-2.2-.4-3.2.4 1.4.4 3 .1 4.3l-1.3 4.4c-.4 1.3-1.2 2.7-1.8 3.9-.7 1.3-1.5 2.6-2.4 3.7-1.7 2.4-3.6 4.7-5.8 6.7l-.6.6c1.5-1.2 3.1-2.8 4.5-4.5zm-5.8 3c2.1-2.2 4-4.6 5.6-7.1 1.7-2.6 3.2-5.2 4.6-7.9 1.3-2.5 2.1-5 2.2-7.9-.2 3.1-1.6 5.8-3 8.5s-2.9 5.4-4.6 7.8c-1.7 2.5-3.5 4.9-5.7 7.1-1.7 1.8-3.6 3.4-5.5 5.1 2.4-2 4.6-3.7 6.4-5.6zm4.6-3.3c1.8-2.5 3.3-5.1 4.8-7.8l1.9-4.1s1.3-2.7 1.6-4c.4-1.2.5-2.2.5-3.2 0 1.5-.5 3-1.2 4.3l-1.7 4c-1.2 2.8-2.7 5.5-4.3 8s-3.4 4.9-5.1 7.5c-.2.2-.3.4-.4.6l3.9-5.3zm13.9 21.8l1.3-4.2c.7-2.9 1.5-5.8 2-8.7.4-2.9.7-5.8.6-8.8-.2-3-.5-5.9-1.8-8.7-1.3-2.7-3.1-5.1-5.1-7.4-1.5-1.7-3.1-3.2-4.8-4.9 2.1 2.1 4.2 4.3 6 6.6s3.4 4.9 4.4 7.7c.4 1.3.6 2.8.9 4.2.2 1.4.3 3 .2 4.4-.1 3-.4 5.9-1.1 8.9-.5 2.9-1.3 5.8-2.1 8.5m3.7-7.4c.7-2.9 1.3-5.9 1.5-8.9.1-3 0-5.9-.6-8.8s-1.9-5.8-3.5-8.1l-4.6-5.8c1.7 2.4 3.7 4.7 5.1 7.4 1.3 2.6 2.6 5.4 3 8.2.4 3.1.5 6.2.2 9.3-.4 3.1-1.1 6-1.8 9-.6 2.7-1.5 5.2-2.2 7.9 1-3 1.9-5.9 2.8-9-.2-.5-.1-.8.1-1.2zm4.2-1.9c.3-2.9-.2-5.9-1.3-8.6-1.2-2.9-2.8-5.4-4.9-7.6-2.2-2.1-4.7-4-7.1-5.8-1.2-.9-2.4-1.8-3.4-2.9l-3-3.3c-.6-.9-1.4-1.6-2-2.6.5 1.4 1.6 2.5 2.5 3.6.9 1.2 1.8 2.2 2.9 3.2 2.2 2.1 4.8 3.7 7.2 5.8 2.2 1.8 4.5 4 5.9 6.5 1.5 2.7 2.6 5.7 2.9 8.7.3 3.1-.3 6.2-1.1 9.1-.4 1.9-1.1 3.9-1.7 5.8 1-2.9 1.9-5.8 2.6-8.6.2-1.1.4-2.2.5-3.3zm-27.4-5.4c2-2.2 3.9-4.5 5.4-7.1s2.9-5.2 4-8.1c.7-2 1.3-4.1 1.8-6.2-.7 2.9-1.9 5.7-3.1 8.5-1.2 2.8-2.6 5.4-4.3 7.8-1.6 2.5-3.6 4.8-5.8 7-1.2 1.3-2.2 2.4-3.5 3.6 2-1.9 3.8-3.7 5.5-5.5zm4.5-3c2-2.2 3.7-4.7 5.4-7.3 1.6-2.6 3.1-5.1 4.2-7.9.6-1.5 1.3-3.1 1.9-4.7-1.2 2.9-2.6 5.6-4 8.4-1.3 2.7-3 5.2-4.7 7.6-1.7 2.4-3.6 4.6-5.6 6.7l-2.1 2.5c1.7-1.7 3.3-3.5 4.9-5.3zm-1.8 6.7c1.6-2.6 3.1-5.1 4.4-7.8 1.3-2.8 2.5-5.6 3.3-8.5.4-1.4.7-3 1.1-4.5.3-1.4.5-3 .4-4.4-.1-1.3-.4-2.4-1.3-3.4.9 1.2 1.1 2.7 1 4.1-.1 1.5-.4 3-.7 4.4l-1.2 4.4c-.4 1.4-1 2.9-1.5 4.3-1.2 2.9-2.5 5.6-4 8.2-1.4 2.6-3 5.1-4.6 7.7-.7 1.3-1.5 2.4-2.2 3.5 1.7-2.5 3.4-5 5-7.6 0-.2.2-.3.3-.4zm14.3 14.6l2-4c1.3-2.8 2.5-5.6 3.4-8.5 1-2.8 1.7-5.8 2-8.7s.1-5.9-.6-8.8c-.7-3-1.9-5.8-3.3-8.5-1.2-2.2-2.4-4.2-4-6.2 1.9 2.4 3.1 5.1 4.4 8 .5 1.3 1.2 2.8 1.6 4.2.4 1.3.9 2.8 1.3 4.2.5 2.9.5 5.8.1 8.6-.4 3.1-1.3 6-2.4 9-1.1 2.9-2.2 5.6-3.6 8.4m-.1-22.2c1.9-2.2 3.3-4.7 4-7.6.6-2.9.3-5.8-.5-8.6-.4-1.3-1-2.5-1.6-3.5-.7-1.2-1.5-2.2-2.6-3.2 1.2 1.1 1.8 2.4 2.6 3.6.6 1.3 1.2 2.7 1.6 4 .9 2.7 1 5.8.3 8.5-.7 3-2.5 5.5-4.5 7.6-1.5 1.6-3.1 3.1-4.9 4.5 1.7-1.7 3.7-3.4 5.6-5.3zm2 .2c1.7-2.4 3.1-4.9 4-7.8.7-2.8 1.1-5.9 0-8.6-.4-1-.9-2-1.4-2.9-.5-.9-1.3-1.6-1.9-2.6l2.4 3.7c.5 1.3 1.2 2.9 1.3 4.3.3 2.9-.4 5.8-1.4 8.5-1.1 2.8-2.8 5.2-4.7 7.6-1 1.3-2 2.2-3.1 3.4 1.6-1.8 3.2-3.6 4.8-5.6zm3.6 17.9c.6-2.6 1.3-5 1.6-7.6.3-2.6.5-5.1.4-7.7-.1-2.9-.4-5.7-1-8.5-.5-2.9-1.4-5.7-2.7-8.4-.4-1.1-1.1-2.1-1.7-3.1s-1.4-1.8-2.2-2.8c1.8 2.2 3.1 4.8 4.1 7.5.4 1.3.9 2.8 1.3 4.2.4 1.3.7 2.8 1 4.2.4 3 .7 5.9.6 8.9-.1 3-.4 5.9-1.1 8.8-.4 2.6-1.1 5-1.8 7.6-.6 2.5-1.5 4.9-2.2 7.5l-.4 1.3c.9-2.5 1.8-4.9 2.6-7.6.7-1.4 1.1-2.8 1.5-4.3zm-3.7-20.8c.4-1.4.7-3 .9-4.5.1-1.3-.1-2.7-.3-4-.5-2.6-1.4-5.2-2.8-7.6-.7-1.2-1.6-2.1-2.6-3 1.1 1.1 1.8 2.2 2.5 3.6l.7 1.8c.3.5.5 1.3.7 1.8.4 1.3.6 2.6.9 3.9.2 1.4.3 2.9.2 4.3-.3 3.1-1.3 6-2.7 8.7l-.4.7c1.2-1.9 2.2-3.7 2.9-5.7zm-20.6 4.9c2.8-1.4 5.4-3.1 7.7-5 2.2-1.9 4.2-4.2 5.8-6.6 1.5-2.4 2.8-5.1 3.1-8 .1-.5.2-1.2.3-1.8-.4 1.4-.4 3-1.1 4.3-.6 1.3-1.3 2.5-1.9 3.7-1.3 2.6-3.1 4.8-5.1 6.7-2.2 2.2-4.7 3.9-7.3 5.5s-5.4 3-8.2 4.2l-1.3.5c2.7-1 5.5-2.1 8-3.5zm19.4-19.9c-.4-.7-.7-1.4-1.3-2.1.4.6.6 1.2 1 1.9.3.5.5 1.3.7 1.9.4 1.3.9 2.7 1.2 4 .7 2.9 1.4 5.8 1.5 8.8 0 2.8-.4 5.6-1 8.2l-.6 3c-.2 1.1-.5 2.1-.6 3.1l.9-1.9c.3-.6.4-1.3.6-2 .4-1.3.6-2.7.9-4 .4-2.8.5-5.7.3-8.5-.3-3-1.3-5.8-2.1-8.6-.5-1.3-.8-2.6-1.5-3.8zm7.1-.5c-.2-.6-.4-1.3-.6-2 .9 2.8 1.4 5.8 1.2 8.6-.3 3-1.3 5.8-3 8.5-1.6 2.5-3.6 4.7-5.8 6.7-.3.3-.4.4-.5.7 2.5-1.8 4.4-4.1 6.1-6.6 1.6-2.2 2.9-5 3.2-7.8.3-2.7 0-5.5-.6-8.1zm-8.3 34.7c0-.3-.1-.6-.2-1 .1 1.3 0 2.7 0 4.1.1 1.4.2 3 .4 4.4.1.9.3 1.6.5 2.4l.4 1.2s.4.7.7.9l-.5-2c-.3-.6-.5-1.3-.7-2.1-.4-1.5-.5-3.1-.6-4.5v-3.4zm-3.4-20.4c-.2.2-.3.4-.4.6.9-1.2 2.2-2.1 3.5-2.6 1.4-.5 2.8-.6 4.3-.5h.6c.3 0 .3 0 .5-.1l-.4-.4-.5-.2c-.4-.1-.6-.1-1.1-.1-.6.1-1.4.2-2.1.4-1.3.4-2.8 1.1-3.9 2l-.5.9zm.1.9l-.3.2c.5-.3 1.3-.4 1.9-.4.6 0 1.4 0 2.1-.2.3-.1 0-.2-.2-.2h-.4c-.3.1-.6.1-1 .1-.6-.1-1.4 0-2.1.5zm-.7-.4c0 .2 0 .4.1.5.1-.6.3-1.3.6-1.9.3-.6 1-1.1 1.5-1.3.5-.4 1.3-.5 1.9-.7.2-.1.4-.1.4-.2.3-.1.3-.1.4-.3 0 0-.3-.3-.4-.3h-.5c-.4 0-1 .4-1.3.6-.4.3-.9.5-1.3 1-.7.7-1.4 1.6-1.4 2.6zm-.1 6.6c-.2 0-.2.1 0 0 .1.1.4-.1.5-.2.2-.1.5-.2.4-.4 0-.1-.2-.2-.3-.1-.1 0-.1.2-.2.3l-.4.4zm-2.7.6c0 .2.6.3.6 0 0-.2-.1-.3-.2-.2l-.4.2zm2.7 5.8c-.1 0-.2.5 0 .5.1 0 0-.2 0-.2-.2-.1-.2-.1 0-.3zm.5 0c0 .1.1.5.2.6 0-.1-.1-.4-.2-.6zm.8-.2v.3c.2-.1 0-.2 0-.3zm-4 .4l-.4.3 2-.7c.6-.3 1.4-.4 2.2-.5.6-.1 1.4 0 2.1-.2.1 0 .4-.1.4-.2s.1-.2 0-.2l-.3-.2c-.2-.2-.7-.1-1-.1l-2.5.5c-.9.4-1.8.8-2.5 1.3zm-1.2.6c0 .2.4 0 .5 0 .2 0 .5 0 .5-.3 0-.1-.1-.2-.2-.2l-.2.2c-.3-.1-.5.1-.6.3zm.6-.4c-.2.1-.4.2-.4.3.6-.2 1.4-.3 2.2-.4l2.1-.2c.6-.2 1.3-.4 2-.7.2-.1.9-.4.9-.5v-.3c-.1 0-.2 0-.4-.1l-.6.2-1.3.7c-.4.2-1 .4-1.5.4-.9.3-2 .3-3 .6zm6-1.8c0 .1 1.4.4 1.4.2.2-.4-.4-.2-.5-.2-.3.1-.5 0-.9 0zm-3.7 3.3l-.3.2 2-.1c.6 0 1.4-.3 1.9-.6.1-.1.3-.3.1-.4-.3-.1-.3-.1-.5-.1l-.7.5c-.6.3-1.4.2-2.1.4-.2.1-.3.1-.4.1zm2.6-1.9l.4.4c.2-.1-.4-.4-.4-.4zm.8-.3c0 .2.2.4.4.5.1.1-.1-.1-.1-.2l-.3-.3zm-2.3.6s0 .9.2 1c.1 0-.2-.9-.2-1zm.4 0c0 .3 0 .5.1 1 0-.2 0-.7-.1-1zm.3-.2c0-.1-.1-.1 0 0-.2 0-.1.4-.1.4 0 .2-.1.5.2.6.4 0 .1-.4.1-.4-.1-.3-.1-.5-.2-.6zm-2.3 1.7c-.1.2.3.3.4.3.2.1.4.3.5 0v-.3h-.3c-.3.1-.4 0-.6 0zm4.3-16.3c-.1-.1-1.1.6-1 .9s.4-.3.4-.4c.2-.1.4-.2.6-.5zm0 .4c-.1.1-.4.4-.4.6.2-.1.3-.5.4-.6zm1-.2c-.1 0-.4.4-.3.5.1.2.1-.2.2-.2-.1 0 0-.1.1-.3zm-3.7-2.6c-.2.2-.4.4-.5.6l.7-.5.9-.4c.6-.2 1.4-.4 2.1-.4 1.4-.2 3-.3 4.4-.4.7-.1 1.4-.2 2.1-.4l.5-.2c.3-.1.3-.2.3-.4 0-.1-.4-.2-.4-.2h-.5c-.4 0-.6 0-1.1.1-.4.1-.6.2-1.1.4-.6.3-1.3.3-2.1.4-1 .2-1.9.3-2.8.5s-1.9.2-2.5.9zm.1 9.9c-.4.1 0 .4.2.3.3 0 .5-.3.4-.5-.1-.3-.4-.3-.6-.2-.2.1-.4.3-.2.4.1.1.2.2.4.2.1.1.1 0 .2 0-.1 0-.1-.2-.1-.2l-.1-.1c.1.1-.1.4-.2.1zm-2.8 1c0-.1-.3-.1-.2.1s.4.2.5.2 0-.2-.1-.2l-.2-.1zm6.1-9.2c-.3-.3-.3.1-.4.4l-.1.6c0 .1.1.3.2.3.2 0 .2-.1.3-.2.2-.2.3-.4.4-.4h-.3c.1-.3-.3-.4-.1-.7zm-.4.2c0-.1.1-.2.2-.2-.2 0-.3.4-.3.4.1.3.4.5.6.6.5.1 1.3-.6 1.2-1.3 0-.2-.1-.3-.3-.1 0 .1 0 .3-.1.3-.1.3-.2.4-.4.6-.2.1-.4.2-.6.1-.2.1-.3-.2-.3-.4zm1.4-.7l-.1-.2c-.1.4.3.7 0 1.2-.1.3-.6.2-.6.4l.4.2.4-.3c.3-.4.1-.9-.1-1.3zm.1.2v-.2c0 .3.1.6-.1.9-.1.1-1 .4-.9.5.1.4.7-.2 1-.3.2-.3.1-.5 0-.9zm-.1.9c-.1.1 0 .2-.3.3-.2 0-.6-.1-.5.2.1.3.4.1.6 0 0 0 .2-.2.2-.5zm-1.2-.1c0-.1-.1-.2 0-.2-.4.4.2 1.1.5 1.1.5.1 1.4-.4 1.4-1.1 0-.3-.3-.6-.5-.4-.1.1-.1.3-.1.3 0 .1.1.2 0 .3-.6.7-1.2.7-1.3 0zm.5-.8c-.2 0-.2.2-.3.4-.1.1-.2.2-.1.4.2.3.4 0 .5-.1-.1.3-.4 0-.4-.3-.2.2-.3.4-.1.7.2.3.5-.2.7-.2-.3-.2 0-.4-.2-.6-.2-.2-.4.1-.4.2.1 0 .1 0 .1.1.2-.2.3-.4.2-.6zm.2 0c-.2.1 0 .2.1.2s.3 0 .4.1c.2.1.4.3.5 0 0-.1.1-.2 0-.3h-1zm.3-.3c-.1.1.3.2.2 0 0 .1-.2.1-.2 0zm.8.2l-.2-.4c.3.4.4 1.3 0 1.8-.4.4-1.2.6-1.6.3-.1-.1-.2-.2-.4-.3l-.3-.3c-.2-.1-.3 0-.3.2s.1.4.2.5c.3.4 1.2.5 1.7.4 1-.1 1.3-1.4.9-2.2zm-7.3 21.9c-.2 0-.5 0-.7.2.2.2.6.1 1 .1s.7.1 1.2.2c.6.1 1.4.2 2.1.2.6 0 1.3-.3 2-.5.6-.3 1.4-.6 2-1.3l.7-.9.3-.4c-.1-.2 0-.4-.4-.4s-.7.3-1.1.4c-.3.2-.5.4-.7.6-.2.3-.4.5-.6.7-.3.2-.5.4-.9.4-.6.4-1.3.4-2 .5h-2.9zm3.8-21.6c.2-.1 0-.4-.1-.4-.2 0-.4.3-.4.4l-.3.5c-.1.2-.2.4-.3.4-.1.1-.3.4-.2.5l.2.3c.1.1.2 0 .3 0 .4-.1.9-.2 1.2-.4-.1 0-.4-.2-.4-.3 0 0 .1-.1.1-.2l-.1-.2c-.3-.1-.3-.3 0-.6zm-.6 1.3c-.1.1-.2.3-.1.4.1.2.4 0 .4-.2.2-.3.4-.5.6-.7.5-.4 1.2-.6 1.9-.6.4 0 .6 0 1.1.1h.4c.2-.1.4-.2.4-.3.2-.1.2-.1.2-.3 0-.2 0-.4-.1-.5-.1-.2-.2-.3-.4-.4.1-.1-.3-.1-.4-.1-.4-.1-.6.5-1.1.5-.4 0-1 .2-1.3.4-.8.3-1.1.9-1.6 1.7zm-4.7 14.4c.1.2 1.3-.1 1.3-.3 0-.1-.1-.3-.2-.2-.1 0-.2.1-.3.2-.1.1-.5.2-.8.3zm6.3-1.7h-.2c.2.2.4.2.5.2h1.4c.1 0 .2 0 .3-.1.2-.1.1-.1.1-.3 0-.2-.1-.3-.3-.3l-.4.4c-.4-.1-.8 0-1.4.1zm4.4-13.6l.2-.2c-.2.1-.4.3-.5.4l-.6.5c-.3.2-.5.3-.7.4-.1.1-.6.3-.6.4 0 .5 1.2-.4 1.3-.4.1-.2.6-.7.9-1.1zm-1.6-1.1l-.3-.1c.5.3 1.2.4 1.7.6.3.1.5.2 1 .2.2 0 .7.1.9-.1-.4-.3-1.2-.1-1.6-.2-.6-.1-1.1-.2-1.7-.4zm.3-.1c-.1 0-.2 0-.3-.1.2.4 1.1.6 1.5.7l.9.3c.2.1.3.1.4.1.1 0 .3 0 .4-.2.2-.3.1-.5-.2-.6h-.9c-.7.1-1.2.1-1.8-.2zm-9.5 16c-.1.1-.3.2-.3.3.2.1.5-.4.7-.4l.7-.7c.4-.4.9-1 1.4-1 .3 0 .6.1 1 0s.4-.3.6-.5c.2-.3-.2-.5-.4-.7-.3-.2-.4.1-.7.2 0 .2-.4.4-.7.4-.4.1-.6.3-.9.5-.3.7-.7 1.4-1.4 1.9zm-.5.5c-.2-.1-.2.3.1.2l.5-.1c.2-.1.4-.1.6-.1.1 0 .4 0 .4-.2 0-.1-.1-.5-.2-.5-.3-.1-.3 0-.4.3l-.2.1-.3.2-.5.1zm7.5-2c0 .2.4.1.5.1.3 0 .5 0 .5-.3 0-.1-.1-.2-.2-.2l-.2.2-.6.2zm-6.2-14.4l-.3-.6 1.1 4.5.4 2.2c.2.7.4 1.4.5 2.1.1.2.1.3.2.4.1-.6 0-1.4-.2-2.1-.2-.6-.4-1.3-.5-2.1-.4-1.6-.8-3-1.2-4.4zm4 7h-.2l.3.2c.1.1.2.4.2.4 0 .2-.1 1.1.2 1.1.4 0 .1-.7.1-1s-.1-.5-.6-.7z"/></svg>