<svg baseProfile="tiny" xmlns="http://www.w3.org/2000/svg" viewBox="0 0 50 50"><path d="M19.7 10.9c.8-.1 1.8-.3 2.6-.2.5.1.7 0 1.1-.1.4-.1.8.1 1.1.4s.7.6.9.9l.3.6v.5c-.8-.2-1.3-1-2-1.3-.8-.5-1.7-.6-2.5-.5-.7 0-1.5.1-2.4.1-.7.1-1.4.1-2.1.1l.6-.1c.9-.1 1.7-.4 2.4-.4zm16.1 5.7c-.3-.2-.3-.4-.8-.3-.4.1-.6 0-1 0-.7-.1-1-.1-1.8.1 0-.9.9-1.4 1.8-1.3.9.2 1.7.7 2.4 1.2 1.2.5 2.7 2.4 2 3.8v-.6c-.2-1.5-1.3-2.3-2.6-2.9zm-4.7 3.4l.2 1.7c.1.4.1 1.3-.4 1.5.1-.6-.1-1.2-.1-1.8 0-.7-.1-1.3-.1-1.9-.1-1.2.5-2.7 1.6-3.4l-.3.3c-.9 1-1 2.3-.9 3.6zm-4.1 3.9c.1.4-.5 0-.7 0s-.7.1-.7 0c-.2-.3.4-.3.4-.4.6-.1 1.8-.1 1.9.7l-.1-.1c-.2-.4-.6-.1-.8-.2zm3.4 1c.5 0-.3.5-.5.8 0 .1-.3.4-.4.4-.2 0 .1-.5.1-.6.2-.7.5-1.3 1.2-1.3l-.1.1c-.1.2-.1.5-.3.6zm1.4.1c0 .3-.4 1.3-.8.8.9-.6.6-1.7.8-2.5v.2c-.1.4-.1 1 0 1.5zm-7.4-1c-.3-.5 1-2.1 1.7-1.8h-.2c-1 .1-.8 1.4-1.5 1.8zm4.8.4c-.3-.2-.9-.4-.7-.9.3.3.6.7 1.1.7.5 0 1-.3 1.4-.3l-.2.1c-.4.2-1 .5-1.6.4zm-1.7 5.2c-.4.1-.9-.4-1-.3-.6.4-.5-1.6-.4-1.8l.9 1.4c.5.4 1 .1 1.8 0l-.3.2c-.2.2-.7.6-1 .5zm-2.2-.7c-.4.2-.8.4-1.1.4-.2 0-.1.2-.4.3l-.5.2c-.4.1-.8 0-1.2 0 .5-.8 1.5-.7 2.2-.9s1.4-.7 1.7.1l-.2-.3c0-.3-.3 0-.5.2zm3.3.9l.3.4c.1.2.2.3.3.4.3.5-.2 1.1-.8.9 1-.7-.2-1.8-.6-2.7l.2.1c.3.4.6.7.6.9zm1.2-.6c-.3-.6-1-1.1-1-1.9.9.5 1.3 1.4 1.5 2.3.3.5.6 1.8 0 2.5v-.3c.3-1-.2-1.8-.5-2.6zm-3.2-2.6l1.1.7c.3 0 .8-.1 1.2 0-.1.1-.1.1-.2.1-.6.2-2.1.2-2.1-.8zm-2.8 1l-1.2.8-1.1.5c.2-1.1 1.6-1.5 2.6-1.9.6-.3 2.7-.7 3 .1-.1-.2-.3-.3-.4-.3-1-.1-1.9.4-2.9.8zm3.8 3.7c-.8-.1-1.5-.3-2.3-.6l-1-.3-1-.1c-.6-.2-1.7-.6-1.6-1.3.5.4 1.4.6 2.1.7l2.2.8 2.1.7c.7.2 1.6.6 1.6 1.4-.1-.2-.2-.4-.3-.5-.3-.6-1.1-.7-1.8-.8zm-6.5-16.1c-.7-.2-1.3-.1-2 0-.7 0-1.3.2-2-.2 1.5-1 2.9-.6 4.5-.2.7.3 1.4.6 2.1 1.1.5.4 1.6 1.3 1.4 1.9l-.3-.5c-.9-1.4-2.2-1.8-3.7-2.1zm-.9 2.1l-1.7-.6c-.3-.3-1.4-.9-1.1-1.3 1.1.5 2 1.6 3.2 1.9 1.2.4 2.7.1 4 .6-.1.1-.4.1-.5 0-1.2-.2-2.6-.3-3.9-.6zm15.6 2.8c.5.3 1 .4 1.3 1 .3.6.2 1.1-.1 1.6-.6-1-.8-1.9-2-2.3-1-.3-2.5 0-3.2-.7h.3c1.2.1 2.4.1 3.7.4zm-1.2 1.6c.8.2 1.9.4 2.4 1.2-1.1.3-2-.6-3-.9-.9-.4-2.5-.8-2.5-1.9l.3.4c.6.7 1.7.9 2.8 1.2zm-.2-2.9c.5.1 2 .6 1.7 1.4-.6-.6-1.2-1.2-2.1-1.4-1-.1-1.8.3-2.7.2.2 0 .4-.1.4-.1.9.1 1.9-.3 2.7-.1zm-11.6-4.1c-.3-.3-2.1-.9-2-1.2.9.1 1.7.6 2.4 1.3.9.6 1.8 1.3 1.9 2.4-.1-.2-.1-.4-.2-.4-.4-1-1.3-1.6-2.1-2.1zm.9-1.2c-.4-.3-.9-.4-1.5-.4-.3 0-1.4 0-1.6-.3 1.1-.5 2.6 0 3.5.8.9.8.9 2.6.4 3.5l.1-.5c.4-1.3.2-2.6-.9-3.1zm12.8 4.7c-.2-.1-.7-.1-.9-.1-.3 0-.7-.1-.9-.5.9-.2 1.8 0 2.4.7.4.4 1.1 1.8.7 2.4l-.1-.4c-.1-.7-.5-1.5-1.2-2.1zm1.8 2.6l-1 2.9c-.3 1.1-.5 2.4-.8 3.4-.7 2.5-2.1 4.9-3.6 7-1.3 2-3 4-5.2 5.2-2.4 1.3-5.1 1-7.4-.3-1.9-1.2-3.9-2.9-5.2-4.7 1 .5 1.7 1.4 2.5 2.1.9.8 1.9 1.4 3 2.2 2.4 1.4 5 1.8 7.4.3 2-1.2 3.7-3.2 5-5.3 1.4-2.3 2.7-4.5 3.5-7.1.4-1.2.5-2.7 1-4 .5-1.1.7-2.4 1-3.6.3-1.1.6-2.5.7-3.6.2-1.3.5-2.5.4-3.8.2 1.1-.1 2.3-.2 3.4-.3 2-.7 4-1.1 5.9zm-18.1-3.5c-.9-.1-2-1.1-1.1-1.9.3.6.8 1.9 1.5 1.5.7-.2 1.2-.9 1.3-1.7l.1.4c0 .5-1.1 1.7-1.8 1.7zm-.5-2.1c.3-.3 1.2-.2 1 .3 0 .3-.6-.1-.8 0 0 .2.1.7.4.6.2 0 .4-.4.4-.6.1.1.1.1.1.2-.2 1.3-1.4.1-1.1-.5zm15.3 6.3c-.4.4-.7.2-1.2.2-.3 0-.4.1-.6-.2-.2 0-.3-.4-.3-.5-.2-.4.2-.8.5-1 .3.6 0 1.6.8 1.5.7 0 .9-.8 1.1-1.4v.3c0 .4-.2 1-.3 1.1zm-1-.7c-.2 0 0-.5.1-.6.1-.2.4-.2.3 0-.1.1-.3.3-.4.6.1-.2.4-.3.4-.5-.1.1-.3.6-.4.5zm-14.2-5.7c.2-.7 1.2.4.3.6l.1-.5c-.2.1.3.5.3.4.3-.2-.2-.5-.3-.5l.2.1c.8.8-.8.8-.6-.1zm14.2 5.5c.2-.3.4-.3.5 0-.1 0-.1-.1-.2-.3.5 0 .2.9-.2.9-.2.1-.9-.5-.3-.4.1.1.2.1.2-.2l.3.2c0 .1-.1.2-.1.2h-.1l.2-.3v.1c-.1.5-.3-.2-.3-.2zm-18.6-6.9c.4.3 2 1.6 2.6.9l-.1.2c-.9.4-2.4-.4-2.5-1.1zm.1.4c.5.1.7.6 1.2.8.3.3.8.2 1.1.3 0 .1 0 .1-.1.1-.8 0-2.2-.1-2.2-1.2zm1-.7c.5 0 .9.6 1 .9.3.3.5.4 1 .5h-.2c-1-.1-1.7-.5-1.8-1.4zm.2-.3l1.1 1.1c.3.2.8.2 1.2.3l-.2.1c-.8 0-2.1-.5-2.1-1.5zm.9-.2c.4.4.7.8 1.2 1.1.4.3 1 .3 1.6.6h-.2c-.8-.2-3-.5-2.6-1.7zm-1.2 2.3c-.5 0-1.1.2-1.3-.4l1.7.2c.5.1 1.1.3 1.3.9-.1 0-.1 0-.2-.1-.3-.4-1-.5-1.5-.6zm.2.5c-.3.2-.7-.3-.9-.5.4-.2 1.8.5 2.1.9 0-.1-.1-.1-.1-.1-.1-.1-.8-.5-1.1-.3zm21 6.4h.3c.1 0 .2-.1.2-.1.3 0 .6.1.9 0-.1.9-2 .2-2.2-.4l.1.1c.2.2.5.3.7.4zm1.5 0c.2 1.1-2.2 1.4-2.3.3l.1.1c.6.7 1.6-.2 2.2-.4zm-1.4-.2c.2 0 .4-.1.4-.1l.2-.1 1-.3c.2 1-2 1-2.2.2l.1.1c.2.1.4.2.5.2zm-.3-.5l.5-.2c.3-.2.6-.1 1-.2-.1.9-1.8.6-2.5.1l1 .1c.1 0 0 .2 0 .2zm.2-.3c.3 0 .5.3.7.6-.4.1-.8-.3-1-.5-.3-.2-.7-.3-.7-.6l.1.1c.2.3.6.4.9.4zm.7 2.5c-.3 0-.6-.4-1-.7-.3-.3-.5-.3-.9-.5h.2c.8.2 1.6.4 1.7 1.2zm-1.2.8l-.5-1.1-.8-.8h.2c.7.3 1.6.9 1.1 1.9zm.5-3.5c.2 0 .4.2.8.2-.4.3-1.6 0-1.9-.4h.1c.2.1.6 0 1 .2zm-18.9-7c.2-.1 1.1.3 1.1.5.1.1.1 0 0 0-.4-.3-.8.1-1.1-.5zm9.6 15.3c-.4.1-.9.3-1-.1.5 0 1 .1 1.4-.1.4-.3.4-.6.5-1v.2c-.1.4-.6.9-.9 1zm.6-8.4c0-.3.2-.9.3-1.4 0-.3-.1-1 .2-1.1v.2c-.2.6.1 2.2-.5 2.3zm-11.2 27.7l1-3.1c.4-1 .8-1.9 1.5-2.8.5-.9 1-2.3 2.1-2.3l-.7.8c-.2.6-.6 1.2-1.1 2-.5 1-.9 2-1.3 3.1-.2.4-.4 1-.5 1.6 0 .3-.3.8-.4 1.2m8.3-15.4h-.7c-.2 0-.3-.3-.4.1-.2.6-2-1.5-1.6-1.6l.3.2.4-.1c.2 0 .3.3.5.4.3.3.7.3 1 .4.3 0 .8.3 1 .5l.9.2-.4.1-1-.2zm13.7-16.6c.8 2.2 1.5 4.6 2 6.9.1.5.3 1.1.3 1.6.1.2.2.6 0 .7-.1.1-.1.1-.3 0-.3-.4-.4-1-.4-1.4l-.2-1.7c-.7-4.3-1.7-8.6-3.1-12.7-.6-1.8-1.4-3.6-2.1-5.5-.5-1-.9-1.9-1.3-3 0-.1-.4-1.1-.4-1.1.2-.1.7 1.1.8 1.3 1.1 2.1 1.8 4.2 2.5 6.4.6 1.8 1.2 3.5 1.7 5.4 1.3 4.5 2.1 9.2 2.5 13.7.1 2.3.2 4.8.1 7.1-.1 1.2-.2 2.4-.5 3.5-.1.6-.3 1.3-.5 1.9-.2.3-.5 1.1-.9 1.1-.9.2-.1-1.8 0-2.2.3-.9.4-1.8.6-2.8.3-2 .5-3.9.6-5.9.1-4-.2-8.1-.8-12.2l-1.3-7.5c-.3-1.3-.4-2.3-.6-3.5l-.1-1.4c-.1-.3-.6-1.3-.3-1.6l.6 2.6c.9 4.4 1.3 8.7 1.4 13.1.2 4.4 0 8.7-.4 12.9-.3 2.2-.6 4.2-1 6.3-.4 2.5-1.2 4.7-2.5 6.9.4-.9.6-1.7.9-2.7.7-2.3 1-4.7 1.3-7 .4-2 .6-4.1.6-6.1.3-4.3.3-8.7.2-13-.1-4.4-.5-8.7-1.1-13 .2.4.2 1.5.3 1.7l.1 1.3c.1 1 .2 2.1.4 3.1l1.3 6.9c.7 4.1 1.2 8.4 1.2 12.4 0 2-.2 4-.5 5.9-.1 1-.3 1.9-.5 2.8l-.3 1.4c-.2.4-.3 1-.3 1.3.2-.2.4-.5.5-.7.6-.9.6-2.3.9-3.4.2-1.2.2-2.4.3-3.6.1-2.3-.1-4.7-.3-6.8-.4-4.5-1.3-8.8-2.6-13.2-.5-1.8-1.1-3.6-1.7-5.4-.7-2.5-1.5-4.8-2.7-6.8h.1l.5 1.3c.7 1.9 1.6 3.7 2.3 5.5.8 1.9 1.5 4 2.1 6 .6 2 1.1 4.1 1.6 6.3l.6 3.2c.2.9.3 2 .7 2.8h-.1c.1-.5-.1-.9-.1-1.3l-.4-1.6-1.1-3.7c-.7-2-1.3-4-1.9-5.9-.7-1.8-1.5-3.8-2.3-5.6-.8-1.8-1.5-3.9-2.6-5.5l.5.7c1.1 1.8 1.9 3.7 2.7 5.6.9 1.9 1.6 3.7 2.3 5.6.1 1 .4 1.8.7 2.6zm-25.2-2.9c1.3-1.9 2.6-3.7 4.2-5.5 1.4-1.9 2.9-3.8 4.6-5.4l.8-.6c-1.9 1.4-3.2 3.4-4.8 5.2-1.4 1.8-2.8 3.6-4.2 5.5s-2.7 4-3.9 6c-.8 1.3-1.6 2.5-2.3 3.8l-.9 1.6c-.2.4-.5 1-.6 1.4h-.1c.7-.8 1.1-2 1.6-2.9l1.6-3.4c1.1-2.2 2.4-4.3 3.6-6.5 1.3-2 2.7-4.1 4.1-6.1 1.4-1.8 2.8-3.5 4.2-5.4l1-1.3h.1c-2 1.8-3.4 4.2-4.8 6.5-1.2 1.8-2.4 3.8-3.5 5.5-2.7 4.4-5 9-6.9 13.9-.9 2.4-1.8 5-2.5 7.5-.3 1.4-.6 2.8-.8 4.1-.2 1.3-.5 2.9-.1 4.1.1.4.1.7.3 1 .3-.3.1-1 .1-1.5l.1-1.4c0-1 .2-2.1.3-3.2.3-2.3.6-4.5 1.3-6.7 1.2-4.6 3-9.2 5.1-13.4l3.5-7.5c.5-1.1 1-2.2 1.4-3.3l.5-1.3c.1-.2.6-1.4.9-1.4-1.9 4.5-3.6 9.2-5.1 14-1.5 4.7-2.8 9.6-3.8 14.4-.6 2.3-1 4.7-1.2 7-.4 2.6-.8 5.5-.8 8.2.1 1.1-.1 2.2.1 3.3-.8-2.8-.8-5.6-.6-8.4.2-2.4.6-4.8.9-7.2.8-5 2-9.9 3.6-14.7 1.5-4.8 3.2-9.5 5.5-14.1l1.6-2.9c.1.4-.7 1.3-.8 1.6-.3.5-.5 1-.7 1.5-.5 1.3-1 2.4-1.7 3.7-1.2 2.6-2.6 5.1-3.7 7.9-1.9 4.3-3.5 8.8-4.6 13.3-.4 2.2-.9 4.4-1.2 6.7 0 1-.2 2.1-.2 3.2-.1.5.2 2.9-.7 2.5-.4-.2-.4-1.1-.6-1.5-.1-.7 0-1.4.1-2.2.1-1.3.3-2.7.6-4 .6-2.5 1.3-5.2 2.3-7.7 1.8-5 4.1-9.8 6.8-14.5 1.1-2 2.3-3.7 3.5-5.5 1.5-2.1 2.8-4.4 4.6-6.4.1-.1 1-1.3 1.2-1.2 0 0-.7 1-.7 1.1-.7 1-1.4 1.9-2.3 3-1.4 1.8-2.7 3.6-3.9 5.4-2.8 4.1-5.2 8.5-7.2 13.1l-.8 1.8c-.2.4-.5 1.1-.9 1.4-.1.1-.2.1-.3 0-.1-.1.2-.6.2-.8l.8-1.6c1.4-2.4 2.8-4.8 4.3-7 .6-.9 1.2-1.7 1.8-2.7z"/></svg>