<svg baseProfile="tiny" xmlns="http://www.w3.org/2000/svg" viewBox="0 0 50 50"><path d="M16.3 20.7c1.6.4 3.3.2 4.9.9 0-.5-1.2-.7-1.6-.7-.7-.1-1.3-.1-2.1-.1h-1.2zm15.7 1c-.7 0-1.5.6-1.5 1.2s.5 1.3 1 1.6c.7.2 1.5.1 2.1-.2.6-.4.7-1.2.7-2-.1.4-.1.9-.4 1.3-.2.4-.6.7-1.1.9-1 .2-2.1-.6-2.1-1.6-.1-.7.7-1.3 1.3-1.2zm.8 1.6c.5-.2 1.1-1 .7-1.5-.4-.5-1.5-.2-2 .1-.6.5 0 1.2.5 1.5.9.4 1.6-.1 1.8-.9.1-.2 0-.4-.1-.5-.2-.2-.4.1-.6.2.1.1.2.2.2.1-.1-.1-.2.2-.2.4-.2.2-.7.2-1 .1-.9-.4.6-.9 1-.6.5.4 0 1-.3 1.1zm-16.6 10.9c.7.2 1.5.4 2.2.5l2.3.4 4.2 1.6c-.2-.5-.9-.9-1.3-1l-1.7-.9c-1-.4-2.2-.5-3.4-.5-1 0-1.7-.1-2.3-.1zm8.1 2.4c.2.1 1 .7 1.3.5l-.9-.5h-.4zm-7.6-2.4c1.5.9 2.7 1.6 4.3 2 .7.2 1.5.2 2.2.2.7.1 1.5.2 2.1.4-.5-.9-2.3-.9-3.2-.9-1.2 0-2.2-.2-3.3-.7-.8-.1-1.4-.5-2.1-1zm.7 2.9c.9.5 1.5 1 2.5 1.2.9.2 1.7.2 2.6.2 0-.6-1.3-.7-1.7-.7-.7 0-1.5 0-2.1-.2-.4-.1-.8-.2-1.3-.5zm4 1.6c.2-.1 1.1-.1 1.2-.2.2-.5-.7 0-.9.1l-.3.1zm-3.6-18.7c0-.2-.1-.7-.2-.9-.2-.1.2.5.2.6-.2.2 0 .3 0 .3zm14.7 2.6c-.1-.2-.2-.6-.4-.7l.2.5c0-.1.2.2.2.2zm-3-4.2c.2.1.5.1.7.1.9.1 2 .1 2.8.1 1 0 2 .2 2.8.4.9.2 1.7.5 2.6.9.9.4 1.5 1 2.2 1.3.1-.2-.2-.9-.4-1l-.9-.7-2.2-.9c-1.5-.5-3.1-.6-4.7-.5-.1-.1-2.9.3-2.9.3zm-17.7-5c.2.1.5.2.7.2 1.8.4 3.7.7 5.4 1.2.9.2 1.8.5 2.6.9.9.2 1.5.9 2.2 1.3-.1-.7-.9-1.2-1.5-1.5-.6-.2-1.3-.6-2.1-.9-1.3-.9-2.9-1-4.4-1.2h-2.9zm5 4.1c0-.1-.1-.1-.2 0-.1 0 .2.2.2 0zm1.9 1.5c-.6.9-1.8 1.6-2.8.9-.9-.6-.9-2-.2-2.7-.7.5-.6 2-.2 2.6.5.9 1.5.9 2.3.6.3-.3.7-.8.9-1.4zm-5.3 21.3l1.1 1.2c1.2 1.2 2.7 2.6 4.5 2.8 1 .1 2 .1 2.8-.1l1.5-.2c.4 0 .9 0 1.2-.1-.1-.2-.6-.2-.9-.4-.4-.1-.9-.1-1.1-.1-.9.1-1.5.2-2.3.2-1.6 0-2.9-.6-4.3-1.5 0 .1-2.5-1.8-2.5-1.8zm10.4-4c.2.1 1.1.9 1.5.6.2-.2-.2-.4-.2-.4l-.9-.2c-.2-.1-.3-.1-.4 0zm-7.4-15.6l-1.8-1.2-1.3-1.1c-.1.2.9.9 1 1.1.5.2.9.6 1.5.9.1-.1.5.1.6.3zm7.5 14c-.4-.4-.9-1-1.3-1.2l-1.2-.5c-.2-.2-.5-.6-.9-.6-.2 0-.4.1-.5.2-.1.2 0 .2.2.5.2.2.6.5 1.1.5.4 0 .9-.1 1.2.1.4.2.7.5 1 .9.7.6 1.2 1.3 2.1 1.7l-.2-.3c-.5-.5-.9-.8-1.5-1.3zm-11.6-17.4c1.7-.5 3.7-.6 5.4.1.9.2 1.7.7 2.3 1.2.7.6.9 1.5 1.1 2.3-.4-.9-.9-1.5-1.7-1.8l-1.2-.4-1.2-.6c-.9-.2-1.7-.5-2.6-.6s-1.7-.1-2.6 0c.1-.2.3-.2.5-.2z"/><path stroke="#000" stroke-width=".007" stroke-linejoin="round" stroke-miterlimit="10" d="M12.3 17.3c1.7-.5 3.7-.6 5.4.1.9.2 1.7.7 2.3 1.2.7.6.9 1.5 1.1 2.3-.4-.9-.9-1.5-1.7-1.8l-1.2-.4-1.2-.6c-.9-.2-1.7-.5-2.6-.6s-1.7-.1-2.6 0c.1-.2.3-.2.5-.2z"/><path d="M33.9 21.7c.9.2 1.7.7 2.6 1.2.7.5 1.3 1.2 1.7 2-.5-.7-1.3-.9-2.1-1.3-.9-.4-1.6-.6-2.5-.9-1.5-.5-3.2-1.5-4.5-.2 1.2-1.7 3.2-1.3 4.8-.8z"/><path stroke="#000" stroke-width=".007" stroke-linejoin="round" stroke-miterlimit="10" d="M33.9 21.7c.9.2 1.7.7 2.6 1.2.7.5 1.3 1.2 1.7 2-.5-.7-1.3-.9-2.1-1.3-.9-.4-1.6-.6-2.5-.9-1.5-.5-3.2-1.5-4.5-.2 1.2-1.7 3.2-1.3 4.8-.8z"/><path d="M29.5 22.8l.2-.4.5-.6c-.6-.2-1.5 0-1.5.7-.1.7.5 1 .9 1.5.1-.3-.3-.8-.1-1.2z"/><path stroke="#000" stroke-width=".021" stroke-linejoin="round" stroke-miterlimit="10" d="M29.5 22.8l.2-.4.5-.6c-.6-.2-1.5 0-1.5.7-.1.7.5 1 .9 1.5.1-.3-.3-.8-.1-1.2z"/><path d="M20.3 19.7c.2-.5-.2-1-.7-1v.6l.1.4c0 .4-.4.5-.6.7.6.1 1.1.1 1.2-.7z"/><path stroke="#000" stroke-width=".016" stroke-linejoin="round" stroke-miterlimit="10" d="M20.3 19.7c.2-.5-.2-1-.7-1v.6l.1.4c0 .4-.4.5-.6.7.6.1 1.1.1 1.2-.7z"/><path d="M17 17.9c.2-.1.5.4.5.6.1-.4-.1-.8-.5-.6-.5.1-.9.9-.4 1.3.4.4 1.2.1 1.6-.2.2-.2.5-.7 0-.7-.2-1.1-2.3-.6-2.1.6.2.6.9.9 1.5.4.4-.4.5-1.1-.1-1.3.5.6-.6 1.5-.9.7-.1-.5.4-.7.9-.6.2.1.2.5.7.5-.1 0-.2-.2-.2-.2-.2.4-1 .9-1.5.5-.2-.4 0-1 .5-1zm.2 0l.4.2-.2-.2c-.1-.2-.2-.2-.5-.2-.7.1-.7.9-.5 1.5.2.6 1 .9 1.5.2.2-.2.2-1.1-.2-1.1.1.4.1.9-.4 1-.6.1-.9-.9-.5-1.2 0-.3.1-.3.4-.2zm.9 1.8l-.3-.7.2.6.1.1zm-.7.4c.1-.2.2-.6.1-.9v.8c-.1-.1-.1 0-.1.1zm-.7.1c.1-.2.5-.7.2-1-.1.1-.1.5-.2.7v.3zm-.5-.6c.1-.1.4-.2.4-.5-.1 0-.2.4-.4.5zm-1.1-.5c.2.1 1-.1 1.2-.5l-.4.2c-.1.1-.2.2-.5.2 0 .1-.3.1-.3.1zm.2-.8c.2 0 .6 0 .9-.1l-.6.1s-.2.1-.3 0zm-.2-.6c.2 0 .7.1 1 0-.2-.1-.5 0-.7 0h-.3zm19.1 5l-.4-.5c-.1.1.1.4.4.5zm-.3.6l-.4-.9.2.6c.1.2.2.3.2.3zm-1.1 1c.1-.4.2-.9.2-1.3-.2.2-.1.7-.2 1 0 0-.1.1 0 .3zm-.7 0c.1-.4.7-1 .6-1.5l-.4.5-.2.6c-.1.2-.1.4 0 .4zm-.7-.3c.2-.2.9-.9.9-1.1 0-.2-.2.1-.2.2l-.4.5c-.2.1-.3.2-.3.4zm-.5-1c.2-.1 1-.1 1.1-.4h-.4l-.5.2c-.1.1-.2.1-.2.2zm2.6 1.9c.9 0 1.8.2 2.6-.2-.6.5-1.7.6-2.6.5-1-.1-2-.4-2.9-.6.9 0 1.9.3 2.9.3z"/><path stroke="#000" stroke-width=".002" stroke-linejoin="round" stroke-miterlimit="10" d="M33.5 24.9c.9 0 1.8.2 2.6-.2-.6.5-1.7.6-2.6.5-1-.1-2-.4-2.9-.6.9 0 1.9.3 2.9.3z"/><path d="M35.5 20.1c.9.1 1.6.4 2.3.9.6.2 1.6.7 2 1.5l-.8-.8-1.2-.6c-.7-.2-1.5-.5-2.3-.7-1.7-.4-3.4-.4-5.1 0 1.5-.7 3.2-.8 5.1-.3z"/><path stroke="#000" stroke-width=".002" stroke-linejoin="round" stroke-miterlimit="10" d="M35.5 20.1c.9.1 1.6.4 2.3.9.6.2 1.6.7 2 1.5l-.8-.8-1.2-.6c-.7-.2-1.5-.5-2.3-.7-1.7-.4-3.4-.4-5.1 0 1.5-.7 3.2-.8 5.1-.3z"/><path d="M18 15.9c1.3.5 2.8 1.2 3.6 2.6-.8-1.3-2.4-1.9-3.6-2.6-1.5-.5-2.9-.9-4.4-1.2 1.5.3 3.1.6 4.4 1.2z"/><path stroke="#000" stroke-width=".001" stroke-linejoin="round" stroke-miterlimit="10" d="M18 15.9c1.3.5 2.8 1.2 3.6 2.6-.8-1.3-2.4-1.9-3.6-2.6-1.5-.5-2.9-.9-4.4-1.2 1.5.3 3.1.6 4.4 1.2z"/><path d="M24.1 30c.1.1.2.1 0 .2.2 0 .2-.2 0-.2s-.2.2-.1.2c.2.2.9-.4.4-.6-.4-.2-1.3.2-.7.7.4.2 1.1 0 .6-.4 0 .1.1.2 0 .2-.1.1-.4-.1-.5-.1.1-.2.5-.2.6-.1 0 .1 0 .1-.1.2 0 .1 0-.1-.2-.1zm-3.1-.6c.1-.2-.1-.2-.2-.2-.1.2 0 .4.2.5.4.2.6-.6 0-.7-.2 0-.5-.1-.6.2 0 .2.1.4.2.5.5.1.9-.5.4-.7v.4l-.2-.1v-.1c.2-.1.4-.1.5 0 0 .1 0 .2-.1.2-.5-.2 0-.5-.2 0zm-3.6 5.3l.2-.2c-.1-.2-.2.2-.2.2zm1 .6c-.2-.2-.5-.5-.9-.6-.2-.2-.2.2-.1.2.2.1.4.2.6.2l.4.2zm-2.1-1c.2.1.5.2.7.2 0 0 .2.1.4.1.4-.1-.6-.4-.7-.4 0 .1-.4.1-.4.1zm7.7-4.5c-.1.1.1.2.1.2l-.1-.2c0 .2 0 .2.1.2l.1-.1c-.2-.2-.2.2 0 .2s.1-.2 0-.2c.1 0 0 .1 0 0 .1.2.2-.1.1-.2 0 .1-.1.2-.1.2s.1.2.2.2c.2-.1 0-.2-.1-.2.1 0 .1.1.1.1 0-.1 0-.2-.1-.2 0-.3-.4-.1-.3 0 .1.1.1 0 .2 0-.2-.1-.2.2 0 .4v-.2l-.2.2c.2.1.2-.1.2-.2.1 0-.2-.2-.2-.2zm-2.9-.5c.2.2 0-.2-.1-.2l.1.2c-.1 0 .4.2.4.1-.1-.5-.8-.2-.4-.1 0 0 .1-.1.2-.1-.1-.1-.2-.2-.4-.2s-.1.3.2.3zm11.7-5.9c.4-.2 1.1-1 .7-1.5-.4-.6-1.5-.2-2 .1-.4.5.1 1.1.6 1.3.9.2 1.5-.1 1.7-.9 0-.2.1-.4-.1-.5-.2-.2-.4.1-.6.2.1.1.2.2.4.1-.2-.2-.2.2-.5.4-.2.2-.6.2-.9.1-.9-.4.6-.9 1-.6.5.5-.1 1.1-.3 1.3zm.2-.5v.2c-.2 0-.4-.2-.5-.2.1.1.4.6.6.4.2-.2-.1-.5-.2-.2 0-.1 0-.2-.1-.5 0-.1-.1-.2-.2-.2l-.1.1c.2 0 .6 1.2 1 .9.2-.2 0-.4-.1-.5-.2-.4-.4-.6-.9-.9-.1.2.2.4.2.6.1 0 .3.1.3.3 0-.2.1-.2.2-.2-.2 0-.7-1.1-1-.7-.1.2.2.4.2.5 0 .2 0 .7.2.6l.4-.2zm-.5-.3c-.1-.2-.2-.6-.4-.7 0 0 .2.4.4.7zm.3 1.7c.1-.4.2-.9.1-1.3-.1.2-.1.7-.1 1 0 0-.1.1 0 .3zm-.8 0c.2-.4.7-1 .6-1.5l-.2.5-.2.6c-.2.2-.2.4-.2.4zm-.6-.4c.2-.2.9-.7.9-1s-.3.1-.3.3l-.4.5c-.1 0-.2.1-.2.2zm-.5-.9c.2 0 .9-.2 1-.4.1-.2-.6.1-.7.2-.1.1-.3.2-.3.2zm3.5.2c-.2-.2-.4-.5-.7-.6 0 .2.4.4.5.5.1.1.2.1.2.1zm-.3.5l-.4-.9.2.6.2.3zm-.5.7c.1-.4.1-.9-.1-1.2-.1.2.1.7.1.9v.3zm-2.5-.9c.2-.1.6-.2.7-.5l-.6.2c-.1.2-.2.2-.1.3zm-.2-.9c.2 0 .4 0 .6-.1-.3-.2-.4-.1-.6.1.1-.2 0-.2 0 0zm3.5.3c-.2-.2-.4-.5-.7-.5l.5.4c.1.1.1.1.2.1zm-.1.5l-.6-.7.4.5.2.2zm-.5.3l-.2-.9c0 .2.1.4.2.6-.1 0 0 .3 0 .3zm-.2.2l-.3-.9c0 .2.1.4.2.6v.3zm-.4.4c.1-.2.1-.6 0-.9-.1.2 0 .5 0 .7v.2zm-.4 0c.1-.2.2-.6.1-.9-.1.2-.1.5-.1.7v.2zm-.3 0c.1-.2.2-.6.2-.9-.1.2-.1.5-.1.7l-.1.2zm-13.9-5.2l-.4-.7c0 .2.2.4.2.5.1 0 .2.2.2.2zm-.1.4c0-.2-.2-.6-.4-.9l.2.6c.2 0 .2.2.2.3zm-.1.2l-.4-.8.2.7c.1 0 .2 0 .2.1zm-.4.2c0-.2-.1-.5-.2-.7 0 .2.1.4.2.7-.1 0-.1.1 0 0zm-.6.3c0-.2 0-.6-.1-.9 0 .2 0 .5.1.7v.2zm-.1 0c.1-.2.1-.5.1-.7-.1.1-.1.4-.1.7zm-.4 0c0-.2.1-.5 0-.7v.7zm-.5-.2c.2-.1.4-.4.4-.6-.1.1-.1.3-.4.6zm3.3 17.6l.6-1.5c-.2.1-.5.7-.6 1v.5zm-.3-.3c0-.2.1-.4.2-.6.1-.1.2-.2.2-.4s-.2 0-.2.1c-.1.2-.2.4-.2.6.1 0 .1.1 0 .3zm-.7-.5c.2-.2.6-.6.6-.9-.2 0-.4.4-.5.6.1 0 .1.1-.1.3zm1.9.7l.2-.7c0-.1.2-.5.2-.5-.2-.2-.4.9-.4.9v.3zm.7-1.3v.6-.6zm-7.8-19.3c1.5-3.2 2.8-6.2 4.7-9.3l2-3.2.8-1.6.5-1.7c-2.3 2.7-4 5.8-5.8 8.9-1.6 3.1-3.1 6.2-4.3 9.6m10.2-10l-.1-5.5c0-1 .1-2-.1-2.8 0-.5-.4-.7-.7-1.1-.1-.2-.2-.2-.5-.2s-.1.2-.1.5c.1.9.1 1.7.1 2.5 0 .9 0 1.7.1 2.6.1 1.8.6 3.8.9 5.6l.2 1.6c0-1.1.2-2.3.2-3.2zm15 31.9c1.2-1.6 2-3.3 2.6-5.1 1-3.7 1.1-7.5 1-11.1-.1-3.6-.5-7.1-1.1-10.5-.6-3.6-1.2-7-2.7-10.3-.1.6 0 1.2 0 1.8l.2 1.8.9 3.7c.9 3.4 1.1 6.9 1.6 10.3.4 3.6.7 7.1.4 10.7-.4 3-1.1 6.1-2.9 8.7zm-.9-25.1l.2-1.5c.2-2 .6-3.8.9-5.6.1-.9.1-1.7.1-2.6-.1-.8-.1-1.7.1-2.4 0-.2.1-.5-.1-.5s-.4 0-.5.1c-.4.4-.6.6-.7 1.1-.2.9 0 1.7-.1 2.7l-.1 5.5c0 1 0 2.1.2 3.2zm-2-15.2c0-.4-.1-1.6-.7-1.2-.2.1-.2.5-.4.7l-.4 1.1c-.6 1.8-1.3 3.6-2.1 5.3-.1.5-2.1 4.9-2.6 4.5-.2-.7-.1-1.7-.2-2.5v-2.7c0-.9-.1-1.7 0-2.7.1-.5-.1-1.6-.6-1.7-.6-.2-.9.5-.9.9l-.4 2.6-.6 5.3c-.1.6-.4 1.6 0 2.1.2.2.6.2.9 0s.2-.7.4-1.1c.1-1 0-1.8-.1-2.6-.1-.9 0-1.7 0-2.6 0-1.7.2-3.7-.4-5.3-.5 1.7-1 3.4-1.1 5.1-.1 1-.1 1.8 0 2.7.1.9.5 1.7.2 2.7l-.1.4c.2-.6 1-.5 1.1.1-.1-.9 0-1.5 0-2.3l-.1-2.6.2-2.5c0-.7.1-1.6.4-2.2-.1.3-.2.3-.5.1v4.9l.1 2.8c.1.6 0 1.6.7 2 .7.4 1.3-.2 1.8-.9s1-1.7 1.2-2.6c1-1.7 1.5-3.6 2.1-5.4l.6-1.8.5-1.6c-.1.2-.4.1-.4 0 .5 1.8-.2 3.8-.6 5.5-.2 1.7-.2 3.4-.2 5.1s.1 3.4.4 5.1c-.1-1.7-.1-3.4 0-5.1.1-1.7.2-3.4.5-5.1.8-1.4 1.3-2.7 1.3-4.5zm-8.6 49.7l.4-2.8c.1-.4.2-.9.2-1.3.1-.5 0-.9 0-1.5-.6.6-.7 1.6-.9 2.5l-.4 2.6"/></svg>