<svg baseProfile="tiny" xmlns="http://www.w3.org/2000/svg" viewBox="0 0 50 50"><path d="M31.1 6l-.4.3c.1.2.4-.1.4-.3.4 0 .9-.1 1.2-.1.9-.1 1.8 0 2.3.6.6.6.9 1.5 1.3 2.2h.4c.1-.1.1-.1.1-.3 0-.1 0-.4-.1-.6-.1-.4-.4-.7-.9-1-.3-.3-.4-.4-.9-.7l-1.3-.4c-.4 0-.9 0-1.2.1-.1-.1-.6.1-.9.2zm-19.6.2l-.3.6c0 .1.1-.1.1-.1l.2-.5c.3-.1.6-.4.9-.7.6-.6 1.5-.9 2.6-.7.7.1 1.3.7 1.9 1.3l.4.4s.1.1.3.1c.2 0 .1 0 .3-.1 0-.3-.4-.9-.7-1-.3-.3-.7-.4-1.2-.6-.3-.1-.4-.1-.6-.3-.1-.1-.4-.1-.6-.1-.9-.1-1.8.3-2.4.9-.3 0-.7.3-.9.8zm26.4 9.4c0-.1-.4-.9-.6-.7.3.7.7 1.5.7 2.3.1.9.1 1.8 0 2.4-.1.7-.4 1.6-1 2.2-.6.6-1.3.9-1.9 1.2l-.9.4-.4.3-.3.1c-.1 0-.1.1-.1.3.1.1.4.1.7.1h.6c.4 0 .7-.1 1.2-.3.3-.1.7-.4 1-.7l.4-.4.6-.4c.3-.3.6-.9.7-1.3.1-.4.3-.9.3-1.3.1-.9 0-1.9-.3-2.7-.1-.3-.1-.6-.3-.7-.1-.4-.2-.7-.4-.8zm-9.2 5c0-.1-.1-1-.3-.9.1.7 0 1.6-.3 2.3-.6.7-1.3 1.3-2.2 1.8-.7.4-1.6.7-2.3.7-.7.1-1.6 0-2.3-.1-.4 0-.7 0-1.2-.1h-.6c-.1 0-.4-.1-.6 0s-.2.1-.2.2l.1.3c.1.1.3.3.6.4.3.1.9.4 1.3.4s.9 0 1.3-.1l.6-.1h.6c.9-.1 1.8-.6 2.4-.9.7-.4 1.5-1 2.1-1.6.3-.3.4-.7.6-1 .4-.6.5-1 .4-1.3zm-1.8 28.6l-1.4-.3-2.6-.4c-.4 0-.9-.1-1.3-.3l-1.2-.4c-.9-.3-1.6-.7-2.3-1.2-1.5-1-2.6-2.2-3.6-3.5-.3-.4-.6-.9-.9-1.2l-.5-.7c.1-.4 0-.7-.1-.7-.1-.1-.7-1.3-1-1.2.3.7.9 1.5 1.3 2.1l1.5 2.1c1 1.3 2.3 2.4 3.6 3.5 1.5 1 3.2 1.8 5 2.3.9.3 1.8.4 2.6.6m-8.2-24c-.1-.1-.4-.7-.6-.7l1 1.9c.3.7.6 1.5 1 2.2.6 1.3.9 2.9.9 4.4v2.6l.1.1.3-.1c.3-.3.3-.7.4-1 .1-.7.1-1.6-.1-2.3-.1-.4-.1-.7-.1-1.2l-.2-1.2c-.6-1.5-1.3-2.9-2.2-4.2-.4-.3-.4-.5-.5-.5zm11.6 12.7c-.1 0-.3.3-.1.4.1.1.3.1.4.1v-.1h-.1c-.3-.1-.2-.4-.2-.4zm6-13.5c0-.1-.1-1.2-.4-1 .1.4.1.7.1 1.2 0 .4 0 .9-.1 1.2l-.7 2.2c-.4 1.3-1.2 2.6-2.1 3.8l-2.9 3.3-.6.9v.3c.1 0 .3 0 .4-.1.6-.4 1.2-.9 1.6-1.5.3-.3.4-.6.6-1 .1-.3.3-.7.6-1l.7-.9.6-1c.3-.6.7-1.3 1-2.1.3-.7.4-1.5.6-2.2 0-.4.1-.9.1-1.2.5-.1.5-.6.5-.9zm-28.6 24.1c-.1-.4-.1-1-.1-1.6s.1-1 .3-1.6c.3-1 .4-2.1.9-2.9.5-.9 1-1.6 1.6-2.2 1.2-1.3 2.6-2.4 4.1-3.5.6-.4 1.3-.9 1.9-1.2l1-.6c-.1.1.9-.3.9-.3.6-.3 1.5-.6 1.8-1.3l-.3.2c-.1.1-.4.3-.6.3l-1.4.6c-.9.3-1.6.9-2.3 1.3-1.6.9-3 2-4.4 3-1.2 1.2-2.3 2.4-3 4.1-.6 1.3-.9 2.9-1 4.4m.5-14v-.3c0-.1-.1-.3-.1-.1-.1.1 0 .4 0 .7.1.4.1.8.4 1.2.3.4.6.7 1 1 .2.3.6.6 1.1.6.5 0 .9-.3 1-.9v-.3c0-.1-.1-.1-.3-.1-.1 0-.1 0-.3.1l-.1.1c-.1.1-.3.1-.3.3-.1.1-.3.3-.4.1-.3.1-.8-.2-.9-.4-.3-.3-.6-.6-.7-1-.1-.2-.1-.2-.3-.5-.1-.2-.1-.3-.1-.5zm2.9-23.6v-1.8c-.2.1-.2.4-.2.6v1.9c0 .7-.1 1.5-.3 2.2-.3 1.5-.6 2.9-.7 4.4-.3 1.9-.6 3.8-.9 5.6-.3 1.9-.4 3.8-.1 5.6l.2 1.9.4.7.1.4v.1s0 .1.1.1v-3.8c0-.4-.1-.9-.1-1.5 0-.4 0-.9-.1-1.3v-1.4l.3-2.7c.1-1.8.4-3.5.7-5.1l.2-2.2c.1-.7.3-1.5.3-2.2v-.8c.2-.3.2-.6.1-.7zm5.9 2.1l.1-.3.1-.1c-.3 0-.4.1-.4.4-.1.4-.3.9-.3 1.2 0 .9.3 1.6.7 2.3.3.7.7 1.5 1.3 2.1.1.1.3.3.4.3 0 0 .1.1.3.1.2 0 .3 0 .3-.1.1-.3-.3-.7-.4-1l-.4-.4-.4-.6-.3-.4c-.1-.1-.3-.3-.3-.4-.4-.6-.7-1.3-.7-2.2-.2-.3 0-.6 0-.9zm.1-.2c-.1 0-.3.1-.3.3.1 0 .4-.1.6-.3l.6-.3c.4-.1.9-.3 1.3-.3h2.3c.1 0 .1 0 .3-.1 0-.1-.3-.1-.3-.1h-.9c-.3-.1-.4 0-.6 0h-.7c-.9.1-1.5.4-2.3.8zm4.6 1.6c-.2-.2-.2 0-.2.2 0 .1.1.3 0 .4 0 .3 0 .7-.1 1-.1.3-.3.6-.3 1 0 .1 0 .1.1.3.1 0 .1 0 .3-.1.2-.1.3-.3.3-.4v-.3l.1-.3v-.6c0-.1 0-.4-.1-.6 0-.3 0-.5-.1-.6zm.7.3c0-.1 0-.1.1-.3v-.1c0-.1-.1 0-.1 0-.1.1-.1.4-.1.6-.1.4-.1.9 0 1.2l.1 1.2v1.2l-.1 1.1c0 .3.3.1.4 0s.3-.4.3-.6v-1.3c0-.4-.1-.7-.3-1.2l-.1-.9c-.3-.3-.2-.6-.2-.9zm-4.1 5.1l-.2-.1-.4.4c-.1.4 0 .9.3 1.2.1.1.4.3.6.3h.3c.1 0 .1 0 .3-.1 0-.3-.1-.3-.3-.4h-.4c-.1-.1-.4-.3-.4-.4-.1-.4.1-.7.2-.9zm3.2 2.3c.1-.3.1-.4.1-.7l.1-.7-.9 2.2c-.3.7-.6 1.5-1 2.1l-2.2 4.2c-.9 1.5-1.8 2.7-2.9 4.1-.6.6-1 1.2-1.6 1.9l-.8 1c0 .1-.1.1-.1.1l-.1.1v.2c.1 0 .1 0 .3-.1.7-.4 1.5-.9 2.1-1.5l.9-1 .7-1 1.5-2.2c.4-.7.9-1.5 1.2-2.2.7-1.5 1.5-2.7 2.2-4.4l.4-1.2.1-.9zm-3-2c.1-.1.6-.7.6-.9-.6.6-1 1-1.5 1.8-.6.7-1.2 1.3-1.8 1.9l-2.2 2.1c-.7.7-1.6 1.3-2.2 2.2-.3.4-.6.9-.7 1.3l-.2.7v.3c0 .1 0 .1.1.3 0 .1.1.1.3 0 .2-.1.1-.1.1-.3.2-.1.4-.3.5-.6l.7-1.2.7-1.3c.3-.4.7-.7 1-1l2.2-2.2c.6-.6 1-1.2 1.5-1.8l.6-.7c.1-.1.3-.4.3-.6zm10.9 29.1c.3-.3.6-.6.7-1 .4-.6.7-1.5 1-2.2.1-.4.1-.7.4-1.2l.4-1c.3-.7.6-1.5.7-2.2.6-1.5 1-3 1.3-4.7.1-.4.3-.9.4-1.5l.1-.7c.1.1.3-.1.3-.3 0-.1.4-1.2.3-1.3l-.7 2.2-.8 2.4c-.4 1.5-.9 3-1.5 4.5s-1.3 2.9-2.1 4.2l-.9 1.9c-.1.3-.3.6-.4 1l.1.5m6.8.6l.4-1.2c.1-.9.3-1.8.3-2.6v-1.3c0-.4.1-.9 0-1.3l-.1-2.6-.7-4.8v-2.7l.1-.7c0-.1.3-.6.1-.7-.9 1.3-.7 3-.6 4.7l.6 4.8v2.6c0 .9-.1 1.8-.3 2.6-.1.7-.3 1.6-.3 2.3m-10-47.3l-.1-.3s0-.3-.1-.1c-.1.1 0 .4.1.6.3.3.7.6 1 .7.9.3 1.8.1 2.6-.1.7-.3 1.6-.7 2.1-1.5.1-.1.3-.3.3-.4s-.1-.3-.3-.3c-.3.1-.6.4-.9.7s-.4.7-.9.9c-.4.3-.9.4-1.3.6-.7.1-1.8.3-2.4-.3.1-.3-.1-.5-.1-.5zm3.7.8v-.3c0-.1-.1-.1-.1 0l-.1.6c-.1.4-.3.7-.3 1.2s0 .9-.1 1.3c0 .4 0 .9.1 1.2l.1.3c.1.1.1.1.3.1.3 0 .3-.3.3-.6s-.1-.4-.1-.6c-.1-.1-.1-.3-.1-.6v-1.1c0-.4 0-.9.1-1.2-.1 0-.1-.3-.1-.3zm-2 5c-.1 0-.1 0-.3-.1h-.1l.6.3 1.2.7c.4.1.9.4 1.3.4.4.1 1 .1 1.3-.1.1-.1.3-.3.4-.6l.1-.3c0-.1 0-.1.1-.3 0-.1.2-.3 0-.4-.1-.1-.4-.1-.6 0-.4.1-.6.6-.7 1 0 .4-.1.4-.3.4h-.6c-.4 0-.9-.3-1.3-.4l-.6-.3c-.1 0-.2-.2-.5-.3zm-4.6 2v-.6l.1-.3.1-.1c-.9.3-.6 1.5-.1 2.2.4.7 1 1.6 1.8 2.2.7.6 1.5 1 2.2 1.5.7.4 1.6 1 2.2 1.6.7.6 1.3 1.3 1.8 2.1.4.7.7 1.5 1 2.2l.1.6c0 .1 0 .1.1.3v-.1l.1.1s.1.1.1 0v-.9c-.1-1-.3-1.9-.9-2.6-.3-.4-.6-.7-1-1l-1-1c-.7-.6-1.5-1.2-2.3-1.6-.7-.4-1.6-.9-2.3-1.5-.7-.6-1.3-1.3-1.8-2.1 0-.3 0-.7-.2-1zm15.8 4.1l-.1-.5s-.1-.1-.1 0v.3c.1.3.1.7.1 1.2.1.7 0 1.6-.3 2.3-.3.7-.7 1.3-1.3 1.9-.6.4-1.2 1-1.6 1.6-.1.1-.1.1 0 .3 0 .1 0 .1.1.1s.4 0 .6-.1c.3-.1.6-.4.9-.7l.7-1 .7-.9c.3-.7.6-1.5.6-2.2v-1c-.1-.6-.1-1-.3-1.3zm-8.8 9.4c-.1 0-.6.3-.4.4.7-.6 1.5-.7 2.3-.6.9 0 1.8 0 2.4.3l1.2.4c.3.1.7.4 1 .7l.3.4c.1 0 .1.1.3 0 .1 0 .1-.1.1-.3 0-.4-.3-.7-.6-1s-.7-.4-1.2-.4c-.1 0-.4 0-.6-.1-.1 0-.3-.1-.6-.1-.9-.1-1.8-.1-2.6-.1-.2-.1-1 .1-1.6.4zm.6-18.9v-.3c-.3.1.1.9.1 1 .1.3.4.6.9.9.3.3.6.6 1 .7.1.1.3.1.6.1.1 0 .6.1.4-.1 0-.1-.3-.1-.4-.3-.1-.1-.3-.1-.4-.1s-.3 0-.4-.1l-.4-.3c-.8-.2-1.4-.8-1.4-1.5zm-6.8 5.8c-.1-.1-.1 0 0 0-.1.1 0 .1 0 0 .1.2.3.4.3.5.1.1 0 .3 0 .6 0 .1.1.3.3.3s.1 0 .3-.1c0-.1.1-.1 0-.3l-.1-.3v-.1c-.2-.3-.5-.4-.8-.6zm7.4 29.1c-.1 0 0 .1 0 0 .1.3.1.3.3.3.1.1.3.3.6.3.1 0 0-.1 0-.3h-.3c-.1-.1-.4-.2-.6-.3zm1.2-.6c.1.1.1 0 0 0l-.2-.4c-.4-.1-.4.3-.3.6-.1.1-.6.3-.6.6s.1.3.3.4c.2.1.3.1.6 0 .1 0 .1 0 .1-.1s0-.1-.1-.3v-.7l-.1-.1c0-.1.3 0 .3 0z"/></svg>