<svg baseProfile="tiny" xmlns="http://www.w3.org/2000/svg" viewBox="0 0 50 50"><path d="M30.4 11l.5.2c-.6.1-1.3-.1-1.9-.3-.7-.2-1.4-.4-2.1-.4-.7-.2-1.5-.2-2.2.1s-1.3.9-2 1l.1-.4.3-.5c.2-.3.5-.5.9-.7s.7-.3 1.1-.2.5.2 1 .2c.7 0 1.6.4 2.3.5.6.1 1.3.2 2 .5zm-19.7 4.7l-.1.5c-.4-1.3 1.1-2.8 2.2-3.1.7-.3 1.4-.6 2.2-.7.8 0 1.5.5 1.4 1.3-.5-.4-.9-.4-1.5-.4-.4 0-.6 0-.9-.1-.4-.1-.4.1-.7.2-1.2.5-2.3 1-2.6 2.3zm5.9-1.9l-.3-.4c1 .7 1.3 2.2 1.1 3.2-.1.5-.2 1.1-.3 1.7-.1.4-.3 1-.3 1.5-.4-.2-.3-1.1-.2-1.3.1-.4.4-.9.4-1.4.3-1.2.4-2.3-.4-3.3zm2.9 7.3c.1-.6 1.2-.5 1.7-.4.1.1.5.3.4.4 0 .1-.4-.1-.6-.1s-.7.2-.6-.1c-.4.2-.6-.1-.9.2zm-2.7-.1c.6 0 .8.6.9 1.3 0 .1.2.5 0 .5-.1 0-.3-.4-.3-.4-.1-.2-.7-.8-.3-.7-.1-.3 0-.6-.3-.7zm-.7-.8v-.2c.1.8-.3 1.7.4 2.3-.4.4-.6-.5-.6-.8.1-.4.2-.9.2-1.3zm5.4-.6h-.2c.6-.2 1.5 1.3 1.3 1.8-.6-.4-.2-1.4-1.1-1.8zm-4.6 1.1l-.2-.1c.4 0 .8.4 1.3.4.4 0 .7-.4 1.1-.5.1.5-.4.6-.7.7-.6.2-1.2-.3-1.5-.5zm1.4 4.9l-.2-.2c.5.2 1 .5 1.5.2.4-.3.5-1 1-1.2 0 .2-.1 2-.6 1.5-.1-.1-.6.2-.9.1-.2.1-.6-.2-.8-.4zm2.4-.1l-.2.2c.4-.7.9-.1 1.5.1.6.3 1.6.4 1.9 1.1-.3 0-.7 0-1-.1l-.4-.2c-.2-.1-.1-.3-.3-.3-.4-.1-.7-.4-1-.5-.2-.2-.4-.5-.5-.3zm-1.9.1l.2-.1c-.4.7-1.6 1.5-.8 2.2-.6.2-1-.4-.6-.9.1-.1.2-.1.3-.3l.3-.4c0-.2.3-.3.6-.5zm-2.5 2v.3c-.4-.5 0-1.7.3-2.2.4-.8.9-1.6 1.7-1.9-.1.7-.9 1-1.2 1.5-.4.8-.8 1.5-.8 2.3zm2-3.6c-.1 0-.1 0-.2-.1.4-.1.7.1 1.1.1l1.1-.5c-.1.9-1.4.8-2 .5zm1.8-.2c-.1 0-.3 0-.4.1.4-.6 2.2.1 2.7.4.8.4 2.1.9 2.1 2-.4-.2-.7-.4-1-.6-.4-.3-.5-.6-.9-.8-.8-.6-1.5-1.2-2.5-1.1zm-3.1 4.3l-.3.4c.1-.7.9-1 1.5-1.1l2-.3c.7-.2 1.3-.4 2.1-.4.6-.1 1.4-.1 2-.4.1.7-1 .9-1.5 1h-.9l-1 .1c-.7.1-1.3.2-2.1.2-.6.1-1.4 0-1.8.5zm6.1-12.6l-.3.4c-.1-.7.9-1.3 1.4-1.6.6-.4 1.3-.5 2-.7 1.4-.3 2.7-.4 4 .7-.6.2-1.1-.1-1.7-.2s-1.2-.3-1.8-.2c-1.4.3-2.7.4-3.6 1.6zm.4.4c-.2 0-.4 0-.4-.1 1.3-.2 2.5.2 3.7 0 1.2-.1 2.1-.9 3.1-1.3.2.4-.8.9-1.2 1.1-.5.2-1.1.3-1.6.4-1 .1-2.3 0-3.6-.1zm-7.2.9h.4c-.8.4-2.1.1-3 .2-1.1.2-1.4 1-2.1 1.8-.2-.5-.2-.9.1-1.4.4-.5.7-.5 1.3-.7 1.1-.3 2.2 0 3.3.1zm.2.5l.3-.3c-.3.9-1.7 1.2-2.5 1.3-.9.2-1.9.9-2.8.4.5-.6 1.6-.6 2.3-.7 1 0 2 0 2.7-.7zm.2-1.1c.1 0 .2.1.4.1-.8 0-1.5-.5-2.4-.5-.8 0-1.4.4-2.1.9-.1-.6 1.3-1 1.7-1.1.8 0 1.6.4 2.4.6zm6.4-1.3c-.1.1-.1.2-.2.4.2-.9 1.2-1.4 2-1.9.7-.4 1.4-.8 2.2-.8 0 .3-1.7.6-2 .8-.7.3-1.6.8-2 1.5zm.2-.2v.4c-.4-.9-.1-2.4.8-3.1 1-.6 2.2-.9 3.2-.3-.2.4-1.1.2-1.4.2-.5 0-.9 0-1.3.2-1.1.3-1.4 1.5-1.3 2.6zm-12.2 1.9l-.1.3c-.3-.6.5-1.7 1-2.1.6-.5 1.4-.6 2.2-.4-.2.3-.5.3-.8.3-.2 0-.6-.1-.8 0-.8.4-1.2 1.2-1.5 1.9zm-.8-5.1c0-1-.1-2.1.2-3.1-.2 1.1-.1 2.2-.1 3.4 0 1.1.1 2.2.2 3.3.1 1.2.2 2.2.4 3.3.4 1.2.3 2.5.4 3.7.3 2.3 1.3 4.6 2.2 6.7.9 2 2.1 4 3.8 5.3 2 1.6 4.4 1.5 6.7.6 1-.4 2-.9 2.9-1.5.8-.5 1.6-1.3 2.5-1.6-1.3 1.5-3.3 2.8-5.2 3.6-2.2 1-4.7.8-6.7-.6-1.8-1.3-3-3.3-4-5.3-1-2.1-1.9-4.4-2.2-6.7-.2-1-.2-2.1-.3-3.1l-.5-2.6c-.2-1.9-.3-3.7-.3-5.4zm15.6 2.6l.1-.3c-.1.7.3 1.4.9 1.7.7.4 1.3-.6 1.6-1.2.6.9-.4 1.6-1.3 1.6-.7.1-1.5-1-1.3-1.8zm.9.4c0-.1 0-.1.1-.2-.1.2.1.6.3.6.3.1.4-.4.4-.5-.2-.1-.7.2-.7-.1-.1-.4.8-.4 1-.1.2.7-1 1.5-1.1.3zm-13.5 2.5v-.3c.1.5.2 1.3.8 1.3.8.2.7-.7 1-1.3.2.3.4.6.3 1 0 .2-.1.4-.3.4-.3.2-.3.1-.5.1-.4 0-.7.1-1.1-.4-.1 0-.2-.4-.2-.8zm.9-.1c-.1.2.2.4.4.4h-.1c0-.3-.3-.4-.3-.4 0-.2.2-.2.3 0 .1.1.2.5 0 .5-.1.2-.3-.4-.3-.5zm13-2.7l.2-.1c-.1 0-.4.3-.3.4.1.1.5-.3.4-.4v.4c-.9-.4.2-1.2.3-.5.1 1.1-1.4.8-.6.2zm-12.9 3l.1.2h-.1c0 .1-.1 0 0-.2.2.2.3.2.4.2.4 0-.2.4-.4.3-.4-.1-.5-.9-.1-.8-.1.1-.1.2-.2.2.1-.1.4-.1.3.1.2.1-.1.6 0 0zm15.3-3.1v-.2c.4.6 2-.4 2.4-.5-.2.7-1.7 1.1-2.4.7zm0 .3c-.1 0-.1 0-.2-.1.4 0 .7.1 1.1-.1.4-.1.7-.5 1.2-.5-.1.9-1.3.8-2.1.7zm-.3-.4h-.2c.4-.1.6-.2.9-.4.3-.2.6-.7 1.1-.6-.3.8-1 1.1-1.8 1zm-.6-.4l-.2-.1c.4 0 .8 0 1.2-.1l1.2-.8c-.2 1-1.4 1.3-2.2 1zm-1.1 0h-.2c.4-.3 1-.2 1.4-.4.5-.2.8-.5 1.3-.8.2 1.1-1.8 1.2-2.5 1.2zm1.8 1.4c-.1.1-.1.1-.2.1.2-.5.8-.6 1.3-.6s1.1-.1 1.6 0c-.4.4-.8.3-1.3.2-.4-.1-1.1 0-1.4.3zm.2.1c.2-.3 1.5-.6 1.9-.4-.2.2-.6.5-.8.4-.2-.2-1.1 0-1.1 0zm-17.9 2.8c-.1.4-1.9.8-1.9 0 .3.1.5.1.8.1 0 0 .1.1.2.1h.4c.1 0 .3-.1.5-.2zm-.1.7c-.1.9-2.2.3-1.9-.6.5.2 1.2 1.1 1.9.6zm-.1-.8c-.2.6-2.2.3-1.9-.5l.8.4s.1.1.2.1.2.1.4.1c.1-.1.3-.1.5-.1zm.5-.3h.2c-.5.3-2.2.4-2.2-.4.3.1.6.1.8.3l.4.2h.8v-.1zm.1-.4c0 .2-.4.3-.6.4-.3.1-.7.4-1 .3.2-.3.4-.4.7-.4.3-.1.6 0 .9-.3zm-.3 1.6c-.2.1-.4.1-.7.3-.3.2-.5.5-.9.5.2-.8 1-.9 1.6-.8zm.7-.1h.2l-.8.6-.6 1c-.4-.9.5-1.4 1.2-1.6zm-.3-1.6c-.3.3-1.4.4-1.7.1.3 0 .5-.1.7-.1h1zm15.7-3.5c0-.2.9-.4 1.1-.3-.3.5-.7.1-1.1.3zm-10 11v-.2c.1.4.1.7.4 1 .4.4.8.3 1.3.4-.3.4-.7.1-1 0-.5-.2-.7-.8-.7-1.2zm1-8.5v-.2c.2.3 0 .8 0 1.1l.1 1.3c-.5-.3-.1-1.7-.1-2.2zm3.9 21l-.5-.8c1 .2 1.3 1.5 1.6 2.3.4.9.7 1.8.9 2.7l.5 3c.2.9.4 1.9.4 2.9 0 .8-.3 1.9-.7 2.6 0-.4-.2-.8-.2-1.3-.1-.4-.2-1-.2-1.4-.1-.4-.1-.8 0-1.3.1-.4.2-.8.2-1.3l-.2-1.2c0-.5-.1-1-.2-1.4-.2-1-.4-1.9-.7-2.9l-.9-1.9zm-4.4-7.4l-.3-.1.8-.1c.3-.1.6-.3 1-.3s.6 0 1-.2c.2-.1.4-.3.5-.3l.3.1.4-.1c.3.2-1.6 1.8-1.7 1.3-.1-.3-.2-.1-.4-.1l-.6-.1c-.3.1-.7.1-1-.1zm-9-12.8c.4-2.1.7-4 1.3-6.1.4-2.1.9-4.2 1.7-6.2.1-.2.2-.4.4-.6-.9 1.9-1.2 4-1.7 6.1l-1.3 6c-.4 2.1-.6 4.2-.9 6.4-.2 1.3-.4 2.6-.4 4l-.1 1.7c0 .4-.1 1 .1 1.4h-.1c.3-1 .2-2.1.2-3.1v-3.4l.4-6.8c.3-2.2.5-4.3 1-6.5.4-2 1-4 1.3-6l.3-1.3h.1c-.9 2.2-1.2 4.8-1.4 7.1-.3 1.9-.5 3.9-.7 5.8-.5 4.7-.6 9.4-.3 13.9.2 2.3.4 4.8.9 7.1.3 1.3.5 2.5.9 3.7.4 1.1.7 2.5 1.4 3.4.2.3.4.5.6.7.1-.4-.3-.9-.4-1.3l-.5-1.3c-.4-.9-.7-1.8-1-2.8-.6-2-1.2-4-1.5-6-.8-4.2-1.1-8.6-1.1-12.9l.1-7.3c0-1.1 0-2.2-.1-3.2l-.1-1.2c0-.3-.1-1.3.2-1.5.2 4.5.5 9 1.2 13.5.6 4.4 1.4 8.8 2.4 13.2.4 2.1 1 4.1 1.7 6.1.7 2.3 1.4 4.8 2.5 7 .4.9.8 1.8 1.3 2.6-1.7-2-2.8-4.2-3.7-6.7-.7-2.1-1.4-4.1-2.1-6.3-1.2-4.3-2.2-8.7-2.7-13.2-.6-4.5-1-9-.9-13.6l.1-2.8c.3.2 0 1.3 0 1.6 0 .5 0 1 .1 1.5.1 1.3.1 2.4.1 3.7 0 2.6-.1 5.2 0 7.8.1 4.2.5 8.5 1.3 12.6.4 2 1 4 1.6 5.9.4.9.6 1.8 1.1 2.7.1.4 1.3 2.3.4 2.2-.4 0-.8-.7-1.1-1-.4-.5-.6-1.2-.8-1.8-.4-1.1-.8-2.2-1.1-3.5-.5-2.3-.9-4.9-1.2-7.3-.4-4.8-.4-9.6 0-14.5.2-2 .4-3.9.7-5.8.4-2.3.6-4.7 1.3-6.9.1-.2.4-1.4.5-1.4 0 0-.2 1.1-.2 1.2-.2 1.1-.4 2.2-.7 3.2-.4 2-.9 4-1.2 5.9-.7 4.5-1 9-.9 13.5v1.7c0 .4 0 1.1-.2 1.5-.1.2-.2.2-.3.1-.2-.1-.1-.5-.1-.7 0-.5 0-1.1.1-1.6.2-2.4.4-4.9.8-7.4.4-.9.6-1.8.7-2.8zm8.5-15.2l4.5 5.1c3.2 3.8 6.4 7.6 9.2 11.7 2.9 4.2 5.6 8.7 7.6 13.5 1 2.2 1.8 4.5 2.3 6.8.5 2.2.9 4.7.4 7-.1.4-.2.7-.2 1 .2-2.2-.2-4.5-.6-6.7-.4-2.3-1.3-4.6-2.2-6.7-2-4.7-4.6-9.2-7.3-13.4-2.6-4.1-5.6-8.2-8.7-11.9-1.4-1.7-3-3.4-4.4-5.2-.8-.9-1.5-1.7-2.2-2.5m16.8 12.5c-.7-2.8-1.1-5.8-2.3-8.5.9 1.8 1.3 3.8 1.8 5.8l1.7 6.9c1.1 4.9 1.9 9.9 2.9 14.9.4 2.3 1 4.6 1.6 6.8.3 1.1.5 2.2.7 3.2.1.5.3 1.1.4 1.5.1.3.6 1.2.4 1.4-.3.4-.4-.5-.4-.6l-.7-1.4-.9-2.8c-.5-1.8-1-3.7-1.4-5.6-1-4.4-1.4-8.9-1.6-13.4-.1-2.1-.1-4.2 0-6.3l.1-2.9c.1-1-.1-2 .2-2.9.1-.4.1.5.1.6.1.5.2 1 .2 1.5l.4 3.4c.4 2.4.7 4.8 1.2 7.1.8 4.5 1.9 8.8 2.8 13.3.4 2.2.9 4.4 1.3 6.7.2 1.1.4 2.2.4 3.3.2 1.1.1 2.2.1 3.3l-1.4-6.3-1.3-6.7c-1-4.4-2-8.8-2.7-13.3-.4-2.2-.6-4.4-.9-6.6-.2-2-.4-4.1-.4-6.1h.1c-.4.9-.2 2-.3 3s-.1 1.9-.1 2.9c-.1 2.1-.1 4.2 0 6.3.1 4.5.5 9.1 1.6 13.5.4 1.7.8 3.4 1.3 5.1.5 1.7 1.3 3.4 1.9 5.2h-.2c0-.5-.3-1-.4-1.4l-.4-1.6-.7-3.1c-.5-2.2-1.1-4.6-1.5-6.8-1-4.9-1.8-9.9-2.9-14.7-.1-1.8-.4-3.2-.7-4.7z"/><path stroke="#000" stroke-width=".5" stroke-miterlimit="10" d="M8.1 15.5c0-.1 0-.2.1-.2.6-.5 3.6-2.8 7.4-3.3 4.2-.5 3.1-.3 4.5-1s5-2.3 8.8-1.9h.1l5.7 4.5s.9.8 1 1.8c.1.9-.4-1.1-.5-1.5 0 0 0-.1-.1-.1l-5.4-3.9c-.2-.1-.4.1-.3.3.6 1.6 1.7 5.3-2.3 6.8-5.1 2-7.7-4.7-7.9-5-.4-.6-2.4-.1-3 .1-.1 0-.2.1-.2.2.1 1 .7 6.5-2.1 7.9-3.1 1.5-4.8-1.4-5.8-4.7z" fill="none"/></svg>