<svg baseProfile="tiny" xmlns="http://www.w3.org/2000/svg" viewBox="0 0 50 50"><g><path fill="#B0A5B9" d="M31.6 51.4M32.6 49.9l-.6-1.5M26.1 50.7c1-.5 1.8-1 3-1l-.7-1.3c-.7 1.3-2.3 2-3.5 2.8M21.3 52.4c1.3-.8 2.3-1.8 3-3.3.2-.5-.3-1.2-.8-1-1 .2-1.8.5-2.7 1-.7.5-1.5 1-2.3 1.2l1 1.3c.7-1.7 2.5-2.3 3.7-3.7.5-.7 0-1.7-.8-1.5-.8.3-1.7.8-2.3 1.3-.7.5-1.3 1-2 1l.7 1.3c.5-.8 1.3-1.5 2-2.2.8-.7 1.5-1.3 2.2-2.2.5-.7-.3-1.3-1-1.3-1.2.2-2.2.8-3 1.5s-1.7 1.3-2.7 1.5l1 1.3 4.2-5.7c.2-.5.2-1-.3-1.2-.5-.7-1-.5-1.2-.2-.8 2.3-3 3.7-4 5.9-.3.7.2 1.5 1 1.3 1-.3 2-1 2.8-1.5.8-.7 1.7-1.3 2.7-1.5l-1-1.3c-.5.8-1.3 1.3-2.2 2-.8.7-1.5 1.3-2.2 2.2-.3.5.2 1.3.7 1.3 1.8-.2 3.2-1.8 4.8-2.3l-.7-1.5c-1.3 1.3-3 2.2-4.2 3.8-.5.7.3 1.3 1 1.3.8-.2 1.7-.7 2.3-1 .7-.5 1.5-1 2.3-1l-.8-1c-.2.5-.5.8-.8 1.3l-1.5 1M29.8 49.5c.3-.7-.2-1.3-.7-1.3-2.3-.2-4.3 1.5-6.4 2.7-1 .7-1.8 1.2-2.7 1.7M33.1 49.9c.5-.5.2-1.5-.7-1.5-2.5-.2-4.7 1.3-6.7 2.7M32.1 51.2"/><path d="M19.9 29.8c0-.2.2-.7 0-.7-.5 1-.2 2.2.2 3 .5 1 1.2 1.8 2.2 2.3.8.3 1.8.2 2.7-.2l1.3-.7.5-.5.2-.2s0-.2-.2-.2c.2-.3.2-.3 0-.3s-.5.2-.7.2c-.2.2-.5.2-.5.3-.5.2-.7.5-1 .7-.5.3-1 .3-1.5.3-.5-.2-1-.3-1.3-.7-.5-.5-1-1-1.3-1.7-.6-.1-.6-.8-.6-1.6zm16.9 0c0-.2.2-.7 0-.8-.2 1-.2 2-.7 2.7-.5.8-1.5 1.5-2.7 1.5-.5 0-1 0-1.5-.2s-1-.5-1.2-.8l-.1-.2c-.2-.2-.2.2-.2.3 0 .3.2.7.2.8.3.5.8.7 1.3.7.2 0 .5 0 .7-.2h.7c.5 0 1.2-.2 1.5-.5 1-.5 1.5-1.5 1.7-2.5.3-.1.3-.5.3-.8zm-17.4-7.2c0-.2 0-.2-.2-.2l-.2-.2s-.2-.2-.2 0l.3.5.5 1.3c.2 1 .7 1.8.7 2.8 0 .5-.2 1 0 1.5v.7c0 .2.2.2.2 0l.2-.3c.2-.2.2-.5.2-.7s0-.5-.2-.8c-.2-.5-.2-1-.3-1.7-.2-.5-.5-1.2-.5-1.7 0-.2-.2-.9-.5-1.2zm2.4 12.4c0-.2-.2-.7-.3-.5-.1.1.1.5.3.5.2.7.2 1.2.3 1.5.2 1 .5 2-.2 2.8-.2.5-.5.7-.8 1-.2.2-.2.3-.5.5-.2.2-.3.5-.2.5l.2.2.3-.2.5-.5c.3-.3.5-.8.7-1.3l.5-1c.2-.5.2-1 0-1.3-.2-.5-.2-1-.5-1.5 0 .1-.2-.2-.3-.7zm7.5.3c.2-.2.2-.5.3-.7-.5.8-.8 1.8-1.2 2.7l-1 2.8-.7 2.2v1.2c0 .3-.2.8.2 1l.2-1.5.2-1.3c.2-.5.2-1 .5-1.5l.3-1.3c.3-1.3.7-2.4 1.2-3.6zm5.2-31.6l-.3.2 1.3-.2s1 .3 1.3.8l.2 1 .2.8c0 .2.2.2.2.2.2-.2.2-.2.2-.3 0-.2.2-.5 0-.7l-.2-.5-.2-.5c-.2-.3-.6-.5-.7-.6-.7-.5-1.5-.5-2-.2zm3.1 4.2v-1.4c-.2 1 0 2 0 3l.2 3.5c0 1.8 0 3.7-.3 5.5-.2 1-.3 2.2-.7 3.2-.2.5-.2 1-.5 1.5-.2.3-.2.5-.2.7-.1.2-.1.5-.1.7.5-.5.7-1 .8-1.5.2-.5.5-1.2.5-1.7.2-.8.2-1.8.3-2.7.2-1.7.2-3.5.2-5.2s-.2-3.6-.2-5.6zm-4.3 1.3l.2-.7c-.2.2-.2.6-.2.7l-.3.9c-.2.5-.2 1-.2 1.5 0 1 0 1.8-.3 2.7l-.5 1.3c-.2.2-.2.5-.2.7-.2.2-.2.5-.2.7l.5-.5c.2-.2.3-.5.3-.7l.3-1.3c.2-1 .2-1.8.2-2.8.2-1 .2-1.8.4-2.5zm-19.6-1.3l1-.7c-.5.2-1 .5-1.3.8l-1.3 1.2-2.3 1.8c-1.5 1.2-2.8 2.3-4 3.8-.7.7-1.3 1.7-1.5 2.7l1.5-2.2s1-1.5 1.7-2.2 1.3-1.3 2-1.8l2.2-1.8c.7-.3 1.4-1.1 2-1.6zm-8.8 7.2l.1-.5c-.2.2-.2.5-.2.7v.7c0 .5.2 1 .3 1.5.2.5.5 1 .8 1.2l.7.3c.2 0 .2 0 .3.2.2 0 .3 0 .3-.2-.2-.3-.5-.5-.8-.7 0-.2-.4-.2-.4-.2s-.2-.3-.3-.5c-.7-.5-.8-1.5-.8-2.5zm2.8 4.7c-.3-.3-.7-.5-.8-.8.7.7 1.3 1.3 2.2 2 1 .7 2 1.5 3.2 2.2l3.2 1.5 3 1.5 1.2.5c.5.2.8.3 1.3.3l-1.3-.7-1.3-.7-1.5-.7-1.7-.8c-2.3-.8-4.5-2.2-6.4-3.8-.6-.2-.8-.4-1.1-.5zm11.4 5.1l-.2-.2c-.2.2.2.5.3.7l.5.7.3.7v.5c0 .2.2.3.2.3.2.2 0-.5 0-.7l-.2-.3c-.2.2-.2-.2-.2-.2-.2-.5-.4-1-.7-1.5zm-4.4-14.8l.3-.5c-.5.3-.7.7-1 1l-1 1.2-1 1-1.2 1-1.2 1c-.2.2-.5.3-.5.5 0 .3.5 0 .7 0 .5-.2.8-.7 1.2-1 .3-.5.7-.7 1-1 .5-.5 1-1 1.3-1.5.6-.7.9-1.2 1.4-1.7zm-3.5 6.1l-1-.3c1.8.7 3.5 1.8 5.4 2.5 1 .5 2 .7 3 .8 1 .2 2.2.3 3-.3.3-.2.5-.5.5-.7-.5.7-1.7.8-2.5.8-.5 0-1 0-1.5-.2l-1.5-.3c-2-.4-3.5-1.4-5.4-2.3zm10.9-8.3l.3.1-.3-.1-.5-.3c-.2 0-.2.2-.2.3 0 .5.8.7 1.2.7.5.2.8 0 1.2-.3.1-.3.3-.3.3-.6.2-.2.2-.5 0-.7 0 .2 0 .3-.2.5l-.3.5c-.2.2-.5.5-1 .5-.3 0-.7-.2-1-.3-.2-.2-.3-.3-.2-.5.4-.2.5 0 .7.2zm-5.4-.4l-.5.5c1.3-1.2 3.5-1.8 5.4-.7.5.3.7.7 1 1l.5.5c0 .2.2.3.3.5 0-.3 0-.5-.2-.7s-.2-.5-.5-.7c-.3-.5-.7-.7-1-1-.5-.2-.7-.5-1.2-.5s-.8-.2-1.3 0c-.8.3-1.6.6-2.5 1.1zm7.9 0l-.7-.7c.3.5.7.7 1.2 1.2.5.3.8.7 1.3.7.7.2 1.2-.2 1.7-.3s1-.5 1.3-.7l2.6-1.7c.5-.3.7-.5 1.2-1l.5-.5c0-.2.2-.2.2-.3.1-.2.1-.2.1-.3-.5 0-.8.5-1.3.7-.5.3-.8.7-1.2 1-.7.7-1.5 1.3-2.3 1.8-.7.7-1.5 1.2-2.3 1.2-1 .1-1.6-.4-2.3-1.1zm3 5.4c-.2.2-.2.2-.2.3l.5-.5c.2-.3.3-.3.5-.5l.8-1c.3-.3.8-.5 1.2-.8.2-.2.7-.3.7-.5 0-.3-.3-.2-.5-.2-.3.2-.7.3-.8.7l-.5.3-.5.5c-.4.4-.9 1-1.2 1.7zm-2.3-5.9c-.3 0-.5.5-.7.7.2-.3.8-1 1.2-.3.3.3.5.8.5 1.3l-.2 3.2c0 .5.3 1 .8 1 .5.2 1 .2 1.5.3.5.3.5.8.3 1.3s0 .8.5 1.2c.2.2.3.2.5.3.2.2.5.2.7 0-.5-.2-1-.5-1.2-1v-1.3c-.2-1.2-1.5-1-2.3-1.3-.5-.2-.5-.7-.5-1.3 0-.5 0-1 .2-1.5 0-.5 0-1-.2-1.5s-.3-1-.8-1.2c-.2.1-.2.1-.3.1zm-5.1-1.1c.2-.2.3-.5.5-.5-1 .5-1.3 1.8-.5 2.7.7.7 1.8.7 2.7 1 .3.2.7.5.7.7 0 .7-.2 1-.3 1.3l-.5 1.2v.7c0 .2.2.3.3.5.3-.3.3-.8.3-1.3l.3-1.3.2-.7c.2-.2 0-.5-.2-.7-.3-.5-1-.5-1.3-.7-.7 0-1.5 0-1.8-.5-.7-.8-.7-1.8-.4-2.4zm-3.5.8l.5-.2c-.5.2-1 .5-1.3.8-.2.2-.2.5-.2.7s.2.5.5.5l1.5-.5.7.2s.7.5.7.2-.3-.5-.5-.5c-.2-.2-.5-.2-.7-.2-.5 0-1 .3-1.3.5-.2.2-.5.2-.7 0-.3-.2-.3-.5-.2-.7.4-.1.7-.5 1-.8zm17.4 13.7c0-.2 0-.7-.2-.7-.2.2-.2.7-.2.7v1.7c.2 1.2.5 2.3.7 3.3.2.5.3 1.2.7 1.7l.5.7c.2.2.2.2.2.3.2.2.2.2.3.2.3-.2.2-.3.2-.7l-.3-.7c-.2-.2-.2-.5-.5-.7l-.3-.5c-.3-.8-.5-1.7-.7-2.7-.2-.5-.2-1-.2-1.5-.2-.2-.2-.6-.2-1.1zm-18.7 30.6c.2-1.8.5-3.8 1.2-5.5.7-1.8 1.7-3.5 3.2-5 .3-.2.5-.5.7-.5l1.5-1.3c-.2 0-.5.2-.7.3l-.7.5-1.3 1c-.7.7-1.3 1.3-1.7 2.2-1 1.7-1.8 3.5-2.2 5.5m18.6-13.7c.2-.2.5-.7.3-.7-.7.7-1 1.5-1.3 2.3-.5 1-.5 2-.7 3s-.3 2-.3 3c0 .5 0 1 .2 1.3l.2.7c.2.2.2.2.3.2.2 0 .2 0 .3-.2.2-.5.2-1 .2-1.5s-.2-1-.2-1.3c-.2-.2-.2-.5-.2-.7s.2-.5.2-.7c0-.5 0-1 .2-1.5l.3-2.2c0-.3 0-.7.2-1-.1-.2.1-.4.3-.7zm1.3 12.2c-.3-1-.7-2-1.3-2.8-.5-.8-1-1.5-1.3-2.5.2 0 .2-.2.2-.2-.2-.7-.2-1.3 0-2-.3.3-.3.8-.3 1.2 0 .5.2 1 .2 1.3.2 1 .8 1.8 1.3 2.5 1 1.8 1.5 3.8 1.5 5.9m-19-39.4c0-.2 0-.2-.2-.2-.2.5.7 1 .8 1.2l.8 1.3c.2.2.2.2.2.3.2.2.2.2.2-.2 0-.3-.2-.5-.3-.7-.3-.5-.5-.8-1-1.2l-.5-.5zm-2.2-1.1c.2-.2.5-.7.7-.5-.5-.2-.8.5-1 .8-.3.5-.5 1-.3 1.3s.8.7.8 1.3c.2.5-.2 1-.2 1.5-.2.5-.2 1 .2 1.5.3.3.7.7 1 .8.5.3.8.7.8 1.2s-.5 1-.3 1.3c.2.5.5.2.7 0-.2 0-.5.2-.5 0 .2-.5.5-.8.5-1.3s-.3-.8-.7-1c-.7-.5-1.8-1-1.7-2l.2-1.3s0-1-.5-1.3c-.3-.3-.7-.7-.5-1.2.3-.5.6-.8.8-1.1zm11.2 3l-.3-.5c0 .5.5 1 .8 1.3.3.2.7.7 1 1 .5.7 1.3 1.5 2.2 1.8 1 .3 2.2 0 3-.5l-1.3.2c-.5.2-.8.2-1.3.2s-.8-.3-1.2-.5c-.5-.3-.7-.7-1-1l-.8-1c-.4-.4-.8-.5-1.1-1zm-9.5-4.9c.2-.2.2-.2.3-.2-.5-.3-1 .5-1 .7-.3.5-.5.8-.7 1.3s-.2.8-.2 1.3c0 .2.2.5.2.5.2.2.5.5.7.5 0-.2-.2-.3-.3-.5-.2-.2-.2-.3-.2-.5-.2-.5 0-.8.2-1.2l.5-1.2c.1-.4.1-.5.5-.7zm8.3 4.5c0-.2 0-.3-.2-.5v.7c0 .2 0 .5-.2.7l-.5 1.3c-.5.8-1.3 1.3-1.8 2-.2.2-.5.5-.3.8l.5-.5.5-.5c.2-.3.5-.7.8-1 .7-.7 1-1.7 1-2.7l.2-.3zm-8.7 2l-.5-.5c.2.5.5.7.8 1l1 1 1 1s1 .5 1.5.7l2 .5c.7 0 1.3-.2 2-.3-.5-.2-1 0-1.5 0s-1 .2-1.5 0c-1-.2-2-.5-2.7-1l-1.2-1c0-.5-.4-.9-.9-1.4zm2.5-3.6c0 .2 0 .2.2.2 0-.2 0-.5.2-.7s.2-.5.5-.5c.5-.5.8-.2 1.3-.2.2 0 .2-.2 0-.2h-.3c-.2 0-.5 0-.7.2-.5.2-.7.7-.8 1-.4 0-.4 0-.4.2zm.4.5l.2-.3.5-.3c.2-.2 1-.5.7-.7-.2-.2-.5.3-.7.5-.2.1-.6.4-.7.8zm-1.5 1.6c.1 0 .1.2 0 0 .2-.3-.7.2-.7.3-.2.2-.5.7-.2 1l.2.2c.2 0 .2-.2 0-.2-.2-.2-.2-.5-.2-.5.2-.2.2-.5.5-.7l.4-.1zm.3.4c-.2 0-.2.5-.2.7-.2.3-.7.7-.5.8.2.3.5-.3.5-.5l.2-1zm-2.3-2.7c.2-.2.3-.5.5-.5-.5.3-.7.8-1 1.3-.2.5-.5 1-.5 1.5l1.8 2.2-.2 1.3c-.2.5-.3.8-.2 1.3v.3l.2.2h.2c.2-.2.2-.3.2-.5.2-.5.2-.8.2-1.3s0-1-.2-1.3c-.2-.5-.5-.8-1-1-.5-.3-1-.5-1-1.2 0-.5.2-1 .3-1.5.5-.3.7-.5.7-.8zm-.2-3.7c0-.3 0-.8.2-1-.5.2-.3 1 0 1.3s1 .3 1.5.3c1-.2 1.8-.5 2.7-1 .8-.3 1.8-.7 2.7-.5.5.2 1 .2 1.3.7s.3.8.3 1.3l-.2.8v.8c.5-.2.5-.7.7-1 .2-.5.2-1 0-1.3-.3-1-1.7-1.5-2.5-1.5s-1.8.5-2.7.8c-1 .3-1.8.8-2.8.8-.4 0-1 0-1.2-.5zm1-.5l-.2.5c.2-.5.5-.8.7-1.2.3-.3.8-.7 1.3-.7 1-.2 1.3 1.2 1.7 1.8l.3.7c.2.2.2 0 .3-.2.2-.2 0-.2 0-.3-.2-.5-.3-1-.7-1.3-.3-.3-.7-.8-1.2-1s-1.2 0-1.5.3c-.2.6-.5.9-.7 1.4zm5.7 11.4c-.2 0-.2-.2-.3 0h.3c.3.2.5.3.5.5.3.2.5.7.7 1l.7.8.3.5c.2.2.5.3.5.2 0-.3-.3-.7-.5-.8l-.3-.3-.3-.5c-.4-.6-.9-1.3-1.6-1.4zm3.5.5c-.2 0-.3 0-.5.2.5-.2.8-.2 1.3.2.5.2.7.5 1.2.8.8.7 1.3 1.5 1.8 2.5.2.2.2.3.3.5.2-.5-.2-1-.5-1.5l-.5-.7-.5-.7-1.3-1-1.3-.3zm2.8 4c.2 0 .2 0 .2-.2l-.5.2v.2c.2 0 .5 0 .7.2.2 0 .5 0 .7-.2l.7-.3.2-.2c.2-.2 0-.3-.2-.2-.2.2-.3.2-.5.3-.2.2-.2.2-.5.3-.2.2-.5.2-.7.2v-.3c-.2.2-.3.2-.3.2l.2-.2zm-3.5-13.4c-.2 0-.2.2-.2.2.2-.2.3-.3.7-.2.2 0 .3.3.5.5.2.3.2.5.2.8l-.2.8c0 .2-.2.3 0 .3.2.2.2 0 .2 0 .2-.2.2-.5.2-.7 0-.5 0-.8-.2-1.3-.3-.4-.7-.7-1.2-.4zm-3.8 34.5c-.7-1-1.3-2.3-1.3-3.5-.2 1 .3 2.2.8 3 .5 1 1.3 1.8 2.2 2.3 1.7 1.2 3.7 1.8 5.7 2l1.5.2 1.5-.2c1-.2 1.8-.3 2.7-.7.5-.2 1-.5 1-1 .2-.7-.3-1-.8-1.2-1-.2-2 .7-2.8 1.2-.7.5-1.3 1.2-2.2 1.5-.8.5-1.8.7-2.8.7-1.8-.2-3.5-1-5.4-1.7l-1.5-.7c-.3-.1-.6-.1-.8-.1l-.5-.3c-.2-.2-.5-.2-.7-.2-.2.2-.3.5-.2.7.2.2.3.5.5.5l.5.5c1.5 1.5 3.5 2.3 5.4 3 1 .3 2.2.5 3.3.5h1.8l.2-.2c.2 0 .2 0 .3-.2.2 0 .3 0 .3-.2h-.3c-1-.3-2.2-.5-3.2-.5l-3.2-.7c-1-.3-1.8-.7-2.7-1.3-.7-.5-1.5-1.2-2.2-1.8 0 0-.2 0-.2-.2 0 .2-.2.3-.2.3.2.2.5.2.5.3l.7.2 1.5.7 2.7 1.3c1.7.7 3.7 1.2 5.5.2.8-.5 1.5-1 2.2-1.5.5-.3.7-.7 1.2-.8.5-.3 1-.7 1.5-.7.3-.2 1-.2 1.2.5s-.8.7-1.2.8c-.8.3-1.8.5-2.7.7-2 .5-4.2.2-6-.5-1.5-.6-2.8-1.6-3.8-2.9zm-4 5.7c.5-1 .8-2.2 1.2-3.2 0 .5-.2.5-.2.5.7-1.7 1.5-3.3 2.3-5l.3-.7c-.3.3-.5.7-.7 1.2l-.7 1.2-1.3 2.5c-.7 1.7-1.5 3.5-2.2 5.4"/></g><g fill="#BFBFBF"><path d="M22.9 31c.2-.4-.1-.2 0 0-.2.2 0 .3.2.5s.5.2.5 0c.2-.2.2-.3 0-.5 0-.2-.2-.3-.2-.3s-.6-.1-.5.3c.2 0 .2.2.3.2.2 0 .2 0 .3.2v-.2c-.1.1-.6.1-.6-.2zM33.8 30c.2-.4-.1-.2 0 0-.2.2 0 .3.2.5s.5.2.5 0c.2-.2.2-.3 0-.5 0-.2-.2-.3-.2-.3s-.6-.1-.5.3c.2 0 .2.2.3.2.2 0 .2 0 .3.2v-.2c-.1.1-.6.1-.6-.2z"/></g></svg>