<?xml version="1.0" encoding="utf-8"?>
<!-- Generator: Adobe Illustrator 18.1.1, SVG Export Plug-In . SVG Version: 6.00 Build 0)  -->
<svg version="1.1" baseProfile="tiny" id="Layer_1" xmlns="http://www.w3.org/2000/svg" xmlns:xlink="http://www.w3.org/1999/xlink"
	 x="0px" y="0px" viewBox="0 0 50 50" xml:space="preserve">
<g>
	<path fill="#B0A5B9" d="M31.6,51.4"/>
	<path fill="#B0A5B9" d="M32.6,49.9L32,48.4"/>
	<path fill="#B0A5B9" d="M26.1,50.7c1-0.5,1.8-1,3-1l-0.7-1.3c-0.7,1.3-2.3,2-3.5,2.8"/>
	<path fill="#B0A5B9" d="M21.3,52.4c1.3-0.8,2.3-1.8,3-3.3c0.2-0.5-0.3-1.2-0.8-1c-1,0.2-1.8,0.5-2.7,1c-0.7,0.5-1.5,1-2.3,1.2
		l1,1.3c0.7-1.7,2.5-2.3,3.7-3.7c0.5-0.7,0-1.7-0.8-1.5c-0.8,0.3-1.7,0.8-2.3,1.3c-0.7,0.5-1.3,1-2,1l0.7,1.3c0.5-0.8,1.3-1.5,2-2.2
		c0.8-0.7,1.5-1.3,2.2-2.2c0.5-0.7-0.3-1.3-1-1.3c-1.2,0.2-2.2,0.8-3,1.5c-0.8,0.7-1.7,1.3-2.7,1.5l1,1.3c1-2.2,3.2-3.5,4.2-5.7
		c0.2-0.5,0.2-1-0.3-1.2c-0.5-0.7-1-0.5-1.2-0.2c-0.8,2.3-3,3.7-4,5.9c-0.3,0.7,0.2,1.5,1,1.3c1-0.3,2-1,2.8-1.5
		c0.8-0.7,1.7-1.3,2.7-1.5l-1-1.3c-0.5,0.8-1.3,1.3-2.2,2c-0.8,0.7-1.5,1.3-2.2,2.2c-0.3,0.5,0.2,1.3,0.7,1.3
		c1.8-0.2,3.2-1.8,4.8-2.3l-0.7-1.5c-1.3,1.3-3,2.2-4.2,3.8c-0.5,0.7,0.3,1.3,1,1.3c0.8-0.2,1.7-0.7,2.3-1c0.7-0.5,1.5-1,2.3-1
		l-0.8-1c-0.2,0.5-0.5,0.8-0.8,1.3l-1.5,1"/>
	<path fill="#B0A5B9" d="M29.8,49.5c0.3-0.7-0.2-1.3-0.7-1.3c-2.3-0.2-4.3,1.5-6.4,2.7c-1,0.7-1.8,1.2-2.7,1.7"/>
	<path fill="#B0A5B9" d="M33.1,49.9c0.5-0.5,0.2-1.5-0.7-1.5c-2.5-0.2-4.7,1.3-6.7,2.7"/>
	<path fill="#B0A5B9" d="M32.1,51.2"/>
	<g>
		<path d="M19.9,29.8c0-0.2,0.2-0.7,0-0.7c-0.5,1-0.2,2.2,0.2,3c0.5,1,1.2,1.8,2.2,2.3c0.8,0.3,1.8,0.2,2.7-0.2
			c0.5-0.2,0.8-0.5,1.3-0.7c0.2-0.2,0.3-0.3,0.5-0.5l0.2-0.2c0,0,0-0.2-0.2-0.2c0.2-0.3,0.2-0.3,0-0.3c-0.2,0-0.5,0.2-0.7,0.2
			c-0.2,0.2-0.5,0.2-0.5,0.3c-0.5,0.2-0.7,0.5-1,0.7c-0.5,0.3-1,0.3-1.5,0.3c-0.5-0.2-1-0.3-1.3-0.7c-0.5-0.5-1-1-1.3-1.7
			C19.9,31.3,19.9,30.6,19.9,29.8z M36.8,29.8c0-0.2,0.2-0.7,0-0.8c-0.2,1-0.2,2-0.7,2.7c-0.5,0.8-1.5,1.5-2.7,1.5
			c-0.5,0-1,0-1.5-0.2s-1-0.5-1.2-0.8L30.6,32c-0.2-0.2-0.2,0.2-0.2,0.3c0,0.3,0.2,0.7,0.2,0.8c0.3,0.5,0.8,0.7,1.3,0.7
			c0.2,0,0.5,0,0.7-0.2s0.5,0,0.7,0c0.5,0,1.2-0.2,1.5-0.5c1-0.5,1.5-1.5,1.7-2.5C36.8,30.5,36.8,30.1,36.8,29.8z M19.4,22.6
			c0-0.2,0-0.2-0.2-0.2l-0.2-0.2c0,0-0.2-0.2-0.2,0l0.3,0.5c0.2,0.5,0.3,0.8,0.5,1.3c0.2,1,0.7,1.8,0.7,2.8c0,0.5-0.2,1,0,1.5v0.7
			c0,0.2,0.2,0.2,0.2,0l0.2-0.3c0.2-0.2,0.2-0.5,0.2-0.7c0-0.2,0-0.5-0.2-0.8c-0.2-0.5-0.2-1-0.3-1.7c-0.2-0.5-0.5-1.2-0.5-1.7
			C19.9,23.6,19.7,22.9,19.4,22.6z M21.8,35c0-0.2-0.2-0.7-0.3-0.5C21.4,34.6,21.6,35,21.8,35c0.2,0.7,0.2,1.2,0.3,1.5
			c0.2,1,0.5,2-0.2,2.8c-0.2,0.5-0.5,0.7-0.8,1c-0.2,0.2-0.2,0.3-0.5,0.5c-0.2,0.2-0.3,0.5-0.2,0.5c0.2,0.2,0.2,0.2,0.2,0.2l0.3-0.2
			l0.5-0.5c0.3-0.3,0.5-0.8,0.7-1.3l0.5-1c0.2-0.5,0.2-1,0-1.3c-0.2-0.5-0.2-1-0.5-1.5C22.1,35.8,21.9,35.5,21.8,35z M29.3,35.3
			c0.2-0.2,0.2-0.5,0.3-0.7c-0.5,0.8-0.8,1.8-1.2,2.7l-1,2.8l-0.7,2.2c0,0.3,0,0.7,0,1.2c0,0.3-0.2,0.8,0.2,1l0.2-1.5l0.2-1.3
			c0.2-0.5,0.2-1,0.5-1.5l0.3-1.3C28.4,37.6,28.8,36.5,29.3,35.3z M34.5,3.7l-0.3,0.2c0.5,0,0.8-0.2,1.3-0.2c0.5,0,1,0.3,1.3,0.8
			l0.2,1l0.2,0.8c0,0.2,0.2,0.2,0.2,0.2c0.2-0.2,0.2-0.2,0.2-0.3c0-0.2,0.2-0.5,0-0.7c0-0.2-0.2-0.3-0.2-0.5l-0.2-0.5
			C37,4.2,36.6,4,36.5,3.9C35.8,3.4,35,3.4,34.5,3.7z M37.6,7.9V6.5c-0.2,1,0,2,0,3l0.2,3.5c0,1.8,0,3.7-0.3,5.5
			c-0.2,1-0.3,2.2-0.7,3.2c-0.2,0.5-0.2,1-0.5,1.5c-0.2,0.3-0.2,0.5-0.2,0.7C36,24.1,36,24.4,36,24.6c0.5-0.5,0.7-1,0.8-1.5
			c0.2-0.5,0.5-1.2,0.5-1.7c0.2-0.8,0.2-1.8,0.3-2.7c0.2-1.7,0.2-3.5,0.2-5.2S37.6,9.9,37.6,7.9z M33.3,9.2l0.2-0.7
			C33.3,8.7,33.3,9.1,33.3,9.2L33,10.1c-0.2,0.5-0.2,1-0.2,1.5c0,1,0,1.8-0.3,2.7c-0.2,0.5-0.3,0.8-0.5,1.3
			c-0.2,0.2-0.2,0.5-0.2,0.7c-0.2,0.2-0.2,0.5-0.2,0.7c0.2-0.2,0.3-0.3,0.5-0.5c0.2-0.2,0.3-0.5,0.3-0.7l0.3-1.3
			c0.2-1,0.2-1.8,0.2-2.8C33.1,10.7,33.1,9.9,33.3,9.2z M13.7,7.9l1-0.7c-0.5,0.2-1,0.5-1.3,0.8l-1.3,1.2l-2.3,1.8
			c-1.5,1.2-2.8,2.3-4,3.8c-0.7,0.7-1.3,1.7-1.5,2.7c0.5-0.7,1-1.5,1.5-2.2c0.5-0.7,1-1.5,1.7-2.2s1.3-1.3,2-1.8l2.2-1.8
			C12.4,9.2,13.1,8.4,13.7,7.9z M4.9,15.1L5,14.6c-0.2,0.2-0.2,0.5-0.2,0.7v0.7c0,0.5,0.2,1,0.3,1.5c0.2,0.5,0.5,1,0.8,1.2l0.7,0.3
			c0.2,0,0.2,0,0.3,0.2c0.2,0,0.3,0,0.3-0.2c-0.2-0.3-0.5-0.5-0.8-0.7C6.4,18.1,6,18.1,6,18.1s-0.2-0.3-0.3-0.5
			C5,17.1,4.9,16.1,4.9,15.1z M7.7,19.8c-0.3-0.3-0.7-0.5-0.8-0.8c0.7,0.7,1.3,1.3,2.2,2c1,0.7,2,1.5,3.2,2.2c1,0.5,2.2,1,3.2,1.5
			c1,0.5,2,1,3,1.5l1.2,0.5c0.5,0.2,0.8,0.3,1.3,0.3l-1.3-0.7l-1.3-0.7l-1.5-0.7l-1.7-0.8c-2.3-0.8-4.5-2.2-6.4-3.8
			C8.2,20.1,8,19.9,7.7,19.8z M19.1,24.9l-0.2-0.2c-0.2,0.2,0.2,0.5,0.3,0.7l0.5,0.7l0.3,0.7v0.5c0,0.2,0.2,0.3,0.2,0.3
			c0.2,0.2,0-0.5,0-0.7l-0.2-0.3c-0.2,0.2-0.2-0.2-0.2-0.2C19.6,25.9,19.4,25.4,19.1,24.9z M14.7,10.1c0-0.2,0.5-0.5,0.3-0.5
			c-0.5,0.3-0.7,0.7-1,1l-1,1.2c-0.3,0.3-0.7,0.7-1,1l-1.2,1l-1.2,1c-0.2,0.2-0.5,0.3-0.5,0.5c0,0.3,0.5,0,0.7,0
			c0.5-0.2,0.8-0.7,1.2-1c0.3-0.5,0.7-0.7,1-1c0.5-0.5,1-1,1.3-1.5C13.9,11.1,14.2,10.6,14.7,10.1z M11.2,16.2l-1-0.3
			c1.8,0.7,3.5,1.8,5.4,2.5c1,0.5,2,0.7,3,0.8c1,0.2,2.2,0.3,3-0.3c0.3-0.2,0.5-0.5,0.5-0.7c-0.5,0.7-1.7,0.8-2.5,0.8
			c-0.5,0-1,0-1.5-0.2s-1-0.2-1.5-0.3C14.6,18.1,13.1,17.1,11.2,16.2z M22.1,7.9L22.4,8L22.1,7.9l-0.5-0.3c-0.2,0-0.2,0.2-0.2,0.3
			c0,0.5,0.8,0.7,1.2,0.7c0.5,0.2,0.8,0,1.2-0.3C23.9,8,24.1,8,24.1,7.7c0.2-0.2,0.2-0.5,0-0.7c0,0.2,0,0.3-0.2,0.5L23.6,8
			c-0.2,0.2-0.5,0.5-1,0.5c-0.3,0-0.7-0.2-1-0.3c-0.2-0.2-0.3-0.3-0.2-0.5C21.8,7.5,21.9,7.7,22.1,7.9z M16.7,7.5L16.2,8
			c1.3-1.2,3.5-1.8,5.4-0.7c0.5,0.3,0.7,0.7,1,1l0.5,0.5c0,0.2,0.2,0.3,0.3,0.5c0-0.3,0-0.5-0.2-0.7c-0.2-0.2-0.2-0.5-0.5-0.7
			c-0.3-0.5-0.7-0.7-1-1c-0.5-0.2-0.7-0.5-1.2-0.5s-0.8-0.2-1.3,0C18.4,6.7,17.6,7,16.7,7.5z M24.6,7.5l-0.7-0.7
			c0.3,0.5,0.7,0.7,1.2,1.2c0.5,0.3,0.8,0.7,1.3,0.7c0.7,0.2,1.2-0.2,1.7-0.3s1-0.5,1.3-0.7L32,6c0.5-0.3,0.7-0.5,1.2-1l0.5-0.5
			c0-0.2,0.2-0.2,0.2-0.3C34,4,34,4,34,3.9c-0.5,0-0.8,0.5-1.3,0.7c-0.5,0.3-0.8,0.7-1.2,1c-0.7,0.7-1.5,1.3-2.3,1.8
			c-0.7,0.7-1.5,1.2-2.3,1.2C25.9,8.7,25.3,8.2,24.6,7.5z M27.6,12.9c-0.2,0.2-0.2,0.2-0.2,0.3c0.2,0,0.3-0.5,0.5-0.5
			c0.2-0.3,0.3-0.3,0.5-0.5l0.8-1c0.3-0.3,0.8-0.5,1.2-0.8c0.2-0.2,0.7-0.3,0.7-0.5c0-0.3-0.3-0.2-0.5-0.2c-0.3,0.2-0.7,0.3-0.8,0.7
			l-0.5,0.3l-0.5,0.5C28.4,11.6,27.9,12.2,27.6,12.9z M25.3,7c-0.3,0-0.5,0.5-0.7,0.7c0.2-0.3,0.8-1,1.2-0.3
			c0.3,0.3,0.5,0.8,0.5,1.3l-0.2,3.2c0,0.5,0.3,1,0.8,1c0.5,0.2,1,0.2,1.5,0.3c0.5,0.3,0.5,0.8,0.3,1.3c-0.2,0.5,0,0.8,0.5,1.2
			c0.2,0.2,0.3,0.2,0.5,0.3c0.2,0.2,0.5,0.2,0.7,0c-0.5-0.2-1-0.5-1.2-1c-0.2-0.5,0-1,0-1.3c-0.2-1.2-1.5-1-2.3-1.3
			c-0.5-0.2-0.5-0.7-0.5-1.3c0-0.5,0-1,0.2-1.5c0-0.5,0-1-0.2-1.5c-0.2-0.5-0.3-1-0.8-1.2C25.4,7,25.4,7,25.3,7z M20.2,5.9
			c0.2-0.2,0.3-0.5,0.5-0.5c-1,0.5-1.3,1.8-0.5,2.7c0.7,0.7,1.8,0.7,2.7,1c0.3,0.2,0.7,0.5,0.7,0.7c0,0.7-0.2,1-0.3,1.3l-0.5,1.2
			v0.7c0,0.2,0.2,0.3,0.3,0.5c0.3-0.3,0.3-0.8,0.3-1.3l0.3-1.3c0-0.2,0.2-0.5,0.2-0.7c0.2-0.2,0-0.5-0.2-0.7c-0.3-0.5-1-0.5-1.3-0.7
			c-0.7,0-1.5,0-1.8-0.5C19.9,7.5,19.9,6.5,20.2,5.9z M16.7,6.7l0.5-0.2c-0.5,0.2-1,0.5-1.3,0.8c-0.2,0.2-0.2,0.5-0.2,0.7
			s0.2,0.5,0.5,0.5c0.5,0,1-0.5,1.5-0.5c0.2,0,0.5,0.2,0.7,0.2c0.2,0,0.7,0.5,0.7,0.2c0-0.3-0.3-0.5-0.5-0.5
			c-0.2-0.2-0.5-0.2-0.7-0.2c-0.5,0-1,0.3-1.3,0.5c-0.2,0.2-0.5,0.2-0.7,0c-0.3-0.2-0.3-0.5-0.2-0.7C16.1,7.4,16.4,7,16.7,6.7z
			 M34.1,20.4c0-0.2,0-0.7-0.2-0.7c-0.2,0.2-0.2,0.7-0.2,0.7v1.7c0.2,1.2,0.5,2.3,0.7,3.3c0.2,0.5,0.3,1.2,0.7,1.7l0.5,0.7
			c0.2,0.2,0.2,0.2,0.2,0.3c0.2,0.2,0.2,0.2,0.3,0.2c0.3-0.2,0.2-0.3,0.2-0.7L36,26.9c-0.2-0.2-0.2-0.5-0.5-0.7l-0.3-0.5
			c-0.3-0.8-0.5-1.7-0.7-2.7c-0.2-0.5-0.2-1-0.2-1.5C34.1,21.3,34.1,20.9,34.1,20.4z M15.4,51c0.2-1.8,0.5-3.8,1.2-5.5
			c0.7-1.8,1.7-3.5,3.2-5c0.3-0.2,0.5-0.5,0.7-0.5l1.5-1.3c-0.2,0-0.5,0.2-0.7,0.3l-0.7,0.5c-0.5,0.3-0.8,0.7-1.3,1
			c-0.7,0.7-1.3,1.3-1.7,2.2c-1,1.7-1.8,3.5-2.2,5.5 M34,34.5c0.2-0.2,0.5-0.7,0.3-0.7c-0.7,0.7-1,1.5-1.3,2.3c-0.5,1-0.5,2-0.7,3
			s-0.3,2-0.3,3c0,0.5,0,1,0.2,1.3c0,0.2,0.2,0.5,0.2,0.7c0.2,0.2,0.2,0.2,0.3,0.2c0.2,0,0.2,0,0.3-0.2c0.2-0.5,0.2-1,0.2-1.5
			c0-0.5-0.2-1-0.2-1.3c-0.2-0.2-0.2-0.5-0.2-0.7c0-0.2,0.2-0.5,0.2-0.7c0-0.5,0-1,0.2-1.5l0.3-2.2c0-0.3,0-0.7,0.2-1
			C33.6,35,33.8,34.8,34,34.5z M35.3,46.7c-0.3-1-0.7-2-1.3-2.8c-0.5-0.8-1-1.5-1.3-2.5c0.2,0,0.2-0.2,0.2-0.2c-0.2-0.7-0.2-1.3,0-2
			c-0.3,0.3-0.3,0.8-0.3,1.2c0,0.5,0.2,1,0.2,1.3c0.2,1,0.8,1.8,1.3,2.5c1,1.8,1.5,3.8,1.5,5.9 M16.6,10.7c0-0.2,0-0.2-0.2-0.2
			c-0.2,0.5,0.7,1,0.8,1.2l0.8,1.3c0.2,0.2,0.2,0.2,0.2,0.3c0.2,0.2,0.2,0.2,0.2-0.2c0-0.3-0.2-0.5-0.3-0.7c-0.3-0.5-0.5-0.8-1-1.2
			L16.6,10.7z M14.4,9.6c0.2-0.2,0.5-0.7,0.7-0.5c-0.5-0.2-0.8,0.5-1,0.8c-0.3,0.5-0.5,1-0.3,1.3s0.8,0.7,0.8,1.3
			c0.2,0.5-0.2,1-0.2,1.5c-0.2,0.5-0.2,1,0.2,1.5c0.3,0.3,0.7,0.7,1,0.8c0.5,0.3,0.8,0.7,0.8,1.2c0,0.5-0.5,1-0.3,1.3
			c0.2,0.5,0.5,0.2,0.7,0c-0.2,0-0.5,0.2-0.5,0c0.2-0.5,0.5-0.8,0.5-1.3s-0.3-0.8-0.7-1c-0.7-0.5-1.8-1-1.7-2c0-0.5,0.2-0.8,0.2-1.3
			s0-1-0.5-1.3c-0.3-0.3-0.7-0.7-0.5-1.2C13.9,10.2,14.2,9.9,14.4,9.6z M25.6,12.6l-0.3-0.5c0,0.5,0.5,1,0.8,1.3
			c0.3,0.2,0.7,0.7,1,1c0.5,0.7,1.3,1.5,2.2,1.8c1,0.3,2.2,0,3-0.5c-0.5,0-0.8,0.2-1.3,0.2c-0.5,0.2-0.8,0.2-1.3,0.2
			s-0.8-0.3-1.2-0.5c-0.5-0.3-0.7-0.7-1-1l-0.8-1C26.3,13.2,25.9,13.1,25.6,12.6z M16.1,7.7c0.2-0.2,0.2-0.2,0.3-0.2
			c-0.5-0.3-1,0.5-1,0.7c-0.3,0.5-0.5,0.8-0.7,1.3c-0.2,0.5-0.2,0.8-0.2,1.3c0,0.2,0.2,0.5,0.2,0.5c0.2,0.2,0.5,0.5,0.7,0.5
			c0-0.2-0.2-0.3-0.3-0.5c-0.2-0.2-0.2-0.3-0.2-0.5c-0.2-0.5,0-0.8,0.2-1.2c0.2-0.5,0.3-0.7,0.5-1.2C15.7,8,15.7,7.9,16.1,7.7z
			 M24.4,12.2c0-0.2,0-0.3-0.2-0.5v0.7c0,0.2,0,0.5-0.2,0.7c-0.2,0.5-0.3,0.8-0.5,1.3c-0.5,0.8-1.3,1.3-1.8,2
			c-0.2,0.2-0.5,0.5-0.3,0.8l0.5-0.5l0.5-0.5c0.2-0.3,0.5-0.7,0.8-1c0.7-0.7,1-1.7,1-2.7L24.4,12.2z M15.7,14.2
			c-0.2-0.2-0.3-0.3-0.5-0.5c0.2,0.5,0.5,0.7,0.8,1c0.3,0.3,0.7,0.7,1,1s0.7,0.7,1,1c0.3,0.3,1,0.5,1.5,0.7c0.7,0.2,1.3,0.3,2,0.5
			c0.7,0,1.3-0.2,2-0.3c-0.5-0.2-1,0-1.5,0c-0.5,0-1,0.2-1.5,0c-1-0.2-2-0.5-2.7-1c-0.5-0.3-0.7-0.7-1.2-1
			C16.6,15.1,16.2,14.7,15.7,14.2z M18.2,10.6c0,0.2,0,0.2,0.2,0.2c0-0.2,0-0.5,0.2-0.7s0.2-0.5,0.5-0.5c0.5-0.5,0.8-0.2,1.3-0.2
			c0.2,0,0.2-0.2,0-0.2h-0.3c-0.2,0-0.5,0-0.7,0.2c-0.5,0.2-0.7,0.7-0.8,1C18.2,10.4,18.2,10.4,18.2,10.6z M18.6,11.1L18.6,11.1
			l0.2-0.3l0.5-0.3c0.2-0.2,1-0.5,0.7-0.7c-0.2-0.2-0.5,0.3-0.7,0.5C19.1,10.4,18.7,10.7,18.6,11.1z M17.1,12.7
			C17.2,12.7,17.2,12.9,17.1,12.7c0.2-0.3-0.7,0.2-0.7,0.3c-0.2,0.2-0.5,0.7-0.2,1l0.2,0.2c0.2,0,0.2-0.2,0-0.2
			c-0.2-0.2-0.2-0.5-0.2-0.5c0.2-0.2,0.2-0.5,0.5-0.7C16.7,12.9,16.9,12.7,17.1,12.7z M17.4,13.1L17.4,13.1c-0.2,0-0.2,0.5-0.2,0.7
			c-0.2,0.3-0.7,0.7-0.5,0.8c0.2,0.3,0.5-0.3,0.5-0.5L17.4,13.1z M34.1,30.1C34.1,29.8,34,30,34.1,30.1c0,0.2,0.2,0.5,0.5,0.5
			c0.5,0,0.5-0.5,0.5-0.8c-0.2-0.5-0.7-0.5-0.8-0.2l-0.2,0.2C34,29.8,34.1,29.8,34.1,30.1c0.2-0.2,0.3-0.2,0.5-0.2
			c-0.2,0-0.2,0-0.2-0.2c0,0.2,0.2,0.2,0.2,0.5C34.5,30.5,34.1,30.1,34.1,30.1z M22.9,31C23.1,30.6,22.8,30.8,22.9,31
			c-0.2,0.2,0,0.3,0.2,0.5c0.2,0.2,0.5,0.2,0.5,0c0.2-0.2,0.2-0.3,0-0.5c0-0.2-0.2-0.3-0.2-0.3S22.8,30.6,22.9,31
			c0.2,0,0.2,0.2,0.3,0.2c0.2,0,0.2,0,0.3,0.2v-0.2C23.4,31.3,22.9,31.3,22.9,31z M15.1,10.4c0.2-0.2,0.3-0.5,0.5-0.5
			c-0.5,0.3-0.7,0.8-1,1.3c-0.2,0.5-0.5,1-0.5,1.5l1.8,2.2c0,0.5-0.2,0.8-0.2,1.3c-0.2,0.5-0.3,0.8-0.2,1.3v0.3l0.2,0.2
			c0.2,0,0.2,0.2,0.2,0c0.2-0.2,0.2-0.3,0.2-0.5c0.2-0.5,0.2-0.8,0.2-1.3s0-1-0.2-1.3c-0.2-0.5-0.5-0.8-1-1c-0.5-0.3-1-0.5-1-1.2
			c0-0.5,0.2-1,0.3-1.5C14.9,10.9,15.1,10.7,15.1,10.4z M14.9,6.7c0-0.3,0-0.8,0.2-1c-0.5,0.2-0.3,1,0,1.3c0.3,0.3,1,0.3,1.5,0.3
			c1-0.2,1.8-0.5,2.7-1c0.8-0.3,1.8-0.7,2.7-0.5c0.5,0.2,1,0.2,1.3,0.7s0.3,0.8,0.3,1.3l-0.2,0.8v0.5v0.3c0.5-0.2,0.5-0.7,0.7-1
			c0.2-0.5,0.2-1,0-1.3c-0.3-1-1.7-1.5-2.5-1.5s-1.8,0.5-2.7,0.8c-1,0.3-1.8,0.8-2.8,0.8C15.7,7.2,15.1,7.2,14.9,6.7z M15.9,6.2
			l-0.2,0.5c0.2-0.5,0.5-0.8,0.7-1.2c0.3-0.3,0.8-0.7,1.3-0.7c1-0.2,1.3,1.2,1.7,1.8l0.3,0.7c0.2,0.2,0.2,0,0.3-0.2
			c0.2-0.2,0-0.2,0-0.3c-0.2-0.5-0.3-1-0.7-1.3c-0.3-0.3-0.7-0.8-1.2-1c-0.5-0.2-1.2,0-1.5,0.3C16.4,5.4,16.1,5.7,15.9,6.2z
			 M21.6,17.6c-0.2,0-0.2-0.2-0.3,0C21.4,17.6,21.6,17.6,21.6,17.6c0.3,0.2,0.5,0.3,0.5,0.5c0.3,0.2,0.5,0.7,0.7,1l0.7,0.8l0.3,0.5
			c0.2,0.2,0.5,0.3,0.5,0.2c0-0.3-0.3-0.7-0.5-0.8l-0.3-0.3l-0.3-0.5C22.8,18.4,22.3,17.7,21.6,17.6z M25.1,18.1
			c-0.2,0-0.3,0-0.5,0.2c0.5-0.2,0.8-0.2,1.3,0.2c0.5,0.2,0.7,0.5,1.2,0.8c0.8,0.7,1.3,1.5,1.8,2.5c0.2,0.2,0.2,0.3,0.3,0.5
			c0.2-0.5-0.2-1-0.5-1.5c-0.2-0.2-0.3-0.5-0.5-0.7l-0.5-0.7l-1.3-1C25.9,18.4,25.6,18.1,25.1,18.1z M27.9,22.1c0.2,0,0.2,0,0.2-0.2
			l-0.5,0.2v0.2c0.2,0,0.5,0,0.7,0.2c0.2,0,0.5,0,0.7-0.2l0.7-0.3c0.2-0.2,0.2-0.2,0.2-0.2c0.2-0.2,0-0.3-0.2-0.2
			c-0.2,0.2-0.3,0.2-0.5,0.3c-0.2,0.2-0.2,0.2-0.5,0.3c-0.2,0.2-0.5,0.2-0.7,0.2V22.1c-0.2,0.2-0.3,0.2-0.3,0.2L27.9,22.1z
			 M24.4,8.7c-0.2,0-0.2,0.2-0.2,0.2c0.2-0.2,0.3-0.3,0.7-0.2c0.2,0,0.3,0.3,0.5,0.5c0.2,0.3,0.2,0.5,0.2,0.8l-0.2,0.8
			c0,0.2-0.2,0.3,0,0.3c0.2,0.2,0.2,0,0.2,0c0.2-0.2,0.2-0.5,0.2-0.7c0-0.5,0-0.8-0.2-1.3C25.3,8.7,24.9,8.4,24.4,8.7z M20.6,43.2
			c-0.7-1-1.3-2.3-1.3-3.5c-0.2,1,0.3,2.2,0.8,3c0.5,1,1.3,1.8,2.2,2.3c1.7,1.2,3.7,1.8,5.7,2l1.5,0.2c0.5,0,1-0.2,1.5-0.2
			c1-0.2,1.8-0.3,2.7-0.7c0.5-0.2,1-0.5,1-1c0.2-0.7-0.3-1-0.8-1.2c-1-0.2-2,0.7-2.8,1.2c-0.7,0.5-1.3,1.2-2.2,1.5
			c-0.8,0.5-1.8,0.7-2.8,0.7c-1.8-0.2-3.5-1-5.4-1.7l-1.5-0.7C18.9,45,18.6,45,18.4,45l-0.5-0.3c-0.2-0.2-0.5-0.2-0.7-0.2
			c-0.2,0.2-0.3,0.5-0.2,0.7c0.2,0.2,0.3,0.5,0.5,0.5l0.5,0.5c1.5,1.5,3.5,2.3,5.4,3c1,0.3,2.2,0.5,3.3,0.5h1.8l0.2-0.2
			c0.2,0,0.2,0,0.3-0.2c0.2,0,0.3,0,0.3-0.2s-0.3,0-0.3,0c-1-0.3-2.2-0.5-3.2-0.5c-1-0.2-2.2-0.5-3.2-0.7c-1-0.3-1.8-0.7-2.7-1.3
			c-0.7-0.5-1.5-1.2-2.2-1.8c0,0-0.2,0-0.2-0.2c0,0.2-0.2,0.3-0.2,0.3c0.2,0.2,0.5,0.2,0.5,0.3l0.7,0.2l1.5,0.7l2.7,1.3
			c1.7,0.7,3.7,1.2,5.5,0.2c0.8-0.5,1.5-1,2.2-1.5c0.5-0.3,0.7-0.7,1.2-0.8c0.5-0.3,1-0.7,1.5-0.7c0.3-0.2,1-0.2,1.2,0.5
			c0.2,0.7-0.8,0.7-1.2,0.8c-0.8,0.3-1.8,0.5-2.7,0.7c-2,0.5-4.2,0.2-6-0.5C22.9,45.5,21.6,44.5,20.6,43.2z M16.6,48.9
			c0.5-1,0.8-2.2,1.2-3.2c0,0.5-0.2,0.5-0.2,0.5l0,0c0.7-1.7,1.5-3.3,2.3-5l0.3-0.7c-0.3,0.3-0.5,0.7-0.7,1.2l-0.7,1.2l-1.3,2.5
			c-0.7,1.7-1.5,3.5-2.2,5.4"/>
	</g>
</g>
</svg>
