<svg baseProfile="tiny" xmlns="http://www.w3.org/2000/svg" viewBox="12.9 0 17.8 23.7"><path fill="#9F9F9F" d="M16.9 8.4c.1-.1.2-.3.2-.4-.2 0-.4.5-.5.6l-.6.7c-.4.4-.9.8-1.4 1.2l-.7.5c-.1.1-.3.2-.2.3.1.1.3 0 .3 0l.7-.3.2-.2.3-.2c.3-.2.7-.7.9-1 .3-.5.6-.9.8-1.2zm3.4 12.7c-.1.1-.2.1-.2.2.2-.1.3-.2.6-.3.2-.1.5-.1.7 0 .5.2.7.6.8 1.1l.1.2c.1.2.1.2.2.2.2.1.2-.5.1-.6-.1-.2-.2-.4-.4-.6-.2-.2-.3-.4-.7-.5-.2 0-.8.1-1.2.3zm-2.5 1.2c-.2.1-.3.2-.6.3l.1.1s0 .1.1.1l1-.6c.2-.2.4-.3.7-.4.4-.2.8-.6 1.3-.7-1.1-.1-1.8.8-2.6 1.2zm5.1.3l-5.3-3.4.1-.2c.1-.1 0-.1-.1-.1-.1.1-.2.2-.2.3-.1.2-.2.4-.2.7-.2.5-.2 1.1-.1 1.6 0 .2.1.2.2.3.1 0 .3.2.3.2.2-.2.2-.4 0-.7l-.2-.2-.1-.3v-.7c0-.2 0-.6.3-.9zm5.6-.9c0-.1.1-.2 0-.3-.2 0-.2.5-.3.6-.1.2-.2.5-.4.8-.3.5-.8.8-1.2 1.2l-.7.4-.2.2c0 .2.2.2.3.2.2-.1.5-.2.7-.5l.2-.3.2-.2c.7-.5 1.2-1.4 1.4-2.1zm2.8-4.7c-.2-.2-.4-.3-.7-.3.1.2.3.2.5.3.2.2.3.2.4.4.3.4.5 1 .7 1.5.2.9.5 1.8.6 2.7l.1 2.8.1.7v.3l.2.2c.3-.2.3-.9.3-1.2 0-.4-.1-.9-.2-1.3l-.2-1.4c-.2-.9-.3-1.9-.8-2.8-.2-.3-.3-.7-.6-1.1 0-.3-.1-.6-.4-.8zm2.3 8.6l-.2-.9m-4.2-.3c-.2-.8-.2-1.3-.3-1.8v-.7c-.1.5 0 1.2.1 1.7.1.6.2 1.2.4 1.8m2.3-10.4l.2-.2c-.2-.1-.5.3-.6.4-.2.2-.3.4-.4.6l-.8 1.2c-.2.4-.6.8-.7 1.2 0 .1-.3.7 0 .7.2 0 .3-.3.5-.5l.2-.8.4-.8c.5-.7.8-1.3 1.2-1.8zm-8.7 11.4c-.5-.4-.9-.9-1.4-1.2-.2-.2-.3-.3-.6-.4.2.2.4.3.6.6.2.2.5.4.7.7l.2.2.2.1c.1.1.1.1.1.2l.1.1m9.2-21.5c-.2-.2-.5-.2-.8-.3l1.2.8s.8.7 1.1 1.1c.8.7 1.2 1.6 1.5 2.6.2.8.1 1.7-.2 2.6-.1.4-.3.9-.3 1.4l-.2.7-.1.3c-.1.2 0 .2 0 .3.4-.2.6-.8.8-1.2.2-.4.2-.9.3-1.4.1-1 .2-2-.2-2.9-.5-1.8-1.6-3.2-3.1-4zm.7 7.2c-.1-.2-.2-.3-.2-.4l.2.7.3.8.7 1.5c.2.5.2 1.1.2 1.6l-.3.8c-.1.2-.2.6-.2.8 0 .2.5-.2.5-.3.2-.2.3-.3.3-.6.1-.5.1-.9 0-1.4-.1-1.1-.9-2.1-1.4-3 .1-.1 0-.3-.1-.5zm-11.8-3.3v-.5c-.1.2-.1.5-.1.7 0 .2 0 .5.1.8.1.5.2.9.5 1.3.7.9 2 1.5 3.1 1.5.3 0 .8.1.9-.1-.2-.2-.5-.2-.7-.2l-.8-.2c-.3 0-.5 0-.9-.1-.2-.1-.5-.2-.8-.3-.9-.5-1.3-1.3-1.4-2.3.1-.1.1-.6.1-.6zm1.1 3.4l-.4-.5c.2.4.6.9.9 1.1.4.3.9.7 1.4.8.8.2 1.8.2 2.7.2l1.4-.2c.2-.1.4-.2.6-.2l.6-.3c-.2 0-.4 0-.6.1l-.7.2-1.2.4c-.4.1-.8.1-1.2.1s-.9 0-1.3-.1c-.8-.4-1.6-.9-2.2-1.6zm1.6-4.9c-.1.2-.2.5-.2.8.1-2 2.3-3.1 4-3.5.8-.2 1.5-.2 2.3-.2.4.1.8.2 1.2.4l.5.3.2.2c.1.1.2.1.3.1-.1-.5-.7-.8-1.1-1.1-.5-.2-1.1-.2-1.7-.2h-1.3c-.5.2-1 .3-1.5.6-1.1.5-2.3 1.4-2.7 2.6zm6.4 3.9c-.2-.1-.3-.2-.5-.2l.5.4.5.5c.3.4.6.8.8 1.2l.7 1.5c.2.5.2 1.1.2 1.6.1.3.1.7.2.9.2-.2.2-.5.2-.7.1-.3.1-.6 0-.8-.1-.2-.2-.5-.2-.7-.1-.2-.2-.5-.3-.8-.4-1-1.1-2-1.8-2.6 0-.1-.1-.2-.3-.3zm-6.3 2.3c.1-.2.2-.3.2-.5-.2.1-.3.5-.3.7-.1.2-.1.6-.1.8 0 .5.2 1 .3 1.5.3.9.8 1.8 1.2 2.6l.4.5c.1.1.1.2.2.2.2 0 .2-.1.2-.3-.1-.4-.4-.8-.7-1.1-.2-.2-.3-.3-.4-.5l-.3-.6-.6-1.2c-.3-.8-.3-1.5-.1-2.1zm2.2 5.7c.2 0 .5-.1.7-.2.2-.1.7-.2.6-.4-.2 0-.3.2-.5.3-.3.2-.6.3-.8.3zm-2.6-2.6c.1 0 .3-.2.1-.2-.1 0-.2.1-.3.2l-.8.5c-.4.2-1 .6-1.2 1 0 .1-.2.3-.2.3.1.1.2.2.4.2.2-.1.3-.3.4-.6.1-.2.3-.3.5-.5s.4-.4.7-.5c.1-.3.2-.4.4-.4z"/></svg>