<svg baseProfile="tiny" xmlns="http://www.w3.org/2000/svg" viewBox="0 0 50 50"><path d="M28.7 5.9l-.4.3c.1.2.4-.1.4-.3.4 0 .9-.1 1.2-.1.9-.1 1.8 0 2.4.6.6.6.9 1.5 1.3 2.2h.4c.1-.1.1-.1.1-.3 0-.1 0-.4-.1-.6-.1-.4-.4-.7-.9-1-.3-.3-.4-.4-.9-.7l-1.3-.4c-.4 0-.9 0-1.2.1-.2-.1-.7.1-1 .2zm-20.1.2l-.3.6c0 .1.1-.1.1-.1l.2-.5c.3-.1.6-.4.9-.7.7-.6 1.6-.9 2.7-.7.7.1 1.3.7 1.9 1.3l.4.4s.1.1.3.1.1 0 .3-.1c0-.3-.4-.9-.7-1-.3-.3-.7-.4-1.2-.6-.3-.1-.4-.1-.6-.3-.1-.1-.4-.1-.6-.1-.9-.1-1.8.3-2.5.9-.3 0-.7.3-.9.8zm27 9.6c0-.1-.4-.9-.6-.7.3.7.7 1.5.7 2.4.1.9.1 1.8 0 2.5s-.4 1.6-1 2.2-1.3.9-1.9 1.2l-.9.4-.4.3-.3.1c-.1 0-.1.1-.1.3.1.1.4.1.7.1h.6c.4 0 .7-.1 1.2-.3.3-.1.7-.4 1-.7l.4-.4.6-.4c.3-.3.6-.9.7-1.3s.3-.9.3-1.3c.1-.9 0-1.9-.3-2.8-.1-.3-.1-.6-.3-.7-.1-.5-.2-.8-.4-.9zm-9.4 5.1c0-.1-.1-1-.3-.9.1.7 0 1.6-.3 2.4-.6.7-1.3 1.3-2.2 1.8-.7.4-1.6.7-2.4.7-.7.1-1.6 0-2.4-.1-.4 0-.7 0-1.2-.1h-.6c-.1 0-.4-.1-.6 0-.2.1-.2.1-.2.2l.1.3c.1.1.3.3.6.4.3.1.9.4 1.3.4s.9 0 1.3-.1l.6-.1h.6c.9-.1 1.8-.6 2.5-.9.7-.4 1.5-1 2.1-1.6.3-.3.4-.7.6-1 .5-.7.6-1.1.5-1.4zm-1.8 29.3l-1.4-.3-2.7-.4c-.4 0-.9-.1-1.3-.3l-1.2-.4c-.9-.3-1.6-.7-2.4-1.2-1.5-1-2.7-2.2-3.7-3.6-.3-.4-.6-.9-.9-1.2l-.5-.7c.1-.4 0-.7-.1-.7-.1-.1-.7-1.3-1-1.2.3.7.9 1.5 1.3 2.1l1.5 2.1c1 1.3 2.4 2.5 3.7 3.6 1.5 1 3.3 1.8 5.1 2.4.9.3 1.8.4 2.7.6m-8.4-24.7c-.1-.1-.4-.7-.6-.7l1 1.9c.3.7.6 1.5 1 2.2.6 1.3.9 3 .9 4.5v2.7l.1.1.3-.1c.3-.3.3-.7.4-1 .1-.7.1-1.6-.1-2.4-.1-.4-.1-.7-.1-1.2l-.2-1.2c-.6-1.5-1.3-3-2.2-4.3-.4-.2-.4-.4-.5-.5zm11.8 13c-.1 0-.3.3-.1.4.1.1.3.1.4.1.1 0 0-.1 0-.1h-.1c-.3-.1-.2-.4-.2-.4zm6.2-13.8c0-.1-.1-1.2-.4-1 .1.4.1.7.1 1.2 0 .4 0 .9-.1 1.2l-.7 2.2c-.4 1.3-1.2 2.7-2.1 3.9l-3 3.4-.6.9v.3c.1 0 .3 0 .4-.1.6-.4 1.2-.9 1.6-1.5.3-.3.4-.6.6-1 .1-.3.3-.7.6-1l.7-.9.6-1c.3-.6.7-1.3 1-2.1.3-.7.4-1.5.6-2.2 0-.4.1-.9.1-1.2.6-.3.6-.8.6-1.1zm-29.3 24.7c-.1-.4-.1-1-.1-1.6 0-.6.1-1 .3-1.6.3-1 .4-2.1.9-3s1-1.6 1.6-2.2c1.2-1.3 2.7-2.5 4.2-3.6.6-.4 1.3-.9 1.9-1.2l1-.6c-.1.1.9-.3.9-.3.6-.3 1.5-.6 1.8-1.3l-.3.2c-.1.1-.4.3-.6.3l-1.4.6c-.9.3-1.6.9-2.4 1.3-1.6.9-3.1 2-4.5 3.1-1.2 1.2-2.4 2.5-3.1 4.2-.6 1.3-.9 3-1 4.5m.7-14.5v-.3c0-.1-.1-.3-.1-.1-.1.1 0 .4 0 .7.1.4.1.9.4 1.3s.6.7 1 1c.3.3.7.6 1.2.6s.9-.3 1-.9v-.3c0-.1-.1-.1-.3-.1-.1 0-.1 0-.3.1l-.1.1c-.1.1-.3.1-.3.3-.1.1-.3.3-.4.1-.3.1-.8-.2-.9-.4-.3-.3-.6-.6-.7-1-.2-.2-.2-.3-.4-.6-.1-.2-.1-.3-.1-.5zm3-24.1v-1.8c-.2.1-.2.4-.2.6v1.9c0 .7-.1 1.5-.3 2.2-.3 1.5-.6 3-.7 4.5-.3 1.9-.6 3.9-.9 5.7-.3 1.9-.4 3.9-.1 5.7l.2 1.9.3.9.1.4v.1s0 .1.1.1v-3.9c0-.4-.1-.9-.1-1.5 0-.4 0-.9-.1-1.3v-1.5l.3-2.8c.1-1.8.4-3.6.7-5.2.1-.7.3-1.5.3-2.2.1-.7.3-1.5.3-2.2v-.9c.2-.3.2-.6.1-.7zm6 2.1l.1-.3.1-.1c-.3 0-.4.1-.4.4-.1.4-.3.9-.3 1.2 0 .9.3 1.6.7 2.4.3.7.7 1.5 1.3 2.1.1.1.3.3.4.3 0 0 .1.1.3.1s.3 0 .3-.1c.1-.3-.3-.7-.4-1l-.4-.4-.4-.6-.3-.4c-.1-.1-.3-.3-.3-.4-.4-.6-.7-1.3-.7-2.2-.2-.3 0-.6 0-1zm.1-.2c-.1 0-.3.1-.3.3.1 0 .4-.1.6-.3l.6-.3c.4-.1.9-.3 1.3-.3h2.4c.1 0 .1 0 .3-.1 0-.1-.3-.1-.3-.1h-.9c-.3-.1-.4 0-.6 0h-.7c-.9.1-1.6.4-2.4.8zm4.7 1.7c0-.1 0-.1-.1-.1-.1-.1-.1.1-.1.3 0 .1.1.3 0 .4 0 .3 0 .7-.1 1-.1.3-.3.6-.3 1 0 .1 0 .1.1.3.1 0 .1 0 .3-.1s.3-.3.3-.4v-.3l.1-.3v-.6c0-.1 0-.4-.1-.6 0-.3 0-.5-.1-.6zm.7.3c0-.1 0-.1.1-.3v-.1c0-.1-.1 0-.1 0-.1.1-.1.4-.1.6-.1.4-.1.9 0 1.2l.1 1.2v1.2l-.1 1.2c0 .3.3.1.4 0 .1-.1.3-.4.3-.6v-1.3c0-.4-.1-.7-.3-1.2l-.1-.9c-.3-.4-.2-.7-.2-1zm-4.2 5.2c.1 0 .1 0 .1-.1h-.3l-.4.4c-.1.4 0 .9.3 1.2.1.1.4.3.6.3h.3c.1 0 .1 0 .3-.1 0-.3-.1-.3-.3-.4h-.4c-.1-.1-.4-.3-.4-.4-.1-.4.1-.7.2-.9zm3.3 2.4c.1-.3.1-.4.1-.7l.1-.7-.9 2.2c-.3.7-.6 1.5-1 2.1l-2.2 4.3c-.9 1.5-1.8 2.8-3 4.2-.6.6-1 1.2-1.6 1.9l-.8 1c0 .1-.1.1-.1.1l-.1.1v.3c.1 0 .1 0 .3-.1.7-.4 1.5-.9 2.1-1.5l.9-1 .7-1 1.5-2.2c.4-.7.9-1.5 1.2-2.2.7-1.5 1.5-2.8 2.2-4.5l.4-1.2c.1-.2.2-1.1.2-1.1zm-3-2.1c.1-.1.6-.7.6-.9-.6.6-1 1-1.5 1.8-.6.7-1.2 1.3-1.8 1.9l-2.2 2.1c-.7.7-1.6 1.3-2.2 2.2-.3.4-.6.9-.7 1.3l-.4.9v.3c0 .1 0 .1.1.3 0 .1.1.1.3 0s.1-.1.1-.3c.2-.1.4-.3.5-.6l.7-1.2.7-1.3c.3-.4.7-.7 1-1l2.2-2.2c.6-.6 1-1.2 1.5-1.8l.6-.7c.2-.3.4-.6.5-.8zm11.1 29.8c.3-.3.6-.6.7-1 .4-.6.7-1.5 1-2.2.1-.4.1-.7.4-1.2l.4-1c.3-.7.6-1.5.7-2.2.6-1.5 1-3.1 1.3-4.8.1-.4.3-.9.4-1.5l.1-.7c.1.1.3-.1.3-.3 0-.1.4-1.2.3-1.3l-.7 2.2-.7 2.2c-.4 1.5-.9 3.1-1.5 4.6-.6 1.5-1.3 3-2.1 4.3l-.9 1.9c-.1.3-.3.6-.4 1l.1.5m6.8.7l.4-1.2c.1-.9.3-1.8.3-2.7v-1.3c0-.4.1-.9 0-1.3l-.1-2.7-.7-4.9v-2.8l.1-.7c0-.1.3-.6.1-.7-.9 1.3-.7 3.1-.6 4.8l.6 4.9v2.7c0 .9-.1 1.8-.3 2.7-.1.7-.3 1.6-.3 2.4m-10.2-48.5l-.1-.3s0-.3-.1-.1c-.1.1 0 .4.1.6.3.3.7.6 1 .7.9.3 1.8.1 2.7-.1.7-.3 1.6-.7 2.1-1.5.1-.1.3-.3.3-.4s-.1-.3-.3-.3c-.3.1-.6.4-.9.7s-.4.7-.9.9c-.4.3-.9.4-1.3.6-.7.1-1.8.3-2.5-.3.1-.3-.1-.5-.1-.5zm3.8.8v-.3c0-.1-.1-.1-.1 0l-.1.6c-.1.4-.3.7-.3 1.2s0 .9-.1 1.3c0 .4 0 .9.1 1.2l.1.3c.1.1.1.1.3.1.3 0 .3-.3.3-.6s-.1-.4-.1-.6c-.1-.1-.1-.3-.1-.6v-1.1c0-.4 0-.9.1-1.2-.1 0-.1-.3-.1-.3zm-2.1 5.1c-.1 0-.1 0-.3-.1h-.1l.6.3 1.2.7c.4.1.9.4 1.3.4.4.1 1 .1 1.3-.1.1-.1.3-.3.4-.6l.1-.3c0-.1 0-.1.1-.3.1-.1.3-.3.1-.4-.1-.1-.4-.1-.6 0-.4.1-.6.6-.7 1 0 .4-.1.4-.3.4h-.6c-.4 0-.9-.3-1.3-.4l-.6-.3c-.2 0-.3-.2-.6-.3zm-4.7 2.1v-.6l.1-.3.1-.1c-.9.3-.6 1.5-.1 2.2.4.7 1 1.6 1.8 2.2.7.6 1.5 1 2.2 1.5.7.4 1.6 1 2.2 1.6.7.6 1.3 1.3 1.8 2.1.4.7.7 1.5 1 2.2l.1.6c0 .1 0 .1.1.3v.1l.1.1s.1.1.1 0v-.9c-.1-1-.3-1.9-.9-2.7-.3-.4-.6-.7-1-1l-1-1c-.7-.6-1.5-1.2-2.4-1.6-.7-.4-1.6-.9-2.4-1.5-.7-.6-1.3-1.3-1.8-2.1.2-.4.2-.8 0-1.1zm16.2 4.2l-.1-.5s-.1-.1-.1 0v.3c.1.3.1.7.1 1.2.1.7 0 1.6-.3 2.4-.3.7-.7 1.3-1.3 1.9-.6.4-1.2 1-1.6 1.6-.1.1-.1.1 0 .3 0 .1 0 .1.1.1s.4 0 .6-.1c.3-.1.6-.4.9-.7l.7-1 .7-.9c.3-.7.6-1.5.6-2.2v-1c-.1-.7-.1-1.1-.3-1.4zm-9 9.6c-.1 0-.6.3-.4.4.7-.6 1.5-.7 2.4-.6.9 0 1.8 0 2.5.3l1.2.4c.3.1.7.4 1 .7l.3.4c.1 0 .1.1.3 0 .1 0 .1-.1.1-.3 0-.4-.3-.7-.6-1-.3-.3-.7-.4-1.2-.4-.1 0-.4 0-.6-.1-.1 0-.3-.1-.6-.1-.9-.1-1.8-.1-2.7-.1-.3-.1-1.1.1-1.7.4zm.6-19.4v-.3c-.3.1.1.9.1 1 .1.3.4.6.9.9.3.3.6.6 1 .7.1.1.3.1.6.1.1 0 .6.1.4-.1 0-.1-.3-.1-.4-.3-.1-.1-.3-.1-.4-.1-.1 0-.3 0-.4-.1l-.4-.3c-.8-.1-1.4-.7-1.4-1.5zm-6.9 6c-.1-.1-.1 0 0 0-.1.1 0 .1 0 .1.1.1.3.3.3.4.1.1 0 .3 0 .6 0 .1.1.3.3.3s.1 0 .3-.1c0-.1.1-.1 0-.3l-.1-.3v-.1c-.2-.3-.5-.4-.8-.6zm7.5 29.7c-.1 0 0 .2 0 0 .1.3.1.3.3.3.1.1.3.3.6.3.1 0 0-.1 0-.3h-.3c-.1 0-.4-.1-.6-.3zm1.2-.6c.1.1.1 0 .1-.1l-.3-.3c-.4-.1-.4.3-.3.6-.1.1-.6.3-.6.6s.1.3.3.4.3.1.6 0c.1 0 .1 0 .1-.1s0-.1-.1-.3v-.7l-.1-.1c0-.1.3 0 .3 0z"/></svg>