<svg baseProfile="tiny" xmlns="http://www.w3.org/2000/svg" viewBox="0 0 50 50"><path d="M28 18l-.5.6c-.3.3-.6.8-.9 1.2-1.1 1.4-2.3 2.6-3.8 3.6-.8.5-1.5.9-2.4 1.2l-1.2.5c-.5.2-.9.3-1.4.3l-2.7.5-1.4.3c-.3.2-.9.2-1.2.5-.2 0-.2.2 0 .2 0 0 0 .2.2.2h2c.9-.2 1.8-.3 2.7-.6 1.8-.6 3.6-1.4 5.1-2.4 1.4-1.1 2.7-2.3 3.8-3.6l1.5-2.1c.5-.6 1.1-1.4 1.4-2.1-.3-.2-.9 1.1-1.1 1.2-.1-.3-.2 0-.1.5zm-5.3-15.6c-.9 1.4-1.7 2.9-2.3 4.4l-.2 1.2c0 .5 0 .8-.2 1.2-.3.8-.3 1.7-.2 2.4.2.3.2.8.5 1.1l.3.2.2-.2v-2.7c0-1.5.3-3.2.9-4.5.5-.8.8-1.5 1.1-2.3l1.1-2c-.2 0-.5.6-.6.8l-.6.4zm-11.6 13.2h-.2s-.2.2 0 .2.3 0 .5-.2 0-.5-.2-.5c0 0 .2.3-.1.5zm-5.8-13.5c0 .3.2.8.2 1.2.2.8.3 1.5.6 2.3s.8 1.5 1.1 2.1l.6 1.1.8.9c.2.3.4.7.5 1 .2.5.3.8.6 1.1.5.6 1.1 1.1 1.7 1.5.2.2.3.2.5.2v-.3l-.6-.9-3-3.5c-1-1.2-1.7-2.6-2.2-4l-.6-2.2c-.2-.3-.2-.8-.2-1.2s0-.8.2-1.2c-.3-.2-.5.9-.5 1 0 .3 0 .8.3.9zm19.2 10l1.1.6c.6.3 1.4.8 2 1.2 1.5 1.1 3 2.3 4.2 3.6.6.6 1.2 1.4 1.7 2.3.5.9.6 2 .9 3 .2.6.3 1.1.3 1.7 0 .6 0 1.2-.2 1.7-.2.8-.5 1.7-.8 2.6-.3.8-.6 1.5-1.1 2.3-.2.3-.5.6-.6 1.1-.2.5-.5.8-.5 1.2-.2.3.2.2.3 0h.2l.2-.2.2-.2.9-.9c.5-.6 1.1-1.4 1.4-2.1.8-1.7.9-3.3.8-5-.2-1.5-.5-3.2-1.1-4.5-.8-1.7-2-3-3.2-4.2-1.4-1.2-2.9-2.3-4.5-3.2-.8-.5-1.5-1.1-2.4-1.4l-1.4-.7c-.2 0-.5-.2-.6-.3l-.5-.3c.3.8 1.2 1.1 1.8 1.4 0 0 1.1.4.9.3zm10.2 21.6v3c0 1.8-.2 3.6-.3 5.4 0 .3-.2.8-.3 1.2-.2.3-.2.8-.3 1.2l-.2 1.2c-.2.2-.2.5-.2.6-.2.2-.2.5-.2.6h.2l.2-.2.3-.5c.2-.3.3-.8.5-1.2.3-.8.3-1.7.3-2.6l.2-5.4c0-1.8-.2-3.6-.3-5.4-.2.2 0 1.1 0 1.2-.1.4-.1.7.1.9zm-14.4-1.8v1.2l.3 2.3.3 2.9c0 .9.2 1.7.3 2.6 0 .9.2 1.7.5 2.6.2.3.3.8.3 1.2l.3 1.4c.3.9.5 1.8.9 2.6.2.5.3.9.6 1.2l.5.5.3.2c.2 0 .2 0 .2-.2v-.3l-.2-.3-.2-.8-.5-1.2c-.3-.9-.6-1.7-.9-2.4-.8-1.7-1.2-3.3-1.5-5l-.8-5.4c-.2-.9-.3-2-.3-2.9v-2.1c0-.2.2-.5 0-.6-.3.2-.3.5-.3.8v.8c-.1 0 .1.4.2.9zm-12.1 3.2l-1.2 2.1-1.4 2.7-.5 1.4-.5 1.4c-.5.9-.6 1.7-.6 2.6 0 .5 0 .8.2 1.2 0 .2 0 .5.2.5l.2-.5.4-2.2c.2-.9.3-1.7.6-2.6.6-1.8 1.5-3.5 2.4-5.1l1.2-2.1c.5-.6.9-1.4 1.4-2.1-.2 0-.6.8-.8.9-.4.7-.8 1.5-1.6 1.8zm-.9-24.5l.2.8c.2.6.3 1.1.5 1.5.3 1.7.8 3.3 1.4 4.8.2.8.5 1.5.8 2.3l.5 1.1c.3.5.3.8.5 1.2.3.8.6 1.7 1.1 2.3.2.5.5.8.8 1.1.2.3.5.8.8.9l-.5-.6-.2-.5c-.2-.5-.3-.8-.5-1.1l-.9-2c-.8-1.4-1.5-2.9-2.1-4.4-.6-1.5-1.1-3.2-1.5-4.7l-.8-2.3-.7-2.1c-.1.2.3 1.2.3 1.4 0 .1.2.4.3.3zm-.6 1.8l-.8 5-.2 2.7c-.2.5 0 .9 0 1.4v1.4c0 .9.2 1.8.3 2.7l.5 1.2c.2.4.4.9.5 1.2v-2.3c0-.8-.2-1.7-.3-2.4-.2-.9-.3-1.8-.3-2.7v-2.7l.6-5c.2-1.7.3-3.5-.6-4.9-.1.2.2.6.2.8l.2.8c-.1-.1-.1 2.8-.1 2.8zm2.3 21.3c.5.3.9.6 1.5.8l1.4.3c.5.2.9.3 1.4.2.2 0 .5-.2.5-.3 0-.3-.3-.3-.5-.3-.3-.2-.8-.2-1.2-.2s-.9 0-1.4-.2l-1.2-.5c-.6-.3-1.2-.8-1.5-1.5-.2 0 .2.3.2.5.2.4.6.9.8 1.2zm4.7-1.7c-.5.3-.8.6-1.2.8l-.6.3c-.2.2-.3.3-.5.3-.5.2-.8.3-1.1.6-.2.2-.3.5 0 .5l.5-.2c.5-.2.8-.5 1.1-.8l1.1-.8c.5-.3.8-.6 1.1-.9.2-.2.3-.5.3-.6s-.2-.2-.2 0c-.2 0-.2.2-.2.2-.2.2-.3.3-.3.6zm-.2-5.6c-.3-.2-.8-.2-1.4-.6-.6-.2-1.2-.5-1.8-.5-.3 0-.8-.2-1.1-.3-.3-.2-.9-.2-1.2 0v.3c.2.2.3.2.3.2.3 0 .5.2.6.2.5.2.9.2 1.2.2l1.1.2c.5.2.8.3 1.2.3l1.2.3c.5.2.8.3 1.2.2 0-.2-.3-.2-.5-.2-.2-.1-.5-.1-.8-.3zm-2.9 3.1c-.2.2-.3.3-.3.6-.2.3-.2.5-.2.8l-.1.7c0 .2.2.5.3.5.2 0 .3 0 .5-.2s.2-.2.2-.3c0-.3-.3-.6-.3-1.1l.2-1.2.2-.5c.2-.2.2-.5 0-.3-.2 0-.2 0-.2.2-.3.2-.3.5-.3.8zm17.4-13l-.8.6c-.6.3-1.1.8-1.5 1.2l-3.6 3.9c-.6.6-1.2 1.2-1.8 2-.2.3-.5.8-.8 1.1l-.8 1.1c-.5.8-.9 1.5-1.1 2.4v1.4c0 .2 0 .5.2.6 0 0 0 .2.2.2.2-.2.2-.3.2-.3h.2v-.5c0-.3.2-.5.2-.6 0-.3.2-.8.3-1.1l1.1-2.1c.8-1.5 1.8-2.9 3-4.2.6-.8 1.2-1.4 1.8-2l1.8-2c.6-.6 1.2-1.2 2-1.7.3-.3.6-.5 1.1-.6l.3-.3c0-.2-.5.2-.5.2l.5-.2-.9.3c-.3 0-.6.3-1.1.6zm-9.2 12.8l-2.3-1.1-1.2-.5-1.2-.3-1.2-.4c-.3-.2-.8-.2-1.2-.2l-.6.2-.3.2c-.2 0-.2.2-.2.2-.2.2 0 .2 0 .2 0 .2.3.2.5.2.2.2.5.2.6.2l2.3.3c.8.2 1.5.5 2.3.8l2.3.9c.8.3 1.5.9 1.8 1.7.2-.2-.3-.6-.3-.8-.1-.2-1.3-1.6-1.3-1.6zm-7.6-13.6h-.3c0 .2-.2.3 0 .3.3 0 .5-.2.6-.3.2 0 .2 0 .3-.3 0 .2.2 0 0 0-.1.2-.4.3-.6.3zm-.3-1l-.2.2v.8c-.2.2-.2.2-.2.3 0 .2 0 .2.2.2.3.2.5.2.6 0 .2-.2.3-.2.3-.5l-.6-.6c.2-.3.2-.8-.3-.6l-.3.3c0 .2 0 .3.2.2 0-.2.3-.3.3-.3z"/></svg>