<svg baseProfile="tiny" xmlns="http://www.w3.org/2000/svg" viewBox="0 10 60 30"><path fill="#C0C0C0" d="M53 26.4c1.4.4 2.3 1.3 2.7 2.8.4 1.7.1 3.2-1.2 4.6 0 0 0 .1-.1.1 2.2.9 3.6 2.4 4 4.9h-11.7c0-1.8 1.4-3.7 4-4.9-.1-.1-.2-.2-.2-.3-1.7-1.7-1.7-4.6 0-6.1.4-.4 1.1-.7 1.7-1-.1-.1.8-.1.8-.1zm-2.4 2c-.8 1.2-.8 2.9.1 4 1 1.4 2.9 1.3 3.8-.1.3-.6.4-1.1.6-1.7.1-.7 0-.7-.6-.8-1.6.1-2.9-.4-3.9-1.4zm-42.6-2c.9.2 1.7.4 2.3 1.1 1.3 1.2 1.8 3.1.9 4.8-1.2 2.1-2.4 4.2-3.8 6.4-.3-.6-.7-1.1-1-1.6l-2.1-3.7-1.1-2.3v-1.1c.2-1 .7-2 1.6-2.6.6-.4 1.3-.6 2-.9.4-.1.9-.1 1.2-.1zm-.6 2.8c-.7 0-1.2.6-1.2 1.2 0 .7.6 1.2 1.2 1.2s1.2-.6 1.2-1.2c.1-.6-.5-1.2-1.2-1.2zm12.5-2.8c.2.2.4.4.6.8.3.6.6 1.1.8 1.7.2.6.1.9-.3 1.2l-.3.3c-.2.2-.3.6-.1.8 1 1.1 1.9 2.3 2.9 3.6.3.4.7.3 1 0 .6-.6.9-.6 1.6-.1l1.7 1.1c.4.3.6.8.3 1.2-.3.4-.7.9-1 1.2-.6.6-1.2.6-1.9.3-1.2-.4-2.3-1.2-3.2-2.1-1.8-1.7-3.1-3.7-4.1-5.9l-.3-1.1c-.3-1.3.4-2.3 1.6-2.8l.3-.1c-.2-.1.1-.1.4-.1zM43.4 37.8c-.2.2-.4.4-.7.6-1.1-1.1-2.2-2.2-3.3-3.4-1.3 1-2.7 1.3-4.2 1-1.1-.3-2-1-2.8-1.9-1.3-2-1-4.6.7-6.2 1.8-1.6 4.4-1.7 6.3 0 1.7 1.4 2.3 4.2.6 6.6 1.1 1.1 2.2 2.2 3.4 3.3zm-7.1-2.1c2.3 0 4.2-1.9 4.2-4.2s-1.9-4.3-4.2-4.3-4.2 1.9-4.2 4.2c-.1 2.4 1.9 4.2 4.2 4.3zm0-8c2 0 3.7 1.7 3.7 3.7s-1.7 3.8-3.8 3.8c-2 0-3.8-1.7-3.8-3.8.2-2.1 1.8-3.7 3.9-3.7z"/><path d="M0 25h15v15h-15v-15zm15 0h15v15h-15v-15zm15 0h15v15h-15v-15zm15 0h15v15h-15v-15z" fill="none"/><path fill="#9B757A" d="M53 11.4c1.4.4 2.3 1.3 2.7 2.8.4 1.7.1 3.2-1.2 4.4 0 0 0 .1-.1.1 2.2.9 3.6 2.4 4 4.9h-11.7c0-1.8 1.4-3.7 4-4.9-.1-.1-.2-.2-.2-.3-1.7-1.7-1.7-4.6 0-6.1.4-.4 1.1-.7 1.7-1 0 .1.4.1.8.1zm-2.4 2c-.8 1.2-.8 2.9.1 4 1 1.4 2.9 1.3 3.8-.1.3-.6.4-1.1.6-1.7.1-.7 0-.7-.6-.8-1.6 0-2.9-.4-3.9-1.4zm-42.6-2.1c.9.2 1.7.4 2.3 1.1 1.3 1.2 1.8 3.1.9 4.8-1.2 2.2-2.4 4.3-3.8 6.4-.3-.6-.7-1.1-1-1.6l-2.1-3.7-1.1-2.3v-1c.2-1 .7-2 1.6-2.6.6-.4 1.3-.6 2-.9.4-.2.9-.2 1.2-.2zm-.6 2.9c-.7 0-1.2.6-1.2 1.2 0 .7.6 1.2 1.2 1.2s1.2-.6 1.2-1.2c.1-.6-.5-1.2-1.2-1.2zm12.5-2.9c.2.2.4.4.6.8.3.6.6 1.1.8 1.7.2.6.1.9-.3 1.2l-.3.3c-.2.2-.3.6-.1.8l2.9 3.4c.3.4.7.3 1 0 .6-.4.9-.4 1.6-.1l1.7 1.1c.4.3.6.8.3 1.2-.3.4-.7.9-1 1.2-.6.4-1.2.6-1.9.3-1.2-.4-2.3-1.2-3.2-2.1-1.8-1.7-3.1-3.7-4.1-5.9l-.3-1.1c-.3-1.3.4-2.3 1.7-2.8l.3-.1c-.3.1.3.1.3.1zM43.4 22.8c-.2.2-.4.4-.7.6-1.1-1.1-2.2-2.2-3.3-3.4-1.3 1-2.7 1.3-4.2 1-1.1-.3-2-1-2.8-1.9-1.3-2-1-4.6.7-6.2 1.8-1.6 4.4-1.7 6.3 0 1.7 1.4 2.3 4.2.6 6.6 0-.2 3.4 3.3 3.4 3.3zm-7.1-2.2c2.3 0 4.2-1.9 4.2-4.2 0-2.3-1.9-4.3-4.2-4.3s-4.2 1.9-4.2 4.2 1.9 4.3 4.2 4.3zm0-7.9c2 0 3.7 1.7 3.7 3.7s-1.7 3.8-3.8 3.8c-2 0-3.8-1.7-3.8-3.8.2-2.1 1.8-3.7 3.9-3.7z"/><path d="M0 10h15v15h-15v-15zm15 0h15v15h-15v-15zm15 0h15v15h-15v-15zm15 0h15v15h-15v-15z" fill="none"/></svg>