<svg baseProfile="tiny" xmlns="http://www.w3.org/2000/svg" viewBox="0 0 50 50"><path fill="#fff" d="M27.3 21.2c2.3.1 4.4 1.9 4.2 4.3-.2 2.3-2.4 3.6-4.6 3.5-1.8-.1-3.4-.8-3.9-2.6-.2-.9-.2-1.6.2-2.5.6-1.9 2.2-2.8 4.1-2.7m-26.7 18c5.8-6.2 12.8-9.3 22.2-9.3 8.1 0 10.8 6.4 19.7 6.9 2.4.2 6.4-2.8 6.4-2.8-.5 1.8-1.9 3.2-3.7 4.1-7.6 3.5-16.9-5.2-27.8-3.9-6.7.7-10.3 3-16.8 5"/><path fill="#fff" d="M4.4 47.1h-3.7v-4.6h1.6c.4 0 .8 0 1 .1.3.1.5.2.6.4.2.2.3.4.3.7.1.3.1.6.1 1v2.4zm-1-1.3v-1.6c0-.1-.1-.2-.2-.3s-.2-.1-.3-.2c-.1 0-.3-.1-.6-.1h-.7v2.1h1.8zM6.7 45.1h-1v-1.1c0-.1 0-.1-.1-.2 0 0-.1-.1-.2-.1h-.5v-1.3h.6c.3 0 .6.1.8.3.2.2.3.5.3.8v1.6zM10.7 47.1h-1v-2.8c0-.1-.1-.2-.2-.3l-.3-.2c-.1 0-.3-.1-.6-.1h-.6c-.2 0-.4 0-.6.1v-1.3c.1 0 .3 0 .6-.1h.7c.4 0 .8 0 1 .1.3.1.5.2.6.4.2.2.3.4.3.7.1.3.1.6.1 1v2.5zM13 45.1h-1v-1.1c0-.1 0-.1-.1-.2 0 0-.1-.1-.2-.1h-.5v-1.3h.6c.3 0 .6.1.8.3.2.2.3.5.3.8v1.6zM13.9 42.5c.2 0 .4-.1.7-.1h.9c.4 0 .8 0 1 .1.3.1.5.2.6.4.2.2.3.4.3.7.1.3.1.6.1 1v2.5h-1v-2.8c0-.1-.1-.2-.2-.3l-.3-.2c-.1 0-.3-.1-.6-.1h-.7v3.3h-1v-4.5zM19.6 43c.2-.2.3-.4.5-.5.2-.1.5-.2.7-.2.3 0 .5 0 .7.1.2.1.4.2.5.4.1.2.2.4.3.7.1.3.1.6.1 1v2.5h-2.2v-1.3h1.2v-1.6l-.1-.3-.2-.2-.3-.1c-.1 0-.2 0-.3.1l-.3.2-.2.3-.1.3-.5 2.4h-1l.6-2.7v-.2l-.7-1.7h1l.3.8zM26.8 43.7v1.9c0 .3 0 .5-.1.7l-.2.5c-.1.1-.2.2-.4.3-.1.1-.3.1-.5.1h-.6v-1.3h.6000000000000001c.1 0 .1-.1.1-.1s0-.1.1-.1v-1.8h-.6v-1.3c.2 0 .5-.1.8-.1h1.1c.4 0 .8 0 1 .1.3.1.5.2.6.4.2.2.3.4.3.7s.1.6.1 1v2.5h-1v-2.8c0-.1-.1-.2-.2-.3l-.3-.2c-.1 0-.3-.1-.6-.1h-.2c.2-.1.1-.1 0-.1zM31.6 42.5l1 1.8c.2-.1.3-.3.4-.5.1-.2.1-.5.1-.7v-.5h1v.4c0 .5-.1.9-.3 1.2-.2.3-.5.6-.8.8l1.2 2.1h-1.3l-1.2-2.1c-.1.1-.2.3-.2.4-.1.2-.1.4-.1.6v1h-1v-1c0-.4.1-.7.2-1 .1-.3.4-.6.7-.8l-.9-1.6h1.2zM36.4 47.1h-1v-3.1c0-.1 0-.1-.1-.2 0 0-.1-.1-.2-.1h-.5v-1.3h.6c.3 0 .6.1.8.3s.3.5.3.8v3.6zM38.7 47.1h-1v-3.1c0-.1 0-.1-.1-.2 0 0-.1-.1-.2-.1h-.5v-1.3h.6c.3 0 .6.1.8.3s.3.5.3.8v3.6zM40.7 45v.8h.2c.3 0 .5 0 .7-.1s.4-.2.5-.3c.3-.3.5-.6.7-1.1s.3-1.1.4-1.7h1c-.2 1-.4 1.8-.7 2.5-.3.7-.6 1.2-1.1 1.6-.2.2-.4.3-.7.4-.3.1-.6.1-.9.1h-1.1v-4.5h1v1.3h.3s.1-.1.2-.1c.1-.1.2-.3.3-.5.1-.2.1-.5.2-.8h1c-.1.6-.2 1-.4 1.4-.1.3-.3.6-.5.7l-.5.3h-.6zM45 42.5c.2 0 .4-.1.7-.1h.9c.4 0 .8 0 1 .1.3.1.5.2.6.4.2.2.3.4.3.7.1.3.1.6.1 1v2.5h-1v-2.8c0-.1-.1-.2-.2-.3l-.3-.2s-.3-.1-.6-.1h-.9c-.3 0-.6.1-.7.1v-1.3zm1 1.9v2.6h-1v-2.6h1z"/></svg>