<svg baseProfile="tiny" xmlns="http://www.w3.org/2000/svg" viewBox="0 0 60 72.3"><path d="M28.9 26.2c0-.1.1-.7 0-.7-.4.9-.2 2 .2 2.8.4.9 1.1 1.8 2.1 2.2.8.3 1.8.2 2.6-.1.4-.2.8-.4 1.2-.7.2-.1.3-.3.5-.5l.2-.2s0-.1-.1-.2c0-.1 0-.1-.1-.1-.2 0-.4.1-.6.2-.2.1-.4.2-.5.3-.4.2-.7.4-1 .6-.5.3-.9.3-1.5.3-.5-.1-.9-.3-1.3-.6-.5-.4-.9-1-1.2-1.6-.4-.4-.4-1-.5-1.7zm16.1-.1c0-.2.1-.7 0-.8-.1.9-.1 1.9-.6 2.6-.5.8-1.5 1.4-2.5 1.4-.5 0-1 0-1.5-.2-.4-.2-.9-.4-1.1-.8l-.2-.2c-.1-.1-.2.2-.2.3 0 .3.1.6.2.8.3.4.8.7 1.3.7.2 0 .4 0 .7-.1.2-.1.5 0 .7 0 .5 0 1.1-.2 1.5-.5.9-.5 1.4-1.4 1.6-2.4.1-.2.1-.5.1-.8zm-16.5-6.8c-.1-.1-.1-.2-.2-.2l-.1-.1s-.2-.1-.1 0l.3.5c.2.4.3.8.4 1.2.2.9.6 1.8.6 2.7 0 .5-.1 1 0 1.4v.6c0 .2.1.1.2 0l.2-.3c.1-.2.2-.4.2-.6 0-.2 0-.5-.1-.8-.1-.5-.1-1-.3-1.6-.2-.5-.4-1.1-.5-1.6-.1-.2-.3-.8-.6-1.2zm2.2 11.8c0-.1-.2-.6-.3-.5-.1.1.1.5.2.6.2.5.3 1 .4 1.4.2.9.4 1.9-.2 2.7-.2.4-.5.7-.8 1-.1.2-.2.3-.4.5-.1.1-.3.4-.2.5.1.1.1.2.2.2l.3-.1.5-.4c.3-.3.5-.8.7-1.2l.4-1c.1-.4.1-.9 0-1.3-.1-.5-.2-.9-.4-1.4-.1-.2-.2-.6-.4-1zm7.2.3c.1-.2.2-.4.3-.7-.5.8-.8 1.7-1.1 2.6l-.9 2.7-.6 2.1c-.1.3-.1.6-.1 1 0 .3-.1.8.1 1l.2-1.4.2-1.3c.1-.5.2-1 .4-1.4l.3-1.2c.4-1.2.7-2.3 1.2-3.4zm4.8-30.1l-.3.1c.4 0 .8-.2 1.3-.1s1 .4 1.2.9l.2.9.2.8c0 .1.1.1.2.1.1-.1.1-.2.1-.3 0-.2.1-.4 0-.6 0-.2-.1-.3-.2-.4l-.2-.4c-.1-.3-.4-.5-.6-.7-.6-.5-1.3-.5-1.9-.3zm3 4.1v-1.3c-.1 1 0 1.9 0 2.9l.1 3.4c0 1.7 0 3.5-.3 5.2-.1 1-.3 2-.6 3-.1.5-.2 1-.4 1.5-.1.3-.2.5-.2.7-.1.2-.1.4-.1.6.4-.4.6-.9.8-1.4.2-.5.4-1.1.5-1.6.2-.8.2-1.7.3-2.5.2-1.6.2-3.3.2-4.9-.1-1.8-.2-3.7-.3-5.6zm-4 1.2l.1-.6c-.2.1-.2.4-.2.6l-.2.8c-.1.4-.1.9-.1 1.4 0 .9 0 1.8-.3 2.6-.1.4-.3.8-.4 1.3-.1.2-.1.4-.1.6-.1.2-.1.4-.1.6.2-.1.3-.3.4-.5.1-.2.3-.4.3-.6l.3-1.3c.2-.9.2-1.8.1-2.7 0-.8 0-1.5.2-2.2zm-18.6-1.3l.9-.6c-.5.1-.9.5-1.3.8l-1.2 1.1-2.2 1.7c-1.4 1.1-2.7 2.3-3.8 3.6-.6.7-1.2 1.6-1.4 2.6.5-.7 1-1.4 1.5-2 .5-.7 1-1.4 1.6-2 .6-.6 1.2-1.2 1.9-1.8l2.1-1.7c.6-.4 1.2-1.1 1.9-1.7zm-8.4 6.9l.1-.4c-.2.1-.2.5-.2.6v.7c0 .5.1 1 .3 1.4.2.4.4.9.8 1.1l.6.3c.1 0 .2 0 .3.1.1 0 .3 0 .3-.2-.1-.3-.5-.5-.8-.6-.2-.1-.4-.1-.5-.2-.1-.1-.2-.3-.3-.5-.5-.5-.7-1.4-.6-2.3zm2.7 4.4c-.3-.3-.6-.5-.8-.8.6.7 1.3 1.3 2 1.9.9.7 1.9 1.4 3 2 1 .5 2 1 3 1.4.9.4 1.9.9 2.8 1.4l1.1.5c.4.1.8.3 1.2.3l-1.3-.7-1.3-.6-1.4-.6-1.4-.6c-2.2-.8-4.3-2.1-6.1-3.6-.3-.2-.6-.4-.8-.6zm10.7 5l-.1-.2c-.1.1.2.5.3.6l.4.7.3.7.1.3c0 .1.2.3.2.3.2.1 0-.5 0-.6l-.2-.3c-.1.1-.1-.1-.2-.2-.2-.4-.5-.9-.8-1.3zm-4.1-14.2c0-.1.4-.4.3-.5-.4.3-.6.6-.9 1l-1 1.1c-.3.3-.6.7-1 1l-1.1.9-1.1.9c-.1.1-.4.3-.4.5 0 .3.4 0 .6 0 .5-.2.8-.6 1.1-1 .3-.4.7-.7 1-1 .5-.5.9-1 1.3-1.5.4-.4.8-.9 1.2-1.4zm-3.3 5.9l-.9-.3c1.8.6 3.3 1.7 5 2.4.9.4 1.9.6 2.8.8.9.1 2 .3 2.8-.3.3-.2.5-.4.5-.7-.5.7-1.6.8-2.4.8-.5 0-.9 0-1.4-.1-.5-.1-1-.2-1.4-.3-1.8-.5-3.3-1.6-5-2.3zm10.3-8l.3.1-.4-.2-.3-.2c-.1 0-.2.1-.2.3 0 .4.8.6 1.1.7.4.1.8 0 1.1-.3.1-.1.3-.2.3-.4.1-.1.2-.5 0-.6 0 .1 0 .3-.1.4l-.3.4c-.2.2-.5.4-.9.4-.3 0-.7-.1-1-.3-.1-.1-.3-.3-.1-.4.2-.2.4 0 .5.1zm-5-.2l-.5.4c1.3-1.1 3.4-1.8 5-.7.4.3.6.6.9.9l.4.5c.2.2.3.4.5.5 0-.2-.1-.4-.2-.5-.1-.2-.2-.4-.4-.6-.3-.4-.6-.6-1-.9-.4-.2-.7-.4-1.1-.5-.4-.1-.8-.1-1.2 0-.9.1-1.7.4-2.4.9zm7.4-.1l-.6-.6c.3.4.6.7 1 1.1.4.3.8.6 1.3.7.6.1 1.1-.1 1.6-.3.5-.2.9-.4 1.3-.7l2.4-1.6c.4-.3.7-.5 1.1-.9l.5-.4c0-.1.1-.2.2-.3.1-.1.1-.2.1-.3-.4 0-.8.4-1.2.6-.4.3-.8.6-1.1.9-.7.7-1.5 1.3-2.3 1.8-.7.5-1.5 1-2.3 1-.8.2-1.4-.4-2-1zm2.9 5.1c-.1.1-.2.2-.1.3.2 0 .3-.4.4-.5.1-.2.2-.3.4-.5l.8-.9c.3-.3.8-.5 1.2-.8.1-.1.6-.3.6-.4 0-.3-.3-.2-.5-.1-.3.1-.6.3-.8.6l-.4.3-.4.4c-.5.4-.9 1-1.2 1.6zm-2.3-5.6c-.3 0-.5.4-.6.7.2-.3.7-.9 1.1-.4.3.3.4.8.5 1.3l-.1 3c0 .5.3.9.8 1 .4.1.9.1 1.4.3.5.3.4.8.3 1.3-.1.4 0 .8.4 1.1.1.1.3.2.5.3.2.1.4.2.7 0-.4-.2-.9-.5-1.1-.9-.2-.4 0-.9 0-1.3-.2-1.1-1.5-.9-2.3-1.2-.5-.2-.5-.7-.5-1.2s0-1 .1-1.5c0-.5 0-1-.1-1.5-.1-.4-.3-1-.8-1.1-.2.1-.2.1-.3.1zm-4.7-1c.1-.2.3-.4.5-.5-1 .5-1.2 1.8-.5 2.6.6.7 1.8.6 2.6 1 .3.1.6.4.6.7-.1.4-.3.8-.4 1.1l-.4 1.1v.6c0 .2.1.3.3.5.2-.4.2-.8.3-1.3l.3-1.3c0-.2.1-.5.2-.7.1-.2 0-.5-.2-.7-.3-.4-.9-.5-1.3-.6-.6 0-1.4 0-1.8-.5-.5-.5-.6-1.4-.2-2zm-3.4.8l.4-.2c-.4.1-.8.5-1.1.8-.1.2-.2.4-.2.7 0 .3.2.5.5.5.5 0 .9-.5 1.4-.4.2 0 .4.1.7.2.1 0 .6.4.7.2.1-.2-.3-.4-.4-.5-.2-.1-.5-.2-.7-.2-.5 0-.9.3-1.3.5-.2.1-.4.2-.6 0-.3-.2-.3-.4-.2-.7.2-.4.5-.7.8-.9zm16.5 13c0-.1 0-.7-.1-.6-.1.1-.1.6-.1.7v1.6c.1 1.1.4 2.2.7 3.2.1.5.3 1.1.6 1.6l.4.6c.1.1.2.2.2.3.1.1.1.1.3.1.3-.1.2-.3.1-.6l-.3-.7c-.1-.2-.2-.4-.4-.6l-.4-.6c-.3-.8-.5-1.6-.7-2.5-.1-.5-.2-.9-.2-1.4 0-.3 0-.7-.1-1.1zm-13 18.6l1.5-1.2c-.2 0-.4.2-.6.3l-.6.4c-.4.3-.8.6-1.2 1-.6.6-1.2 1.3-1.6 2.1-1 1.6-1.7 3.4-2.1 5.2-.4 1.8-.6 3.7-.6 5.6 0 1.9.2 3.9.6 5.8l.7 2.5.2.6.1.3s0 .1.1.1.1 0 .1.1c.1.1.1.3.2.1l.1-.3c0-.2 0-.4-.1-.7-.3-1.7-.7-3.5-1.1-5.2-.1-.6-.3-1.1-.3-1.7-.1-.5-.1-1-.1-1.6 0-1-.1-2 0-3 .1-1.8.5-3.6 1.1-5.2.7-1.7 1.6-3.4 3-4.7.3-.2.5-.4.6-.5zm12.8-5.3c.1-.1.4-.7.3-.7-.6.6-.9 1.5-1.2 2.3-.4.9-.4 1.9-.6 2.9-.1 1-.3 1.9-.3 2.9 0 .5 0 .9.1 1.3 0 .2.1.4.2.6.1.2.1.2.3.2.1 0 .2 0 .3-.1.2-.4.2-.9.2-1.4 0-.4-.1-.9-.2-1.3-.1-.2-.1-.4-.1-.7 0-.2.1-.4.1-.7 0-.5 0-1 .1-1.5l.3-2.1c.1-.3.1-.6.3-1-.1-.2.1-.4.2-.7zm-1 6.2c-.1-.6-.2-1.3 0-1.9-.3.3-.3.8-.3 1.1 0 .4.1.9.2 1.3.2.9.8 1.7 1.2 2.4.9 1.7 1.4 3.6 1.5 5.5.1 1.9-.3 3.8-.9 5.6-.6 1.8-1.4 3.4-2.1 5.1-.3.8-.6 1.6-1 2.4-.1.2-.2.3-.2.5v.2c0 .1-.1.2 0 .2l.4-.4.3-.5c1-1.6 1.8-3.2 2.3-5.1.1-.4.2-.8.3-1.3.1-.5.3-.9.4-1.3.3-1 .5-2 .6-3 .2-1.8.2-3.7-.4-5.5-.3-1-.7-1.9-1.3-2.7-.5-.8-1-1.5-1.2-2.4.2 0 .2-.1.2-.2zm-15.4-28.7c0-.1 0-.2-.1-.2-.2.4.6.9.8 1.1l.8 1.3c.1.1.2.2.2.3.1.1.2.1.2-.1l-.3-.6c-.3-.4-.5-.8-.9-1.1l-.7-.7zm-2.1-1.2c.1-.2.4-.6.7-.4-.4-.2-.8.5-1 .8-.3.4-.5.9-.3 1.3s.8.7.8 1.2c.1.5-.1 1-.2 1.4-.1.5-.1 1 .2 1.4.3.3.6.6 1 .8.4.3.8.6.8 1.1 0 .4-.4.9-.3 1.3.1.4.5.2.7 0-.1 0-.4.1-.4 0 .2-.4.4-.8.4-1.3s-.3-.8-.6-1c-.7-.5-1.7-.9-1.6-1.9 0-.4.1-.8.1-1.3s0-.9-.4-1.2c-.3-.3-.7-.6-.5-1.1.2-.4.4-.8.6-1.1zm10.6 2.9l-.3-.5c0 .4.5.9.8 1.2.3.3.6.7.9 1.1.5.6 1.2 1.4 2 1.7.9.3 2.1 0 2.8-.5-.4 0-.8.1-1.2.2-.4.1-.8.2-1.3.2-.4 0-.8-.3-1.1-.5-.4-.3-.7-.6-1-.9l-.8-.9c-.2-.4-.5-.7-.8-1.1zm-9-4.6c.1-.1.2-.1.3-.1-.4-.3-.9.4-1 .7-.2.4-.5.7-.6 1.2-.1.4-.2.8-.2 1.2 0 .2.1.4.2.5.1.1.4.4.6.4 0-.2-.2-.3-.3-.4-.1-.1-.2-.3-.2-.5-.1-.4 0-.8.1-1.1.1-.4.3-.7.5-1.1.2-.4.3-.6.6-.8zm7.9 4.3c0-.1 0-.3-.1-.5v.7c0 .2 0 .5-.1.7-.1.4-.3.8-.5 1.2-.4.8-1.2 1.2-1.7 1.9-.1.2-.4.5-.3.8l.5-.5.4-.5c.2-.3.5-.6.8-.9.6-.7.9-1.6 1-2.5v-.4zm-8.2 1.9c-.2-.2-.3-.3-.4-.5.1.4.5.7.8 1 .3.3.6.6.9 1 .3.3.6.6 1 .9.4.3.9.4 1.4.6.6.2 1.3.3 1.9.4.7 0 1.3-.2 1.9-.3-.4-.1-.9 0-1.4 0-.5 0-.9.1-1.4 0-.9-.1-1.9-.4-2.6-.9-.4-.3-.7-.6-1.1-1-.3-.5-.6-.8-1-1.2zm2.4-3.5c0 .1 0 .1.1.2 0-.2 0-.4.1-.6.1-.2.2-.4.4-.5.4-.4.8-.1 1.3-.2.1 0 .1-.2 0-.2h-.3c-.2 0-.4 0-.6.1-.4.1-.7.6-.8 1-.2 0-.2.1-.2.2zm.3.4v.1l.2-.4.4-.3c.1-.1.9-.4.7-.6-.2-.2-.5.3-.6.4-.3.2-.6.5-.7.8zm-1.4 1.7c.1 0 .1.1.1.1 0-.4-.7 0-.8.2-.2.2-.5.7-.2 1l.2.2c.1 0 .1-.1 0-.2s-.2-.4-.2-.5c.1-.2.2-.4.4-.6.1-.1.3-.2.5-.2zm.2.3v-.1c-.2.1-.1.6-.2.8-.1.2-.5.5-.4.7.2.3.4-.3.5-.4l.1-1zm16 16.1c0-.3-.2-.1-.1.1.1.1.3.3.5.3.4 0 .4-.5.4-.8-.1-.4-.6-.4-.8-.1l-.1.2c-.1.1 0 .1.1.3.2-.1.3-.1.4-.2-.1 0-.1 0-.1-.1 0 .1.1.2.1.4-.1.2-.4 0-.4-.1zm-10.7.8c.1-.2-.1-.1-.1 0 0 .2.1.3.3.4.1.1.4.1.5 0 .2-.1.1-.3 0-.4-.1-.1-.2-.3-.3-.3-.1 0-.5 0-.3.2.1.1.1.2.2.2.2 0 .2 0 .3.2v-.1c-.1.2-.6.1-.6-.2zm-7.4-19.4c.1-.2.3-.4.4-.5-.4.3-.7.8-.9 1.2-.2.5-.4 1-.4 1.5l1.7 2.1c0 .4-.1.8-.2 1.2-.1.4-.3.8-.2 1.3v.3l.1.1c.1 0 .1.1.2 0s.2-.3.2-.5c.1-.4.2-.8.2-1.2 0-.4 0-.9-.1-1.3-.1-.5-.5-.8-.9-1-.4-.3-.9-.5-.9-1.1 0-.5.1-1 .3-1.4.2-.3.4-.5.5-.7zm-.2-3.6c-.1-.3-.1-.7.1-.9-.4.2-.3 1 0 1.3.3.3 1 .3 1.4.3.9-.1 1.8-.5 2.6-.9.8-.3 1.7-.6 2.6-.5.5.1.9.2 1.2.6.3.4.3.8.3 1.3l-.1.8-.1.4.1.3c.4-.2.5-.6.6-1 .1-.4.2-.9 0-1.3-.3-.9-1.5-1.3-2.4-1.3-.9 0-1.8.4-2.6.8-.8.3-1.7.8-2.6.8-.4-.2-.9-.2-1.1-.7zm.9-.5l-.1.5c.2-.4.4-.8.7-1.1.3-.3.8-.6 1.2-.6 1-.1 1.2 1.1 1.6 1.7l.3.6c.1.1.2 0 .3-.1.1-.1 0-.2 0-.3-.1-.4-.3-.9-.6-1.2-.3-.3-.6-.8-1.1-.9-.5-.2-1.1 0-1.5.3-.3.4-.6.7-.8 1.1zm5.5 10.8c-.1 0-.2-.1-.3 0 .1.1.3.1.4.1.2.1.3.2.4.3.3.2.5.6.6.9l.5 1 .3.4c.1.1.4.3.5.2 0-.3-.3-.6-.5-.8l-.3-.3-.3-.5c-.3-.4-.7-1.1-1.3-1.3zm3.3.6c-.2 0-.3 0-.5.1.5-.1.8-.1 1.2.2.4.2.7.5 1.1.8.8.7 1.3 1.5 1.7 2.4.1.2.1.3.3.4.2-.4-.2-1-.4-1.4-.1-.2-.3-.4-.5-.6l-.5-.6-1.2-.9c-.4-.1-.7-.4-1.2-.4zm2.6 3.8c.1 0 .1 0 .2-.1l-.5.1v.1c.2 0 .4 0 .7.1.2 0 .4 0 .6-.1l.6-.3c.1-.1.1-.2.2-.2.1-.1 0-.3-.1-.2-.2.1-.3.2-.4.3-.1.2-.2.2-.4.3-.2.1-.4.1-.7.1h-.3s-.2 0-.2.1l.3-.2zm-3.2-12.8c-.1 0-.1.1-.2.2.2-.1.3-.3.6-.2.2 0 .3.3.4.5.1.3.1.5.1.8l-.2.8c0 .1-.1.3 0 .3.1.1.2 0 .2 0 .1-.2.2-.4.2-.6 0-.4 0-.8-.1-1.2-.3-.5-.6-.9-1-.6zm-3.8 32.7c-.7-1-1.3-2.2-1.3-3.4-.1 1 .3 2 .8 2.8.5.9 1.2 1.7 2 2.3 1.6 1.1 3.5 1.7 5.4 1.9l1.5.1c.5 0 1-.1 1.5-.2.9-.2 1.8-.3 2.6-.6.4-.2.9-.4 1-.9.2-.6-.3-1-.8-1.1-1-.1-1.9.6-2.7 1.1-.7.5-1.3 1.1-2.1 1.5-.8.5-1.8.7-2.7.6-1.7-.2-3.3-1-5-1.6l-1.4-.7c-.2-.1-.4-.2-.7-.2l-.5-.3c-.2-.1-.5-.2-.7-.1-.2.2-.3.4-.2.7.1.2.3.4.5.5l.5.5c1.4 1.4 3.3 2.3 5.1 2.8 1 .3 2.1.4 3.1.5h1.8l.1-.1c.1 0 .2 0 .3-.1.1 0 .3 0 .3-.1l-.3-.1c-1-.3-2-.4-3-.5-1-.2-2-.4-3-.7-.9-.3-1.8-.7-2.6-1.2-.7-.5-1.4-1.1-2-1.7 0 0-.1 0-.1-.1 0 .1-.1.3-.2.3.2.1.4.2.5.3l.7.2 1.4.7 2.5 1c1.6.6 3.5 1.1 5.2.2.8-.4 1.4-.9 2.1-1.4.4-.3.7-.6 1.1-.8.4-.3.9-.6 1.4-.7.3-.1 1-.1 1.1.4.1.5-.7.8-1 .9-.8.3-1.7.4-2.6.6-1.9.4-3.9.2-5.7-.5-1.6-.6-2.9-1.5-3.9-2.8zm-2.8 2.9c.7-1.6 1.4-3.2 2.3-4.7l.3-.6c-.3.3-.5.7-.7 1.1l-.6 1.1-1.2 2.4c-.7 1.6-1.4 3.3-2 5-.6 1.8-1.2 3.5-1.7 5.3-.5 2-1 4-1 6 0 .9-.1 2.2.9 2.6.2.1.5.1.7 0 .3-.1.4-.4.5-.6l.3-.6c.2-.2.3-.4.4-.7.4-.9.6-1.9.9-2.9.3-.9.6-1.8.9-2.8l.9-2.9.5-1.6.3-.7.1-.3c0-.1-.3-.2-.4-.3-.3.4-.5.9-.7 1.4-.2.5-.4.9-.5 1.4-.3 1-.6 1.9-.8 2.9-.5 1.9-.8 3.9-1.2 5.9l-.6 2.4c-.2 1-.5 2-.5 3.1 0 .4 0 1.3.7 1.2.5-.1.9-.6 1.1-1.1l.5-1.5c.1-.4.3-.8.4-1.3.3-1.2.6-2.5 1.2-3.6-.1.1-.3.3-.4.3h-.5c-.3-.1-.4-.4-.4-.7-.3 1-.6 1.9-.8 2.9-.2.9-.3 1.8-.4 2.7-.1 1.7-.2 3.6.4 5.3l.6 1.3c.2.4.5.8.8 1.1v-.1l.9.7c0-.2-.2-.4-.3-.5-.1-.2-.2-.4-.2-.6-.2-.5-.3-1-.4-1.6l-.3-2.7c-.1-1.7.1-3.4.3-5.1.1-.5.2-.9.2-1.4 0-.3.1-.5.2-.7l.2-.7c.1-.3.1-.5 0-.8-.1-.3-.4-.4-.6-.5-.3 0-.6.2-.7.4l-.3.6c-.6 1.7-1 3.5-1.3 5.2-.1.4-.2 1-.6 1.2.2-.1.6-.1.7.2-.1-.4 0-.9 0-1.3 0-.5.1-1 .2-1.5.1-.9.3-1.7.6-2.5.5-1.9.7-3.9 1.1-5.8.3-1.9.8-3.9 1.6-5.7l.1-.3c-.1 0-.2-.1-.3-.2-.2.5-.4.9-.5 1.4l-.5 1.6-.9 2.9c-.3.9-.6 1.8-.9 2.8l-.4 1.4c-.1.5-.2 1.1-.6 1.5-.2.2-.3.4-.4.6-.1.2-.2.5-.4.5-.4.1-.7-.5-.7-.8-.2-1-.1-2 0-3 .2-2 .7-4 1.2-5.9.5-1.8 1-3.6 1.7-5.3.4-1 .8-2 1.1-3 0 .4-.1.4-.1.5z" fill="#9F9F9F"/></svg>