<svg baseProfile="tiny" xmlns="http://www.w3.org/2000/svg" viewBox="0 0 60 72.3"><path d="M28.8 30.3c0-.1.1-.8 0-.9-.4 1-.2 2.3.2 3.3.5 1.1 1.3 2 2.4 2.5 1 .4 2.1.3 3-.1.5-.2.9-.4 1.4-.8l.6-.5.2-.2s0-.1-.1-.2c0-.1 0-.1-.2-.1s-.5.1-.7.2l-.6.3-1.2.7c-.6.3-1.1.4-1.7.3-.6-.1-1.1-.3-1.5-.7-.6-.5-1.1-1.1-1.4-1.8-.3-.6-.4-1.2-.4-2zm18.7-.1c0-.2.1-.8 0-.9-.1 1.1-.2 2.2-.7 3.1-.6 1-1.7 1.6-2.9 1.6-.6 0-1.2 0-1.7-.2s-1-.5-1.3-.9l-.3-.2c-.1-.1-.2.3-.2.3 0 .3.1.7.3.9.4.5.9.8 1.5.8.3 0 .5 0 .8-.1.3-.1.6 0 .8 0 .6 0 1.3-.3 1.8-.6 1-.6 1.6-1.6 1.9-2.8-.1-.3 0-.7 0-1zm-19.3-7.9l-.2-.3-.1-.1s-.2-.1-.1 0l.4.6c.3.4.4.9.5 1.4.3 1.1.7 2.1.7 3.2 0 .6-.1 1.1 0 1.7 0 .2 0 .5.1.7 0 .2.2.1.2 0 .1-.1.1-.2.2-.4l.3-.7c0-.3 0-.6-.1-.9l-.3-1.8-.6-1.8c-.4-.5-.6-1.2-1-1.6zm2.6 13.7c0-.1-.3-.7-.4-.6-.1.1.2.6.2.7.2.6.4 1.1.5 1.7.3 1.1.4 2.2-.2 3.2l-.9 1.2c-.2.2-.3.4-.4.6-.1.1-.4.5-.3.6.1.1.1.2.3.2.1 0 .3-.1.4-.2.2-.1.4-.3.6-.5.4-.4.6-.9.8-1.4.1-.4.4-.7.5-1.2.1-.5.1-1.1 0-1.6s-.2-1.1-.4-1.6c-.4-.2-.5-.7-.7-1.1zm8.4.4c.1-.3.2-.5.4-.8-.6.9-.9 2-1.3 3s-.7 2.1-1 3.1c-.3.8-.5 1.6-.7 2.5l-.2 1.1c0 .4-.1.9.2 1.2l.2-1.6c.1-.5.2-1 .2-1.5l.4-1.7.4-1.4c.4-1.4.9-2.7 1.4-3.9zm5.6-35.1c-.1 0-.3.1-.4.2.5 0 1-.2 1.5-.1.6.1 1.2.5 1.4 1l.3.9c.1.3.2.6.2 1 0 .1.2.2.3.1.1-.1.1-.2.1-.4.1-.3.1-.5 0-.8 0-.2-.1-.3-.2-.5-.1-.1-.2-.3-.2-.5l-.8-.7c-.7-.4-1.5-.4-2.2-.2zm3.5 4.8v-1.5c-.1 1.1 0 2.2 0 3.4l.1 4c0 2 0 4-.3 6-.2 1.2-.4 2.4-.7 3.5-.2.6-.3 1.1-.4 1.7l-.3.9c-.1.2-.1.4-.2.7.4-.5.7-1.1.9-1.6.3-.6.5-1.2.6-1.9l.4-2.9c.3-1.9.3-3.8.2-5.7-.1-2.2-.3-4.4-.3-6.6zm-4.7 1.3c0-.2.2-.5.1-.7-.2.1-.2.5-.3.7l-.2.9c-.1.5-.1 1-.1 1.6 0 1 0 2-.3 3-.1.5-.3 1-.5 1.5-.1.2-.1.5-.2.8-.1.3-.2.5-.1.7.2-.1.3-.3.4-.6l.4-.7c.2-.5.2-1 .3-1.6.3-1 .2-2.1.2-3.1.1-.8.1-1.6.3-2.5zm-21.6-1.4c.3-.3.7-.5 1-.7-.6.1-1.1.6-1.5.9l-1.4 1.3c-.8.7-1.7 1.3-2.6 2-1.6 1.3-3.1 2.6-4.4 4.2-.7.9-1.4 1.9-1.7 3l1.8-2.4c.6-.8 1.2-1.6 1.9-2.3.7-.7 1.4-1.4 2.2-2.1.8-.7 1.7-1.3 2.4-2 .8-.5 1.5-1.2 2.3-1.9zm-9.8 8.1l.1-.4c-.2.1-.2.5-.2.7 0 .3-.1.6 0 .8 0 .6.2 1.1.4 1.6s.4 1 .9 1.3c.2.2.4.3.7.3.1 0 .2.1.4.1.1 0 .3 0 .3-.2-.1-.4-.6-.6-.9-.7-.2-.1-.4-.1-.6-.3l-.3-.5c-.7-.8-.9-1.8-.8-2.7zm3.2 5l-1-.9c.7.8 1.5 1.5 2.3 2.2 1.1.9 2.2 1.6 3.4 2.3 1.1.6 2.3 1.1 3.5 1.7 1.1.5 2.2 1.1 3.2 1.6.4.2.9.4 1.3.5.5.2.9.4 1.4.3-.5-.3-1-.5-1.6-.8-.5-.3-1-.5-1.6-.7l-1.6-.7c-.6-.2-1.1-.5-1.6-.7-2.6-1-5-2.4-7.1-4.2l-.6-.6zm12.3 5.9c-.1-.1-.1-.2-.2-.2-.1.2.3.6.4.7.2.3.3.5.4.8.1.3.2.5.4.8.1.1.1.2.2.4 0 .1.2.4.3.4.3.1 0-.5 0-.6l-.2-.3-.2-.4c-.4-.6-.7-1.1-1.1-1.6zm-4.7-16.6c0-.1.4-.4.3-.5-.4.3-.7.7-1.1 1.1l-1.2 1.3-1.1 1.2c-.4.4-.8.7-1.3 1.1l-1.3 1.1c-.1.1-.5.3-.4.6 0 .3.5.1.7 0 .5-.3.9-.7 1.3-1.2l1.2-1.2 1.5-1.8 1.4-1.7zm-3.8 6.9l-1-.3c2.1.6 3.8 2 5.8 2.8 1 .4 2.2.8 3.3.9 1.1.2 2.4.3 3.3-.3.3-.2.6-.5.6-.8-.6.9-1.8.9-2.8.9-.6 0-1.1 0-1.6-.1-.6-.1-1.1-.2-1.6-.4-2.3-.6-4-1.9-6-2.7zm12-9.4c.1 0 .2.1.4.1-.1-.1-.3-.2-.5-.3-.1-.1-.2-.2-.3-.2-.2 0-.2.1-.2.3 0 .5.9.7 1.3.8.5.1.9 0 1.3-.3.2-.1.3-.3.4-.5.1-.2.2-.6 0-.7l-.1.4c-.1.2-.3.3-.4.4-.3.3-.6.5-1 .5s-.8-.2-1.1-.4c-.1-.1-.4-.4-.2-.5 0 .1.2.4.4.4zm-5.9-.1c-.2.1-.4.3-.5.5 1.5-1.3 4-2.1 5.8-.8.4.3.7.7 1.1 1.1l.5.6.5.6c0-.2-.2-.4-.3-.6-.1-.2-.2-.5-.4-.7-.3-.4-.7-.7-1.2-1-.4-.3-.8-.5-1.3-.6-.5-.1-1-.1-1.4-.1-1 0-2 .4-2.8 1zm8.7-.1l-.7-.7c.3.4.7.9 1.1 1.2.4.4.9.7 1.5.8.7.1 1.3-.2 1.9-.4.5-.2 1-.5 1.5-.8.9-.6 1.8-1.2 2.7-1.9.4-.3.9-.6 1.3-1l.6-.5.3-.3c.1-.1.1-.2.1-.3-.5 0-.9.4-1.4.7-.5.3-.9.6-1.3 1-.8.9-1.7 1.5-2.6 2.2-.8.6-1.7 1.2-2.7 1.2-1 .1-1.7-.6-2.3-1.2zm3.3 5.8c-.1.1-.2.2-.2.4.2 0 .4-.4.5-.6l.4-.6c.3-.4.6-.7 1-1 .4-.4.9-.6 1.4-.9.2-.1.6-.3.7-.5 0-.3-.4-.2-.6-.1-.4.1-.7.3-.9.7-.1.1-.3.2-.5.3l-.4.4c-.6.6-1 1.3-1.4 1.9zm-2.6-6.4c-.4 0-.6.4-.7.8.3-.4.8-1 1.2-.5.4.4.5 1 .6 1.5l-.1 3.5c.1.6.3 1 1 1.2.5.2 1.1.1 1.6.4.6.3.5 1 .4 1.5-.1.5.1.9.4 1.3.2.2.4.3.6.4.3.1.5.2.8 0-.4-.3-1-.5-1.2-1-.2-.5 0-1-.1-1.5-.2-1.3-1.8-1-2.7-1.4-.6-.2-.6-.8-.6-1.4l.1-1.8c0-.6 0-1.2-.1-1.7s-.4-1.2-1-1.3h-.2zm-5.5-1.2c.2-.3.4-.5.6-.6-1.2.5-1.4 2.1-.6 3.1.7.9 2 .7 3 1.2.3.1.7.5.7.8-.1.4-.3.9-.5 1.3s-.4.8-.4 1.3c0 .2-.1.5 0 .7 0 .3.1.4.3.6l.4-1.5c.2-.5.3-1 .4-1.6l.2-.8c.1-.3 0-.6-.2-.8-.4-.4-1-.6-1.5-.7-.7-.1-1.6-.2-2.1-.8-.7-.5-.7-1.5-.3-2.2zm-3.9.9c.1-.1.3-.2.4-.2-.5.1-.9.6-1.2 1-.2.2-.3.5-.3.8 0 .3.3.6.6.6l1.7-.5c.3 0 .5.1.8.2.1 0 .7.4.8.3.1-.2-.4-.5-.5-.5-.3-.2-.6-.3-.9-.3-.6 0-1 .3-1.5.5-.2.1-.5.2-.7 0-.2-.2-.2-.5-.1-.8.1-.5.5-.8.9-1.1zm19.2 15.2c0-.1 0-.8-.1-.7-.1.1-.1.7-.1.9v1.8c.1 1.3.5 2.5.8 3.8.2.6.4 1.3.7 1.8.1.3.3.5.5.7l.3.3c.1.1.2.2.3.1.3-.1.2-.4.1-.7-.1-.3-.2-.5-.4-.8l-.4-.7c-.2-.2-.4-.5-.5-.7-.3-.9-.6-1.9-.8-2.9l-.3-1.6c-.1-.4-.1-.9-.1-1.3zm-15.1 21.8c.5-.5 1.2-.9 1.7-1.5-.2 0-.4.2-.6.4l-.6.5-1.3 1.1c-.8.7-1.5 1.6-2.1 2.5-1.3 1.8-2.1 3.8-2.6 6s-.7 4.4-.6 6.6c0 2.2.3 4.3.7 6.5.2 1 .6 2.1.9 3.1l.3.8c0 .1.1.3.2.3.2-.1.2.3.3.3.3.1.1-1.4 0-1.5-.4-2-.9-4.1-1.4-6.1l-.4-1.7c-.1-.6-.1-1.2-.1-1.8 0-1.2-.1-2.3 0-3.5.1-2.1.6-4.2 1.5-6.2s2.1-3.8 3.7-5.4c.1-.2.3-.4.4-.4zm4.4 13.6c-.2.3-.5.7-.5 1.1.3-1 1.2-1.7 1.9-2.4.8-.7 1.7-1.2 2.6-1.7.9-.5 1.9-.8 3-1 1.1-.2 2.1-.2 3.2-.3.5 0 1-.1 1.5-.2.3 0 .5-.1.7-.2.1 0 .2 0 .4-.1l.3-.1c-.2-.1-.5-.2-.7-.2l-.8-.2c-.5-.1-1.1 0-1.6.1-.6.1-1.1.2-1.7.4-.5.1-1 .1-1.5.3-1.1.3-2.1.7-3 1.2-1 .5-1.8 1.2-2.6 1.9-.5.6-.9.9-1.2 1.4zm-9.8-7c-.2 0-.8 0-.9.2 1-.2 2 0 2.9.4 1 .5 1.9 1.1 2.7 1.8.7.7 1.4 1.4 2 2.2.6.8 1.3 1.7 2 2.5l.3.3c.2.1.1.1.3.1.3 0 .1-.5 0-.7-.2-.5-.6-1-1-1.5-.4-.4-.7-.7-1.1-1-.4-.3-.6-.7-.9-1-.8-.8-1.8-1.6-2.7-2.1-.9-.5-1.9-.9-3-1-.2-.2-.4-.2-.6-.2zm20.2-13c.1-.1.5-.8.3-.8-.7.7-1 1.8-1.4 2.7-.4 1.1-.5 2.2-.7 3.4-.2 1.1-.4 2.2-.4 3.4 0 .5 0 1 .1 1.5l.2.7c.1.2.1.2.3.2.1 0 .3 0 .4-.1.3-.5.2-1.1.2-1.7 0-.5-.1-1-.3-1.5-.1-.3-.1-.5-.1-.8l.1-.8c0-.6 0-1.2.1-1.7.1-.8.2-1.6.4-2.4l.3-1.1c.2-.4.3-.7.5-1zm-10.5 21.5c0-.2.1-1.1-.1-1.1-.1 1-.1 1.9-.1 2.9s.1 2 .2 3c.2 1.9.2 3.9-.2 5.8-.2.9-.3 1.8-.6 2.7-.1.2-.1.4-.2.7 0 .1.1.3.2.3s.2-.1.3-.2c.3-.4.5-.9.7-1.3.4-1 .4-1.9.4-2.9l.1-1.4c0-.5 0-1-.1-1.5l-.6-6.1v-.9zm9.3-14.3c-.1-.8-.2-1.5 0-2.2-.3.3-.3.9-.3 1.3 0 .5.1 1 .2 1.5.2 1 .9 1.9 1.4 2.8 1.1 2 1.6 4.1 1.7 6.4.1 2.2-.4 4.4-1 6.5-.6 2-1.6 4-2.4 5.9l-1.1 2.8-.3.6v.3c0 .1-.1.2 0 .2.2 0 .4-.4.5-.5l.4-.6c1.2-1.8 2.1-3.8 2.7-5.9l.4-1.5c.1-.5.3-1 .5-1.6.3-1.1.5-2.3.6-3.5.2-2.1.2-4.3-.5-6.4-.3-1.1-.9-2.2-1.5-3.2-.5-.9-1.2-1.8-1.4-2.8.1.2.1 0 .1-.1zm-16.9 4.1l-.7-.4c-.1-.1-.6-.5-.7-.3.8.9 1.9 1.5 3 1.9 1.3.5 2.5 1 3.8 1.2 1.2.2 2.4.2 3.6.3 1 .1 2.1.1 3.1.1 2 0 4.2.1 6.1-.8.5-.2.9-.4 1.3-.7 0 0 .1 0 .1-.1l.1-.1c.1-.1.3-.1.1-.2-.2-.1-.5 0-.7 0-1 .1-1.9.2-2.9.4s-2 .5-3 .6c-.5.1-1 0-1.5 0s-1 0-1.5.1c-2.4.1-4.9-.1-7.2-.8-.6-.2-1.1-.4-1.6-.6-.3-.1-.5-.2-.8-.4l-.6-.2zm-1-37.5l-.1-.3c-.3.4.7 1 .9 1.3.4.5.6 1 .9 1.5l.3.3c.1.1.2.1.2-.1s-.2-.5-.4-.7c-.4-.4-.6-1-1.1-1.3-.2-.2-.5-.4-.7-.7zm-2.4-1.3c.2-.2.5-.7.8-.5-.5-.2-1 .6-1.2.9-.3.4-.6 1-.4 1.5.3.5.9.8.9 1.4.1.6-.1 1.1-.2 1.6-.1.6-.1 1.1.3 1.6.3.4.7.7 1.1 1 .5.3.9.7.9 1.3 0 .5-.5 1.1-.3 1.5.2.5.6.2.8-.1-.1 0-.5.1-.5 0 .2-.4.5-1 .4-1.5 0-.5-.3-.9-.7-1.2-.8-.6-1.9-1-1.9-2.2 0-.5.1-1 .2-1.5.1-.6 0-1-.4-1.4-.2-.3-.6-.7-.5-1.2.2-.5.4-.9.7-1.2zm12.3 3.4l-.4-.6c0 .5.6 1 .9 1.4.4.4.7.8 1 1.2.6.7 1.4 1.6 2.4 1.9 1 .3 2.5 0 3.3-.6-.5 0-1 .1-1.4.2-.5.1-1 .3-1.5.2-.5 0-1-.3-1.3-.6-.4-.3-.8-.7-1.1-1l-.9-1-1-1.1zm-10.4-5.4c.1-.1.3-.1.4-.1-.4-.3-1 .5-1.2.8-.3.4-.5.9-.7 1.3-.2.4-.3.9-.2 1.4 0 .2.1.5.2.6.1.2.5.5.7.4 0-.2-.2-.4-.4-.5l-.3-.5c-.1-.5 0-.9.1-1.3s.3-.8.6-1.2c.2-.4.4-.8.8-.9zm9.1 4.9c0-.2 0-.4-.1-.5v.8c0 .3-.1.6-.1.8-.1.5-.3 1-.6 1.4-.5.9-1.4 1.4-2 2.2-.2.2-.4.6-.3.9.2-.1.4-.4.6-.6l.5-.6c.3-.4.6-.7.9-1 .7-.8 1.1-1.9 1.2-3-.1-.1-.1-.2-.1-.4zm-9.5 2.3c-.2-.2-.4-.4-.5-.6.1.5.6.8.9 1.1.4.4.7.7 1 1.1.4.4.7.7 1.2 1 .5.3 1 .5 1.6.7.7.2 1.5.4 2.2.4.8 0 1.5-.2 2.2-.4-.5-.1-1.1 0-1.6.1-.5 0-1.1.1-1.6 0-1-.1-2.2-.5-3-1.1-.5-.3-.8-.7-1.2-1.2-.4-.3-.8-.7-1.2-1.1zm2.8-4c0 .1 0 .2.1.2 0-.3 0-.5.1-.7.1-.2.2-.4.4-.6.4-.4 1-.1 1.5-.3.2 0 .1-.2 0-.2h-.3c-.2 0-.5 0-.7.1-.5.1-.8.7-.9 1.1-.2.1-.2.2-.2.4zm.4.3v.2l.3-.4c.1-.1.3-.3.5-.4.1-.1 1.1-.5.8-.7-.2-.2-.6.3-.7.4-.5.2-.8.6-.9.9zm-1.7 2.1l.2.1c0-.5-.8.1-1 .2-.2.3-.5.8-.3 1.1 0 .1.2.2.3.2.1 0 .1-.1 0-.2s-.2-.4-.2-.6c.1-.3.2-.5.4-.7.1 0 .4-.2.6-.1zm.2.2v-.1c-.2.1-.2.7-.2.9-.1.2-.6.6-.5.8.2.3.5-.3.6-.4l.1-1.2zm18.6 18.8c0-.3-.2-.1-.1.1s.3.4.5.4c.4 0 .5-.6.4-.9-.1-.5-.7-.5-.9-.1 0 .1-.1.2-.1.2 0 .1.1.2.2.2s.3 0 .4-.1c-.1 0-.2-.1-.1-.1 0 .2.2.3.1.5 0 .2-.3 0-.4-.2zm-12.4 1c.1-.2-.2-.2-.1 0 0 .2.1.4.3.4.2.1.4.1.6 0 .2-.1.1-.3 0-.5-.1-.1-.2-.4-.4-.4s-.6 0-.3.3c.1.1.1.2.3.3.2 0 .2 0 .3.2v-.1c-.2.3-.7.1-.7-.2zm-8.6-22.6c.1-.2.3-.4.5-.6-.4.4-.8.9-1 1.4-.3.5-.5 1.2-.4 1.8l2 2.4c.1.5-.1.9-.2 1.4-.2.5-.3 1-.3 1.5 0 .1 0 .3.1.4 0 .1.1.1.1.1.1.1.1.1.2 0 .2-.2.2-.4.3-.6l.3-1.4c0-.5 0-1-.1-1.5-.1-.6-.6-.9-1.1-1.2-.5-.3-1-.6-1-1.3 0-.6.1-1.2.4-1.7-.1-.2 0-.5.2-.7zm-.2-4.2c-.1-.3-.1-.8.1-1-.5.3-.3 1.2 0 1.5.4.4 1.1.4 1.6.3 1.1-.1 2.1-.6 3.1-1s1.9-.7 3-.6c.5.1 1 .3 1.4.7.4.4.4 1 .3 1.5 0 .3-.1.6-.2.9l-.1.4.1.4c.4-.3.6-.7.7-1.2.1-.5.2-1 0-1.5-.3-1.1-1.7-1.6-2.7-1.5-1.1 0-2.1.5-3 .9-.9.4-2 1-3 1-.5-.2-1.1-.3-1.3-.8zm1-.6c-.1.2-.2.3-.2.5.3-.5.4-.9.8-1.2.4-.3.9-.6 1.4-.7 1.2-.1 1.4 1.2 1.9 2 .1.1.2.6.4.6.1.1.3 0 .3-.1.1-.1.1-.2 0-.3-.1-.5-.4-1-.7-1.4-.4-.4-.7-.9-1.2-1.1-.6-.2-1.3 0-1.8.4-.3.5-.6.9-.9 1.3zm6.4 12.6c-.1 0-.3-.1-.4 0l.4.2c.2.1.4.2.5.3.3.3.5.6.7 1 .2.4.4.8.6 1.1.1.2.2.4.4.5.1.1.4.4.6.3 0-.3-.4-.7-.6-.9-.1-.1-.3-.2-.4-.4-.1-.2-.2-.4-.3-.5-.3-.6-.8-1.4-1.5-1.6zm3.8.7c-.2 0-.4 0-.5.1.5-.1.9-.1 1.4.3l1.2.9c.9.8 1.5 1.8 2 2.8.1.2.1.3.3.4.3-.5-.2-1.2-.4-1.6-.2-.2-.4-.4-.5-.7l-.6-.7c-.4-.4-.9-.7-1.4-1-.5-.2-.9-.5-1.5-.5zm3 4.4c.1 0 .2-.1.2-.1-.2 0-.4.1-.5.1v.1l.8.1c.2 0 .5 0 .7-.1.3-.1.5-.2.7-.3.1-.1.2-.2.2-.3.1-.1 0-.3-.2-.3-.2.1-.4.2-.5.4-.2.2-.3.2-.5.3-.3.1-.5.1-.8.1h-.3s-.3 0-.2.1c.2 0 .4 0 .4-.1zm-3.7-14.8c-.1.1-.2.1-.2.2.2-.1.4-.3.7-.3.2 0 .4.4.4.6.1.3.1.6.1.9l-.2.9c0 .1-.1.3 0 .4.1.2.2 0 .3-.1 0-.2.1-.4.1-.7 0-.5 0-1-.1-1.4-.2-.5-.6-.9-1.1-.5z" fill="#9F9F9F"/></svg>