<svg baseProfile="tiny" xmlns="http://www.w3.org/2000/svg" viewBox="0 0 60 60"><path d="M26.9 27c2-2.4 3.8-5 5.3-7.8.7-1.4 1.3-2.8 1.8-4.3.5-1.4 1-3 1-4.5.1-1.2-.1-2.3-.5-3.4.5 1.5.5 3.1.1 4.5-.4 1.5-.9 3.1-1.4 4.6-.5 1.4-1.2 2.8-1.9 4-.8 1.4-1.6 2.7-2.5 3.9-1.8 2.5-3.8 4.9-6 7.1l-.7.7c1.7-1.4 3.3-3.1 4.8-4.8zm-6 3.1c2.2-2.3 4.1-4.8 5.8-7.4 1.8-2.7 3.4-5.5 4.8-8.3 1.3-2.6 2.2-5.3 2.4-8.3-.2 3.2-1.7 6.1-3.1 8.9-1.4 2.8-3 5.6-4.8 8.2-1.8 2.6-3.7 5.1-5.9 7.4-1.8 1.9-3.8 3.6-5.7 5.4 2.2-2.1 4.5-3.9 6.5-5.9zm4.8-3.5c1.9-2.6 3.5-5.4 5-8.2.7-1.4 1.4-2.9 2-4.3.6-1.4 1.3-2.8 1.7-4.2.4-1.2.6-2.3.6-3.4 0 1.6-.6 3.1-1.2 4.5l-1.9 4.3c-1.2 2.9-2.8 5.7-4.5 8.4-1.7 2.7-3.6 5.2-5.4 7.8-.2.2-.3.4-.5.7l4.2-5.6zm15.8 18.5c.8-3 1.6-6.1 2.1-9.1s.8-6.1.7-9.2c-.2-3.1-.6-6.2-1.9-9.1-1.3-2.8-3.3-5.4-5.4-7.7-1.6-1.8-3.3-3.4-5-5.1 2.2 2.2 4.4 4.5 6.3 7 1.9 2.5 3.6 5.1 4.6 8.1.5 1.4.7 2.9.9 4.4.2 1.5.3 3.1.2 4.6-.1 3.1-.5 6.2-1.1 9.3-.6 3-1.4 6-2.2 8.9-.8 3-1.6 6-2.4 9.1l-.6 2.1c.8-3 1.7-6 2.5-8.9l1.3-4.4zm3.1-5.9c.8-3 1.4-6.2 1.6-9.3.1-3.1 0-6.2-.7-9.2-.7-3-2-6-3.7-8.5l-4.8-6c1.8 2.5 3.9 4.9 5.4 7.7 1.4 2.7 2.7 5.6 3.1 8.6.5 3.2.6 6.5.2 9.7-.4 3.2-1.1 6.3-1.9 9.4-.7 2.8-1.6 5.5-2.4 8.3 1-3.1 2-6.2 2.9-9.4 0-.5.1-.9.3-1.3zm4.4-1.9c.3-3-.2-6.2-1.3-9-1.2-3-2.9-5.6-5.2-7.9-2.3-2.2-4.9-4.1-7.4-6-1.2-.9-2.5-1.9-3.6-3s-2.1-2.3-3.1-3.5c-.7-.9-1.5-1.7-2.1-2.7.6 1.3 1.7 2.5 2.7 3.7.9 1.2 1.9 2.4 3 3.4 2.3 2.2 5 3.9 7.5 6 2.4 1.9 4.7 4.1 6.2 6.8 1.6 2.8 2.7 5.9 3 9.1.3 3.2-.3 6.5-1.1 9.5-.5 2-1.1 4-1.8 6 1-3 2-6 2.7-9 .2-1.2.4-2.3.5-3.4zm-28.7-5.8c2.1-2.3 4-4.7 5.6-7.4 1.6-2.7 3-5.5 4.1-8.5.8-2.1 1.4-4.3 1.9-6.5-.8 3-2 5.9-3.2 8.8-1.2 2.9-2.7 5.6-4.5 8.2-1.7 2.6-3.8 5-6 7.3-1.2 1.3-2.4 2.5-3.7 3.8 2.1-1.9 4-3.8 5.8-5.7zm4.7-3.1c2.1-2.4 3.9-4.9 5.6-7.6 1.7-2.7 3.2-5.4 4.4-8.3.7-1.6 1.4-3.2 2-4.9-1.2 3-2.7 5.8-4.1 8.7-1.4 2.8-3.1 5.5-4.9 8-1.8 2.5-3.8 4.8-5.8 7.1l-2.2 2.6c1.6-1.8 3.3-3.7 5-5.6zm-1.9 7.1c1.7-2.7 3.2-5.4 4.6-8.2 1.4-2.9 2.6-5.8 3.5-8.9.4-1.5.8-3.1 1.1-4.7.3-1.5.6-3.1.4-4.6-.1-1.3-.4-2.5-1.3-3.6.9 1.2 1.1 2.8 1 4.3-.1 1.6-.4 3.1-.8 4.6l-1.1 4.6c-.5 1.5-1 3-1.6 4.5-1.2 3-2.6 5.8-4.2 8.6-1.5 2.7-3.1 5.4-4.8 8.1-.8 1.3-1.6 2.5-2.4 3.7 1.8-2.6 3.6-5.3 5.3-8 .1-.2.2-.3.3-.4zm17.1 11c1.4-2.9 2.6-5.8 3.6-8.8 1-2.9 1.8-6 2.1-9.1.3-3.1.1-6.2-.7-9.2-.8-3.1-2-6-3.5-8.8-1.2-2.3-2.5-4.4-4.1-6.5 2 2.5 3.3 5.4 4.6 8.4.6 1.4 1.2 2.9 1.7 4.4.5 1.4.9 2.9 1.3 4.4.6 3 .6 6 .1 9-.5 3.2-1.4 6.3-2.5 9.4-1.1 3-2.4 5.8-3.8 8.7-1.4 2.9-2.8 5.7-4.3 8.6l-1 2.1c1.4-2.8 2.9-5.6 4.4-8.4l2.1-4.2zm-1.3-21.5c2-2.3 3.5-4.9 4.1-7.9.6-3 .3-6.1-.6-9-.4-1.3-1-2.6-1.7-3.7-.8-1.2-1.6-2.4-2.7-3.4 1.2 1.1 1.9 2.5 2.7 3.8.7 1.3 1.2 2.8 1.7 4.2.9 2.8 1 6 .3 8.9-.8 3.1-2.6 5.7-4.7 8-1.6 1.7-3.3 3.2-5.1 4.7 2-1.7 4.1-3.5 6-5.6zm2.1.3c1.8-2.5 3.2-5.2 4.1-8.2.8-2.9 1.1-6.2 0-9-.4-1-.9-2.1-1.5-3-.6-.9-1.4-1.7-2-2.7.9 1.3 1.9 2.5 2.6 3.9.6 1.4 1.2 3 1.3 4.5.3 3-.4 6.1-1.5 8.9-1.1 2.9-2.9 5.5-4.9 7.9-1 1.3-2.1 2.4-3.3 3.6 1.9-1.9 3.6-3.8 5.2-5.9zm3.8 18.7c.7-2.7 1.3-5.3 1.7-8 .4-2.7.6-5.4.5-8.1-.1-3-.4-5.9-1-8.8-.6-3-1.5-5.9-2.8-8.7-.5-1.1-1.1-2.2-1.8-3.2s-1.5-1.9-2.3-2.9c1.9 2.3 3.3 5 4.3 7.8.5 1.4.9 2.9 1.3 4.4.4 1.4.8 2.9 1 4.4.5 3.1.8 6.2.7 9.3-.1 3.1-.5 6.2-1.1 9.2-.5 2.7-1.1 5.3-1.9 7.9-.7 2.6-1.6 5.2-2.4 7.8l-.5 1.3c.9-2.6 1.9-5.2 2.7-7.9.7-1.5 1.2-3 1.6-4.5zm-3.9-21.8c.5-1.5.8-3.1.9-4.7.1-1.4-.1-2.8-.3-4.2-.4-2.8-1.3-5.5-2.8-7.9-.8-1.2-1.7-2.2-2.7-3.1 1.1 1.1 1.9 2.4 2.6 3.8l.8 1.9c.3.6.6 1.3.8 1.9.5 1.3.7 2.7.9 4 .2 1.5.3 3 .2 4.5-.3 3.2-1.4 6.3-2.8 9.1l-.4.8c1-2 2.1-3.9 2.8-6.1zm-21.5 5.2c2.9-1.5 5.6-3.2 8.1-5.3 2.3-2 4.4-4.4 6.1-7 1.6-2.5 2.9-5.4 3.2-8.4.1-.6.2-1.2.3-1.9-.4 1.5-.5 3.1-1.1 4.5-.6 1.4-1.3 2.6-2 3.9-1.4 2.7-3.2 5-5.4 7.1-2.3 2.3-4.9 4-7.6 5.7-2.7 1.7-5.6 3.1-8.6 4.4l-1.4.6c2.8-1 5.7-2.2 8.4-3.6zm20.3-20.8c-.4-.8-.8-1.5-1.3-2.2.4.6.6 1.2.9 1.9.3.6.6 1.3.8 2 .5 1.4.9 2.8 1.2 4.2.8 3 1.5 6 1.6 9.2 0 2.9-.4 5.8-1 8.6l-.7 3.1c-.2 1.1-.6 2.2-.7 3.3l.9-2c.3-.7.5-1.4.7-2.1.5-1.4.7-2.8.9-4.2.4-2.9.6-5.9.3-8.9-.3-3.1-1.3-6.1-2.2-9-.4-1.4-.8-2.7-1.4-3.9zm7.4-.6c-.2-.7-.4-1.4-.7-2.1.9 2.9 1.5 6 1.2 9-.3 3.1-1.3 6.1-3.1 8.8-1.7 2.6-3.8 4.9-6 7.1-.3.3-.4.5-.6.8 2.6-1.9 4.6-4.3 6.4-6.9 1.7-2.4 3-5.3 3.4-8.2.4-2.8.1-5.7-.6-8.5zm-8.6 36.3c0-.3-.1-.7-.2-1 .1 1.4 0 2.8 0 4.3.1 1.5.2 3.1.5 4.6.1.9.3 1.7.6 2.5.1.4.3.8.5 1.2.2.4.4.8.8.9-.2-.7-.3-1.5-.6-2.1-.3-.7-.6-1.4-.8-2.2-.4-1.6-.6-3.2-.7-4.7l-.1-3.5zm-3.6-21.3c-.2.2-.3.5-.4.7.9-1.2 2.3-2.2 3.7-2.7 1.5-.6 2.9-.7 4.5-.6h.7c.3 0 .3 0 .6-.1l-.4-.4-.6-.2c-.4-.1-.7-.1-1.1-.1-.7.1-1.5.2-2.2.4-1.4.4-2.9 1.1-4 2.1l-.8.9zm.1.9l-.3.2c.6-.3 1.3-.4 2-.4s1.5 0 2.2-.2c.3-.1 0-.2-.2-.2h-.5c-.3.1-.7.1-1 .1-.7 0-1.5.1-2.2.5zm-.8-.3c0 .2 0 .4.1.6.1-.7.3-1.4.7-2 .4-.6 1-1.1 1.6-1.4.6-.4 1.3-.6 2-.8.2-.1.4-.1.5-.2.3-.1.3-.1.4-.3 0 0-.3-.3-.4-.3h-.6c-.5 0-1 .4-1.4.7-.5.3-.9.6-1.4 1-.7.6-1.5 1.6-1.5 2.7zm-.1 6.8c-.1 0-.1.1 0 0 .1.1.4-.1.6-.2.2-.1.6-.2.5-.5 0-.1-.2-.2-.3-.1-.1 0-.1.2-.2.3l-.6.5zm-2.8.7c0 .2.7.3.7 0 0-.2-.1-.3-.2-.2l-.5.2zm2.8 6c-.1 0-.2.6 0 .6.1 0 0-.2 0-.2-.1-.1-.1-.2 0-.4zm.5 0c0 .1.1.6.2.7.1-.1-.1-.5-.2-.7zm.9-.2v.3c.1-.1 0-.2 0-.3zm-4.2.5l-.5.3 2.1-.8c.7-.3 1.5-.5 2.3-.6.7-.1 1.5 0 2.2-.2.1 0 .4-.1.4-.2s.1-.2 0-.2l-.3-.2c-.2-.2-.8-.1-1-.1-.9.2-1.7.3-2.6.6-.9.3-1.8.8-2.6 1.4zm-1.3.5c0 .2.4 0 .6 0 .2 0 .6 0 .6-.3 0-.1-.1-.2-.2-.2l-.2.2c-.4 0-.6.2-.8.3zm.7-.3c-.2.1-.4.2-.5.3.7-.2 1.5-.3 2.3-.4l2.2-.2c.7-.2 1.4-.5 2.1-.8.2-.1.9-.4.9-.6v-.2c-.1 0-.2 0-.4-.1l-.5.2-1.4.8c-.5.2-1 .4-1.6.5-1 .1-2.1.1-3.1.5zm6.3-1.9h-.1c.1.1 1.6.4 1.6.2.2-.4-.4-.2-.6-.2-.3.1-.6 0-.9 0zm-3.9 3.4l-.3.2 2.1-.1c.7 0 1.5-.3 2-.7.1-.1.3-.3.1-.4-.3-.1-.3-.1-.6-.1-.3.1-.5.4-.8.6-.7.3-1.5.2-2.2.4-.1.1-.2.1-.3.1zm2.7-2s.5.5.4.5c.2-.1-.4-.5-.4-.5zm.9-.3c0 .2.2.4.4.6.1.1-.1-.1-.1-.2l-.3-.4zm-2.5.7s0 .9.2 1c.1 0-.2-.9-.2-1zm.4 0c0 .3 0 .6.1 1 0-.3 0-.7-.1-1zm.4-.3c0-.1-.1-.1 0 0-.2 0-.1.4-.1.5 0 .2-.1.6.2.7.4 0 .1-.4.1-.5-.1-.3-.1-.5-.2-.7zm-2.5 1.8c-.1.2.3.3.4.3.2.1.4.3.6 0v-.3h-.3c-.3.1-.5 0-.7 0zm4.6-17c-.1-.1-1.1.7-1 .9.1.2.4-.3.5-.4.1-.2.3-.3.5-.5zm0 .3c-.1.1-.4.5-.4.7.2-.1.3-.5.4-.7zm1-.2c-.1 0-.4.5-.3.6.1.2.1-.2.2-.2-.1-.1 0-.2.1-.4zm-3.9-2.7c-.2.2-.5.4-.6.7l.8-.6.9-.5c.7-.2 1.5-.4 2.2-.5 1.5-.2 3.1-.3 4.6-.4.8-.1 1.5-.2 2.2-.5l.6-.2c.3-.1.3-.2.3-.4 0-.1-.4-.2-.5-.2h-.6c-.4 0-.7 0-1.1.1-.4.1-.7.2-1.1.4-.7.3-1.4.3-2.2.4-1 .2-2 .3-2.9.6-.8.3-1.9.5-2.6 1.1zm.1 10.4c-.4.1 0 .4.2.3.3 0 .6-.3.5-.6-.1-.3-.4-.3-.7-.2-.2.1-.4.3-.2.5.1.1.2.2.4.2.1.1.1 0 .2 0-.1 0-.1-.2-.1-.2l-.1-.1c.1.1-.1.4-.2.1zm-2.9 1c0-.1-.3-.1-.2.1.1.2.4.2.6.2.1 0 0-.2-.1-.2l-.3-.1c-.2.1-.1 0 0 0zm6.4-9.6c-.3-.3-.3.1-.4.4l-.1.7c0 .1.1.3.2.3.2 0 .2-.1.3-.2.2-.2.3-.4.4-.5l-.3.1c.1-.3-.3-.5-.1-.8zm-.5.2c0-.1.1-.2.2-.2-.2 0-.3.4-.3.5.1.3.4.6.7.7.6.1 1.3-.7 1.2-1.3 0-.2-.1-.3-.3-.1 0 .1 0 .3-.1.3-.1.3-.2.5-.4.7-.2.1-.5.2-.7.1-.2-.1-.3-.4-.3-.7zm1.5-.7l-.1-.2c-.1.4.3.8 0 1.2-.1.3-.7.2-.7.4s.4.2.5.2l.4-.3c.3-.3.1-.9-.1-1.3zm.1.2v-.2c0 .3.1.7-.1.9-.1.1-1 .4-.9.6.1.4.8-.2 1-.3.2-.3.1-.6 0-1zm-.1 1v-.1c-.1.2 0 .3-.3.4-.2 0-.7-.1-.6.2.1.3.5.1.7 0 .1-.1.2-.3.2-.5zm-1.3-.1c0-.1-.1-.2 0-.2-.4.4.2 1.1.6 1.1.6.1 1.5-.5 1.5-1.1 0-.3-.3-.7-.6-.4-.1.1-.1.3-.1.3 0 .1.1.2 0 .3-.6.6-1.2.7-1.4 0zm.6-.9v-.1c-.2.1-.2.3-.3.5-.1.1-.2.2-.1.4.2.3.5 0 .6-.1-.1.3-.5 0-.4-.3-.2.2-.3.5-.1.8.2.3.6-.2.8-.2-.3-.2 0-.5-.2-.7-.2-.2-.4.1-.4.2.1 0 .1 0 .1.1 0-.2.1-.4 0-.6zm.2 0c-.2.1 0 .2.1.2s.3 0 .4.1c.2.1.4.3.6 0 0-.1.1-.2 0-.3-.1-.1-.2 0-.3 0h-.8zm.4-.3c-.1.1.3.2.2 0-.1.1-.2.1-.2 0zm.8.2l-.2-.4c.3.5.4 1.4 0 1.9s-1.2.7-1.7.3c-.1-.1-.2-.2-.4-.3l-.4-.4c-.2-.1-.3 0-.3.2s.1.4.2.6c.3.5 1.2.6 1.8.5 1.1-.2 1.4-1.5 1-2.4zm-7.7 22.9c-.2 0-.6 0-.8.2.2.2.7.1 1 .1.4 0 .8.1 1.2.2.7.1 1.5.2 2.2.2.7 0 1.4-.3 2.1-.6.7-.3 1.5-.7 2.1-1.3l.8-.9.3-.4c-.1-.2 0-.4-.4-.4s-.8.3-1.1.5c-.3.2-.6.4-.8.7-.2.3-.4.6-.7.8-.3.2-.6.4-.9.5-.7.4-1.3.5-2.1.6-.9-.1-1.9-.3-2.9-.2zm4-22.6c.2-.1 0-.4-.1-.4-.2 0-.4.3-.5.4l-.3.6c-.1.2-.2.4-.3.5-.1.1-.3.4-.2.6l.2.3c.1.1.2 0 .3 0 .5-.1.9-.2 1.2-.5-.1 0-.5-.2-.5-.3 0 0 .1-.1.1-.2l-.1-.3c-.1-.1-.1-.4.2-.7zm-.6 1.4c-.1.1-.2.3-.1.4.1.2.4 0 .5-.2.2-.3.4-.6.7-.8.6-.4 1.2-.7 2-.7.4 0 .7 0 1.1.1h.5c.2-.1.4-.2.5-.3.2-.1.2-.1.2-.3 0-.2 0-.4-.1-.6-.1-.2-.2-.3-.4-.5-.1-.1-.5-.1-.6-.1-.5-.1-.7.6-1.1.6-.5 0-1 .2-1.4.5-1 .4-1.4 1.1-1.8 1.9zm-4.9 15.1s-.1 0-.1.1c.2.1 1.4-.2 1.4-.4 0-.1-.1-.3-.2-.2-.1 0-.2.1-.3.2-.2 0-.5.2-.8.3zm6.6-1.8h-.2c.2.2.4.2.6.2h1.5c.1 0 .2 0 .3-.1.2-.1.1-.1.1-.3 0-.2-.2-.4-.4-.4s-.3.3-.5.4c-.4 0-.9.1-1.4.2zm4.6-14.2l.2-.2c-.2.1-.4.3-.6.5l-.7.5c-.3.2-.6.3-.8.4-.1.1-.7.3-.7.5 0 .6 1.2-.4 1.4-.5.3-.4.8-.8 1.2-1.2zm-1.7-1.2l-.3-.1c.6.3 1.2.5 1.8.7.3.1.6.2 1 .2.2 0 .8.1.9-.1-.5-.3-1.2-.1-1.7-.2-.6-.2-1.2-.3-1.7-.5zm.3-.1c-.1 0-.2 0-.3-.1.2.5 1.1.7 1.6.8l.9.3c.2.1.3.1.5.1s.3 0 .4-.2c.2-.3.1-.6-.2-.7h-.9c-.8 0-1.4 0-2-.2zm-9.9 16.7c-.1.1-.3.2-.3.3.2.1.6-.4.8-.5l.8-.8c.4-.4.9-1 1.5-1 .3 0 .7.1 1 0 .3-.1.5-.3.7-.6.2-.3-.2-.6-.4-.8-.3-.2-.5.1-.8.2 0 .2-.5.5-.8.5-.4.1-.7.3-.9.6-.5.9-1 1.6-1.6 2.1zm-.6.6c-.2-.1-.2.3.1.2l.6-.1c.2-.1.4-.1.7-.1.1 0 .5 0 .4-.2 0-.1-.1-.6-.2-.6-.3-.1-.3 0-.4.3l-.2.1-.3.2c-.4.1-.5.2-.7.2zm7.8-2.1c0 .2.4.1.6.1.3 0 .6 0 .6-.3 0-.1-.1-.2-.2-.2l-.2.2-.8.2zm-6.5-15.1l-.3-.7 1.1 4.7.5 2.3c.2.8.4 1.5.6 2.2.1.2.1.3.2.4.1-.7 0-1.5-.2-2.2-.2-.7-.4-1.4-.6-2.2-.4-1.5-.8-3-1.3-4.5zm4.3 7.3h-.2l.3.2c.1.1.2.4.2.5 0 .2-.1 1.1.2 1.1.5 0 .1-.8.1-1 0-.2-.2-.6-.6-.8z" fill="#9F9F9F"/></svg>