<svg baseProfile="tiny" xmlns="http://www.w3.org/2000/svg" viewBox="0 0 60 60"><path d="M55.3 20.5c-.1-.9-.3-2.1-.9-2.8-.7-.8-1.9-.9-2.9-.7-.7.1-1.5.5-1.7 1.1.8-.5 1.9-.8 2.9-.7.4.1.9.2 1.2.5.3.3.6.7.7 1.1.2.6.4 1.3.4 2l.1 1c0 .3 0 .8.2 1 .1-.8.1-1.7 0-2.5zm-22.5 5.7c-.5-.6-1.2-.8-1.9-.7-.3.1-.7.2-1 .4-.3.2-.6.6-.3.9.2-.4.5-.6.9-.7.4-.1.7-.2 1.1-.2.8 0 1.5.7 1.5 1.5.1-.4-.1-.9-.3-1.2zm-15.5 14.7c.7-.6 1.4-1.2 2-1.9.7-.7 1.3-1.4 1.9-2 1.2-1.3 2.3-2.7 3.4-4.1.5-.7 1-1.4 1.6-2.1.6-.7 1.1-1.4 1.6-2.1.5-.8.9-1.5 1.5-2.2-.8.5-1.4 1.2-1.9 1.9l-1.7 2.1c-1.1 1.4-2.2 2.8-3.2 4.2-1.1 1.4-2.2 2.8-3.5 4-1.2 1.3-2.6 2.5-4 3.7l-2.7 2.1c1.5-.9 3-2 4.4-3.1.2-.2.4-.4.6-.5zm-10.6 7.5l2.7-2c.8-.6 1.5-1.1 2.2-1.7l.2-.2c-1.8.9-3.5 2.1-5 3.4-.7.5-1.4 1.1-1.8 1.8.5-.4 1.1-.8 1.7-1.3zm-1.7 1.2c-.9 0-1.7.1-2.6.4-.2 0-.4 0-.6.1-.1.1-.5.2-.5.4 0 .1 0 .1.1.1h.2l.3-.1c.2-.1.4-.1.6-.1l1.8-.4c.3-.1.6-.1.9-.1.3 0 .7 0 1-.1-.4-.2-.8-.2-1.2-.2zm5.5 1.7c-.6.1-1.2.2-1.7.4l-1.4.4c-.5.1-.9.3-1.3.4-.4.1-.9.2-1.3.2-.8 0-1.4-.2-2.1-.6-.7-.3-1.1-.8-1.7-1.1.5.7 1.2 1.3 2 1.7.9.5 1.9.5 2.9.3.9-.2 1.8-.6 2.7-.9 1-.3 2.1-.6 3.2-.8.4-.1.7-.2 1.1-.2l1-.2c-1.2.1-2.3.2-3.4.4zm7.8-6.7c1-.3 2-.5 3-.7 1-.2 2-.4 2.9-.7 1.7-.5 3.2-1.5 4.6-2.6 1.3-1.1 2.6-2.3 3.4-3.8.5-.9.9-1.9 1-2.9-.5 1.6-1.5 3.1-2.6 4.3-1.2 1.3-2.5 2.4-4 3.4s-3.2 1.6-4.9 1.9c-1 .2-1.9.4-2.9.7-1 .3-1.9.8-2.7 1.7-.4.5-.8 1.1-1 1.7-.2.5-.4 1.2-.3 1.8.1-2 1.6-4 3.5-4.6-.1-.2 0-.2 0-.2zm38-10.3c.5-2 .4-4 .3-6 0-2-1.1-9.9-2.9-11.1l-.7-.3c.9.5 1.4 1.4 1.8 2.3.3.9.5 1.8.7 2.7.3 1.9.5 3.9.6 5.9.1 1.9.3 3.9-.1 5.8-.3 2-1.2 3.9-1.7 5.8 0 .1-.1.3-.1.5.7-1.8 1.6-3.6 2.1-5.6zm-.2 18.5c1.9-1.2 2.9-3.3 2.9-5.5 0-1.1-.4-2.1-.8-3-.5-1-1-1.9-1.5-2.8-.4-.9-.9-2-.9-3-.1.5-.2 1-.2 1.5.1.5.2 1 .4 1.5l1.4 2.9c.4.8.8 1.8.9 2.8.1 1-.1 2-.4 2.9-.7 1.8-2.3 2.9-4.1 3.5-.5.2-.9.3-1.4.4-.4.1-1 .2-1.4.4 1.6-.2 3.3-.6 4.8-1.4l.3-.2zm-11.4-.1c-1.9-1.1-3.5-2.5-4.6-4.4-1-1.6-1.8-3.4-2.6-5.1l-1.1-2.7c-.4-.9-.9-1.7-1.4-2.5l-.4-.5c.2.4.4.9.5 1.4l.6 1.3c.4.9.8 1.8 1.1 2.8.8 1.8 1.6 3.6 2.6 5.3 1.2 1.8 2.7 3.2 4.4 4.3 1 .6 2 1.2 3.2 1.5 1.1.3 2.3.5 3.4.4-2-.1-3.9-.8-5.7-1.8zm-7.6-.4c-.8-.6-1.4-1.3-1.9-2.2-.5-.9-.7-1.8-.8-2.7-.2-1-.1-2-.2-3s-.3-2.1-.5-3.1c-.1-.6-.3-1.2-.5-1.8-.1-.3-.2-.6-.3-.8-.1-.3-.3-.6-.4-.8.1.5 0 1 .2 1.5.1.5.2 1 .4 1.5.2 1 .5 2.1.6 3.1l.3 2.9c.1 1 .4 1.9.7 2.8.8 1.8 2.3 3.2 4.2 3.8.9.3 2 .5 3 .4-1.8-.2-3.5-.6-4.8-1.6zm17.5-9c-.7-.7-1.3-1.4-1.9-2-.3-.3-.7-.6-1-1l-.6-.6c-.2-.1-.5-.3-.7-.1l-.1.1c.4.2.8.5 1 .9.3.4.6.8 1 1.1.6.6 1.3 1.2 2 1.8.5.4.9.9 1.5 1.3-.4-.6-.8-1-1.2-1.5zm-16.1-18.6c-.5-.9-1-1.7-1.7-2.4-.4-.4-.9-.6-1.5-.6h-1.5c-1 .1-1.9.3-2.9.5-.9.2-1.9.5-2.8 1-1.9.9-3.8 2.4-4.9 4.2-.3.5-.5.9-.7 1.4 1-1.8 2.7-3.4 4.4-4.5 1.6-1 3.5-1.6 5.4-2 .9-.2 1.8-.3 2.8-.3.5 0 .9.1 1.3.5.4.3.7.7.9 1.1 1.1 1.5 1.8 3.2 2.6 4.9.2.4.3.7.5 1 .2.3.4.8.7.9-.3-.3-.5-.8-.7-1.2l-.6-1.3c-.4-.8-.7-1.6-1.1-2.5 0-.2-.1-.5-.2-.7zm1.6 5.6l-1.5-.6c-.4-.2-.8-.4-1.2-.5l-1.2-.4c-.4-.1-.8-.2-1.2-.2-.5 0-1.1 0-1.5.3 1.9 0 3.6.7 5.4 1.3l3.4 1.2c-.8-.5-1.6-.8-2.2-1.1zm7.7 3.1c-1-.4-2-.9-3-1.4l-1.4-.5c-.5-.2-1-.4-1.5-.4-.2 0-.3 0-.5.1l1.4.6 1.5.6c.5.2 1 .3 1.4.5l1.5.6c.8.3 1.6.6 2.5.8-.6-.3-1.2-.6-1.9-.9zm3-.7c-.1-1-.1-2-.1-3v-1.5l-.1-1.5c0-.9-.2-2-.8-2.7.4 1.9.5 3.9.6 5.9 0 1 .1 2 .3 3 .1.4.2.9.4 1.3.1.3.4.9.7 1.1-.7-.8-.9-1.7-1-2.6zm-25.7-2.5c-.5 0-1-.1-1.5-.3-.2-.1-.5-.1-.5-.4-.1-.3-.1-.6-.3-.7-.1.3-.2.9 0 1.2.2.4.7.5 1.1.5.4.1.8.1 1.2 0 .3 0 .8-.1 1.1-.3-.4.1-.7.1-1.1 0zm24 8.3l-4.5-2.9-2.2-1.2c-.7-.3-1.7-.6-2.4-.2h-.1c1.6.4 3.1 1 4.5 1.8 1.5.9 3 1.9 4.5 2.7.5.3 1.1.5 1.7.7.3.1.5.2.8.2.2.1.6.2.8.1-1.1-.2-2.1-.6-3.1-1.2zm-12.2-17.5c.2-.5.2-1.1.1-1.6-.2-.5-.5-.8-1-1.1-.4-.2-.9-.5-1.1-.8-.3-.3-.5-.7-.3-1.1.1-.2.1-.2.1-.4-.4.3-.7.5-.6 1 .1.5.5.9.9 1.2l1.2.8c.4.3.5.6.5 1.1 0 .2 0 .5-.1.8-.1.3-.1.5.2.7.4.2 1.1-.1 1.5-.3l-.9.1c-.1 0-.7-.1-.5-.4zm2.3.4c-.2 0-.4-.2-.6-.3-.1-.1-.1-.2-.2-.2-.2 0-.2.2-.1.3.2.4 1 .7 1.3.4-.2 0-.3-.1-.4-.2zm-.4 2c.9-.1 1.9-.4 2.6-1 .3-.3.8-.7.8-1.1v-.3c0-.1-.1-.3-.3-.2l-.4.6c-.3.4-.7.6-1 .9-.3.3-.7.5-1 .6-.8.3-1.5.5-2.4.6.7 0 1.2-.1 1.7-.1zm8.1 9.6c-.9-.1-1.5-1-2-1.7-.2-.4-.5-.7-.6-1.1-.1-.4-.3-.8-.5-1.2-.1-.1-.1-.2-.2-.4.1 1.8.9 3.7 2.5 4.6.8.4 2 .3 2.7-.2-.6 0-1.2.2-1.9 0zm1.3-2.4c.2.1.1.4-.1.4s-.3-.3-.3-.4c-.1-.2-.4-.5-.5-.1 0 .2.1.5.2.6.2.2.4.4.7.3.3-.1.4-.4.4-.6 0-.3-.2-.5-.4-.5-.1 0-.6-.1-.6 0l.3.1.3.2zm-12.2-14.9c-.3-.4-.5-.9-.4-1.3.1-.5.5-.8.8-1.2.2-.3.4-1-.2-1.1-.4-.1-.8.3-1.2.3 0 0 .1 0 .1.1 0-.2.2-.3.3-.4l.5-.5c.3-.3.7-1.1.1-1.2-.8-.2-1.5 1.2-1 1.8 0-.4.5-1.4 1-1.3-.1 0-.1-.1-.1-.1-.1.5-.6.8-.9 1.1-.3.4-.3 1.1.4.9l.6-.3c.1-.1.4-.2.4 0 .1.5-.5 1-.8 1.3-.6.8-.1 1.7.5 2.3.3.4.7.7.6 1.2 0 .2-.1.5-.3.7-.1.2-.3.4-.3.6.3-.5.7-1 .7-1.6-.1-.4-.5-.9-.8-1.3zm.9-3c-.1-.2-.2-.8-.6-.6-.4.1-.2.8.1 1 .3.2.7 0 .9-.3.1-.1.2-.3.2-.5l-.1-.5c.3-.1.8-.3.8-.7 0-.2-.1-.5-.4-.5-.2 0-.4.1-.6 0-.4-.1-.6-.4-.8-.8-.1-.2-.2-.6 0-.8l.6.1c.2 0 .4 0 .6-.1l1.1-.3c-.4-.1-.8 0-1.3 0-.2 0-.4 0-.6-.1-.2-.1-.5-.2-.7-.1-.8.6-.1 2 .6 2.3.3.2.8.2 1.2.1l-.1-.1c-.1.3-.4.3-.6.4-.3.2-.2.5-.1.8.1.2-.2.5-.3.5-.3.1-.2-.3-.3-.4.2.2.3.6.4.9.1.3.3.6.4 1l.3.4c.1.1.2.1.2 0l.3-.1c.2.1-.1.6-.2.7.1-.2.4-.5.3-.7-.1-.1-.2-.1-.3-.1-.2 0-.3 0-.4-.2-.3-.3-.4-.8-.6-1.3zm-1.7 2.1c.1-.2.2-.4 0-.6-.1-.2-.4-.1-.5-.1-.3 0-.7-.1-.6-.4.1-.4.4-.7.6-1.1.1-.2.1-.4 0-.5l-.3-.4c.1-.1.2-.2.3-.4 0-.2-.1-.4-.3-.4-.2-.1-.5-.1-.8-.2 0-.2.3-.4.4-.5.2-.2.4-.4.5-.6.2-.2.2-.6-.2-.6-.3 0-.5.1-.8.2h.1c0-.2.3-.4.5-.5l.6-.4c-.2.1-.5.2-.7.4-.2.1-.6.3-.5.5 0 .3.4 0 .6 0 .2 0 .5 0 .3.2-.4.3-.8.5-1.1 1-.4.6.4.8.8.9h.1v-.1c-.1.2-.2.3-.2.5s.2.4.3.5c.3.3.1.5-.1.8-.2.4-.5.8-.2 1.2.3.3.8.2 1.1.2.1.2-.3.6-.5.7-.3.2-.5.5-.7.7l-.6.7c-.1.2-.5.5-.4.8.4-.3.8-.8 1.1-1.2.2-.2.4-.5.7-.7.1-.1.3-.3.5-.6zm-14.3 38.1c-.6.2-1.2.4-1.9.3-.3 0-.5-.2-.7-.3l-.4-.2c-.2-.1-.2-.1-.4 0 .2.3.6.6.9.8.4.2.8.3 1.3.2.4-.1.8-.2 1.2-.4l1.2-.5c-.4-.1-.8 0-1.2.1zm0-2.1c.2-.4.3-.9.4-1.4.2-.4.4-.8.8-1.2.7-.6 1.5-1.3 2.1-2 .4-.5.6-1 .8-1.6.2-.5.4-1.1 1-1.4-1 .1-1.3 1.3-1.7 2.1-.4.8-1.2 1.4-1.8 2-.4.3-.7.7-1 1.1-.3.4-.4.9-.6 1.4-.1.4-.2.9-.4 1.3-.3.5-.8.6-1.3.8-.3.1-.7.1-.9.2.5 0 1.1 0 1.5-.2.5-.2.8-.6 1.1-1.1zm-5.7.7c.9 0 2.2-.3 2.3-1.4 0-.4-.1-.9-.2-1.3l-.1-1.2v-.2c-.7.6-.2 1.8-.2 2.5 0 .4-.1.7-.5 1-.4.2-.8.3-1.2.3-.6 0-1.2-.1-1.8.1l1.7.2zm11.8-2c-1.1-.2-2.1.1-2.9.9-.4.4-.7.8-1 1.2-.2.2-.4.4-.5.6l-.5.5s0 .1-.1.1c1.1-.2 1.7-1.3 2.4-2 .3-.4.6-.7 1.1-.9.4-.2.8-.2 1.2-.2.8.1 1.5.3 2.2.4-.6-.1-1.2-.4-1.9-.6zm14.8-39.9c-.3-.2-.5 0-.7 0-.2 0-.4-.1-.6-.2-.2-.1 0-.2.1-.4l.4-.6c.2-.5.3-1.1.2-1.6-.2-.6-.8-.8-1.2-.3-.3.3-.4.8-.2 1.2 0-.4.3-.8.6-1 .5-.3.4.4.4.7-.1.5-.2.9-.4 1.3-.4.3-.5.5-.4.8.1.2.4.4.6.4l.4.1c.1 0 .2-.1.4-.1.3-.1.4.2.4.4.1.5-.2 1.1.2 1.6-.2-.7.4-1.8-.2-2.3zm5.4 3.2h-.7c-.4 0-.3-.1-.3-.4 0-.2-.2-.5-.3-.7-.2-.2-.4-.3-.5-.5-.1-.2-.3-.3-.3-.6v-.7c-.1-.6-.6-.8-1.1-1-.3-.1-.6-.2-.8-.4l-.6-.5c-.3-.2-.5-.4-.8-.4-.3 0-.6.1-.9.3.4-.1 1-.2 1.3.2.3.3.6.7 1 .9.4.3.9.4 1.3.6.3.2.4.6.4 1 0 .5.4.9.8 1.2.2.1.3.3.4.6.1.3 0 .5.4.7.4.2 1 0 1.4.1.4 0 .8.1 1.2.4.2.1.3.3.3.5s-.1.5 0 .7c.2-.6.3-1.1-.3-1.5-.8-.3-1.4-.5-1.9-.5zm-16.6 35.6c-.1-1-.5-1.9-.5-2.9-.1-1 0-2 .2-3 .2-.8.4-1.6.7-2.4.1-.4.4-.7.6-1l.6-1.1c-.4.3-.7.7-1 1.1-.3.4-.5.8-.7 1.1-.3.4-.4.9-.5 1.4l-.3 1.5c-.1.5-.1.9-.1 1.4 0 .5.1 1 .2 1.5l.3 1.5.4 1.4c.1.4.1 1.2-.4 1.3-.2.1-.4.1-.7 0-.2 0-.6-.2-.7 0 .5.2 1.2.5 1.7.1.4-.4.3-1.3.2-1.9zm15.2-30.1c-.3 1-1 1.6-2 1.6-.9 0-1.9-.1-2.8-.3-1-.2-1.9-.7-2.7-1.3-.3-.2-.7-.5-1-.8-.3-.2-.7-.4-1.1-.6.6.7 1.4 1.2 2.1 1.8.3.3.7.6 1.1.8.4.2.8.3 1.2.4.9.3 1.8.4 2.8.4 1 0 2.1-.2 2.6-1.2.3-.7.4-1.5.3-2.3 0-.3-.2-2.1-.7-2 .2.5.3 1.1.4 1.7 0 .7 0 1.2-.2 1.8zm5.2-2c-1-.3-2-.6-2.9-1.1-.4-.2-.9-.5-1.2-.8-.4-.3-.7-.6-1-.9l-.6-.6c.1 1 .9 1.6 1.7 2.2.8.6 1.8 1 2.8 1.3 1.1.3 2.3.6 3.4.6-.7-.3-1.5-.5-2.2-.7zm-5.5-4.4c0-.8-.4-1.6-1-2.1-.3-.2-.7-.3-.9 0-.3.3-.1.8.2 1-.1-.2-.2-.9.2-.8.1 0 .2.2.3.3.2.1.3.3.4.4.2.3.4.7.5 1.1 0 .2 0 .4-.2.4s-.4-.1-.6-.2c.1.2.3.4.6.4.4.1.5-.2.5-.5zm.9-2.3c-.1-.5-.2-1-.5-1.4-.3-.4-.8-.7-1.2-.9-.8-.4-1.8-.9-2.7-.9-.7 0-1.3.2-2 .4l-.9.4c-.2.1-.5.2-.7.1 0-.5.6-.8.5-1.4-.1-.7-1-.3-1.3 0-.7.5-1.6 1.5-1.1 2.5.1.2.3.4.5.5-.3-.2-.5-.6-.4-1 .1-.3.2-.5.4-.7.2-.2.4-.4.7-.6.2-.2.6-.5.9-.5-.1 0-.1 0-.1-.1 0 .2-.1.4-.2.6-.3.2-.5.4-.5.7-.1.7.9.6 1.3.5.4-.2.8-.4 1.3-.5.4-.2.9-.3 1.3-.3.9-.1 1.7.3 2.5.6.9.4 1.6.9 1.8 1.9.2.9.2 1.9.9 2.5.4.3.9.5 1.3.6.4.1.9.2 1.3.2-.8-.2-1.7-.3-2.4-.8-.6-.7-.6-1.6-.7-2.4zm4.1 5.7c-.4-.3-.4-.9-.4-1.4 0-.5-.1-1-.4-1.4-.3-.4-.8-.6-1.2-.7-.5-.2-.7-.3-.8-.8-.2-.6-.2-1.1-.7-1.5-.3-.2-.6-.3-.9-.3-.3.1-.4.3-.5.5.3-.3.9-.2 1.2 0 .4.3.5.8.6 1.3.1.5.3 1 .8 1.2.4.2 1 .3 1.3.7.6.7 0 1.9.8 2.6.4.4 1 .3 1.5.4.5 0 1 .1 1.4.1-.5-.1-.9-.3-1.4-.3-.4-.1-1-.1-1.3-.4zm-8.4-2.1c-.5-.2-1.1-.4-1.6-.7l-1.1-1c-.4-.3-.9-.5-1.4-.6-.4-.1-.8-.3-.9-.7v-.5c.1-.2.3-.2.5-.2-.2-.1-.5-.2-.7-.1-.2.1-.3.4-.3.6-.1.5.2.9.6 1.2.4.3 1 .3 1.4.5.4.2.7.5 1.1.8.7.6 1.6.7 2.4 1.1.4.2.7.4.9.7.3.3.5.6.8.8-.3-.8-.9-1.5-1.7-1.9zm1.7-1.4c-.8-.3-1.7-.8-2.4-1.3s-1.5-.9-2.3-1.1c-.7-.1-1.3.1-2-.2-.8-.4-.5-1.2-.1-1.7-.3.3-.8.6-.8 1-.1.5.3.9.7 1.1.4.2.9.2 1.4.2.5 0 .9.1 1.4.2.8.3 1.5.7 2.2 1.2.4.3.8.5 1.2.7.4.2.9.3 1.3.4.4.1.7.2 1 .4.2.1.3.2.5.4.1.2.2.4.3.5-.1-.6-.4-1-1-1.3-.4-.2-.9-.3-1.4-.5zm.6 11.5c.3-.4.6-.8.8-1.2.1-.4.3-.9-.1-1.3-.1-.1-.2-.2-.3-.1v.4l-.1.6c-.1.4-.3.8-.5 1.2-.2.3-.5.8-.5 1.1.3-.2.5-.4.7-.7zm-9.9-8.9l-.8.1c-.2.1-.5.1-.7 0-.4-.2-.1-.7 0-1 .2-.4.6-1 .4-1.5-.1-.2-.3-.4-.4-.7-.1-.2.1-.4.1-.6.1-.3.4-.7.6-.9.3-.3.6-.6 1-.7-.1-.1-.1-.2 0-.3-.1.1-.3.2-.3.3 0 .2.1.3.3.3.1 0 .2-.2.3-.3 0 0 .1 0 .2-.1h-.3c-.2 0-.3.1-.4.2.1-.1.5-.3.2-.4-.2-.1-.5.1-.7.2-.5.2-1 .4-1.3.9l-.3.7-.1.7c0 .3.2.5.4.7.1.2.1.4 0 .6-.3.6-.8 1.6-.1 2.1.3.2.7.2 1.1.1l1.1-.3h-.1c.1.2-.2.6-.3.7l-.4.6c-.1.2-.5 1-.3 1.3.1-.2.2-.5.3-.8.1-.3.2-.5.4-.7.2-.3.4-.5.5-.8.1-.1.1-.4 0-.5-.1-.1-.3 0-.4.1zm5.7-5.5c0-.4 0-.8-.3-1.1-.3-.4-.7-.4-1.1-.4-.4 0-.8.2-1.1.3-.3.1-.7.3-1 .2 0 0 .1 0 .1.1-.1-.2-.2-.5-.4-.7-.3-.2-.6 0-.8.3-.2.2-.4.5-.4.8 0 .4.2.6.6.6-.1-.1-.3-.1-.3-.3v-.4c.1-.2.4-.5.6-.5h-.1c0 .2.2.4.3.6.2.2.5.2.7.2.5 0 1.1-.2 1.5-.5.4-.2.9-.3 1.2.1.3.4.2 1 .3 1.5.1.3.1.6.3.8.1.1.4.5.6.3-.3-.3-.5-.4-.6-.8-.1-.4-.1-.7-.1-1.1zm-5.3 9.2c-.4-.3-.9-.3-1.3-.5-.4-.3-.1-.8.1-1.2.2-.5.5-1 .5-1.5s-.3-.9-.6-1.3-.4-.7-.2-1.1c.2-.4.5-.7.9-.9-1 .1-2 1.3-1.4 2.2.3.4.7.8.6 1.3-.1.5-.4.9-.6 1.4-.1.4-.2 1 .1 1.4.3.3.8.4 1.2.5.2 0 .4.1.5.3.1.2 0 .5-.1.7-.1.2-.7 1.3-.3 1.5.1-.2.2-.4.2-.6l.4-.8c.4-.5.4-1.1 0-1.4zm17.4 17.6c-.2-.4-.6-.9-1-1.2l-.7-.3c-.2-.1-.5-.1-.7 0-.1 0-.2.2-.1.2.1.1.2.1.3.1.2 0 .4.1.6.2.4.2.8.4 1.1.7l.5.6.3.7c0-.3-.1-.7-.3-1zm1.1 4.6c.4 0 .9 0 1.2-.3.4-.3.4-1 .2-1.4 0-.1-.1-.2-.2-.3-.2-.1-.2.1-.2.2l.1.6c0 .5-.3.7-.8.8l-.6.1c-.2 0-.4-.1-.6 0 .2.2.6.3.9.3zm-19.2-5.7l-2 .8-1 .4c-.3.1-.8.2-.9.5.9.2 1.9-.3 2.7-.7.4-.2.8-.4 1.3-.7.4-.2.9-.4 1.2-.6l.1-.1c-.5.1-.9.2-1.4.4zm.2-1.5c-.8.2-1.6.3-2.4.4h-1.1c-.3 0-.8-.1-1.1.1.8.6 2.1.4 3 .2.5-.1 1-.2 1.5-.4.3-.1.5-.2.7-.3l.7-.3.1-.1c-.4.2-.9.3-1.4.4zm.1-1.6c-.8.1-1.6 0-2.4 0-.4 0-.8 0-1.2-.2-.4-.1-.8-.3-1.1-.3.4.8 1.8 1.1 2.6.9.4-.1.9-.1 1.3-.1s.9-.1 1.3-.2l1.2-.3c-.6.2-1.2.2-1.7.2zm2.1-1.8c-.4 0-.8.1-1.3.1h-.8c-.3 0-.4 0-.7-.1-.2-.1-.5-.2-.6-.2-.3.1.1.4.2.5.3.2.8.3 1.2.4.5 0 1-.1 1.5-.2s1.1-.1 1.6-.3c-.3-.2-.7-.2-1.1-.2zm1 5.5l2.4-.6c.8-.2 1.5-.9 1.4-1.8-.4.2-.5.6-.8.9-.3.3-.8.4-1.2.5-.8.3-1.6.6-2.4.8l-1 .3c.5 0 1.1 0 1.6-.1zm-6.4-9.6c.3-.2.5-.5.7-.8.1-.1.3-.3.3-.4 0-.2-.2-.3-.4-.2l-.3.3-.3.4c-.2.3-.5.5-.6.9.3 0 .4-.1.6-.2zm3.8 2c-.2-.3-.5-.6-.8-.9-.2-.3-.4-.6-.7-.9l-.3-.4-.3-.5c-.1-.2-.2-.3-.4-.5-.1-.2-.2-.3-.5-.3 0 .9.8 1.7 1.4 2.4.7.7 1.6 1.3 2 2.2l.1.3c0-.6-.2-1-.5-1.4zm6.1 2.8c-.6-.5-1.1-1-1.5-1.6l-.6-.9-.3-.4-.2-.2c-.1-.1-.1-.1-.3-.1 0 .5.3 1 .5 1.4.3.5.6.8 1 1.2.6.6 1.5 1.4 2.5 1.5h.1c-.5-.3-.9-.6-1.2-.9zm-26.3 17.6c-.5 0-1.1-.1-1.4-.6-.1-.2-.1-.5-.1-.7v-.3c-.1-.1-.2.1-.2.2-.1.5 0 1 .3 1.3.3.3.9.3 1.3.3.3 0 .7-.1 1-.3-.3.1-.6.1-.9.1z" fill="#9F9F9F"/></svg>