<svg baseProfile="tiny" xmlns="http://www.w3.org/2000/svg" viewBox="0 0 60 60"><path fill="#9F9F9F" d="M41.3 18.5c-.8-.3-1.6-.5-2.4-.3-.4.1-.7.2-1 .5-.3.2-.6.6-.7.9.2 0 .4-.3.6-.4l.6-.4c.2-.1.4-.2.7-.3h.8c.5-.1 1 .1 1.4.2.2.1.5.2.7.2.1.1.5.3.6.2-.4-.3-.9-.5-1.3-.6zm-16 .3c-.1.1-.2.2-.2.4.1 0 .1-.2.2-.4.2 0 .4-.2.5-.3.4-.2.8-.3 1.2-.3.6 0 1.2.1 1.7.4.2.1 1.6 1 1.8.7.1-.2-.5-.6-.6-.7-.3-.2-.6-.2-.9-.3-.3-.1-.6-.2-.9-.2-.3 0-.7-.1-1 0-.7 0-1.4.3-1.8.7zm13.2 1.5h-.3c.3 0 .7 0 1 .1h1.2c.4 0 .8-.2 1.1-.3.2-.1 1-.3 1-.6-.4 0-.6.2-.9.3-.3.2-.6.3-1 .4-.7.2-1.4.1-2.1.1zm-8.5-.3c.1 0 .3 0 .4-.1-.3-.1-.8.1-1.1.1l-1.1.1c-.3 0-.7 0-1-.1-.3-.1-.7-.2-1-.2-.2 0-.3-.1-.4-.1-.1 0-.4 0-.3.2.2.2.6.3.9.4h2c.5-.1 1.1-.1 1.6-.3zm8.7-1c0-.2.1-.3.1-.4-.4.1-.1.9 0 1.1.2.3.8.4 1.2.3l.5-.3c.2-.1.2-.2.1-.4-.2-.3-.7-.6-.7-.1-.1.1-.3-.1-.3-.2v.1h.1c-.1-.1-.1-.2 0-.3-.1.1-.5.2-.3.4.1.2.5.1.6 0 .5-.2 0-.8-.4-.7-.5.1-.5.7-.1.9.3.2.8.1.8-.3 0 .1-.1.1-.1.1.1.1.2.2.3.2-.4.2-.6.5-1 .4-.5 0-.8-.3-.8-.8zm-11.9.4c-.1-.1 0-.2 0-.3-.2 0-.2.3-.1.5.2.2.5.4.8.4.5.1 1.3.1 1.5-.5.2-.5-.6-1-1.1-.9-.2.1-.6.3-.4.6.2.2.4.1.6-.1h-.1l.3.3c.3.1.3-.2.2-.4-.1-.5-.7-.6-.9-.2.2-.1.5 0 .4.3.1-.4 1.1.1.7.5-.6.3-1.4.2-1.9-.2zm10.6-.5c-.1.1-.2.3-.2.5.6-1.2 2.2-1.4 3.5-1.5.7 0 1.2.2 1.8.5.1.1.3.2.4.1.2-.1.1-.2 0-.4-.2-.2-.7-.4-1-.5-.8-.2-1.6 0-2.3.2-.8.2-1.7.4-2.2 1.1zm-7.4-.1l.3.3c0-.3-.5-.6-.7-.7l-1-.3-1.9-.5c-.3 0-.6-.1-.9 0-.2.1-.9.4-.6.7.1.1.3 0 .5 0l.5-.1.5-.1c.2 0 .3 0 .5.1.9 0 2 0 2.8.6zm7-2.1c-.1.1-.2.2-.3.4.1 0 .2-.2.3-.3l.5-.3c.3-.2.6-.3.9-.4.6-.2 1.2-.5 1.9-.4.3 0 .6.2.9.4.1.1.8.4.9.2.1-.2.1-.3 0-.5-.1-.1-.2-.2-.4-.2-.3-.2-.6-.3-.9-.3-.8-.1-1.4.1-2.1.4-.5.3-1.2.5-1.7 1zm-7.6-.2c.1 0 .3.1.4 0-.2-.2-.8-.2-1-.3-.4-.1-.8-.2-1.1-.3-.7-.2-1.5-.6-2.2-.7-.4-.1-.8 0-1.1.2-.1.1-.4.2-.2.4.2.1.3.2.5.1.3 0 .6 0 .9-.1.4-.1.7.1 1 .1.9.2 1.9.5 2.8.6zm3.8 14.6c-.1 0-.1-.1-.2 0 0 .1.1.1.2.2l.6.2c.1 0 1.1.3 1.1 0 0-.2 0-.4-.2-.4-.2-.1-.3.2-.4.2-.4-.3-.7-.1-1.1-.2zm0-1.4s-.1 0-.1-.1c.2.4 1.9.5 1.9.1-.1-.4-.5 0-.7 0-.4.2-.8.2-1.1 0zm1.6.1c-.1 0-.2 0-.3.1.5-.1 1.1 0 1.6.2.3.1.6.2.8.3.2.1.6.3.8.3.4 0-.2-.4-.4-.4l-.9-.3c-.4-.2-1-.3-1.6-.2zm-2.1-.1c.1 0 .1 0 .2-.1-.4-.1-.9.1-1.3.2l-.7.3c-.1.1-.5.3-.5.5 0 .4.4 0 .5-.1.2-.2.2-.3.5-.5l1.3-.3zm.2 3.5c-.1 0-.2-.1-.3 0-.1.1.1.2.2.2l.7.2c.5 0 1 0 1.4.1.4.1 1 .3 1.3-.1.1-.1.1-.2.1-.3 0-.2 0-.2-.2-.3-.2-.1-.4.1-.5.2-.1.1-.3.2-.5.2h-.7c-.5-.1-.9-.1-1.5-.2zm2.6-5.6c-.1 0-.2.2 0 .1.1 0 .1-.1.2-.2.1 0 .2 0 .3-.1.2-.4-.8 0-.9 0 .2-.1.3.2.3.3-.1-.1-.3-.1-.2-.2 0 .1.2.2.3.1l.3-.1c.1-.1-.1-.4-.2-.4-.2-.1-.3 0-.4.1-.2.2-.3.7.1.7.3 0 .5-.4.8-.5v-.1c-.4.1-.6.2-.6.3zm-3.3-.4c-.1-.1-.2-.1-.2.1l.2.2c.2.2.4.2.6.3.4.1.5-.2.2-.5-.1-.1-.3-.3-.4-.1-.1.1-.2.4 0 .6.3.2.2-.3.4-.3-.4 0-.5-.2-.8-.3zm-1.4 3.6c-.1 0-.2 0-.3.1.2.1.6-.1.9-.1.4 0 .7.1 1.1.2l.9.3c.2 0 .8 0 .7-.2-.1-.2-.6-.2-.8-.2-.2 0-.3.1-.5 0l-.4-.1c-.5-.1-1.1-.1-1.6 0zm4.1.3l-.2-.1c.2.4 1.3.2 1.6.1.3-.1 1.3 0 1.4-.3.2-.6-.9 0-1.1 0-.6.2-1.1.5-1.7.3zm-2.1-28c-.1-.4-.3-.7-.5-1 .8 2.2 1.4 4.6 1.4 6.9 0 1.1-.1 2.3-.3 3.4-.1.6-.3 1.2-.5 1.8l-.4 1c-.2.3-.3.6-.4.9.5-.3.8-1 1.1-1.6.3-.6.4-1.2.5-1.8.2-1.3.3-2.5.3-3.8 0-1-.2-2.1-.4-3.1-.3-.8-.5-1.7-.8-2.7zm.9 4.7v-.9c-.3.6 0 1.4 0 2v1.8c0 1.3-.1 2.6-.4 3.9l-.2.8c-.1.2-.2.5-.2.8.1-.1.2-.1.3.1v-.7c0-.2 0-.4.1-.6l.2-1.2c-.1.6-.2 1.2-.5 1.7-.1.2-.3.7-.1.9.1.1.3.1.4 0 .1-.1.1-.4.1-.5.3-1.3.6-2.6.6-3.9v-2.1c-.2-.7-.3-1.4-.3-2.1zm.8 3v-.4l-.3 2.7-.3 1.6c-.1.3-.3 1.2 0 1.3.2-.4.3-.9.3-1.4 0-.5.1-.9.2-1.4.1-.7.1-1.6.1-2.4zm1.2-4.6v-.7c-.1.2-.1.7-.1.9v1c0 .6 0 1.3-.1 1.9-.1 1.3-.2 2.5-.4 3.8l-.2 1.1c0 .4-.2.7 0 1.1.4-.4.5-1.2.6-1.8l.2-1.9c.1-1.3.1-2.6.1-3.8-.1-.6-.1-1.1-.1-1.6zm.4-2.8c-.1-.1-.3-.3-.5-.2-.1.1.1.4.2.5-.1-.2-.3-.6 0-.4.3.2.4.6.5.9.2.5.4 1.1.5 1.6l.9 3.5c.2 1.1.3 2.4.1 3.5l-.4 1.5c-.1.5-.4 1.1-.3 1.6.5-.4.7-1.2.9-1.8.2-.6.3-1.4.3-2 0-.6 0-1.2-.1-1.8-.1-.6-.2-1.2-.4-1.8l-.7-2.6-.4-1.2c-.2-.5-.3-1-.6-1.3zm2.4 7.1v-.9.2c-.1.7 0 1.4 0 2.1v2.2c0 .4.3.4.5 0 .1-.3.1-.7.1-1l.4-1.9c0-.2.1-.5.2-.7h-.1c.2.3.1.7 0 .9-.1.3-.1.7-.1 1 0 .6-.1 1.5.3 1.9.1-.3.1-.6.1-1l.1-1v-1c0-.3.1-.8-.2-1.1-.3-.2-.4 1.3-.4 1.5-.1.6-.3 1.3-.3 1.9 0 .2 0 .5-.2.5l-.1-1.8c-.2-.5-.3-1.2-.3-1.8zm-7.8-4.9c-.1-.2-.3-.5-.5-.7l.5.8c.2.3.2.7.1 1.1 0 .8-.2 1.6-.5 2.3-.5 1.4-1.4 2.6-2.3 3.8l-.6.8-.7.8c.1 0 .1 0 .1.1l-.1-.2c-.1.1-.3.2-.2.4.1.1.2.1.3.1.2 0 .2-.2.3-.3.1-.1.3-.2.5-.3.5-.4.8-1 1.1-1.6l1-1.7c.3-.5.5-1 .7-1.5.2-.6.4-1.2.5-1.9.1-.7.1-1.4-.2-2zm-.6 4.9c.1-.3.2-.5.2-.8-.3.4-.4 1.1-.5 1.6l-.2.8-.4.8c-.1.2-.1.7.2.7.3 0 .4-.5.5-.7.3-.5.6-1.1.8-1.6-.1 0-.1 0-.1-.1-.3.4-.5 1-.8 1.5-.3.5-.6 1.2-.5 1.8l.5-.9.5-1 .3-1c0-.1.4-.6 0-.5-.2 0-.4.6-.5.8-.2.4-.4.7-.5 1.1-.1.1-.3.8-.4.4-.1-.3.2-.7.3-.9.3-.7.4-1.4.6-2zm13.9 8c-.1-.6-.2-1.2-.3-1.7.3 2.5.5 4.9.4 7.4-.1 2.5-.4 5-.9 7.5l-.7 4c-.2 1.3-.5 2.6-.3 3.9l.1.4c0-1.3.4-2.5.6-3.8.2-1.3.3-2.6.6-3.9.5-2.5.7-5 .8-7.6.1-2.1 0-4.2-.3-6.2zm.7 3.1v-1.5c0 2.6.2 5.3 0 7.9l-.3 3.9c-.1 1.2-.3 2.3-.5 3.5h.1c-.4-.6-.3-1.5-.3-2.2 0-.8.1-1.6.2-2.4-.1 1.4-.4 2.8-.3 4.3 0 .3.4.9.6.4l.2-1c.1-.6.1-1.2.2-1.7.1-1.2.2-2.4.3-3.7.1-1.5.2-2.9.1-4.4-.2-1.1-.3-2.1-.3-3.1zm.2 5.3c0-.1 0-.2.1-.3-.1.7-.3 1.4-.5 2-.2.7-.5 1.3-.8 2 .7-1.1 1-2.4 1.2-3.7zm-.9-5.5c0-.4 0-.9.1-1.3-.3.5-.2 1.2-.2 1.8-.1.6-.1 1.2-.2 1.7l-.6 4c-.2 1.2-.4 2.4-.6 3.5-.4 1.6-.9 3.1-1.3 4.6-.2.5-.4 1-.5 1.6 1.4-1.8 1.8-4.2 2.2-6.4.2-1.1.4-2.2.5-3.3l.5-3.9c-.1-.7.1-1.5.1-2.3zm-18.2 10.3c-.3-.4-.5-.7-.7-1.1.2.6.6 1.2 1 1.7l1.2 1.7c.7 1 1.6 2 2.7 2.8 1.2.9 2.6 1.5 4.1 1.5 1.4 0 2.9-.5 4-1.4l.6-.5c.2-.2.3-.3.4-.6-.6.2-1.1.6-1.7.9-.6.3-1.2.7-1.8.9-.7.2-1.3.4-2.1.3-.7-.1-1.4-.3-2-.6-1.3-.6-2.4-1.5-3.3-2.5-.9-.9-1.6-2-2.4-3.1zm15-25.7c-.2-.5-.4-1-.7-1.5-.1-.2-.4-.5-.6-.5-.4 0-.3.4-.2.6-.1-.3-.1-.8.4-.5.3.2.5.5.6.9.2.6.5 1.2.8 1.8.6 1.3 1.2 2.6 1.7 3.9.9 2.3 1.6 4.6 1.8 7.1.1.7.1 1.4.1 2 0 .2.1.9.3.9.5.1.2-.6.2-.8-.2-.6-.3-1.3-.4-2-.1-.6-.2-1.2-.2-1.9-.1-1.2-.2-2.4-.2-3.7v-1.8l-.1-1.9c0-.1.1-.9 0-.9-.4-.2-.3.6-.3.7.1.8.2 1.5.4 2.3.2 1.5.6 2.9.9 4.4.4 1.6.4 3.3 1 4.8-.2-.8-.2-1.5-.2-2.3l-.3-2.4-1-4.4-.6-2.2-.1-.5c0-.1.1-.4.2-.4v.9l.1 1.9v1.8c0 1.2.1 2.4.2 3.7l.2 1.9c.1.7.1 1.3.3 2 0 .1.2.8 0 .6-.1-.1-.1-.4-.1-.5v-.6l-.1-1.9c-.1-1.2-.4-2.5-.7-3.7-.7-2.5-1.8-5-3-7.4-.2-.1-.3-.3-.4-.4zm5.3 9.9l.1.4-.1-.7c0-.1 0-.4-.2-.2-.1.1 0 .5 0 .6v3.1c0 .2 0 .6.1.8.2-.7 0-1.6-.1-2.3v-1.8c0-.1-.1-.3 0-.4.2.2.2.3.2.5zm-23.2-1.7l-.1.5.8-3.3c.3-1.1.8-2.1 1.3-3.2-1 1.9-1.5 4-2 6zm18.3 3.3c-.5-.3-1.2-.1-1.8.1-.6.2-1.3.3-1.8.8-.3.2-.4.5-.5.9 0 .5.3-.1.5-.2.5-.4 1.2-.6 1.8-.8.6-.3 1.2-.6 1.8-.8zm0 0c-.5-.3-1.2-.1-1.8.1-.6.2-1.3.3-1.8.8-.3.2-.4.5-.5.9 0 .5.3-.1.5-.2.5-.4 1.2-.6 1.8-.8.6-.3 1.2-.6 1.8-.8zm-13.3 0c-.1 0-.2 0-.3.1.1.1.6.1.8.2.3.1.6.3.8.4.2.2 1.3 1.4 1.6 1 .2-.3.2-.7-.2-.8-.1-.1-.3-.1-.4-.1-.2 0-.2-.1-.4-.2-.5-.2-1.1-.5-1.9-.6zm14.2 1.4c-.1 0-.2 0-.2.1.2.1.7-.1 1-.1.4-.1.8-.1 1.1-.2.2 0 1.2-.1.8-.4-.1-.1-.4 0-.5 0-.3.1.3.3.3.3-.1 0-.1-.2 0-.3l-.6.2c-.2 0-.4.1-.6.2-.5 0-.9.1-1.3.2zm0 0h-.2c.3.2.8.1 1.1.1.4 0 .8-.1 1.1-.3.1-.1.1-.2 0-.2h-.3c-.2 0-.4.2-.6.3-.3 0-.7.1-1.1.1zm-.6-.4c-.1 0-.2-.1-.2 0s.2.1.3.1c.2 0 .4.1.6 0 .3 0 .9-.1 1.2-.3.1-.1.2-.1.1-.3 0-.1-.1-.2-.2-.2s-.2 0-.3.1c-.1.1-.1.2-.2.2-.2.1-.5.2-.6.2-.2.2-.5.3-.7.2zm-.4-.3c-.2-.1-.1.1 0 .1h.4c.2 0 .7 0 .8-.1.1-.1.1-.3-.1-.4-.1-.1-.2.1-.3.1 0 .2-.5.4-.8.3zm-17.8-.1c0-.1-.1-.2-.2-.1 0 .1.1.2.1.2.1.2.3.3.5.4.3.1.9.4 1.2.3.1 0 .2-.1.2-.2s0-.2-.1-.3c-.2-.1-.4.1-.6.1l-.7-.1c-.1 0-.3-.1-.4-.3zm.4.8c0 .1 1.1.4 1.1.3.1-.3-.3-.2-.5-.2-.2-.1-.4-.1-.6-.1zm.5-1.3l-.1-.1c0 .1.1.2.1.2.1.2.3.3.5.4.3.2.6.6 1 .4.2-.1 0-.3-.1-.4h-.4c-.4 0-.7-.3-1-.5zm1.2 0c-.3.1.5.8.7.6.2-.2-.2-.2-.3-.3-.1 0-.3-.1-.4-.3zm-.1 1.5c.1 0 .2-.2.1-.2l-.3.1c-.3.1-.6.1-.8.1-.2 0-1.3-.2-1.3 0-.1.3 0 .4.3.5l.3-.1c.1-.1.2-.1.3-.1.4.1 1.1-.1 1.4-.3zm16.9.2c.1 0 .1 0 .1-.1-.1 0-.3 0-.3.1s.2.1.3.1c.4.1.8.4 1.2.4.2 0 0-.4-.2-.4h-.5c-.2 0-.4-.1-.7-.1.1.1-.1.1.1 0zm4.2 2.8c.1-.6.1-1.2.1-1.8 0 .8-.2 1.5-.3 2.3-.1.8-.2 1.5-.2 2.3-.1 1.5-.2 3-.3 4.4-.2 2.4-.9 4.8-.8 7.2.1-.1.1-.7.1-.9.1-.3.1-.7.1-1 .1-.7.2-1.3.2-2l.5-3.9c-.3 1.3-.4 2.6-.6 3.9-.1.7-.2 1.3-.2 2 0 .3 0 .7-.1 1 0 .2-.2.7 0 .9.1-1.5.3-3 .6-4.5.2-1.5.4-2.9.5-4.4.1-1.9.1-3.7.4-5.5zm-1.9-6.5l-.5-2.1-.4-1.9c.2.5.2 1.1.3 1.7l.4 2 .9 4.2c.4 2.8.5 5.7.6 8.5v6.3l.1 1c0 .1 0 .3.1.3v-.5l-.1-.9c-.1-.8-.1-1.5-.1-2.3 0-1.5 0-2.9.1-4.4.1-1.2.2-2.3.4-3.4.1-.5.2-1.1.4-1.6l.5-1.5c.1.2-.1.6-.1.8l-.2 1c-.1.8-.1 1.6-.1 2.4 0 1.4-.1 2.8-.1 4.1v3.6c0 1.2 0 2.4.1 3.7 0-.7.1-1.5.2-2.2.1-.7.1-1.4.1-2.1l.1-4.2-.1-4.4c0-.7 0-1.4.1-2.1l.1-.4c0-.2-.1 0-.1.1 0 .2-.1.3-.2.5 0 .2-.1.4-.1.5-.9 2.8-1.1 5.7-1.1 8.6v2.2c0 .7.1 1.4.2 2.1v.5c0 .2-.1 0-.1-.1l-.1-1v-1.8c.1-2.5.1-5 0-7.5-.1-1.5-.1-3-.3-4.4-.2-1.4-.5-2.8-.8-4.2-.1-.6-.1-.8-.2-1.1zm-16.2 22.3c0-.3 0-.6-.1-.9-.1.3 0 .7 0 1 0 .4 0 .7.1 1.1v2.1c-.1 1.3-.4 2.6-.9 3.8-.3.6-.5 1.2-.8 1.9l-.3 1c-.1.4-.3.8-.2 1.1.2-.2.3-.6.5-.9l.4-.9.6-1.7c.2-.6.4-1.1.6-1.6.2-.7.3-1.3.4-2-.1-1.4-.2-2.7-.3-4zm-3.6 11.6c-.5-.5-1-1.3-.7-2-.4.6-.1 1.3.3 1.8.4.6 1.1 1.1 1.7 1.5 1.3.9 2.8 1.4 4.3 1.7 2.7.5 5.5.3 8.2-.1 2.7-.4 5.4-1.2 7.7-2.7.8-.5 1.5-1 2.2-1.7.3-.3.6-.6.9-1l.4-.5c.1-.2.2-.4.3-.7-.9.8-1.9 1.7-2.9 2.4-1.1.8-2.1 1.4-3.3 2-2.4 1.2-5.1 1.8-7.7 2.1-2.8.3-5.7.2-8.3-.9-1.2-.3-2.3-1-3.1-1.9zm14.7-9.4c0-.4 0-.8-.1-1.2-.2.6-.1 1.3-.1 1.9 0 .6.1 1.3.3 1.9.3 1.2.7 2.5 1.3 3.6.6 1.1 1.4 2.2 2.4 2.9.6.4 1.2.8 1.9 1 .3.1.7.2 1.1.2l.6.1c.2 0 .3-.1.5-.2-.4-.6-1.3-.7-1.9-1-.6-.3-1.3-.5-2-.8-.6-.3-1.1-.9-1.5-1.4-.5-.6-.9-1.3-1.3-2-.7-1.6-1.1-3.3-1.2-5zm-16.8 6.5c1 0 2.1 0 3.1.2 1 .1 2.2.4 2.9 1.2-.8-1.1-2.3-1.3-3.5-1.4-1.4-.2-2.8-.2-4.1-.1-1.4.1-2.8.4-4.2.9-1.5.5-3 .9-4.4 1.6l-1 .5c-.3.1-.7.3-1 .5-.6.4-.9 1.3-.1 1.8.6.3 1.5.1 2.1-.1l1.8-.6c2.6-.9 5.1-2.2 7.6-3.4l1.5-.6.7-.3c.2-.1.4-.2.7-.3l.1.1-.1.5-.6.9c-.4.5-.7 1-1 1.6l-2 3.3c-.4.6-.8 1.5-.3 2.1.5.6 1.3.5 1.9.2.7-.4 1.2-.9 1.7-1.5.5-.5.8-1.2 1.4-1.7.3-.3.5-.5.8-.9-.1.1-.3 0-.3-.1-.2 1.3-.6 2.6-.7 3.9-.1.7-.1 1.4-.1 2.1 0 .6.1 1.4.7 1.9 1.5 1.2 2.3-1.8 2.5-2.7.3-1.5.2-3 .1-4.5 0-.9 0-1.8-.3-2.7 0 .4-.5.7-.8.4.5 1.4 1.1 2.6 2 3.8.8 1.1 1.6 2.1 2.8 2.7.7.4 1.4.6 2.1.9.4.1.7.2 1.1.2.4 0 .7 0 1.1-.1-.5-.2-1-.4-1.6-.6-.5-.2-1-.5-1.5-.8-.6-.4-1.1-.8-1.6-1.3s-1-1.1-1.4-1.7c-.4-.6-.8-1.1-1.2-1.8l-.5-.9c-.1-.3-.2-.6-.4-.9-.4-.7-1.4-.4-1.1.5.2.6.3 1.2.3 1.9.1 1.4.3 2.8.1 4.3-.1.7-.2 1.4-.5 2-.1.2-.2.7-.5.8-.3.1-.4-.3-.5-.5-.3-.6-.2-1.4-.1-2 0-.7.1-1.4.2-2 .1-.6.3-1.2.4-1.9.1-.3.2-.7.2-1 0-.3-.4-.4-.7-.3l-.7.7-.7.7c-.4.6-.8 1.1-1.3 1.6-.4.4-1.1 1.1-1.8 1.1-1 0-.4-1.2-.1-1.6.7-1.2 1.3-2.5 2.1-3.7l1-1.7c.2-.3.4-.6.5-1 .1-.3-.1-.7-.4-.8-.2 0-.3.1-.4.2l-.4.2c-.3.1-.6.2-.9.4l-1.8.8c-1.3.6-2.5 1.2-3.7 1.8-1.3.6-2.5 1.1-3.9 1.6-.7.2-1.4.5-2.1.6-.3 0-.7.1-1-.1-.3-.2-.4-.6-.1-.9.4-.5 1.2-.7 1.8-1 .7-.4 1.4-.6 2.1-.9 1.4-.5 2.8-1 4.3-1.3.8-.5 2.3-.7 3.7-.8zm0-33.2c.1-1.5.3-3 .8-4.5-1.1 2.6-1 5.5-1 8.2 0 3-.2 6.1.2 9.1.2 1.4.4 2.8.7 4.2.1.7.2 1.3.5 1.9l.3.9c.1.1.2.8.5.5.2-.2-.1-.8-.2-1-.1-.3-.2-.7-.2-1-.1-.7-.3-1.3-.3-2l-.3-4.1c-.1-1.3-.1-2.7-.1-4l.1-1.7c.1-.6.2-1.2.2-1.8 0-.2-.1-.8.3-.9.1 0 0 .6 0 .8 0 .7 0 1.4-.1 2-.1 1.4 0 2.8.1 4.2.2 2.3.6 4.6 1.2 6.8.2.8.5 1.6.9 2.3.3.7.6 1.2 1.1 1.8-.6-1.4-1.1-2.9-1.5-4.4-.4-1.5-.6-3.1-.9-4.7l-.6-4.5c-.1-.7-.1-1.3-.1-2l-.1-2.1c0-.1.1-.3 0-.4-.1-.1-.3 0-.3.1-.2.3-.1.7-.1 1l-.2 1.8c-.2 1.2-.2 2.5-.1 3.7 0 2.7 0 5.6.6 8.2.1.5.4 1.1.4 1.6l-.3-.7-.3-.9c-.2-.6-.3-1.3-.4-1.9-.3-1.4-.5-2.8-.7-4.2-.4-3-.2-6-.2-9.1 0-.9 0-2 .1-3.2zm1-7.7c.6-.9 1.3-1.6 2.2-2.1-2.7 1.3-3.8 4.6-4.6 7.3-.9 2.9-1.6 5.8-2 8.8-.2 1.5-.3 3-.3 4.6v2.1c.1.6.2 1.5.6 2 .2.3.7.5.8 0 .1-.3-.1-.7-.1-1l-.3-1.8c-.1-1.2-.1-2.4-.1-3.6 0-2.6.5-5.1 1-7.6-.7 2.8-1.2 5.7-1.3 8.6 0 .9 0 1.7.1 2.6 0 .5.1.9.2 1.4 0 .2.1.4.1.7l.1.7c-.5-.4-.6-1.3-.7-1.9v-2.2c0-1.5.1-3 .2-4.6.3-3 1-5.9 1.9-8.7.6-1.9 1.2-3.7 2.2-5.3zm-.2 2.6l.3-1.6c-.9 2.7-1.2 5.7-1.2 8.5-.1 2.9.1 5.8.4 8.7.1.8.2 1.7.4 2.5s.2 1.7.6 2.4c.1-.7-.1-1.4-.2-2.1l-.3-2.1c-.2-1.4-.4-2.8-.5-4.3-.2-2.9-.3-5.8 0-8.7.1-1.1.3-2.2.5-3.3zm-2.1 16.7c0-.4.1-.8.3-1.2-.5.5-.5 1.4-.4 2.1l.3 1.9c.2 1.2.4 2.4.7 3.7.6 2.5 1.1 5.3 2.7 7.4.2.2.3.4.6.5-.1-.6-.5-1.1-.8-1.7-.3-.6-.6-1.1-.8-1.7-.3-.6-.5-1.2-.7-1.8-.2-.6-.4-1.3-.5-1.9l-.9-3.5c-.2-1.2-.5-2.6-.5-3.8zm8.5-18.8c.2-.8.2-1.6.2-2.3-.1 2.6-.8 5.3-2 7.6-.6 1.2-1.4 2.3-2.4 3.3-.2.2-.5.5-.8.7-.2.2-.6.5-.9.5-.1 0-.4 0-.4.1-.1.2 0 .4.2.4.3.1.7 0 1.1-.1.6-.2 1-.7 1.4-1.2l1.2-1.8 1.1-1.7c.2-.3.5-1.1 1-1.2.3.3-.3 1-.5 1.3-.3.5-.5 1.1-.7 1.6-.4 1.1-.9 2.3-1.1 3.4.7-1.3 1.2-2.8 1.8-4.2l.4-1c.2-.3.4-.6.4-.9 0-.4-.3-.7-.6-.5-.3.2-.5.5-.7.7l-2.1 3.3c-.3.5-.7 1.1-1.2 1.5-.2.1-1.4.7-1.5.3.4-.1.7-.1 1-.4.3-.2.6-.4.8-.7.5-.5 1-1 1.4-1.6.8-1.1 1.4-2.3 1.9-3.5.5-1.1.9-2.3 1-3.6zm-7.9-1.3c.6-1.2 1.3-2.4 2.2-3.5-2.4 2.1-3.3 5.2-4 8.2-.6 2.7-1 5.4-1.4 8.1-.3 2.6-.5 5.2-.4 7.7.1 1.5.2 2.9.6 4.3.4 1.5 1.1 2.9 2.1 4.1l.7.9c.2.2.3.8.7.7.5-.1.2-.5 0-.7-.2-.3-.3-.6-.4-.9-.6-1.1-1.1-2.2-1.4-3.4-.7-2.8-.9-5.6-.6-8.5.1-1.7.5-3.3.7-5-.5 3-1.1 6-1.1 9 0 2.7.4 5.3 1.7 7.7l.8 1.6c0-.1.1-.2.2-.2l-1.2-1.8c-.4-.6-.8-1.2-1.2-1.9-.7-1.4-1-2.9-1.2-4.4-.3-2.6-.2-5.1 0-7.7.2-2.6.7-5.2 1.1-7.8.6-2.1 1.1-4.4 2.1-6.5zm-1.2 12c.1-.6.3-1.2.5-1.8-.9 2-1.1 4.3-1 6.5.1 2.3.5 4.5.8 6.7.3 2.2.6 4.4 1.2 6.5.5 1.8 1.1 3.7 2.3 5.1l-1.5-4.3c-.4-1.1-.8-2.3-1-3.4l-1.1-6.6c-.3-2.2-.7-4.5-.5-6.7.1-.7.1-1.3.3-2zm25.8 5.8c0-1.1 0-2.2-.4-3.2.4 1.2.2 2.6.2 3.8 0 1.3-.1 2.7-.2 4-.3 2.9-.7 5.8-1.2 8.7l-.2.9c-.1.3-.1.5 0 .8h.1c-.3 0-.1-.6-.1-.7.1-.3.1-.6.1-1 0-.6 0-1.2.1-1.8.1-1.3.4-2.6.6-3.9.3-1.3.6-2.6 1.1-3.8.1-.3.2-.6.3-1 0-.1.4-.9.5-.6.1.3 0 .7 0 1.1 0 .4 0 .8-.1 1.1-.1 1.3-.3 2.6-.4 4l-.1 1.9c0 .6-.1 1.2-.1 1.9v.7c.1-.6.3-1.2.4-1.9l.2-1.9.2-3.9v-2.3c0-.2.1-.7-.1-.7-.3 0-.4.7-.5.9l-.6 1.8-.6 2c-.3 1.3-.6 2.7-.8 4-.2 1.2 0 2.5-.3 3.6 0 .2-.2 1 .2.8.1-.1.1-.2.1-.3 0-.2 0-.3.1-.5.3-.7.3-1.4.4-2.1l.7-4.6c.2-2.8.4-5.3.4-7.8zm-3.4-20c-.2-.6-.5-1.3-1-1.6.5.6.7 1.3 1 2l.8 2.3c.4 1.5.8 3.1 1.1 4.6.6 3 .7 6 .7 9l-.1 3.7c0 .6 0 1.2.1 1.9v1c0 .3.1.6.2.9.2-.7.2-1.4.3-2.2.1-.7.1-1.5.1-2.2 0-1.5-.1-3-.2-4.5 0-3.1-.5-6.1-1.2-9.1-.5-2-1-3.9-1.8-5.8zm3.4 6.2c-.1-.8-.2-1.7-.7-2.4.5 1 .5 2.2.6 3.3.1 1.2.2 2.3.2 3.5.1 2.7.2 5.5.1 8.2-.1 3-.5 6-1 9-.3 1.5-.6 3-.8 4.5l-.3 2.3c-.1.7-.3 1.5-.2 2.2.6-1.3.8-2.8 1.2-4.2.4-1.5.5-3 .7-4.5l.5-4.5c.1-1.5.2-3 .3-4.6.1-2.8-.1-5.5-.2-8.3-.2-1.4-.3-2.9-.4-4.5zm3.4 21.2c.3-2.1.4-4.1.3-6.1 0-2-.2-3.9-.4-5.7l-.3-2.7c-.2-1.3-.5-2.9-.8-4.4l-.3-1.1c0-.2-.1-.4-.1-.5l-.1-.6c-.2-.7-.4-1.3-.5-1.9-.3-1.1-.6-1.9-1-2.7l-.6-1.2c-.3-.4-.6-.9-1-1.3s-.8-.7-1.1-.8c-.4-.1-.6-.1-.7-.1-.1 0 0 .1.1.2s.4.2.6.5c.4.3.7.7 1 1 .3.3.5.6.7 1 .4.6.7 1.3 1.1 2.3.2.4.4 1 .6 1.6.2.6.4 1.4.6 2.1.4 1.4.7 2.9.9 3.7.4 2.1.5 3.5.6 4.6.1 1.1.1 1.7.1 2.2.1 1.3.1 2.3.1 3.1 0 .8 0 1.4-.1 2l-.1 1.9c0 .7-.1 1.7-.2 2.9-.1 1-.1 1.7-.1 2.2v.7c.2-.2.4-1.1.7-2.9zm-.7 5.6c.2-1.3.3-2.7.3-4 0-1.3 0-2.6-.1-3.7 0-.6 0-1.2-.1-1.7-.1-.9-.1-1.9-.3-2.9 0-.5-.1-1-.1-1.4 0-.5-.1-.9-.1-1.3-.1-.8-.1-1.3-.2-1.9 0-.3-.1-.6-.2-.9-.1-.3-.2-.6-.4-1s-.3-.6-.5-.8c-.1-.2-.2-.2-.3-.2-.1 0-.1 0 0 .1 0 .1.1.3.2.5.1.3.3.6.3.9.1.3.2.5.2.7.1.5.2 1 .3 1.6 0 .3.1.7.2 1.1.1.4.1.9.2 1.4.1.5.1 1 .2 1.4.1.4.1.8.1 1.1.1 1.4.1 2.3.1 3 0 .7-.1 1.1-.1 1.4v2c0 .5-.1.9-.1 1.3s-.1.8-.1 1.3-.1 1.1-.1 1.9c-.1 1.3-.1 1.9 0 1.9.2 0 .4-.6.6-1.8z"/></svg>