<svg baseProfile="tiny" xmlns="http://www.w3.org/2000/svg" viewBox="0 0 60 50"><path d="M29.5 4.4l-.3.2c.1.1.3-.1.3-.2.3 0 .6-.1.8-.1.6-.1 1.2 0 1.6.4.4.4.6 1 .9 1.5h.2c.1-.1.1-.1.1-.2s0-.3-.1-.4c-.1-.3-.3-.5-.6-.7-.2-.2-.3-.3-.6-.5l-.9-.3c-.3 0-.6 0-.8.1-.1 0-.4.1-.6.2zm-13.4.1l-.2.4c0 .1.1-.1.1-.1l.1-.3c.2-.1.4-.3.6-.5.5-.4 1.1-.6 1.8-.5.5.1.9.5 1.3.9l.3.3s.1.1.2.1.1 0 .2-.1c0-.2-.3-.6-.5-.7-.2-.2-.5-.3-.8-.4-.2-.1-.3-.1-.4-.2-.1-.1-.3-.1-.4-.1-.6-.1-1.2.2-1.7.6-.2.1-.5.3-.6.6zm18 6.4c0-.1-.3-.6-.4-.5.2.5.5 1 .5 1.6.1.6.1 1.2 0 1.7s-.3 1.1-.7 1.5c-.4.4-.9.6-1.3.8l-.6.3-.3.2-.2.1c-.1 0-.1.1-.1.2.1.1.3.1.5.1h.4c.3 0 .5-.1.8-.2.2-.1.5-.3.7-.5l.3-.3.4-.3c.2-.2.4-.6.5-.9.1-.3.2-.6.2-.9.1-.6 0-1.3-.2-1.9-.1-.2-.1-.4-.2-.5-.1-.2-.2-.4-.3-.5zm-6.3 3.4c0-.1-.1-.7-.2-.6.1.5 0 1.1-.2 1.6-.4.5-.9.9-1.5 1.2-.5.3-1.1.5-1.6.5-.5.1-1.1 0-1.6-.1-.3 0-.5 0-.8-.1h-.4c-.1 0-.3-.1-.4 0-.1.1-.1.1-.1.2l.1.2c.1.1.2.2.4.3.2.1.6.3.9.3.3 0 .6 0 .9-.1l.4-.1h.4c.6-.1 1.2-.4 1.7-.6.5-.3 1-.7 1.4-1.1.2-.2.3-.5.4-.7.2-.4.3-.7.2-.9zm-10.7 13.7c-.1-.1-.5-.9-.7-.8.2.5.6 1 .9 1.4l1 1.4c.7.9 1.6 1.7 2.5 2.4 1 .7 2.2 1.2 3.4 1.6.6.2 1.2.3 1.8.4h1.3c.1 0 .1-.1.1-.1.1 0 .1-.1 0-.1-.2-.2-.6-.2-.8-.3l-.9-.2-1.8-.3c-.3 0-.6-.1-.9-.2l-.8-.3c-.6-.2-1.1-.5-1.6-.8-1-.7-1.8-1.5-2.5-2.4-.2-.3-.4-.6-.6-.8l-.3-.4c.1-.3 0-.5-.1-.5zm3.3-10.1c-.1-.1-.3-.5-.4-.5l.7 1.3c.2.5.4 1 .7 1.5.4.9.6 2 .6 3v1.8l.1.1.2-.1c.2-.2.2-.5.3-.7.1-.5.1-1.1-.1-1.6-.1-.3-.1-.5-.1-.8l-.2-.8c-.4-1-.9-2-1.5-2.9-.2-.1-.2-.2-.3-.3zm7.9 8.7c-.1 0-.2.2-.1.3.1.1.2.1.3.1.1 0 0-.1 0-.1h-.1c-.2-.1-.1-.3-.1-.3zm4.1-9.2c0-.1-.1-.8-.3-.7.1.3.1.5.1.8 0 .3 0 .6-.1.8l-.4 1.5c-.3.9-.8 1.8-1.4 2.6l-2 2.3-.4.6v.2c.1 0 .2 0 .3-.1.4-.3.8-.6 1.1-1 .2-.2.3-.4.4-.7.1-.2.2-.5.4-.7l.5-.6.4-.7c.2-.4.5-.9.7-1.4.2-.5.3-1 .4-1.5 0-.3.1-.6.1-.8.2-.1.2-.4.2-.6zm-12.3 7c.4-.2 1-.4 1.2-.9l-.3.2c-.1.1-.3.2-.4.2l-.9.4c-.6.2-1.1.6-1.6.9-1.1.6-2.1 1.3-3 2.1-.8.8-1.6 1.7-2.1 2.8-.4.9-.6 2-.7 3-.1 1.1 0 2.2.5 3.3.2.5.6 1 .9 1.4l.6.6.1.1.1.1h.1c.1.1.3.2.2 0 0-.3-.2-.5-.3-.8-.1-.3-.3-.5-.4-.7-.3-.5-.5-1-.7-1.5-.2-.6-.4-1.2-.5-1.7-.1-.3-.1-.7-.1-1.1 0-.4.1-.7.2-1.1.2-.7.3-1.4.6-2 .3-.6.7-1.1 1.1-1.5.8-.9 1.8-1.7 2.8-2.4.4-.3.9-.6 1.3-.8l.7-.4c-.1.1.6-.2.6-.2zm-7.2 14c0-.1.1-.7 0-.8-.1 1.2-.2 2.4-.2 3.6l.1 3.6c0 .6 0 1.2.2 1.7.1.3.2.6.3.8l.2.3.1.1h.1c0-.1 0-.3-.1-.4 0-.1 0-.3-.1-.4l-.1-.8c-.1-.3-.1-.6-.2-.8-.1-.3-.2-.6-.2-.8-.1-1.2-.2-2.4-.2-3.6v-2c.1-.1.1-.3.1-.5zm9.5-1.4v-.5c0-.2 0-.4-.2-.5-.1.1 0 .3 0 .4v1.4c0 .6-.1 1.3-.2 1.9l-.5 3.6c-.2 1.1-.5 2.2-1 3.3-.2.5-.4 1-.6 1.6l-.3.8-.1.4-.1.2v.2c0 .1 0 .1.1.1l.2-.1.3-.3c.2-.2.3-.5.4-.8.3-.5.4-1.1.6-1.7l.2-.9c0-.3.1-.6.2-.8.2-.6.3-1.1.3-1.7.1-.6.2-1.1.2-1.7l.2-1.9.2-1.5v-.8c.1-.3.2-.6.1-.7zm6.8 1.6c-.1-.1-.4-.6-.5-.6.3.5.6 1 .9 1.4l.8 1.4c.6 1.1 1.2 2.2 1.6 3.4.2.6.3 1.1.4 1.7l.3 1.4.1.3c.1 0 .1-.2.1-.3.1-.3.1-.5.1-.8 0-.6-.1-1.1-.4-1.7l-.3-.9-.3-.9-.9-1.8-.8-1.4c-.5-.2-.8-.7-1.1-1.2zm-16.4-15.2v-.2c0-.1-.1-.2-.1-.1-.1.1 0 .3 0 .5.1.3.1.6.3.9.2.3.4.5.7.7.2.2.5.4.8.4.3 0 .6-.2.7-.6v-.2c0-.1-.1-.1-.2-.1s-.1 0-.2.1l-.1.1c-.1.1-.2.1-.2.2-.1.1-.2.2-.3.1-.2-.1-.5-.3-.6-.4-.2-.2-.4-.4-.5-.7-.1-.1-.1-.2-.2-.4-.1-.1-.1-.2-.1-.3zm2-16.1v-1.2c-.1.1-.1.3-.1.4v1.3c0 .5-.1 1-.2 1.5-.2 1-.4 2-.5 3-.2 1.3-.4 2.6-.6 3.8-.2 1.3-.3 2.6-.1 3.8l.2 1.2.2.6.1.3v.1s0 .1.1.1v-2.6c0-.3-.1-.6-.1-1 0-.3 0-.6-.1-.9v-1l.2-1.9c.1-1.2.3-2.4.5-3.5.1-.5.2-1 .2-1.5.1-.5.2-1 .2-1.5v-.5c.1-.2.1-.4 0-.5zm4 1.4l.1-.2.1-.1c-.2 0-.3.1-.3.3-.1.3-.2.6-.2.8 0 .6.2 1.1.5 1.6.2.5.5 1 .9 1.4.1.1.2.2.3.2 0 0 .1.1.2.1s.2 0 .2-.1c.1-.2-.2-.5-.3-.7l-.3-.3-.3-.3-.2-.3c-.1-.1-.2-.2-.2-.3-.3-.4-.5-.9-.5-1.5-.1-.1 0-.3 0-.6zm.1-.1c-.1 0-.2.1-.2.2.1 0 .3-.1.4-.2l.4-.2c.3-.1.6-.2.9-.2h1.6c.1 0 .1 0 .2-.1 0-.1-.2-.1-.2-.1h-.6c-.2-.1-.3 0-.4 0h-.5c-.6.1-1.1.3-1.6.6zm3.1 1.1c0-.1 0-.1-.1-.1-.1-.1-.1.1-.1.2s.1.2 0 .3c0 .2 0 .5-.1.7-.1.2-.2.4-.2.7 0 .1 0 .1.1.2.1 0 .1 0 .2-.1s.2-.2.2-.3v-.2l.1-.2v-.4c0-.1 0-.3-.1-.4.1-.2.1-.3 0-.4zm.5.2c0-.1 0-.1.1-.2v-.1c0-.1-.1 0-.1 0-.1.1-.1.3-.1.4-.1.3-.1.6 0 .8l.1.8v.8l-.1.8c0 .2.2.1.3 0 .1-.1.2-.3.2-.4v-.9c0-.3-.1-.5-.2-.8l-.1-.6c-.2-.2-.1-.4-.1-.6zm-2.8 3.5c.1 0 .1 0 .1-.1h-.2l-.3.3c-.1.3 0 .6.2.8.1.1.3.2.4.2h.2c.1 0 .1 0 .2-.1 0-.2-.1-.2-.2-.3-.1-.1-.3 0-.3 0-.1-.1-.3-.2-.3-.3 0-.2.1-.4.2-.5zm2.2 1.6c.1-.2.1-.3.1-.5l.1-.5-.6 1.5c-.2.5-.4 1-.7 1.4l-1.5 2.9c-.6 1-1.2 1.9-2 2.8-.4.4-.7.8-1.1 1.3l-.5.6c0 .1-.1.1-.1.1l-.1.1v.2c.1 0 .1 0 .2-.1.5-.3 1-.6 1.4-1l.6-.7.5-.7 1-1.5c.3-.5.6-1 .8-1.5.5-1 1-1.9 1.5-3l.3-.8.1-.6zm-2-1.4c.1-.1.4-.5.4-.6-.4.4-.7.7-1 1.2-.4.5-.8.9-1.2 1.3l-1.5 1.4c-.5.5-1.1.9-1.5 1.5-.2.3-.4.6-.5.9l-.2.5v.2c0 .1 0 .1.1.2 0 .1.1.1.2 0s.1-.1.1-.2c.1-.1.2-.2.3-.4l.5-.8.5-.9c.2-.3.5-.5.7-.7l1.5-1.5c.4-.4.7-.8 1-1.2l.4-.5c0-.1.1-.3.2-.4zm11.2 9.8c0-.1.3-.8.2-.9l-.5 1.5-.5 1.5c-.3 1-.6 2.1-1 3.1s-.9 2-1.4 2.9l-.6 1.3c-.1.2-.2.4-.3.7l-.1.3-.1.3c.2-.1.4-.4.5-.6.2-.2.4-.4.5-.7.3-.4.5-1 .7-1.5.1-.3.1-.5.3-.8l.3-.7c.2-.5.4-1 .5-1.5.4-1 .7-2.1.9-3.2.1-.3.2-.6.3-1l.1-.5c.1.1.2-.1.2-.2zm.2-.5l.1-.5c0-.1.2-.4.1-.5-.6.9-.5 2.1-.4 3.2l.4 3.3v1.8c0 .6-.1 1.2-.2 1.8-.1.5-.2 1.1-.2 1.6v1.5c.1-.2.2-.5.3-.8l.3-.8c.1-.6.2-1.2.2-1.8v-.9c0-.3.1-.6 0-.9l-.1-1.8-.5-3.3v-1.9zm-.9 15.2c0-.1.2-.3.1-.3-.2.5-.6.8-1 1l-.8.3c-.3.1-.6.1-.9.1-.3 0-.6 0-.8.1-.1 0-.3 0-.3.2 0 .1.2.2.3.2.3.1.6 0 .9-.1l.9-.2c.4-.1.7-.3 1-.5.1-.2.4-.5.6-.8zm-3.9-.7s0-.1-.1-.1c0-.1-.1-.1-.1 0s.1.3.2.4c.2.2.4.4.7.6l.7.5c.2.2.4.4.7.5l.3.1c.2 0 .1-.2 0-.3-.2-.2-.4-.3-.7-.4-.1 0-.2-.1-.3-.2l-.4-.2c-.3-.1-.5-.3-.8-.5 0-.2-.1-.3-.2-.4zm-.3-3.2c-.1 0-.3 0-.3.1.3.1.5 0 .8-.1l.8-.2c.3 0 .5-.1.8-.2l.7-.1c.2 0 .5 0 .8-.1.1 0 .2-.1.4-.1 0 0 .1 0 .2-.1v-.2c-.2-.1-.6-.1-.8 0-.2.1-.5.2-.7.2-.4 0-.8.2-1.2.3-.4.3-.7.3-.9.4-.2.1-.4.1-.6.1zm2.4 1.4c0-.1 0-.1-.1-.1-.1-.1-.1.1 0 .2l.1.3.1.8c0 .3-.2.5-.2.7 0 .1 0 .1.1.2s.2.1.3.1c.1 0 .2-.2.2-.3l-.1-.5c0-.2 0-.3-.1-.5 0-.2-.1-.3-.2-.4 0-.2 0-.4-.1-.5zm-12-8.5l-.6-.2.3.1s-.3-.2-.3-.1l.2.2c.3.1.5.2.7.4.5.3.9.7 1.3 1.1l1.2 1.3c.4.4.8.8 1.2 1.3.8.9 1.5 1.8 2 2.8l.7 1.4c.1.2.2.5.2.7 0 .1.1.2.1.4v.3h.1s0 .1.1.2c.1 0 .1-.1.1-.1.1-.1.1-.3.1-.4v-.9c-.1-.6-.4-1.1-.7-1.6l-.5-.7c-.2-.2-.4-.5-.5-.7-.4-.5-.8-.9-1.2-1.3l-2.4-2.6c-.3-.3-.6-.6-1-.8l-.5-.4c-.3-.2-.5-.4-.6-.4zm5.9 9.8c0 .1-.3.4-.2.5.2-.5.7-.9 1.2-1.1l1.5-.6c.5-.2 1-.4 1.5-.5l1.5-.2c.1 0 .3 0 .4-.1.1 0 .3 0 .3-.1 0 0 .1 0 0-.1 0 0 0-.1-.1-.1l-.2-.1-.4-.1c-.3 0-.6 0-.8.1l-.8.3-.8.2-.8.3-1.5.7-.8.9zm1.8-35.5l-.1-.2s0-.2-.1-.1 0 .3.1.4c.2.2.5.4.7.5.6.2 1.2.1 1.8-.1.5-.2 1.1-.5 1.4-1 .1-.1.2-.2.2-.3 0-.1-.1-.2-.2-.2-.2.1-.4.3-.6.5-.2.2-.3.5-.6.6-.3.2-.6.3-.9.4-.5.1-1.2.2-1.7-.2.1-.2 0-.3 0-.3zm2.5.5v-.2c0-.1-.1-.1-.1 0l-.1.4c-.1.3-.2.5-.2.8 0 .3 0 .6-.1.9 0 .3 0 .6.1.8l.1.2c.1.1.1.1.2.1.2 0 .2-.2.2-.4s-.1-.3-.1-.4c-.1-.1-.1-.2-.1-.4v-.8c0-.3 0-.6.1-.8v-.2zm-1.4 3.4c-.1 0-.1 0-.2-.1h-.1l.4.2.8.5c.3.1.6.3.9.3.3.1.7.1.9-.1.1-.1.2-.2.3-.4l.1-.2c0-.1 0-.1.1-.2s.2-.2.1-.3c-.1-.1-.3-.1-.4 0-.3.1-.4.4-.5.7 0 .3-.1.3-.2.3h-.4c-.3 0-.6-.2-.9-.3l-.4-.2c-.2 0-.3-.1-.5-.2zm-3.1 1.4v-.4l.1-.2.1-.1c-.6.2-.4 1-.1 1.5.3.5.7 1.1 1.2 1.5.5.4 1 .7 1.5 1 .5.3 1.1.7 1.5 1.1.5.4.9.9 1.2 1.4.3.5.5 1 .7 1.5l.1.4c0 .1 0 .1.1.2v.1l.1.1s.1.1.1 0v-.6c-.1-.7-.2-1.3-.6-1.8-.2-.3-.4-.5-.7-.7l-.7-.7c-.5-.4-1-.8-1.6-1.1-.5-.3-1.1-.6-1.6-1s-.9-.9-1.2-1.4c-.1-.3-.1-.6-.2-.8zm10.8 2.8l-.1-.3s-.1-.1-.1 0v.2c.1.2.1.5.1.8.1.5 0 1.1-.2 1.6s-.5.9-.9 1.3c-.4.3-.8.7-1.1 1.1-.1.1-.1.1 0 .2 0 .1 0 .1.1.1s.3 0 .4-.1c.2-.1.4-.3.6-.5l.5-.7.5-.6c.2-.5.4-1 .4-1.5v-.7c-.1-.4-.1-.7-.2-.9zm-6 6.4c-.1 0-.4.2-.3.3.5-.4 1-.5 1.6-.4.6 0 1.2 0 1.7.2l.8.3c.2.1.5.3.7.5l.2.3c.1 0 .1.1.2 0 .1 0 .1-.1.1-.2 0-.3-.2-.5-.4-.7-.2-.2-.5-.3-.8-.3-.1 0-.3 0-.4-.1-.1 0-.2-.1-.4-.1-.6-.1-1.2-.1-1.8-.1-.3 0-.8.1-1.2.3zm.4-12.9v-.2c-.2.1.1.6.1.7.1.2.3.4.6.6.2.2.4.4.7.5.1.1.2.1.4.1.1 0 .4.1.3-.1 0-.1-.2-.1-.3-.2-.1-.1-.2-.1-.3-.1-.1 0-.2 0-.3-.1l-.3-.2c-.5-.1-.9-.5-.9-1zm-4.6 4c-.1-.1-.1 0 0 0-.1.1 0 .1 0 .1.1.1.2.2.2.3.1.1 0 .2 0 .4 0 .1.1.2.2.2s.1 0 .2-.1c0-.1.1-.1 0-.2l-.1-.2v-.1c-.1-.2-.3-.3-.5-.4zm5 19.8c-.1 0 0 .1 0 0 .1.2.1.2.2.2.1.1.2.2.4.2.1 0 0-.1 0-.2h-.2c-.1 0-.3-.1-.4-.2zm.8-.4c.1.1.1 0 .1-.1l-.2-.2c-.3-.1-.3.2-.2.4-.1.1-.4.2-.4.4s.1.2.2.3c.1.1.2.1.4 0 .1 0 .1 0 .1-.1s0-.1-.1-.2v-.5l-.1-.1.2.1z" fill="#9F9F9F"/></svg>