<svg xmlns="http://www.w3.org/2000/svg" viewBox="0 0 414 401" baseProfile="tiny"><g fill="#9F9F9F"><path d="M188.7 64.4l.1-1.1h-.6c-.2.9-.2 1.8-.2 2.7l-.2 5.5c-.1 3.5-1 7.4-.5 10.8.2.8 0 2.1 1.3 2 1.1-.1 1.3-1.3 1.4-2.2.3-1.9-.6-3.4-.6-5.2-.1-3.6-.8-7.2-.7-10.8v-1.7zM138.2 177.2c-.2-2.2-.4-4.6-1.1-6.7-.6 3.4.2 7.3.3 10.8.2 3.9.4 7.8.5 11.7.2 6.7.2 13.5-.2 20.2-.2 6.6-1 13.2-2 19.8-.6 3.8-1.3 7.5-2.2 11.2-.7 3.4-1.2 6.7-2.1 10.1-.2 1-.6 2-.9 3.1-.3 1-.2 1.7.1 2.7 2.9-1.8 3.9-5.5 5.1-8.5 1.4-3.6 2-7.2 2.4-11.1.4-3.5.2-7 .6-10.4.4-3.2.6-6.4.7-9.6.5-14.1.1-28.4-1.3-42.3v-1zM184.2 169.8c-.5.9-.8 1.9-.7 3 1.5-6.9 9.8-9.8 16.2-9.6 4.2.1 6.4 2.9 7.4 6.7l.6 2.5c.2 1 .1 2.2.4 3.2.8 2.3 2.2-.3 2.2-1.6.2-2.9-.2-5.5-2-7.9-2.3-3-4.9-4.7-8.8-4.5-5.1.2-12.9 3-15.3 8.2zM176.4 172.1c.6-.9 1.5-1.4 2.5-1.8-3.8.2-4.7 5.6-4.8 8.5-.2 3.5.1 7.1.3 10.6s0 7.1-.2 10.5c-.2 1.8-.4 3.5-.3 5.3.1 1.7-.3 3.8.7 5.1 1.4-.8 1.5-3.1 1.9-4.5.4-1.7.5-3.2.4-4.9-.1-1.6-.6-3.1-.5-4.7.1-1.7 0-3.3-.2-4.9l-1.3-9.8c-.2-3-.4-6.8 1.5-9.4zM173.8 200.9c.6-2.7 1.1-5.4 1.4-8.1-2.1 6.4-3.4 13.3-5.2 19.8-2 7.1-4 14.1-5.9 21.1-3.8 13.7-7.5 27.9-8.4 42.2-.2 4.2-.2 8.4.3 12.5.3 2.1.6 4.2 1.2 6.3.2 1 .6 2.1.9 3.1s1 1.5 1.8 2.2c.8-3.3.2-6.5-.1-9.8l-.5-9.7c-.3-6.7-.4-13.4.8-20.1 2.7-14.2 5.9-28.2 9.4-42.3 1.6-5.7 3.1-11.4 4.3-17.2zM214.4 198.2c-.2-1.2-.1-2.5-.4-3.7-.6 1.3-.2 3.5-.2 4.9.1 1.8.4 3.5.7 5.3.6 3.5 1.2 6.9 1.1 10.4s-.9 6.9-2.2 10.2l-4.6 9.8c-.3.8-.6 1.7-1 2.5-.2.6-1 1.8-1 2.5.2 2.9 3-.1 3.5-1 2-3.1 3.4-6.1 4.2-9.9.7-3.5 2.1-6.7 2.4-10.4s-.1-7.3-.9-10.8c-.4-3-1.2-6.3-1.6-9.8zM224.4 121.6c-2.2-1.3-2.6-3.6-2.2-5.9-3.5 8.9 11.3 8.8 16.4 8.9 6.8.2 14.5-.5 21.1 1.9 7.4 2.7 9.6 10.2 9.7 17.4.2 6.7-1 13.4-1.8 20-.2 1-.2 2-.4 3.1-.2 1 .4 1.6 1 2.6 2.7-2.6 3.1-6.7 3.8-10.3.6-3.3.9-6.6.8-10-.1-3.2-.8-6.3-1.2-9.6-.6-4.2-2-8-5-11.1-5.2-5.5-13.9-5.3-21-5.2-3.5.1-7 .2-10.4.2-3.6 0-7.7-.1-10.8-2zM265.5 180.2c.5-1.9.8-3.9.6-5.9-1.1 6.8-3.9 12.7-6.3 19.1-2.5 6.5-3.9 13.5-5.8 20.2-1.8 6.1-4 12.2-6.5 18-1.2 2.8-2.7 5.5-3.9 8.4-.6 1.4-1.4 2.9-2.2 4.3-.3.6-.8 1.3-1.1 2-.4.8-.3 1.3-.2 2.2 3.1-1.4 4.8-5.2 6.3-8 1.7-3 2.9-6.3 3.9-9.6 2-6.7 4.3-13.4 5.9-20.2 1.4-5.3 2.3-10.8 4.1-16 1.7-4.9 4-9.5 5.2-14.5zM243.4 231.3l-.1-1.2c-.7.6-.4 2.6-.4 3.4-.1 1.4-.1 3-.3 4.4s-.6 2.7-1.2 3.9c-.4 1-1.4 2.6-.7 3.4.9 1 2.1-1.2 2.2-1.8l.4-3.6c.5-2.8.1-5.7.1-8.5zM239.8 167.4c1.1-1.8 2.4-3.5 3.5-5.2-2.7 2.2-4.6 5.8-6.4 8.6-1.9 3.1-3.6 6.2-5.1 9.5-3.1 6.7-5.4 13.7-7.5 20.6-1.9 6.5-3.9 12.9-5.5 19.4-1.7 6.4-3.5 13.2-3.3 19.8 3.3-6.3 5.2-13.2 6.2-20.2 1-7.1 3.1-14.1 5-21 2.9-11 6.9-21.7 13.1-31.5zM235.8 253.5c1-1.4 2.2-3 2.5-4.7-1.4 1-2.5 3.2-3.5 4.7-1 1.4-2.2 2.8-3.3 4.2-2.4 2.8-5 5.5-7.6 8.1-5.1 5.5-10.6 10.6-16.3 15.4-3.1 2.7-6.3 5.3-9.5 8-1.7 1.4-3.2 2.9-4.7 4.4-.9.9-1.8 1.8-2.7 2.8-1 1.1-1.1 1.4-1.2 2.9 3.5 0 7.5-3.5 9.9-5.9 1.3-1.3 2.7-2.6 3.9-3.9 1.1-1.3 2.2-2.9 3.4-4 5.5-4.7 10.4-9.7 15.3-14.9 4.8-5.5 9.9-11 13.8-17.1zM170 289.2c.8-.2 1.8-.1 2.6-.5-1.1-1.1-4.3.3-5.5.8-1.8.8-3.5 1.8-5.1 3-2.7 2.1-5.1 4.7-7.2 7.2s-4.3 5.3-5.2 8.4c-.3 1-.6 2-.8 3.1-.2.8.4 1.8 1 .8 1-1.4 1.9-3.1 2.7-4.6 1-1.8 1.4-3.9 2.7-5.5s2.4-3.3 3.7-4.9c2.9-3.4 6.5-6.8 11.1-7.8zM112.6 161.1c.3-2.7.5-5.6 1.4-8.1-1.5 3.1-1.7 7.2-2.2 10.4-.6 3.7-1 7.4-1.4 11.1-.8 6.8-1.4 13.7-2 20.5-.6 7.6-1.7 15.3-2.3 23-.6 7.2-.6 14.5-.6 21.6 0 3.9 0 7.6.3 11.5.3 3.7.2 7.8 1.7 11.2 1-3.2 1.1-6.7 1.4-10 .2-3.6.2-7.2-.1-10.8-.4-6.9-1.1-13.7-.8-20.6.6-14.6 1.8-29.3 2.9-44 .5-5.2 1-10.5 1.7-15.8zM250.5 328.5c-.4 1.5-.7 3.4-.2 4.9 0-3.5.6-7.1 3.6-9.4s6.6-3.9 10.4-3.5c8.1.6 13.5 7.8 19.8 12.1 2.7 1.9 5.5 3.9 8.7 5.2 2.7 1 7.1 1.8 9.6 0-1.6-.2-3.3-.3-4.9-.9-1.7-.6-3.2-1.4-4.8-2.1-3.5-1.4-7-3.2-10-5.2-3.1-2.1-5.8-4.9-9-6.8-3.7-2.2-8-3.7-12.3-3-4.7.6-9.6 4-10.9 8.7zM291.5 332c-1.5-.4-2.9-1-4.2-1.8 4.7 4.9 14.4 2.9 19.9.9 3.9-1.4 7.8-4.1 12.1-4.3 3.5-.2 7 1.9 9.6 4.1 2.1 1.8 3.6 3.9 5.4 5.9s3.4 5 5.8 6.1c.4-3.1-1.7-6.3-3.5-8.8-1.9-2.6-5.1-4.4-7.9-5.9-3.5-1.8-6.9-3.5-11-2.5-4.3 1-8 3.7-12.1 5.1-4.5 1.4-9.4 2.3-14.1 1.2zM188.7 365.3c-2.6.4-5.1.8-7.6 1.5 16.2-2.8 32.9-1.2 49-4.6 8.6-1.8 16.8-5.1 25.3-7 7.3-1.6 14.5-1 21.9-.7 1.6.1 3 0 4.6-.3-7.1-1.4-14-3.8-21.3-2.6-4.3.7-8.2 2.3-12.2 3.5-4.2 1.3-8.4 2.7-12.5 4.1-15.3 4.9-31.4 3.7-47.2 6.1zM279.3 356.1c-1.4 0-2.8-.2-4.1.1 1.5.6 3.5.5 5.2.6 2.1.2 4.2.3 6.3.4 4.2.2 8.4.2 12.5-.2 7.6-.8 15.9-3.4 22.3-7.6 1.8-1.2 4.6-2.7 5.6-4.6-1.8-.4-3.8.8-5.3 1.4-1.8.7-3.4 1.6-5.1 2.7l-4.7 3.1c-1.4.9-3.2 1.3-4.8 1.8-7.6 2.7-16 2.9-24 2.6-1.3-.2-2.5-.3-3.9-.3zM319.7 349.7c-.6-.1-1.4-.2-1.9.1.6.8 3.1.7 4.2.9 1.6.3 3.1.8 4.7 1.4 3.1 1.1 5.9 2.7 8.6 4.5 1.4.9 2.5 1.6 4 2.2 1 .4 1.1.6 2-.1.7-.6-.2-1.6-.5-2.1-1-1.1-2.4-1.8-3.9-2.2-.7-.2-1.6-.2-2.2-.6s-1.3-.7-2-1c-4.2-1.7-8.7-2.6-13-3.1zM343.9 347.7l-.2-1-.5 1.2c-.3 1.2-1 2.3-1.8 3.3-.9 1-1.8 1.8-3.1 2.6-.9.5-3 1.2-3.4 2.2-.6 1.6 1.7 1.1 2.4.7 1-.6 1.7-1.7 2.5-2.4 2-1.7 3.6-4.2 4.1-6.6zM113.3 304.4c.8-1 4.6-4.3 4.3-5.4-10.8 9.2-18.6 21.7-15.9 36.2 1.3 7.2 5.7 13 10.4 18.4 4.7 5.3 11.2 10.9 18.4 12.6 2 .5 4.2.7 6.3.8 1 .1 2 .1 3 0 1.1-.1 1.6-.3 2.7-.8-1.4-.9-3.2-1.1-4.7-1.7-1.6-.6-3.1-1.4-4.7-2.2l-9.4-4.6s-6-3.5-8.4-5.9c-2.3-2.3-4.6-4.8-6.6-7.5-8.6-11.2-6-27.9 3.2-38 .3-.5.9-1.2 1.4-1.9zM146 388c-1-.2-2.2-.7-3.2-.6 1 1 3.2 1.3 4.5 1.6 1.6.5 3.2.9 4.9 1.1 3.2.6 6.6.8 9.8.3 6.4-.9 13.3-3.5 18.5-7.5.4-.3 4.2-3 2.7-3.4s-3 .7-4.3 1.4c-1.4.7-2.7 1.5-3.9 2.4-1.2.8-2.3 2-3.6 2.6-6.3 2.8-12.5 4.2-19.5 3.2-2.1-.1-4-.6-5.9-1.1zM151.8 378.1l-.9-.9c-.6.6-.2 1 .1 1.6.6 1.5 1.4 3.1 2.1 4.7.6 1.5 1 2.9 1 4.6.1 1-.2 3.3.6 4.1l2.4-.2c.6-.6.6-1.3.7-2.1.2-1.4-1.5-2.2-1.8-3.5-.5-2.9-3-5.6-4.2-8.3zM149.6 347.4c.2-1.3.4-2.7.2-3.9-.4 1.4-.4 3.1-.6 4.5-.3 1.7-.7 3.5-1.2 5.1-1 3.5-2.2 7-3.3 10.4-2.2 6.5-4.9 13.4-4.9 20.4 0 3.3 1.2 9.2 5 10.2.2-1.7-.7-3.4-1-5l-.9-5.4c-.2-1.5-.5-3.1-.4-4.7.1-1.5.6-3.1.9-4.5 1.2-7.2 3.6-14.1 5.1-21.1.4-1.9.9-3.9 1.1-6zM173.3 358.8c-.5-.5-1.1-1.4-1.8-1.4 0 .8 1 1.5 1.4 2.1.7.8 1.4 1.8 1.9 2.7 1.1 1.8 1.9 3.9 2.6 5.9 1.1 3.8.7 7.1-.2 10.8-.4 1.8-.4 3.4-.2 5.2 0 .2.2 2.3 1 1.7.7-.6.9-1.4 1.1-2.2.5-1.6 1.2-3.1 1-4.7-.2-1.8.1-3.5 0-5.2-.1-5.2-3.2-11-6.8-14.9zM187.8 310.6c-.1-.7-.2-1.4-.5-2.2 0 1.6.4 3.1.3 4.8-.1 1.8-.4 3.7-.9 5.5-1 3.7-2.7 7.1-4.7 10.3-1 1.5-1.8 3-2.7 4.6-.2.6-1.2 1.7-.2 2.2.8.5 1.8-.8 2.2-1.3 1.2-1.4 1.9-2.8 2.5-4.6.6-1.6 1.3-3.1 1.8-4.7 1.7-4.6 2.7-9.7 2.2-14.6zM217.2 231.2c.9-1.8 1.8-3.5 2.6-5.3-2.6 2.9-4.3 7.2-6.1 10.4-1.6 2.9-3.2 5.8-4.9 8.6-3.5 6-7.2 12.1-11.3 17.7-3.5 4.7-7.4 9.3-11.5 13.6-1.9 2-3.9 3.9-5.7 5.9s-4.3 3.9-5.5 6.3c6.3-1.8 11.7-8 15.3-13.2 4.3-5.9 8.6-11.4 12.5-17.5 5.1-8.5 10-17.5 14.6-26.5zM138.5 213.7c-.2-1.3-.1-2.6-.2-3.9-2 2.5.2 7.5 1.4 9.9 1.6 3.1 3.5 6.1 5.1 9.3 1.8 3.6 3.8 7.2 5.4 10.8 1.5 3.5 2.6 7.1 3.9 10.5.8 1.9 1.9 3.6 2.7 5.6.3 1 1.6.6 1.8-.2.3-.8.2-1.8.2-2.6-.1-2.2-.3-4.2-1.2-6.2-.9-1.8-1.8-3.3-3-4.9-1.1-1.5-1.6-3.2-2.6-4.8-1-1.8-2.2-3.5-3.2-5.2-2-3.3-4-6.7-6.2-9.9-1.8-2.4-3.4-5.2-4.1-8.4zM243.1 248.9c-.4-1.1-.6-2.2-.5-3.5.2-1 1-2.2.9-3-4.9 6 2.2 13.3 6 17.7 5.4 6.2 11.6 12.5 15 20.1 3.2 7.2 3.1 15 2.3 22.6-.3 3.9-1.3 7.5-2.7 11.1-.6 1.8-1.3 3.6-2 5.4-.5 1.3-2 3.3-1.8 4.7v.9c1.6-.3 3.1-2.1 4.2-3.1 1.2-1.1 2.2-2.3 3.1-3.7 2.4-3.5 3.1-7.8 3.2-12.1.1-3.7-.5-7.4-.6-11.1-.2-3.5-.5-6.8-1.5-10.2-2.3-7.5-7.2-13.8-12.5-19.5-4.4-5-10.3-9.8-13.1-16.3zM190.5 319.1c-1.6-.1-3.4-.2-5 .1 1.6.6 3.7.5 5.5.6 2 .2 3.9.6 5.9 1 3.3.8 6.4 2.2 9.4 3.9 5.6 3.1 11 6.9 17.1 9.2 4.1 1.5 8.4 2.3 12.8 2.5 3.9.2 8.9-.4 12.2-2.6-6.1-1.4-12.6-.6-18.8-.8-3-.1-6.1-1.4-8.8-2.5-3-1.2-5.9-2.8-8.7-4.3-7-3.8-13.6-6.7-21.6-7.1zM210.9 196.4c-.2-.5-.8-2-.9-.6-.1.7.6 1.6 1 2.1 1 1.4 2.7 2.3 4.3 3 3.1 1.1 7.6 2.4 10.7 1.1.8-.3 1.8-.6 1.4-1.8-.5-1-1.4-.9-2.2-.9-1.8 0-3.1 1.1-4.9.9-3.5-.5-7.5-.2-9.4-3.8zM153.8 190.5c-1.3-.2-.5.5.6.4s2.2-.4 3.2-.7c1.9-.6 4-1.2 5.5-2.5l-.6-1.4-1.2.2c-.6.2-1.4 1.3-2.1 1.7-1.6 1.2-3.4 2.2-5.4 2.3zM215.1 97.2l.2-1.9c-.6-.2-1 1.1-1.1 1.5-.4 1.7-.8 3.4-.9 5.1-.3 3.4.2 7.1.8 10.4.3 1.6 1 3.5 1.9 4.9.6.7 2.7 3.3 3.7 2.2.7-.8-.4-3.4-.9-4.1-.6-1-2-2.3-2.2-3.4-.9-5-2.6-9.5-1.5-14.7zM170.7 95.5c-.8-1.1-1.5-2.4-2.2-3.6 2.7 6.7 9.1 11.8 15.3 15 3.1 1.6 6.7 3.1 10.1 3.1 3.9-.1 7.4-2.2 10.3-4.4 5-3.9 9.6-9.6 12-15.5-5 5.4-9.1 12-14.9 16.5-6.2 4.7-13.6 1.9-19.6-1.6-4.4-2.4-8-5.6-11-9.5zM171.5 102.8c.1-2.4-1-4.4-1.4-6.7 1 3.5 2.3 6.7 1 10.3-1.3 3.4-4.2 6-7.1 8-6.1 4.2-13.3 6.8-20.6 8.1-6.7 1.2-14.6 1-20.5 5.1-6.2 4.3-8.8 11.6-11.2 18.4-1.1 3.1-2.2 6.3-3.1 9.5-1.7-.8.7-8.5 1.2-10.1 1.1-3.7 2.4-7.2 4.4-10.6 4-6.7 10.4-10.5 18-11.7 7.3-1 14.4-1.7 21.4-4.3 6.3-2.3 14.9-6 17.2-13 .5-1 .7-2 .7-3zM132.9 190.2c-.2-1.3.2-2.3 1.5-2.7-2.1-.9-2.3 2.4-2.1 3.6.3 1.8 1.1 3.5 2 5.2 1.8 3.5 4.2 6.8 7.6 9 3.5 2.3 7.8 3.8 11.9 4.5 2.2.4 4.6.6 6.9.6 2.2 0 4.1-.6 6.1-1.4.9-.3 2.2-.6 2.4-1.5.3-1.3-.2-1.6-1.4-1.8-1.8-.4-3.8-.1-5.6-.2-1.7-.1-3.9.7-5.5 1.1-2.1.5-3.6.2-5.7-.2-3.9-.7-7.6-1.8-10.7-4.4-2.7-2.3-5-5.5-6.4-8.8-.5-1.1-.8-2.1-1-3zM180.9 139.2c-.5-.2-2.3-.8-1.5.4l2 1c1.7 1 3.3 2.2 5.3 2.2 3.9.1 5.9-4.3 9.6-4.7 1.1-.2 3.9 0 3.8-1.6-.2-1.8-2.2-3-3.9-2.7-2.2.3-2.7 1.8-4.2 3-1.4 1-2.2 2.7-3.7 3.9-2.6 1.5-5.2-.6-7.4-1.5zM175.2 105.9c-.2-1-.2-2.1-.6-3-1.8 1.9 1.3 7.5 2.2 9.2 1.7 3.1 3.8 5.9 4.8 9.4 1 3.3 1 6.9.9 10.4-.1 1.8-.1 3.5 0 5.2.1 1-.2 5.1 1.8 3.4 1-.9 1.4-3.4 1.6-4.6.3-1.5.3-3.2-.1-4.7-.7-3.2-1-6.4-2.2-9.6-1.9-5.7-6.8-9.8-8.4-15.7zM199.7 299.1c0-.6.2-1.6-.3-2.2-1.2.6-.6 3.9-.4 5 .2 1.9.6 3.8 1 5.6 1 3.6 2.2 7.2 3.4 10.8.6 1.8 1.2 3.1 2.2 4.7.6 1 .6 1.3 1.9 1.3 1 0 1-1.6.9-2.2-.2-1.7-.7-3.3-1.8-4.7-.5-.6-1.3-1.2-1.6-2-.2-.8-.5-1.6-.9-2.3-1.9-4.7-4.1-8.9-4.4-14zM136.3 265.5c-.9-.6-1.9-1.5-3-1.7.7 1.2 2.7 2.1 3.8 3.1 1.4 1.3 2.7 2.7 3.9 4.1 2.4 3 4.3 6.4 6 9.8 1.8 3.6 3.2 7.4 4.9 11.1.8 1.8 1.6 3.6 2.8 5.1 1.1 1.4 2.2 3.3 3.9 3.5.4-1.5-.9-3.3-1.4-4.7-.6-1.7-1.4-3.1-2.4-4.6-1-1.4-2.2-2.7-2.9-4.3s-1.5-3.2-2.4-4.8c-3.4-5.9-7.4-12.4-13.2-16.6zM211.3 169.8c-.6-.6-1.4-1.4-2.3-1.3.2 1.2 2.9 2.9 3.7 3.9 1.2 1.6 2.2 3.5 2.9 5.4 1.4 3.5 2.3 7.2 3 10.9.6 3.5 1.2 6.5 2.8 9.7.4.8 1 1.8 2.2 1.2.7-.3 1.1-1.6 1-2.3-.2-1.6-.3-3.1-1-4.6-.8-1.8-2-3.4-2.5-5.4-.4-1.9-1.2-3.8-2-5.6-1.8-4.3-4.1-9-7.8-11.9zM142.2 329.7l-.9-1.8c-1.2-.9-.6 1.4-.4 2 .6 1.9 1.1 3.8 1.4 5.9.4 3.1 1.4 7.9-.7 10.6-1 1.3-2.6 2.1-3.9 2.8-1.6 1-2.8 2.1-4.2 3.4-.8.8-1.1.9-1 2 .2 1 1.2 1.2 2.1 1.3 1.8.2 3.8-.4 5.1-1.7.7-.7 1.4-1.5 1.9-2.3.7-1 1.5-1.8 2.3-2.7 1.6-1.8 1.8-4.7 1.6-7-.2-2.1-.6-4.1-1.2-6.1-.6-2.2-1.1-4.8-2.1-6.4zM107.6 268.8c-.2-1-.1-2.2-.3-3.3-.6 1.4-.2 3.9.1 5.3.3 2.1 1 4.1 1.8 5.9 1.5 3.6 3.9 6.7 6.8 9.2 2.7 2.4 5.5 4.6 8.1 7 1.3 1.2 2.5 2.4 3.9 3.4 1.2.9 3.1 2.5 4.7 2.3-1.1-2.6-4.1-4.8-6.3-6.5-2.5-1.9-5.2-3.6-7.8-5.5-6-4.3-10-10.2-11-17.8zM127.5 286c0-.9-.6-.5-.5.2.1 1 .4 1.9.9 2.8.5 1 1.8 3.4 3.2 2.8.7-.2.7-1.2.2-1.8l-1.4-.3c-1-.6-2.4-2.5-2.4-3.7zM138.4 293.3l.2-1.6c-1.2.6-1.5 3.2-1.8 4.3-.4 1.6-.8 3.2-1.2 4.7-1 3.7-2.1 7.9 2.7 9.3 2.8.9 1.7-1.7.2-2.8-1.5-1.2-2.3-1.3-2.1-3.5.3-3.2.9-6.7 1.8-9.8l.2-.6zM157.3 349.2h-.6l.7.7c.6.9 1.1 1.8 2.3 2 1.6.3 3.5-1.8 3.1-3.4-.5-1.9-3.2-.7-2.2 1.2.4.7-.6 1-1 1-1.2-.1-1.4-1.1-2.3-1.5zM148.7 341.9l.5-1c-2.3.7-2.3 5.9-1.4 7.6 1.4 2.7 5.1 2.5 6-.5.6-1.7-1.8-.7-2.4-.2s-1 1.3-1.8.7c-2.2-1.3-1.9-4.7-.9-6.6zM160.3 307.2c.2-.9.6-1.9.4-2.9-.9.9-1.2 3.1-1.5 4.3l-1.4 4.6c-1 3.1-2 6.2-3.1 9.2-1.1 3.1-2.5 6-3.6 9-.6 1.4-1.1 3-1.4 4.5-.2 1.4-.9 3.9-.3 5.1 1.9-1.9 2.9-5.4 3.7-7.9.5-1.5.5-3 1.1-4.5.6-1.4 1-2.7 1.4-4.2 1.7-5.6 3.5-11.4 4.7-17.2zM178.9 314.5c.2-.8.5-1.6.7-2.5-2.1 2.3-2.2 7-2.4 10-.3 3.5-.6 6.9-1.5 10.2l-3.7 9.9-.6 2.1c.6 1 1.4.5 1.9-.4 1-1.5 1.8-3 2.2-4.7.6-1.9.8-3.9 1.3-5.9s.7-4.2.9-6.3c.4-4.1.2-8.2 1.2-12.4zM173.1 24.4c.6-2.8 1.6-5.5 3.2-7.9-4.4 5.2-5.6 13.7-3.8 20.1 2.1 7.1 8.8 11.4 14.9 14.8 6 3.4 12.7 6 18.2 10.3 5.9 4.5 10.8 11.2 13.4 18.2 1.6 4.3 2 8.6 1.8 13.1-.1 2.2-.4 4.5-.9 6.7-.2 1.2-.6 2.3-.9 3.5-.4 1.4-.2 2.2-.2 3.5 3.4-2.4 4.8-6.9 5.5-10.8.8-4.3.7-8.4-.5-12.5-1.2-4-3.3-7.6-5.9-10.9-2.5-3.2-4.5-6.5-7.5-9.2-5.3-5-12-8-18.5-11.2-5.9-2.9-12.9-6.2-17-11.7-2.5-4.7-2.9-10.8-1.8-16zM171.2 34.4c.9-1.4 1.9-2.6 2.7-4-1.4 1-2.5 2.9-3.5 4.3-1.2 1.7-2.3 3.5-3.5 5.3-2.2 3.7-4.1 7.6-5.5 11.7-2.8 7.8-4.7 16.5-4.4 24.7.1 4.3 1.1 8 3.1 11.8.5.9.6 1.6 1.8 1.6.8 0 .5.2.9-.4l.2-1.4c-.1-1.8-.6-3.6-.9-5.4l-2.1-10.9c-.2-1.8.2-3.8.4-5.5.2-2.1.4-4.1.8-6.2 1.7-9.2 5-17.8 10-25.6zM170 21c-.2-3.9.3-7.9 1.9-11.4-3.5 6.3-2.7 14.5-.4 21.2 2.5 7.2 7.4 12.7 13.8 16.6 6.6 4 14 6.3 21.3 8.5 7.2 2.2 14.3 4.7 21.2 7.7s13.8 6.2 19.5 11.2c2.6 2.2 4.9 4.9 6.5 8 1.8 3.3 1.4 6.7.5 10.1-1 3.5-2.7 6.6-4.5 9.6l-3.1 4.8c-.9 1.4-1.4 2.8-2.2 4.3 6-5 12.5-12.3 13.7-20.3 1.4-8.7-4.9-15.3-11.6-19.8-12.8-8.5-27.5-12.9-42.1-17.4-7.2-2.2-14.5-4.5-20.9-8.8-6.3-4.3-10.8-10.3-12.8-17.7-.2-2.1-.7-4.3-.8-6.6zM170.2 10c2.3-1.4 4.8-2.5 7.4-3.2-14 2.7-24 15.4-28.6 28.2-5.1 14.1-3.4 31.1 3.2 44.4 1.7 3.5 3.9 6.5 6.5 9.3 2.4 2.7 5 5.4 8.2 7-2.2-2.6-4.6-5.2-6.4-8.2s-3.4-6.2-5-9.3c-1.6-3.2-3.1-6.5-4.4-9.9-1.3-3.3-1.6-7.1-2.1-10.6-1.9-14.1 1.7-27.9 10.8-38.9 2.8-3.4 6.4-6.4 10.4-8.8z"/></g></svg>