<svg baseProfile="tiny" xmlns="http://www.w3.org/2000/svg" viewBox="0 0 60 58.1"><g fill="#9F9F9F"><path d="M36.9 14.9l.6.2c-.7.1-1.4-.1-2.1-.3-.8-.2-1.6-.4-2.3-.5-.8-.2-1.7-.2-2.5.1-.8.3-1.4 1-2.2 1.1l.1-.5.3-.6c.2-.3.6-.6 1-.8.4-.2.8-.3 1.2-.2.4.1.6.2 1.1.2.8 0 1.8.4 2.6.6.7.1 1.5.4 2.2.7zM15 20.1l-.1.6c-.5-1.5 1.2-3.1 2.5-3.5.8-.3 1.6-.7 2.5-.8.9 0 1.7.6 1.6 1.5-.6-.4-1-.4-1.7-.4-.4 0-.7 0-1-.1-.4-.1-.5.1-.8.2-1.4.4-2.6 1-3 2.5zM21.6 17.9l-.3-.4c1.1.8 1.4 2.4 1.2 3.6-.1.6-.2 1.2-.3 1.9-.1.5-.3 1.1-.3 1.7-.4-.2-.3-1.2-.2-1.5.1-.5.4-1 .5-1.6.2-1.3.3-2.5-.6-3.7zM24.8 26.1l-.1.1c.2-.8 1.4-.7 2-.5.1.1.6.3.4.5 0 .1-.5-.1-.7-.1-.2 0-.8.2-.7-.1-.3.1-.6-.2-.9.1zM21.8 25.9l-.1-.1c.8.1 1 .8 1.1 1.5 0 .1.2.6 0 .6-.1 0-.3-.4-.3-.5-.1-.2-.8-.9-.3-.8-.2-.1-.1-.5-.4-.7zM21 25v-.2c.1.9-.3 1.9.5 2.6-.5.5-.7-.6-.7-.9.1-.5.2-1 .2-1.5zM27 24.5h-.2c.7-.2 1.7 1.5 1.4 2-.6-.5-.2-1.7-1.2-2zM21.9 25.7l-.2-.1c.5 0 .9.4 1.4.5.5 0 .8-.4 1.2-.6.1.6-.5.7-.8.8-.6 0-1.2-.4-1.6-.6zM23.5 31.1l-.2-.2c.6.2 1.1.6 1.7.2.5-.3.6-1.1 1.1-1.3 0 .2-.1 2.2-.7 1.7-.1-.1-.7.2-1 .1-.3.1-.7-.3-.9-.5zM26.1 31l-.2.2c.4-.8 1-.1 1.7.1.7.3 1.8.4 2.1 1.2-.3 0-.8 0-1.1-.1l-.5-.2c-.2-.1-.1-.3-.3-.3-.4-.1-.8-.4-1.1-.6-.2-.3-.4-.6-.6-.3zM24 31l.2-.1c-.4.8-1.8 1.7-.9 2.5-.7.2-1.1-.5-.7-1 .1-.1.2-.1.3-.3l.3-.4c.2-.2.5-.5.8-.7zM21.3 33.4v.3c-.5-.6 0-1.9.3-2.4.4-.9 1-1.8 1.9-2.1-.1.8-1 1.1-1.3 1.7-.5.8-1 1.5-.9 2.5zM23.5 29.4c-.1 0-.1 0-.2-.1.4-.1.8.1 1.2.1l1.2-.6c-.1 1-1.6.8-2.2.6zM25.5 29.1c-.1 0-.3 0-.4.1.5-.7 2.4.1 3 .4.9.5 2.3 1 2.3 2.2-.4-.2-.8-.5-1.1-.7-.4-.3-.6-.7-1-.9-.9-.6-1.7-1.2-2.8-1.1zM22 33.9c-.1.1-.2.3-.3.5.1-.8 1-1.1 1.7-1.2l2.2-.3c.8-.2 1.5-.4 2.3-.5.7-.1 1.6-.1 2.2-.4.1.8-1.1 1-1.7 1.1h-1l-1.1.1c-.8.1-1.5.2-2.3.2-.6 0-1.5 0-2 .5zM28.8 19.9l-.3.5c-.1-.8 1-1.5 1.6-1.8.7-.4 1.5-.6 2.2-.8 1.6-.3 3-.4 4.4.8-.7.2-1.2-.1-1.9-.2s-1.3-.3-2-.2c-1.5.2-3 .4-4 1.7zM29.3 20.3c-.2 0-.4 0-.5-.1 1.4-.2 2.8.2 4.1 0 1.3-.1 2.3-1 3.5-1.4.2.5-.9 1-1.3 1.2-.6.2-1.2.3-1.8.4-1.2.2-2.6 0-4-.1zM21.2 21.2h.4c-.9.5-2.3.1-3.3.2-1.2.2-1.6 1.1-2.3 2-.2-.6-.2-1 .1-1.6.4-.6.8-.6 1.4-.8 1.3-.1 2.5.2 3.7.2zM21.5 21.9l.3-.3c-.3 1-1.9 1.3-2.8 1.5-1 .2-2.1 1-3.1.5.6-.7 1.8-.7 2.6-.8 1.1-.1 2.2-.1 3-.9zM21.7 20.7c.1 0 .2.1.4.1-.9 0-1.7-.6-2.7-.6-.9 0-1.6.5-2.3 1-.2-.8 1.4-1.2 1.9-1.2.9-.1 1.8.4 2.7.7zM28.8 19.2c-.1.1-.1.2-.2.4.2-1 1.3-1.6 2.2-2.1.8-.5 1.6-.9 2.5-.9 0 .3-1.9.7-2.2.9-.8.4-1.8.9-2.3 1.7zM29 19v.5c-.4-1-.1-2.7.9-3.4 1.1-.7 2.5-1 3.6-.3-.2.3-1.2.1-1.6.1-.6 0-1 0-1.5.2-1.1.4-1.5 1.7-1.4 2.9zM15.5 21.1l-.1.3c-.3-.7.6-1.9 1.1-2.3.7-.6 1.6-.7 2.4-.4-.2.3-.6.3-.9.3-.2 0-.7-.1-.9 0-.8.5-1.3 1.3-1.6 2.1zM14.6 15.4c0-1.1-.1-2.3.2-3.4-.2 1.2-.1 2.5-.1 3.8 0 1.2.1 2.5.2 3.7.1 1.3.2 2.5.5 3.7.4 1.3.3 2.8.5 4.1.3 2.6 1.4 5.1 2.4 7.5 1 2.2 2.3 4.4 4.2 5.9 2.2 1.8 4.9 1.7 7.4.7 1.1-.5 2.2-1 3.2-1.7.9-.6 1.8-1.4 2.8-1.8-1.5 1.7-3.7 3.1-5.8 4-2.5 1.1-5.2.9-7.4-.7-2-1.5-3.3-3.7-4.4-5.9-1.1-2.3-2.1-4.9-2.5-7.4-.2-1.1-.2-2.3-.3-3.5l-.6-3c-.2-2-.3-4-.3-6zM31.9 18.3l.1-.3c-.1.8.3 1.6 1 1.9.8.4 1.4-.7 1.8-1.3.7 1-.5 1.8-1.4 1.8-.8-.1-1.7-1.3-1.5-2.1zM32.9 18.8c0-.1 0-.1.1-.2-.1.2.1.7.3.7.3.1.5-.4.5-.6-.2-.1-.8.2-.8-.1-.1-.5.9-.4 1.1-.1.3.6-1.1 1.6-1.2.3zM17.9 21.5v-.3c.1.6.2 1.4.9 1.5.9.2.8-.8 1.1-1.4.2.3.5.7.3 1.1 0 .2-.1.5-.3.5-.3.2-.3.1-.6.1-.5 0-.8.1-1.2-.4-.1-.2-.2-.7-.2-1.1zM18.9 21.4c-.1.2.2.4.4.5h-.1c0-.2-.3-.4-.3-.5 0-.2.2-.2.3 0 .1.1.2.6 0 .6-.1.1-.3-.4-.3-.6zM33.4 18.5l.2-.1c-.1 0-.5.3-.3.5.1.1.6-.3.4-.4v.5c-1-.4.2-1.3.3-.6.1.9-1.5.7-.6.1zM19 21.9v-.1l.1.3h-.1s-.1-.1-.1-.2h.2c.1.2.2.2.3.2.5 0-.2.4-.4.3-.5-.1-.6-1-.1-.9-.1.1-.1.2-.2.2.1-.2.4-.2.5.1 0 0-.3.6-.2.1zM36.1 18.3l-.1-.2c.5.7 2.2-.4 2.7-.6-.2.8-1.9 1.3-2.6.8zM36.1 18.7c-.1 0-.1 0-.2-.1.4 0 .8.1 1.2-.1.5-.1.8-.6 1.3-.6-.1 1.1-1.5 1-2.3.8zM35.7 18.2h-.2c.4-.1.7-.2 1-.4.3-.2.7-.8 1.2-.7-.3.9-1.1 1.1-2 1.1zM35 17.8l-.2-.1c.5 0 .9 0 1.3-.1l1.3-.9c-.1 1.1-1.5 1.4-2.4 1.1zM33.8 17.8h-.2c.5-.3 1.1-.2 1.6-.4.6-.2.9-.6 1.4-.9.2 1.2-2 1.2-2.8 1.3zM35.8 19.3c-.1.1-.1.1-.2.1.2-.6.9-.7 1.4-.7.6 0 1.2-.1 1.8 0-.4.5-.9.3-1.4.2-.5 0-1.2 0-1.6.4zM36 19.5s-.1 0-.1.1c.3-.4 1.8-.8 2.2-.6-.2.2-.7.6-.9.4-.2-.2-1.1 0-1.2.1zM16.1 22.6l.1-.1c-.2.6-2.2 1-2.2.1.3.1.6.1.9.1 0 0 .1.1.2.1h.4c.2 0 .4-.1.6-.2zM16 23.2l.1-.1c-.2 1.1-2.5.4-2.2-.6.6.4 1.4 1.4 2.1.7zM15.9 22.4l.1-.1c-.3.8-2.5.4-2.2-.5l.9.5s.1.1.2.1.2.1.4.1.4 0 .6-.1zM16.5 22.1h.2c-.6.3-2.4.4-2.4-.5.3.1.7.1.9.3l.5.2h.8zM16.6 21.7l.1-.1c-.1.3-.5.4-.8.5-.3.1-.8.4-1.1.3.2-.3.4-.5.8-.5.3-.1.7 0 1-.2zM16.3 23.3h.1c-.3.1-.6.1-.9.3-.3.2-.6.6-1 .6.2-.8 1.1-.9 1.8-.9zM17 23.3h.2l-.9.7-.7 1.1c-.4-1 .7-1.5 1.4-1.8zM16.7 21.6h.1c-.4.3-1.7.4-2 .1.3 0 .6-.1.8-.1.4-.1.8 0 1.1 0zM34.1 17.6c-.1 0-.1.1 0 0 0-.2 1-.4 1.2-.3-.3.6-.7.1-1.2.3zM23 29.8v-.2c.1.4.1.8.4 1.1.4.4.9.3 1.4.4-.3.5-.8.1-1.1 0-.4-.1-.7-.7-.7-1.3zM24.2 20.4v-.2c.2.3 0 .9 0 1.2 0 .5.1 1 .1 1.4-.6-.3-.1-1.8-.1-2.4zM28.5 43.8l-.6-.9c1.1.2 1.5 1.7 1.8 2.6.4 1 .8 2 1 3l.6 3.3c.2 1 .4 2.1.4 3.2 0 .9-.3 2.1-.8 2.9 0-.4-.2-.9-.2-1.4-.1-.5-.2-1.1-.2-1.6-.1-.5-.1-.9 0-1.4.1-.5.2-.9.2-1.4 0-.5-.2-.9-.2-1.3 0-.6-.1-1.1-.2-1.6-.2-1.1-.5-2.1-.8-3.2-.3-.8-.7-1.5-1-2.2zM23.6 35.6l-.3-.1.9-.1c.3-.1.7-.3 1.1-.3.4 0 .7 0 1.1-.2.2-.1.4-.3.6-.3l.3.1.4-.1c.3.2-1.8 2-1.9 1.4-.1-.3-.2-.1-.4-.1l-.7-.1c-.3 0-.8 0-1.1-.2zM17.5 10.4c-.9-.7-2.1-1.5-2.9-2.4 1.2.7 2.2 1.7 3.3 2.5 1.1.8 2.2 1.7 3.4 2.5 2.1 1.5 4.4 2.7 6.6 4 4.1 2.3 8 5 10.7 8.9 2.8 3.8 4.6 8.3 5.7 12.9.5 2.1 1 4.2 1.3 6.3 0 0 0-.1-.1-.1v.5c-.5-.8-.8-1.8-1.1-2.7-.4-1.3-.8-2.6-1.1-3.9-.7-2.5-1.3-5-2.2-7.4-1.6-4.1-4.5-7.9-7.9-10.5-2-1.5-4.1-2.7-6.3-4-2.3-1.3-4.5-2.8-6.7-4.4-.6-.4-1.1-.8-1.7-1.3-.2-.2-.4-.3-.7-.5 0-.2-.4-.5-.3-.4zM13.6 21.3c.4-2.3.8-4.5 1.4-6.8.5-2.3 1-4.7 1.9-6.9l.4-.9c-1 2.1-1.3 4.5-1.9 6.8-.5 2.2-1 4.5-1.4 6.7-.4 2.3-.7 4.7-1 7.1-.2 1.5-.4 2.9-.5 4.4l-.1 1.9c0 .5-.1 1.1.1 1.6h-.1c.3-1.1.2-2.3.2-3.4v-3.8c.1-2.5.3-5 .5-7.4.3-2.4.6-4.8 1.1-7.2.5-2.2 1.1-4.4 1.5-6.7l.3-1.5h.1c-1 2.5-1.3 5.3-1.6 7.9-.3 2.1-.6 4.3-.8 6.4-.6 5.2-.7 10.3-.3 15.5.2 2.6.5 5.3 1 7.9.3 1.4.6 2.8 1 4.1.4 1.2.8 2.8 1.6 3.8.2.3.4.6.7.8.1-.4-.3-1-.5-1.4l-.6-1.5c-.4-1-.8-2-1.1-3.1-.7-2.2-1.3-4.4-1.7-6.7-.9-4.7-1.2-9.6-1.2-14.4l.1-8.1c0-1.2 0-2.4-.1-3.6l-.1-1.5c0-.3-.1-1.5.2-1.7.2 5 .6 10 1.3 15 .7 4.9 1.6 9.8 2.7 14.7.5 2.3 1.1 4.6 1.9 6.8.8 2.6 1.6 5.3 2.8 7.8.5 1 .9 2 1.5 2.9-1.9-2.2-3.1-4.7-4.1-7.4-.8-2.3-1.6-4.6-2.3-7-1.3-4.8-2.4-9.7-3-14.7-.7-5-1.1-10-1-15.1l.1-3.1c.3.2 0 1.4 0 1.8 0 .6 0 1.1.1 1.7.1 1.4.1 2.7.1 4.1 0 2.9-.1 5.8 0 8.7.1 4.7.6 9.4 1.5 14 .5 2.2 1.1 4.4 1.8 6.6.4 1 .7 2 1.2 3 .1.4 1.4 2.6.4 2.5-.5 0-.9-.8-1.2-1.1-.4-.6-.7-1.3-.9-2-.5-1.2-.9-2.5-1.2-3.9-.6-2.6-1-5.4-1.3-8.1-.5-5.3-.5-10.7 0-16.1.2-2.2.5-4.3.8-6.4.4-2.6.7-5.2 1.5-7.7.1-.2.4-1.6.6-1.6 0 0-.2 1.2-.2 1.3-.2 1.2-.5 2.4-.8 3.6-.5 2.2-1 4.4-1.3 6.6-.8 5-1.1 10-1 15v1.9c0 .5 0 1.2-.2 1.7-.1.2-.2.2-.3.1-.2-.1-.1-.6-.1-.8 0-.6 0-1.2.1-1.8.2-2.7.5-5.5.9-8.2.2-.9.4-2 .5-3.1zM22.7 10.6c-1.7-1.1-3.5-2.2-5-3.6-1.3-1.2-2.3-2.7-3.6-3.8 1.8 1.5 3.1 3.4 5 4.8 2.3 1.6 4.7 3 7 4.7 4.2 3.1 7.8 7.1 11 11.2 1.6 2 3 4.1 4.3 6.3.6 1 1.2 2.1 1.8 3.2l.7 1.5c.1.2.6.9-.1.7-.6-.1-1.1-.6-1.5-1-.5-.4-1-.8-1.4-1.3-1-.9-1.8-1.9-2.6-3-1.4-1.9-2.7-3.8-4-5.8-2.5-3.8-4.9-7.7-7.2-11.5-1.4-2.3-2.8-4.7-4.3-6.9-.7-1.1-1.5-2.1-2.3-3.1l-1.1-1.5-.6-.8c-.1-.1-.4-.3-.4-.5 0-.6.7.1.9.3.4.5.8 1 1.3 1.4l2.4 2.7 5 5.7c3.6 4.2 7.1 8.4 10.2 13 3.2 4.7 6.2 9.7 8.5 15 1.1 2.5 2 5 2.6 7.6.6 2.5 1 5.2.5 7.8-.1.4-.2.8-.2 1.1.2-2.5-.2-5-.7-7.4-.5-2.6-1.4-5.1-2.4-7.5-2.2-5.2-5.1-10.2-8.1-14.9-2.9-4.6-6.2-9.1-9.7-13.2-1.6-1.9-3.3-3.8-4.9-5.8l-2.2-2.7c-.8-.9-1.5-2-2.4-2.8-.1-.1-.2-.2-.3-.2l.8 1.2 1 1.5c.8 1 1.6 2.1 2.4 3.2 1.5 2.3 2.9 4.6 4.3 6.9 2.3 3.9 4.7 7.8 7.2 11.5 1.3 2 2.6 3.9 4 5.8.8 1.1 1.6 2.1 2.6 3 .5.4 1 .8 1.4 1.3.4.4.9.8 1.4 1 .4.1 0-.4-.1-.6-.2-.5-.5-1-.7-1.4l-1.8-3.2c-1.3-2.2-2.8-4.2-4.3-6.3-3.1-4-6.7-8-10.8-11.1-1.3-1.1-2.4-1.8-3.6-2.5zM39.9 17c-.8-3.1-1.2-6.5-2.6-9.5 1 2 1.5 4.2 2 6.4l1.9 7.7c1.2 5.5 2.1 11 3.2 16.6.5 2.6 1.1 5.1 1.8 7.6.3 1.2.6 2.4.8 3.6.1.6.3 1.2.4 1.7.1.3.7 1.3.4 1.6-.3.4-.5-.6-.5-.7l-.6-1.6-1-3.1c-.6-2-1.1-4.1-1.6-6.2-1.1-4.9-1.6-9.9-1.8-14.9-.1-2.3-.1-4.7 0-7l.1-3.2c.1-1.1-.1-2.2.2-3.2.1-.4.1.6.1.7.1.6.2 1.1.2 1.7l.5 3.8c.4 2.7.8 5.3 1.3 7.9.9 5 2.1 9.8 3.1 14.8.5 2.4 1 4.9 1.4 7.4.2 1.2.4 2.4.5 3.7.2 1.2.1 2.4.1 3.7l-1.4-7.2c-.5-2.5-1-5-1.5-7.4-1.1-4.9-2.2-9.8-3-14.8-.4-2.4-.7-4.9-1-7.3-.2-2.2-.5-4.6-.4-6.8h.1c-.4 1-.2 2.2-.3 3.3-.1 1.1-.1 2.1-.1 3.2-.1 2.3-.1 4.7 0 7 .1 5 .6 10.1 1.8 15 .4 1.9.9 3.8 1.5 5.7.6 1.9 1.5 3.8 2.1 5.8h-.2c0-.6-.3-1.1-.5-1.6l-.4-1.8-.8-3.6c-.6-2.5-1.2-5.1-1.7-7.6-1.1-5.5-2-11-3.2-16.4-.2-1.9-.5-3.4-.9-5z"/></g></svg>