<svg baseProfile="tiny" xmlns="http://www.w3.org/2000/svg" viewBox="0 0 60 60.6"><g fill="#9F9F9F"><path d="M38.5 21.3c-.7 0-1.3 0-2 .1-.4.1-1.6.3-1.7.8 1.6-.7 3.3-.5 4.9-.9h-1.2zm-13.1 2.1c0 1-1 1.8-2 1.6-.5-.1-.9-.4-1.1-.8-.3-.4-.3-.9-.4-1.3 0 .7.1 1.5.7 1.9.5.4 1.3.6 2 .3.5-.3 1-1 1-1.6 0-.6-.7-1.2-1.4-1.2.6-.1 1.3.5 1.2 1.1zm-2.4-.7c.4-.2 1.8.2 1 .6-.3.2-.7.2-1-.1-.1-.1-.2-.5-.3-.4.1.1.2 0 .3-.1-.2-.1-.4-.4-.6-.2-.1.1-.2.3-.1.5.2.8 1 1.3 1.8.9.5-.2 1.1-.9.5-1.4-.4-.4-1.5-.6-1.9-.1-.4.5.2 1.2.7 1.5-.3-.1-.8-1-.4-1.2zm14.7 12.1c-1.2 0-2.4.1-3.5.6-.6.2-1.1.5-1.7.8-.5.2-1 .5-1.3 1l4.1-1.6c.8-.2 1.5-.3 2.3-.4.8-.1 1.5-.3 2.2-.5-.6 0-1.3.1-2.1.1zm-6.3 2.3c-.1 0-1.3.3-.9.5.3.2 1-.4 1.3-.5h-.4zm5.9-1.4c-1.1.5-2.1.7-3.3.7-.9.1-2.7 0-3.2.9.7-.2 1.4-.3 2.1-.4.7-.1 1.5-.1 2.2-.3 1.6-.3 2.9-1.1 4.3-1.9-.8.5-1.4.8-2.1 1zm.1 2.4c-.6.3-1.3.3-2 .3-.4 0-1.7.1-1.7.7.8 0 1.7-.1 2.5-.3.9-.2 1.6-.7 2.4-1.2-.4.2-.8.4-1.2.5zm-3.1.8c-.2-.1-1.1-.6-.9-.1.1.2 1 .2 1.2.3-.2-.1-.2-.1-.3-.2zm4.1-18.5c0-.1.4-.7.2-.6-.2.1-.3.6-.3.8 0 0 .1-.1.1-.2zm-14.6 2.6c.1-.1.3-.4.3-.5-.2.1-.3.5-.4.7l.1-.2zm0-4.3c-1.6-.1-3.1 0-4.6.5-.7.2-1.5.6-2.2.9-.3.2-.7.4-.9.7-.2.2-.5.7-.4 1 .8-.3 1.4-.9 2.2-1.3.8-.4 1.7-.7 2.5-.9.9-.2 1.8-.4 2.8-.4.9 0 1.9 0 2.8-.1.2 0 .5 0 .7-.1l-2.9-.3zm17.5-4.5c-1.5.2-3 .4-4.5 1-.7.3-1.4.6-2 .9-.5.3-1.3.8-1.4 1.5.7-.5 1.4-1 2.2-1.3.8-.3 1.7-.6 2.6-.8 1.7-.5 3.5-.8 5.3-1.2.2 0 .5-.1.7-.2-1 0-1.9 0-2.9.1zm-1.8 4c-.1-.1-.2-.1-.2 0h.2zm-1.2 2.7c.8.3 1.8.2 2.3-.6.4-.6.5-2-.2-2.5.5.8.5 2.1-.3 2.7-1 .7-2.2 0-2.8-.9.2.6.6 1.1 1 1.3zm1.8 21.5c-1.3.9-2.6 1.5-4.2 1.5-.8 0-1.5-.1-2.3-.2-.3 0-.7 0-1.1.1-.3.1-.8.1-.9.4.4.1.8.1 1.2.1l1.4.3c.9.2 1.8.2 2.8.1 1.8-.3 3.3-1.6 4.5-2.8l1.1-1.2c-.8.6-1.6 1.2-2.5 1.7zm-8.2-5.7l-.8.2c-.1 0-.6.2-.3.4.4.2 1.2-.5 1.5-.6-.1-.1-.2-.1-.4 0zm8.5-15.8c.5-.2.9-.5 1.4-.8.2-.2 1.1-.8 1-1.1l-1.4 1.1-1.8 1.2c.1-.2.5-.3.8-.4zm-9.6 15.6c-.1.1-.2.2-.4.3.8-.4 1.3-1.1 2-1.7.3-.3.6-.6 1-.8.4-.2.8-.1 1.2-.1.5 0 .8-.2 1.1-.5.2-.2.3-.2.2-.5-.1-.2-.3-.3-.5-.3-.3 0-.6.4-.8.6l-1.1.4c-.5.2-.9.8-1.3 1.2-.6.5-1 .9-1.4 1.4z"/><path fill-rule="evenodd" d="M44.3 18.1c-.9-.1-1.7-.1-2.6 0-.9.1-1.8.3-2.6.6l-1.2.6-1.2.4c-.8.4-1.3 1-1.7 1.8.2-.9.4-1.7 1.1-2.3.6-.5 1.5-.9 2.3-1.2 1.7-.7 3.6-.6 5.3-.1.2 0 .4.1.6.2z"/><path stroke="#000" stroke-width=".007" stroke-linejoin="round" stroke-miterlimit="10" d="M44.3 18.1c-.9-.1-1.7-.1-2.6 0-.9.1-1.8.3-2.6.6l-1.2.6-1.2.4c-.8.4-1.3 1-1.7 1.8.2-.9.4-1.7 1.1-2.3.6-.5 1.5-.9 2.3-1.2 1.7-.7 3.6-.6 5.3-.1.2 0 .4.1.6.2z"/><path fill-rule="evenodd" d="M27.1 23c-1.3-1.2-3.1-.3-4.5.2-.8.3-1.6.5-2.4.9-.8.4-1.6.6-2.1 1.3.4-.7 1-1.4 1.7-1.9.8-.5 1.6-.9 2.5-1.2 1.6-.5 3.6-.9 4.8.7z"/><path stroke="#000" stroke-width=".007" stroke-linejoin="round" stroke-miterlimit="10" d="M27.1 23c-1.3-1.2-3.1-.3-4.5.2-.8.3-1.6.5-2.4.9-.8.4-1.6.6-2.1 1.3.4-.7 1-1.4 1.7-1.9.8-.5 1.6-.9 2.5-1.2 1.6-.5 3.6-.9 4.8.7z"/><path d="M26.4 24.6c.4-.5 1-.8.9-1.5-.1-.7-.9-.9-1.5-.7l.5.6c.1.1.3.2.3.4.3.3-.1.8-.2 1.2z"/><path stroke="#000" stroke-width=".021" stroke-linejoin="round" stroke-miterlimit="10" d="M26.4 24.6c.4-.5 1-.8.9-1.5-.1-.7-.9-.9-1.5-.7l.5.6c.1.1.3.2.3.4.3.3-.1.8-.2 1.2z"/><path d="M36.9 21.1c-.2-.2-.6-.3-.6-.7 0-.1.1-.2.1-.4v-.6c-.5 0-.9.5-.7 1 .1.7.7.7 1.2.7z"/><path stroke="#000" stroke-width=".016" stroke-linejoin="round" stroke-miterlimit="10" d="M36.9 21.1c-.2-.2-.6-.3-.6-.7 0-.1.1-.2.1-.4v-.6c-.5 0-.9.5-.7 1 .1.7.7.7 1.2.7z"/><path d="M39.4 19.4c-.4.3-1.1-.1-1.4-.5 0 .1-.1.3-.2.3.4 0 .4-.4.7-.5.4-.1.9.1.8.6-.2.8-1.3-.1-.8-.7-.6.2-.5.9-.1 1.3.5.5 1.2.2 1.4-.4.3-1.2-1.7-1.7-2-.6-.5 0-.2.5 0 .7.4.3 1.2.6 1.6.2.5-.4.1-1.2-.4-1.4-.4-.1-.6.4-.5.7 0-.2.2-.7.5-.6.5 0 .7.6.4.9zm0-.8c.4.3.1 1.3-.5 1.2-.5-.1-.5-.6-.4-1-.6 0-.6.8-.3 1.1.5.6 1.2.4 1.5-.2.2-.5.2-1.3-.5-1.4-.2 0-.4.1-.5.3-.1.1-.1.3-.2.3.2 0 .2-.2.4-.3.2-.2.3-.2.5 0zm-1.4 1.6c.1-.2.3-.4.3-.6-.2.2-.3.6-.4.8l.1-.2zm.5.3v-.7c-.1.3 0 .6.1.9 0-.1 0-.2-.1-.2zm.8.1c-.1-.2-.1-.6-.2-.7-.2.3.2.7.3 1l-.1-.3zm.4-.4c-.1-.1-.2-.4-.3-.4 0 .2.3.4.4.5l-.1-.1zm.9-.5c-.2 0-.4-.1-.5-.2l-.4-.3c.2.4.9.6 1.2.5-.1.1-.2.1-.3 0zm-.1-.8l-.6-.1c.2.1.6.1.8.1-.1.1-.2 0-.2 0zm.1-.6c-.2 0-.5-.1-.7 0 .3.1.7 0 1 0h-.3zm-18.4 4.9c.1-.1.3-.3.3-.4-.2.1-.3.4-.4.5 0 0 0-.1.1-.1zm.2.5l.3-.6-.4.8.1-.2zm1 .8c-.1-.3 0-.7-.2-1-.1.4.1.9.2 1.3.1-.1 0-.2 0-.3zm.7 0l-.3-.6c-.1-.1-.1-.4-.3-.5-.1.4.5 1 .6 1.4.1 0 .1-.1 0-.3zm.5-.3l-.4-.5c-.1-.1-.3-.5-.3-.2s.7.9.9 1.1c0-.2-.1-.3-.2-.4zm.5-.8l-.5-.2c-.1 0-.5-.3-.4 0 .1.3.9.3 1.1.4 0-.1-.1-.1-.2-.2z"/><path fill-rule="evenodd" d="M25.7 25.1c-1 .2-1.9.5-2.9.6-.8.1-1.9 0-2.5-.5.7.5 1.7.2 2.5.2.9 0 1.9-.2 2.9-.3z"/><path stroke="#000" stroke-width=".002" stroke-linejoin="round" stroke-miterlimit="10" d="M25.7 25.1c-1 .2-1.9.5-2.9.6-.8.1-1.9 0-2.5-.5.7.5 1.7.2 2.5.2.9 0 1.9-.2 2.9-.3z"/><path fill-rule="evenodd" d="M26 20.9c-1.7-.4-3.4-.4-5.1 0-.8.2-1.6.4-2.3.7l-1.2.6c-.3.2-.7.4-.9.7.3-.7 1.3-1.1 1.9-1.4.7-.4 1.5-.7 2.3-.8 1.9-.4 3.6-.3 5.3.2z"/><path stroke="#000" stroke-width=".002" stroke-linejoin="round" stroke-miterlimit="10" d="M26 20.9c-1.7-.4-3.4-.4-5.1 0-.8.2-1.6.4-2.3.7l-1.2.6c-.3.2-.7.4-.9.7.3-.7 1.3-1.1 1.9-1.4.7-.4 1.5-.7 2.3-.8 1.9-.4 3.6-.3 5.3.2z"/><path fill-rule="evenodd" d="M42.4 15.4c-1.5.3-2.9.7-4.3 1.3-1.3.5-2.9 1.1-3.6 2.4.7-1.3 2.2-2 3.5-2.5 1.4-.6 2.9-1 4.4-1.2z"/><path stroke="#000" stroke-width=".001" stroke-linejoin="round" stroke-miterlimit="10" d="M42.4 15.4c-1.5.3-2.9.7-4.3 1.3-1.3.5-2.9 1.1-3.6 2.4.7-1.3 2.2-2 3.5-2.5 1.4-.6 2.9-1 4.4-1.2z"/><path d="M31.8 30.7c-.1-.1-.1-.1-.1-.2.1-.1.5-.1.6.1-.1 0-.4.2-.5.1-.1 0 0-.1 0-.2-.5.4.2.7.6.4.6-.4-.3-1-.7-.7-.4.2.1.9.4.6.1-.1.1-.3-.1-.3s-.1.2 0 .2c-.2-.1-.1-.1 0-.2-.1.1-.1.2-.2.2zm3.1-.8c-.1 0-.1-.1-.1-.2.1-.1.3-.1.5 0v.1h-.2l-.1-.3c-.5.2-.1.8.4.7.2-.1.3-.3.3-.5-.1-.3-.4-.2-.6-.2-.6.1-.4.9 0 .7.2-.1.3-.3.2-.5-.1-.1-.3 0-.2.2-.2-.4.3-.2-.2 0zm3.8 5.3c0-.1-.2-.4-.3-.3l.2.3h.1zm-.7.4c.2 0 .4-.1.6-.2.1-.1.2-.5-.1-.3-.3.1-.5.4-.8.6.1-.1.2-.1.3-.1zm1.4-.8c-.1 0-1.1.2-.8.4.1 0 .4-.1.4-.1.2-.1.4-.2.7-.3h-.3zm-7.5-4.3c-.1.1 0 .3.2.2l-.2-.2v.2c.2-.1.3-.5 0-.4.1 0 .1.1.1.1.2-.2-.1-.3-.2-.1-.1.1-.1.2-.1.3 0 0 0-.1.1-.1-.1 0-.3.1-.1.2.1 0 .2-.2.2-.2s-.1-.1-.1-.2c-.2.1 0 .4.1.2 0 .1-.1 0 0 0-.1 0-.3.3 0 .3s.2-.5 0-.3l.1.1c.1 0 .1-.1.1-.2l-.1.2c0-.1.2-.2.1-.3l-.2.2zm3.2-.7c.1 0 .3-.2.1-.3-.1-.1-.3.1-.4.2.1 0 .2.1.2.2.4-.2-.3-.4-.3 0 0 .2.4-.1.4-.1 0-.1-.1-.2 0-.3-.1.1-.3.5 0 .3h-.1.1zm-12.1-7.1c.4-.2 1.8.2 1 .6-.3.1-.7.2-.9-.1-.2-.2-.2-.6-.5-.4.2.1.3 0 .4-.1-.2-.1-.4-.4-.6-.2-.2.1-.1.3-.1.5.3.8.9 1.2 1.7.9.5-.2 1-.8.6-1.3-.4-.4-1.5-.7-1.9-.1-.4.5.3 1.2.7 1.5-.2-.2-.8-1.1-.4-1.3zm.5.9c.3.1.3-.4.3-.6.1-.1.4-.3.3-.5-.3-.4-.8.7-1 .7.1 0 .2.1.1.2.1-.1.2-.3.3-.5.1-.2.4-.4.3-.6-.4.2-.5.4-.8.8-.1.1-.3.3-.1.5.4.4.7-.8 1-.8l-.1-.1c-.1.1-.2.2-.2.3-.1.2-.1.4-.1.5-.2-.2-.5.1-.3.3.2.2.5-.3.6-.4-.1.1-.3.3-.5.3l.1-.2h-.1c.1.1.1.1.2.1zm.3-.6c.1-.1.3-.4.3-.6-.2.1-.3.5-.4.7 0 0 .1 0 .1-.1zm-.4 1.5c0-.3 0-.8-.1-1-.1.4 0 .9.1 1.3.1-.1 0-.2 0-.3zm.7 0l-.3-.6-.2-.5c-.1.4.4 1 .6 1.4 0 0 0-.1-.1-.3zm.5-.3l-.4-.5c-.1-.1-.3-.5-.3-.2s.7.8.9 1c0-.1-.1-.2-.2-.3zm.4-.8c-.1-.1-.8-.5-.7-.2.1.2.8.4 1 .4-.2-.1-.3-.2-.3-.2zm-3 .3c.1-.1.5-.3.5-.5-.3.1-.5.4-.7.6 0 0 .1 0 .2-.1zm.3.4c.1-.2.3-.4.3-.6-.2.2-.3.6-.4.8 0-.1 0-.1.1-.2zm.4.6c0-.2.2-.7.1-.9-.2.3-.2.8-.1 1.2v-.3zm2.3-.8c-.2-.1-.4-.3-.6-.3.1.3.5.4.7.5.1-.1 0-.1-.1-.2zm.2-.9c-.1 0-.3-.1-.5 0 .2.1.4.1.6.1 0-.1-.1-.1-.1-.1zm-3.2.4c.1-.1.4-.2.5-.4-.3 0-.5.3-.7.5.1 0 .1 0 .2-.1zm.1.4l.4-.5-.6.7.2-.2zm.4.2c.1-.2.2-.4.2-.6-.1.3-.3.6-.3.9l.1-.3zm.2.3c.1-.2.2-.4.2-.6-.2.2-.2.6-.3.8.1 0 .1-.1.1-.2zm.3.3c0-.2.1-.5 0-.7-.1.3-.1.6 0 .9v-.2zm.4.1c0-.2 0-.5-.1-.7-.1.3 0 .6.1.9v-.2zm.2 0c0-.2 0-.5-.1-.7-.1.3.1.6.2.9l-.1-.2zm13.9-5.2c.1-.1.3-.3.3-.5-.2.2-.3.4-.4.7l.1-.2zm.2.4c.1-.2.3-.4.3-.6-.2.2-.4.6-.4.8 0-.1 0-.2.1-.2zm.1.3l.3-.6c-.2.2-.3.5-.4.8 0-.1.1-.2.1-.2zm.3.2c.1-.2.2-.4.1-.6-.1.2-.2.5-.2.7.1.1.1 0 .1-.1zm.5.2c.1-.2.1-.5.1-.7-.1.3-.1.6-.1.9v-.2zm.2.1c0-.2 0-.4-.1-.6 0 .2 0 .5.1.7.1 0 .1 0 0-.1zm.3-.1v-.5c-.1.2 0 .5 0 .7v-.2zm.4-.1c-.1-.1-.1-.4-.3-.5 0 .2.2.5.4.6 0 0-.1 0-.1-.1zm-3.2 17.2c-.1-.3-.3-.9-.6-1l.6 1.4v-.4zm.4-.3c0-.2-.1-.4-.2-.6-.1-.1-.3-.3-.3-.1 0 .1.2.3.3.4.1.2.2.4.2.6-.1-.1-.1-.2 0-.3zm.5-.5c-.1-.2-.3-.6-.5-.6 0 .3.4.6.6.9-.1-.1-.1-.2-.1-.3zm-1.7.7c0-.1-.2-1.1-.4-.9 0 0 .2.4.2.5l.2.8c-.1-.2 0-.3 0-.4zm-.7-.4v-.6.6zm-16.4-2c-.5-3.5-.3-7.1 0-10.6.3-3.4.5-6.8 1.2-10.2l.7-3.6.2-1.8c0-.6.1-1.2 0-1.8-1.3 3.3-1.8 6.7-2.3 10.2-.5 3.4-.8 6.9-.8 10.4 0 3.7.2 7.4 1.3 11 .6 1.8 1.5 3.5 2.7 5-1.8-2.6-2.6-5.6-3-8.6zm5.1-20.2c-.7-1.7-1.4-3.4-2-5.1-.4-.9-.5-1.8-1-2.5-.2-.4-.6-.6-1-.8-.2-.1-.3-.1-.5 0s0 .3.1.5c.4.7.7 1.5.9 2.3.3.8.6 1.6 1 2.4.8 1.7 1.8 3.3 2.7 5l.7 1.3c-.3-1.1-.6-2.1-.9-3.1zm5.5-12.7c-.1-.3-.6-1.4-1.1-.9-.2.2-.1.6-.1.8v1.1c0 1.9 0 3.8-.1 5.6 0 .5-.3 5.3-.9 5.1-.5-.6-.7-1.5-1-2.2l-1-2.6c-.3-.8-.7-1.6-.9-2.5-.1-.5-.6-1.4-1.2-1.4s-.6.7-.5 1.1c.2.8.4 1.7.5 2.5l1.2 5.1c.1.6.2 1.6.7 1.9.3.2.7 0 .8-.3.1-.3 0-.8 0-1.1-.2-.9-.6-1.7-1-2.4-.4-.8-.6-1.6-.9-2.4-.6-1.6-1-3.5-2.1-4.8.1 1.8.2 3.5.7 5.2.2.9.5 1.7.9 2.5s1 1.5 1.1 2.4v.4c0-.6.8-.8 1.1-.3-.4-.7-.5-1.4-.8-2.1l-.8-2.4-.6-2.4c-.2-.7-.4-1.5-.4-2.2 0 .2-.2.3-.4.3.4.6.4 1.3.7 2l1 2.6 1.1 2.6c.3.6.6 1.5 1.3 1.6.8.1 1.2-.7 1.4-1.4.2-.9.3-1.9.3-2.8.2-1.9.1-3.8 0-5.7v-1.9l-.1-1.6c0 .2-.3.3-.4.1 1.1 1.5 1 3.6 1.3 5.3.3 1.7.9 3.3 1.5 4.9.6 1.6 1.3 3.1 2.1 4.6-.7-1.5-1.3-3.2-1.8-4.8-.5-1.6-1-3.3-1.3-5 .3-1.5.3-3-.3-4.5zm14.8 31.2c.3-3.7.3-7.4 0-11.1-.2-1.8-.5-3.5-.9-5.3-.4-1.7-1-3.4-1.4-5.2l-1.4-5c-.2-.9-.6-1.6-1-2.4-.5-.5-1-1.2-1.8-1.5.2.4.3.8.4 1.3l.3 1.3.8 2.7c.4 1.9 1 3.6 1.5 5.5 1 3.8 1.9 7.5 2.2 11.4.3 3.7.2 7.5.1 11.2-.1 2.5-.1 4.9 0 7.3.3-3.4.8-6.8 1.2-10.2zm-12.6 22.5c.4-1.7.7-3.5.5-5.3-.1-.9-.2-1.7-.4-2.6-.2-.8-.3-1.8-.9-2.4 0 .5-.1.9 0 1.4 0 .4.1.9.2 1.3.2.9.3 1.9.4 2.8.2 1.8 0 3.7-.3 5.6-.1.9-.3 1.7-.5 2.5.3-1.1.6-2.2 1-3.3z"/></g></svg>