<svg xmlns="http://www.w3.org/2000/svg" viewBox="0 0 414 390" baseProfile="tiny"><path fill="#fff" d="M133.2 374l-105.2-105.2v-147.6l105.2-105.2h147.6l105.2 105.2v147.6l-105.2 105.2z"/><path d="M137.8 369.1c-1.9 0-3.6-.7-4.9-2l-97.9-98c-1.3-1.3-2.1-3.1-2.1-5v-138.3c0-1.9.7-3.6 2.1-4.9l97.9-97.9c1.3-1.3 3.1-2.1 4.9-2.1h138.4c1.9 0 3.6.7 5 2.1l97.9 97.9c1.3 1.3 2 3.1 2 4.9v138.4c0 1.9-.7 3.6-2 5l-98 97.8c-1.3 1.3-3.1 2-5 2h-138.3z" fill="#DC1F2F"/><path d="M276.2 27.9l97.9 97.9v138.4l-97.9 97.9h-138.4l-97.9-97.9v-138.4l97.9-97.9h138.4m0-14h-138.4c-3.7 0-7.3 1.5-9.9 4.1l-97.9 97.9c-2.6 2.6-4.1 6.2-4.1 9.9v138.4c0 3.7 1.5 7.3 4.1 9.9l97.9 97.9c2.6 2.6 6.2 4.1 9.9 4.1h138.4c3.7 0 7.3-1.5 9.9-4.1l97.9-97.9c2.6-2.6 4.1-6.2 4.1-9.9v-138.4c0-3.7-1.5-7.3-4.1-9.9l-97.9-97.9c-2.6-2.6-6.2-4.1-9.9-4.1zM319.1 235.4c-23 4.9-52.2 29.9-64.8 43.2-12.5 13.2-18.1 16-20.2 21.6h-78c0-19.5-18.8-20.2-18.8-77.3 0-23.7-3.5-62.7-2.8-90.5 0-34.8 2.8-41.1 8.4-41.1s11.8 0 11.8 34.8c0 20.9 3.5 41.8 5.6 41.8 4.9 0 4.9-23 4.9-49.4 0-45.3 8.4-46.7 13.2-46.7 4.9 0 13.2-3.5 12.5 43.9-.7 25.1 2.1 48.8 4.9 48.8 2.1 0 4.9-25.1 5.6-48.8 1.4-46 3.5-52.2 13.2-52.2 11.1 0 13.9 7 11.8 52.2-.7 25.1-5.6 50.1-2.1 50.8 2.8.7 8.4-18.8 12.5-46 4.9-35.5 5.6-42.5 18.1-41.8 13.2 1.4 11.8 16.7 7.7 43.2-3.5 21.6-7 50.8-7 63.4 0 16-.7 21.6 1.4 33.4 1.4 7.7 15.3 7 27.9 1.4 14.6-7 22.3-16 35.5-7.7 7.1 5.6 14 19.5-1.3 23z" fill="#fff"/></svg>