<?xml version="1.0" encoding="utf-8"?>
<!-- Generator: Adobe Illustrator 18.1.1, SVG Export Plug-In . SVG Version: 6.00 Build 0)  -->
<svg version="1.1" baseProfile="tiny" id="Layer_2" xmlns="http://www.w3.org/2000/svg" xmlns:xlink="http://www.w3.org/1999/xlink"
	 x="0px" y="0px" viewBox="0 0 50 50" xml:space="preserve">
<g>
	<path fill="#231615" d="M31.4,23.3c-0.6,0-1.1-0.1-1.7-0.4c-0.3-0.1-0.5-0.3-0.7-0.5c-0.1-0.1-0.2-0.2-0.3-0.3
		c-0.1-0.1-0.2-0.2-0.3-0.2c0,0.3,0.4,0.6,0.6,0.8c0.2,0.2,0.5,0.4,0.8,0.6c0.6,0.2,1.2,0.3,1.8,0.2c0.3,0,0.6-0.1,1-0.2
		C32.2,23.3,31.8,23.3,31.4,23.3L31.4,23.3z"/>
	<path fill="#231615" d="M21.7,16.7c0.8-0.9,1.4-2,1.8-3.1c0.1-0.1,0.1-0.3,0.2-0.4c0.1-0.1,0.1-0.3,0.2-0.4
		c0.1-0.1,0.1-0.3,0.1-0.4c0-0.1,0-0.1,0.1-0.2c0-0.1,0-0.1,0-0.2c-0.2,0.2-0.4,0.4-0.5,0.7c-0.2,0.3-0.3,0.5-0.4,0.8
		c-0.3,0.5-0.5,1.1-0.7,1.6c-0.3,0.5-0.5,1-0.9,1.4c-0.4,0.4-0.8,0.7-1.3,1.1C20.8,17.5,21.3,17,21.7,16.7L21.7,16.7z"/>
	<path fill="#231615" d="M27.8,34.4c-0.4-1-0.8-1.9-1.1-2.9c-0.3-1-0.6-2-0.9-3c-0.2-1-0.4-2-0.6-3c-0.1-1-0.3-2-0.3-3
		c0-1-0.1-2.1-0.1-3.1c-0.1-0.9-0.1-1.8-0.1-2.6c0,1-0.1,2-0.1,3.1c0,1,0,2.1,0.1,3.1c0.1,1,0.2,2.1,0.3,3.1c0.2,1,0.4,2,0.6,3
		c0.3,1,0.6,2,0.9,3c0.4,1,0.8,1.9,1.2,2.9c0.4,0.9,0.9,1.9,1.3,2.8c0.4,0.7,0.7,1.5,1.1,2.2c-0.4-0.9-0.9-1.9-1.3-2.8
		C28.5,36.1,28.1,35.3,27.8,34.4L27.8,34.4z"/>
	<path fill="#231615" d="M33.4,34.2c-0.4-1.3-0.8-2.6-0.8-3.9c0-1.1,0.2-2.2,0.5-3.2c0.3-1,0.7-2,1-3c0.3-1,0.5-2,0.6-3
		c0.1-1,0.2-2.1,0.1-3.1c0-0.1,0-0.2,0-0.3c0,0.5-0.1,1-0.2,1.5c-0.1,0.5-0.1,1-0.2,1.5c-0.1,1-0.3,2-0.6,3c-0.3,1-0.7,2-1,3
		c-0.3,1-0.6,2.1-0.6,3.2c0,1.3,0.3,2.6,0.7,3.9c0.4,1.3,1,2.5,1.6,3.7c0.3,0.7,0.7,1.4,1,2c-0.5-1.2-1.1-2.4-1.6-3.6
		C33.7,35.2,33.5,34.7,33.4,34.2L33.4,34.2z"/>
	<path fill="#231615" d="M41.2,41.4c-0.5-1.1-1.2-2-2-2.8c-0.5-0.4-1-0.8-1.5-1.2c-0.5-0.4-1-0.8-1.5-1.2c-0.4-0.4-0.8-0.9-1.1-1.3
		c-0.2-0.2-0.3-0.4-0.5-0.7c-0.1-0.2-0.3-0.5-0.3-0.7c0,0.3,0,0.6,0.1,0.9c0.1,0.3,0.3,0.5,0.5,0.8c0.4,0.5,0.8,1.1,1.3,1.5
		c0.9,0.9,2,1.6,3,2.4c0.8,0.7,1.5,1.6,1.9,2.7c0.4,1,0.7,2.1,0.7,3.2c0-1.1-0.2-2.3-0.6-3.3C41.2,41.5,41.2,41.5,41.2,41.4
		L41.2,41.4z"/>
	<path fill="#231615" d="M20.9,36.9c-0.6-1-1.1-2.1-1.6-3.1c-0.5-1.1-0.9-2.1-1.4-3.2c-0.4-1-0.8-2-1.2-3c-0.3-1-0.6-2-0.7-3
		c-0.1-0.5-0.1-0.9-0.2-1.4c-0.1-0.5-0.3-1-0.2-1.6c-0.2,0.5-0.2,1.1-0.1,1.6c0,0.5,0.1,1.1,0.1,1.6c0.2,1.1,0.4,2.1,0.8,3.1
		c0.3,1,0.8,2,1.2,3c0.5,1.1,0.9,2.1,1.4,3.2c0.5,1,1.1,2.1,1.7,3.1c0.6,1,1.3,1.9,2,2.8c0.4,0.4,0.8,0.9,1.2,1.3
		c-0.8-0.9-1.5-1.7-2.1-2.7C21.5,38,21.2,37.4,20.9,36.9L20.9,36.9z"/>
	<path fill="#231615" d="M22.3,45.1c0.1-0.7,0.3-1.4,0.4-2.1c0-0.3,0.1-0.6,0.1-0.9c0-0.3,0-0.6,0-0.9c0-0.3-0.1-0.6-0.1-0.9
		c-0.1-0.3-0.1-0.6-0.2-0.9c-0.1-0.3-0.2-0.6-0.4-0.9c-0.1-0.1-0.2-0.2-0.3-0.4c-0.1-0.1-0.2-0.2-0.3-0.3c-0.1,0-0.1,0-0.2-0.1
		c0.2,0.2,0.3,0.5,0.4,0.8c0.1,0.2,0.3,0.5,0.3,0.8c0.2,0.6,0.3,1.2,0.3,1.7c0,0.6,0.1,1.3,0,1.9c-0.1,0.7-0.1,1.3-0.3,2
		c-0.1,0.4-0.2,0.9-0.2,1.3c0,0.2-0.1,0.4-0.1,0.6c0,0.2-0.1,0.4-0.1,0.6C21.9,46.8,22.1,45.9,22.3,45.1L22.3,45.1z"/>
	<path fill="#231615" d="M31.9,17.7c-0.2-0.2-0.5-0.4-0.7-0.5c-0.2-0.1-0.5-0.3-0.7-0.4c-0.3-0.1-0.6-0.2-0.9-0.2
		c-0.3-0.1-0.5-0.2-0.8-0.2c-0.1,0-0.2-0.1-0.3-0.1c-0.1,0-0.1,0-0.2-0.1c-0.1,0-0.1,0-0.2,0c0.3,0.5,1,0.7,1.5,0.8
		c0.3,0.1,0.5,0.1,0.8,0.2c0.2,0.1,0.5,0.2,0.7,0.3c0.3,0.1,0.6,0.3,0.9,0.6c0.3,0.2,0.4,0.5,0.6,0.8C32.5,18.4,32.2,18,31.9,17.7
		L31.9,17.7z"/>
	<path fill="#231615" d="M15.6,1.1c-0.2-0.2-0.5-0.4-0.9-0.4c-0.3-0.1-0.6,0-0.9,0.2c-0.1,0.1-0.2,0.2-0.3,0.3
		c-0.1,0.1-0.2,0.2-0.3,0.4c-0.1,0.1-0.1,0.3-0.1,0.4c0,0.1,0,0.3,0.1,0.4c0,0,0,0,0.1,0c0-0.3,0.2-0.6,0.4-0.8
		c0.1-0.1,0.2-0.2,0.4-0.3c0.1-0.1,0.2-0.2,0.3-0.2c0.6-0.2,1.1,0.3,1.4,0.7C15.9,1.9,15.9,2,16,2.2C16,1.8,15.8,1.4,15.6,1.1
		L15.6,1.1z"/>
	<path fill="#231615" d="M14.1,17c-0.3-1.1-0.5-2.3-0.7-3.4c-0.2-1.3-0.3-2.6-0.4-3.9c0-1,0-2,0-3c0.1-1.1,0.2-2.1,0.1-3.2
		c0-0.4-0.1-0.9-0.1-1.3c0,0.6-0.1,1.2-0.2,1.9c0,0.6-0.1,1.1-0.1,1.7c0,0.9-0.1,1.9-0.1,2.8c0,1,0.1,2.1,0.2,3.1
		c0.1,1.2,0.4,2.4,0.7,3.6c0.2,1.1,0.5,2.2,0.8,3.3c0.1,0.5,0.3,1,0.5,1.5c0.2,0.5,0.3,1.1,0.6,1.6c-0.4-1.1-0.7-2.2-0.9-3.3
		C14.3,18,14.2,17.5,14.1,17L14.1,17z"/>
	<path fill="#231615" d="M18.3,12.8c0-0.6-0.1-1.2-0.1-1.8c0-0.6-0.1-1.1-0.2-1.7c-0.1-0.6-0.3-1.1-0.5-1.7
		c-0.1-0.5-0.3-1.1-0.6-1.5c-0.1-0.1-0.1-0.2-0.2-0.3c-0.1-0.1-0.2-0.2-0.3-0.3c0.1,0.3,0.1,0.5,0.2,0.7c0.1,0.2,0.2,0.5,0.3,0.7
		c0.2,0.6,0.4,1.2,0.6,1.8c0.1,0.5,0.3,1.1,0.4,1.6c0.1,0.6,0.1,1.1,0.2,1.7c0,0.6,0.1,1.2,0.1,1.8c0,0.2,0,0.5,0.1,0.7
		c0,0.2,0,0.5,0.1,0.7C18.3,14.4,18.3,13.6,18.3,12.8L18.3,12.8z"/>
	<path fill="#231615" d="M20,16.1c-0.2-0.4-0.4-0.8-0.6-1.3c-0.2-0.4-0.5-0.8-0.7-1.2c-0.1-0.2-0.2-0.4-0.3-0.6
		c-0.1-0.2-0.3-0.4-0.5-0.5c0.1,0.4,0.4,0.9,0.6,1.3c0.2,0.4,0.5,0.8,0.7,1.2c0.2,0.4,0.4,0.8,0.7,1.2c0.2,0.4,0.4,0.8,0.6,1.2
		C20.3,16.9,20.1,16.5,20,16.1L20,16.1z"/>
	<path fill="#231615" d="M21.3,6.1c-0.3-0.1-0.6-0.3-1-0.4c-0.3-0.1-0.6-0.2-0.9-0.3c-0.5-0.2-1-0.3-1.6-0.5
		c-0.6-0.2-1.3-0.3-1.7,0.2c0.5-0.1,1-0.1,1.5,0.1c0.5,0.1,1,0.3,1.6,0.5c0.6,0.2,1.3,0.3,1.9,0.6c0.6,0.2,1.2,0.5,1.7,0.9
		C22.4,6.7,21.8,6.4,21.3,6.1L21.3,6.1z"/>
	<path fill="#231615" d="M23.1,3.4c-0.5-0.3-1.1-0.6-1.7-0.9c-0.6-0.3-1.1-0.5-1.7-0.7c-0.6-0.2-1.1-0.4-1.7-0.6
		c-0.6-0.2-1.2-0.4-1.8-0.3c0.3,0.1,0.5,0.2,0.8,0.3c0.3,0.1,0.6,0.2,0.9,0.3c0.6,0.2,1.1,0.4,1.7,0.6C20.8,2.5,21.9,3,23,3.6
		c0.3,0.2,0.7,0.4,1,0.6c0.2,0.1,0.3,0.2,0.5,0.3c0.2,0.1,0.3,0.2,0.5,0.3C24.4,4.3,23.7,3.8,23.1,3.4L23.1,3.4z"/>
	<path fill="#231615" d="M38.1,2.5c0-0.6-0.1-1.2-0.5-1.7c-0.4-0.5-1.1-0.8-1.8-0.6c-0.1,0-0.3,0-0.3,0.2c0.3,0.1,0.6,0,0.9,0.1
		c0.3,0,0.5,0.1,0.7,0.3c0.4,0.4,0.6,0.9,0.7,1.4c0.1,0.5,0.1,1.1,0,1.6C38,3.3,38.1,2.9,38.1,2.5L38.1,2.5z"/>
	<path fill="#231615" d="M37,15.6c0.3-1.1,0.5-2.2,0.7-3.2c0.2-1.1,0.4-2.1,0.5-3.2c0.1-1.1,0.2-2.3,0.1-3.4c0-0.6-0.1-1.1-0.2-1.7
		C38,3.6,37.9,3,37.9,2.5c0,0.6,0,1.2,0,1.9C38,5,38.1,5.6,38.1,6.2c0,1.1-0.1,2.3-0.2,3.4c-0.1,1.1-0.3,2.1-0.5,3.2
		c-0.2,1.1-0.4,2.1-0.7,3.2c-0.3,1-0.5,2.1-0.8,3.1c-0.1,0.2-0.1,0.4-0.2,0.7c0.4-1,0.7-2,1-3C36.8,16.4,36.9,16,37,15.6L37,15.6z"
		/>
	<path fill="#231615" d="M21.7,7.4C22.1,7,22.6,6.6,23,6.2c0.2-0.2,0.4-0.4,0.6-0.5c0.1-0.1,0.3-0.1,0.4-0.2c0.1,0,0.1,0,0.2-0.1
		c0.1,0,0.1,0,0.2,0c-0.2-0.2-0.6-0.1-0.8,0c-0.3,0.1-0.5,0.3-0.7,0.5c-0.5,0.4-0.9,0.9-1.3,1.4c-0.2,0.3-0.4,0.6-0.6,1
		C21.2,8,21.5,7.7,21.7,7.4L21.7,7.4z"/>
	<path fill="#231615" d="M22.2,11.5c-0.1-0.6-0.1-1.1-0.1-1.7c0-0.3,0-0.6,0-0.8c0-0.1,0-0.3,0-0.4c0-0.1,0-0.1,0-0.2
		c0-0.1-0.1-0.1-0.1,0c-0.1,0.1,0,0.3-0.1,0.4c0,0.1,0,0.3,0,0.4c0,0.3,0,0.6,0,0.9c0,0.6,0.1,1.2,0.3,1.7c0.1,0.3,0.2,0.6,0.4,0.9
		C22.3,12.2,22.2,11.8,22.2,11.5L22.2,11.5z"/>
	<path fill="#231615" d="M25.3,11.4c0.5-0.4,1-0.9,1.3-1.5C27,9.3,27.1,8.7,27.3,8c0.1-0.3,0.1-0.7,0.1-1c0-0.3,0-0.6-0.1-0.9
		c-0.1,0.7-0.1,1.3-0.3,2c-0.2,0.6-0.4,1.2-0.7,1.7c-0.7,1-1.6,1.9-2.6,2.6C24.2,12.1,24.8,11.8,25.3,11.4L25.3,11.4z"/>
	<path fill="#231615" d="M32.7,5.4c-0.3-0.1-0.6-0.1-0.9-0.2c-0.3,0-0.6,0-0.9,0c-0.5,0-1.1,0.2-1.6,0.4C29,5.8,28.6,6,28.3,6.2
		c-0.3,0.3-0.6,0.7-0.6,1.1c0.3-0.5,0.9-0.9,1.4-1.1c0.5-0.3,1.2-0.5,1.8-0.6c0.6-0.1,1.1,0,1.7,0c0.6,0.1,1.1,0.3,1.7,0.3
		c0,0,0.1,0,0.1,0C33.8,5.7,33.2,5.5,32.7,5.4L32.7,5.4z"/>
	<path fill="#231615" d="M34.4,6c0.4-0.3,0.8-0.6,1.1-0.9c0.2-0.2,0.3-0.4,0.4-0.6c0.1-0.1,0.3-0.4,0.3-0.6C36,4,36,4.1,35.9,4.2
		c-0.1,0.1-0.2,0.3-0.3,0.4c-0.2,0.2-0.4,0.5-0.6,0.7c-0.4,0.5-0.9,0.8-1.5,1.1C33.8,6.3,34.1,6.2,34.4,6L34.4,6z"/>
	<path fill="#231615" d="M30.8,14.3c0.4-0.5,0.7-1,1-1.5c0.3-0.5,0.6-1,0.9-1.5c0.2-0.6,0.4-1.1,0.5-1.7c0-0.3,0.1-0.6,0.1-0.9
		c0.1-0.3,0.1-0.6,0.1-0.9c0-0.3,0.1-0.6,0.1-0.8c0-0.1,0-0.3,0-0.4c0-0.2,0-0.3,0-0.4c-0.1,0.3-0.2,0.5-0.3,0.8
		C33.1,7.3,33,7.6,33,7.9c-0.1,0.6-0.2,1.2-0.3,1.8c-0.1,0.6-0.3,1.1-0.5,1.6c-0.2,0.5-0.5,1-0.8,1.5c-0.6,1-1.3,1.9-2,2.8
		c-0.1,0.1-0.2,0.3-0.3,0.4c-0.1,0.1-0.2,0.3-0.3,0.4C29.6,15.8,30.2,15.1,30.8,14.3L30.8,14.3z"/>
	<path fill="#231615" d="M33.6,0.8c-1.1,0.2-2.2,0.6-3.2,1c-1,0.4-2,0.9-3,1.5c-0.5,0.3-1,0.6-1.4,0.9c-0.4,0.3-1,0.7-1.2,1.2
		c0,0.1,0,0.1,0,0.2c0.2-0.5,0.8-0.8,1.2-1.1c0.5-0.3,0.9-0.6,1.4-0.8c0.5-0.3,1-0.5,1.5-0.7c0.5-0.2,1-0.5,1.5-0.7
		c1-0.4,2.1-0.8,3.1-1.1c1.1-0.3,2.2-0.4,3.2-0.5c0.1,0,0.1,0,0.2,0C35.9,0.5,34.7,0.6,33.6,0.8L33.6,0.8z"/>
	<path fill="#231615" d="M38,46.3c1-0.5,1.9-1.1,2.7-1.9c0.4-0.4,0.7-0.8,1-1.2c0.3-0.5,0.7-1.1,0.7-1.8c0-0.8-0.7-1.4-1.3-1.8
		c0.4,0.4,0.8,0.8,1,1.3c0.2,0.6,0,1.3-0.3,1.8c-0.7,1.1-1.7,1.9-2.7,2.7c-0.9,0.6-1.9,1.2-2.8,1.7c-0.3,0.2-0.6,0.3-0.9,0.5
		C36.3,47.2,37.2,46.8,38,46.3L38,46.3z"/>
	<path fill="#231615" d="M28.3,47.2c-0.7,0-1.3,0-2-0.1c-0.7-0.1-1.4-0.2-2-0.3c-1.1-0.2-2.3-0.4-3-1.4c-0.4-0.5-0.6-1.2-0.7-1.8
		c0,0.3-0.1,0.6,0,0.9c0.1,0.3,0.2,0.6,0.3,0.9c0.3,0.5,0.8,0.9,1.3,1.2c0.5,0.3,1,0.4,1.6,0.5c0.5,0.1,1.1,0.2,1.6,0.2
		c1.1,0.1,2.1,0.1,3.2,0.1c0.5,0,0.9,0,1.4,0c0.2,0,0.5,0,0.7,0c0.3,0,0.5,0,0.8,0C30.4,47.3,29.4,47.3,28.3,47.2L28.3,47.2z"/>
	<path fill="#231615" d="M42.5,44.7c0.4-0.5,0.5-1,0.4-1.6c-0.1-0.5-0.4-1-0.7-1.4c-0.2-0.2-0.4-0.4-0.6-0.5
		c0.8,0.6,1.4,1.8,1.1,2.8c-0.2,0.7-0.7,1.2-1.1,1.7C41.9,45.4,42.2,45.1,42.5,44.7L42.5,44.7z"/>
	<path fill="#231615" d="M38.8,49.9c0.5-0.2,1-0.4,1.5-0.7c0.2-0.1,0.5-0.2,0.7-0.4c0.2-0.1,0.5-0.3,0.7-0.4c1-0.7,1.8-1.6,1.9-2.8
		c0-0.3,0.1-0.6,0.1-0.9c0-0.3,0-0.6-0.1-0.9c-0.1-0.3-0.2-0.6-0.3-0.9c-0.1-0.2-0.2-0.5-0.5-0.7c0.1,0.3,0.1,0.6,0.2,0.9
		c0.1,0.3,0.1,0.6,0.1,0.9c0,0.6,0.1,1.2-0.1,1.8c-0.1,0.3-0.2,0.6-0.3,0.8c-0.2,0.2-0.3,0.5-0.5,0.7c-0.4,0.5-1,0.9-1.5,1.2
		c-1,0.6-2,1-3,1.5c-0.3,0.1-0.6,0.3-1,0.4c-0.2,0.1-0.3,0.1-0.5,0.2c-0.1,0.1-0.3,0.1-0.4,0.2C36.7,50.6,37.8,50.2,38.8,49.9
		L38.8,49.9z"/>
	<path fill="#231615" d="M27.1,51.7c-0.7,0-1.3,0-2-0.1c-0.6-0.1-1.2-0.3-1.8-0.6c-1.1-0.7-1.8-1.8-2.2-3c-0.2-0.5-0.2-1.1-0.3-1.7
		c-0.1-0.5-0.1-1-0.1-1.5c0-0.2,0-0.3,0-0.4c0-0.1,0-0.2,0-0.3c-0.3,0.4-0.4,0.9-0.4,1.4c0,0.5,0.1,1,0.2,1.5c0.2,1,0.6,2.1,1.2,3
		c0.8,1.1,1.9,1.8,3.3,2c1.4,0.2,2.7,0,4.1-0.2c0.7-0.1,1.4-0.1,2,0C29.7,51.6,28.4,51.7,27.1,51.7L27.1,51.7z"/>
	<path fill="#231615" d="M29.6,51.3c-1.2,0.1-2.5,0.1-3.6-0.3c-1.1-0.3-2.2-0.9-3.1-1.5c-0.4-0.3-0.9-0.7-1.3-1.1
		c-0.2-0.2-0.4-0.4-0.6-0.5c-0.2-0.2-0.4-0.4-0.6-0.5c0.6,1,1.5,1.8,2.5,2.5c1,0.7,2.1,1.2,3.2,1.5c1.2,0.3,2.5,0.3,3.8,0.2
		c1.1-0.1,2.1-0.4,3.1-0.8C31.8,51,30.7,51.2,29.6,51.3L29.6,51.3z"/>
	<path fill="#231615" d="M40.7,52.6c0.7-0.9,1.5-1.7,2.3-2.5c0.4-0.4,0.7-0.9,1-1.3c0.3-0.5,0.4-1,0.5-1.6c0.1-0.5,0.1-0.9,0-1.4
		c0-0.2-0.1-0.5-0.2-0.7c-0.1-0.2-0.1-0.4-0.2-0.6c0.1,1.1,0.2,2.4-0.2,3.5c-0.4,1.1-1.3,2.1-2,2.9c-0.8,0.9-1.6,1.8-2.1,2.9
		c-0.2,0.5-0.3,1-0.2,1.6C39.6,54.3,40.1,53.4,40.7,52.6L40.7,52.6z"/>
	<path fill="#231615" d="M30.7,10.6c-0.4-1-0.8-2.1-1.7-2.7c-0.2-0.1-0.4-0.3-0.6-0.3c-0.2-0.1-0.5-0.1-0.7,0
		c0.3,0.1,0.6,0.1,0.9,0.3C28.8,8,29,8.2,29.2,8.4c0.4,0.4,0.7,0.8,0.9,1.3c0.4,0.8,0.7,1.6,0.9,2.4C31,11.6,30.8,11.1,30.7,10.6
		L30.7,10.6z"/>
	<path fill="#231615" d="M27.2,13.5c-0.5-0.2-0.9-0.6-1.2-1c-0.2-0.2-0.3-0.5-0.4-0.8c0-0.1-0.1-0.3-0.2-0.4
		c-0.1-0.1-0.1-0.3-0.2-0.4c0,0.3,0.1,0.7,0.2,1c0.1,0.3,0.3,0.6,0.5,0.9c0.4,0.5,1,0.8,1.6,1c0.2,0.1,0.3,0.1,0.5,0.2
		C27.9,13.8,27.6,13.7,27.2,13.5L27.2,13.5z"/>
	<path fill="#231615" d="M28.7,14.1c-0.1-0.5-0.4-1-0.7-1.5c-0.2-0.2-0.4-0.5-0.5-0.7c-0.1-0.1-0.2-0.2-0.3-0.3
		c-0.1-0.1-0.2-0.2-0.3-0.3c0.1,0.2,0.3,0.5,0.5,0.7c0.2,0.2,0.4,0.5,0.5,0.7c0.3,0.5,0.6,0.9,0.8,1.5c0.1,0.3,0.1,0.6,0.1,0.9
		C28.8,14.9,28.7,14.5,28.7,14.1L28.7,14.1z"/>
	<path fill="#231615" d="M29.5,14.2c0-0.6-0.1-1.2-0.3-1.7c-0.1-0.3-0.2-0.6-0.3-0.8c-0.1-0.1-0.1-0.3-0.2-0.4
		c-0.1-0.1-0.1-0.3-0.3-0.3c0.1,0.3,0.2,0.5,0.3,0.8c0.1,0.3,0.2,0.5,0.3,0.8c0.2,0.6,0.3,1.2,0.3,1.8c0,0.3,0.1,0.7,0.1,1.1
		C29.5,14.9,29.5,14.5,29.5,14.2L29.5,14.2z"/>
	<path fill="#231615" d="M26.4,3.5C26.4,3.5,26.4,3.5,26.4,3.5c0.1-0.1,0.2-0.2,0.3-0.3c0-0.2,0.1-0.3,0.1-0.5c0-0.3,0.1-0.7,0-0.9
		c-0.1-0.3-0.2-0.6-0.5-0.7c-0.3-0.1-0.6,0.1-0.8,0.2c-0.3,0.2-0.7,0.7-0.7,1.1c0-0.5,0.7-1.2,1.3-1.2c0.2,0,0.3,0.1,0.3,0.3
		c0,0.1,0.1,0.2,0.2,0.4c0,0.1,0,0.3,0,0.5c0,0.2,0,0.3,0,0.5c0,0.1,0,0.2,0,0.3c0,0.1-0.1,0.2-0.1,0.3c-0.1,0.1-0.1,0.3,0.1,0.3
		c0.1,0,0.2-0.2,0.3-0.2C26.8,3.2,27,3.1,27.2,3c0.1,0,0.2-0.2,0.3-0.1c0.1,0,0.1,0.2,0.1,0.3c0-0.1,0-0.3-0.1-0.3
		c-0.1,0-0.2,0.1-0.3,0.2c-0.1,0.1-0.2,0.1-0.4,0.2C26.6,3.3,26.5,3.4,26.4,3.5L26.4,3.5z"/>
	<path fill="#231615" d="M24.5,2.8c0.1-0.1,0.7-0.2,0.4-0.4c-0.1-0.1-0.2,0.1-0.3,0.1c-0.1,0-0.2,0-0.3,0c0-0.3,0.3-0.4,0.6-0.5
		c0.3-0.1,0.6,0,0.8,0.1c-0.2-0.3-0.9-0.3-1.2-0.1c-0.2,0.1-0.5,0.4-0.3,0.6c0.1,0.1,0.3,0,0.4,0c0.1,0,0.2-0.1,0.3-0.1
		c0,0,0,0,0-0.1c-0.1,0.1-0.2,0.1-0.3,0.1c-0.1,0.1-0.2,0.1-0.3,0.2C24,3,23.8,3.2,23.7,3.4C24,3.1,24.2,3,24.5,2.8L24.5,2.8z"/>
	<path fill="#231615" d="M21,15.5c-0.2-0.6-0.4-1.2-0.2-1.8c0.2-0.7,0.6-1.2,0.9-1.8c0.3-0.6,0.3-1.2,0-1.8
		c-0.3-0.5-0.7-0.9-1.1-1.3c-0.1-0.1-0.2-0.3-0.4-0.4c-0.1-0.1-0.1-0.2-0.2-0.2c0-0.1,0-0.2,0-0.3c0-0.2,0.1-0.4,0.3-0.5
		c0.2-0.2,0.3,0,0.4,0.2c-0.1-0.1-0.1-0.3-0.3-0.3c-0.1,0-0.3,0.1-0.3,0.2c-0.1,0.1-0.2,0.3-0.2,0.4c0,0.2,0,0.3,0.1,0.4
		c0.3,0.5,0.7,0.9,1.1,1.4c0.3,0.4,0.6,0.9,0.6,1.4c-0.1,0.7-0.5,1.2-0.8,1.8c-0.3,0.6-0.5,1.2-0.3,1.9C20.7,15,20.8,15.3,21,15.5
		c0,0.4,0,0.7-0.1,1c-0.1,0.7-0.5,1.3-1,1.8c0.4-0.4,0.7-0.8,0.9-1.3c0.1-0.2,0.2-0.5,0.2-0.8C21.1,16,21.1,15.8,21,15.5L21,15.5z"
		/>
	<path fill="#231615" d="M22.7,15.5c0.2-0.7-0.8-0.8-1.1-1.2c-0.2-0.2-0.1-0.6,0-0.9c0.1-0.3,0.2-0.5,0.3-0.7
		c0.1-0.1,0.1-0.2,0.2-0.3c0-0.1,0.1-0.2,0.1-0.3c-0.2,0.2-0.4,0.4-0.6,0.6c-0.2,0.2-0.3,0.5-0.4,0.8c-0.1,0.3-0.1,0.7,0.1,0.9
		c0.2,0.2,0.5,0.3,0.7,0.5c0.1,0.1,0.3,0.1,0.4,0.3c0.1,0.2,0,0.4,0,0.5c-0.1,0.3-0.4,0.6-0.6,0.9C22.2,16.4,22.6,16,22.7,15.5
		L22.7,15.5z"/>
	<path fill="#231615" d="M30.8,10.5c0.1-0.3,0.4-0.5,0.6-0.8c0.2-0.3,0.4-0.6,0.5-0.9c0-0.1,0.2-0.3,0-0.4c-0.1-0.1-0.3-0.1-0.5-0.2
		c-0.1,0-0.3,0-0.4-0.1c-0.1-0.1-0.1-0.3-0.1-0.4c0-0.4,0.4-1.3-0.1-1.5c0.4,0.4,0,1.2,0,1.7c0,0.2,0,0.3,0.2,0.4
		c0.2,0.1,0.3,0.1,0.5,0.1c0.1,0,0.4,0.1,0.3,0.2c-0.1,0.1-0.1,0.3-0.2,0.4c-0.1,0.3-0.3,0.5-0.5,0.7c-0.2,0.2-0.4,0.5-0.5,0.8
		c-0.2,0.6,0.4,1.2,0.4,1.8c0-0.3-0.1-0.6-0.2-0.9C30.8,11,30.7,10.7,30.8,10.5L30.8,10.5z"/>
	<path fill="#231615" d="M31.6,10.6C31.8,10,32,9.5,32.2,9c0.1-0.3,0.1-0.6,0.2-0.8c0-0.3-0.1-0.7-0.3-1C32,7,31.9,6.9,31.8,6.8
		c-0.1-0.1-0.2-0.3-0.3-0.3C31.6,6.7,31.8,7,32,7.2c0.1,0.3,0.2,0.6,0.2,0.9c0,0.6-0.3,1.2-0.5,1.8c-0.2,0.7-0.5,1.4-0.2,2.1
		C31.3,11.5,31.4,11,31.6,10.6L31.6,10.6z"/>
	<path fill="#231615" d="M22.9,11.3c-0.1-0.5-0.1-1-0.1-1.4c0-0.2,0-0.4,0-0.6c0-0.1,0-0.3,0-0.4c0-0.1,0.1-0.3,0-0.4
		c-0.2,0.2-0.2,0.5-0.2,0.7c0,0.2-0.1,0.5-0.1,0.8c0,0.5,0,1.1,0.3,1.6c0.1,0.2,0.3,0.5,0.6,0.4C23.1,11.9,23,11.5,22.9,11.3
		L22.9,11.3z"/>
	<path fill="#231615" d="M24,11.4c0.2-0.1,0.4-0.3,0.5-0.5c0.2-0.2,0.3-0.4,0.4-0.6c0.1-0.1,0.3-0.5,0.1-0.6C25,9.7,24.9,10,24.9,10
		c-0.1,0.1-0.2,0.2-0.3,0.4c-0.2,0.3-0.4,0.6-0.6,0.8c-0.2,0.2-0.4,0.4-0.5,0.6C23.6,11.7,23.8,11.5,24,11.4L24,11.4z"/>
	<path fill="#231615" d="M30.2,14.6c0.1-0.5,0.1-1,0.1-1.5c0-0.5-0.2-1-0.3-1.5c-0.1-0.2-0.1-0.4-0.2-0.6c0-0.1-0.1-0.2-0.2-0.3
		c-0.1-0.1-0.1-0.2-0.2-0.2c0,0.2,0.1,0.4,0.2,0.7c0.1,0.2,0.1,0.5,0.2,0.7c0.1,0.5,0.2,1,0.2,1.4c0.1,0.9,0,1.8-0.3,2.7
		C29.9,15.5,30.1,15,30.2,14.6L30.2,14.6z"/>
	<path fill="#231615" d="M20.2,24.7c-0.5,0.3-1,0.4-1.5,0.3c-0.3,0-0.5-0.1-0.8-0.1c-0.2-0.1-0.5-0.2-0.7-0.3
		c-0.1-0.1-0.3-0.2-0.4-0.1c0.1,0.2,0.4,0.4,0.6,0.5c0.2,0.1,0.5,0.2,0.8,0.3c0.5,0.1,1.1,0.1,1.7-0.1c0.5-0.2,1-0.7,1.3-1.1
		C20.9,24.3,20.6,24.5,20.2,24.7L20.2,24.7z"/>
</g>
</svg>
