<svg baseProfile="tiny" xmlns="http://www.w3.org/2000/svg" viewBox="0 0 50 50"><path d="M26.1 7.4v-.2c0-.1-.1-.1-.1 0v1.1c0 .5-.1 1-.1 1.4 0 .1 0 .3.2.3.1 0 .2-.2.2-.3 0-.2-.1-.4-.1-.7l-.1-1.4v-.2zM19.6 22l-.1-.9c-.1.4 0 .9 0 1.4l.1 1.5v2.6c0 .9-.1 1.7-.3 2.5-.1.5-.2 1-.3 1.4l-.3 1.3-.1.4v.4c.4-.2.5-.7.7-1.1.2-.5.3-.9.3-1.4l.1-1.3c.1-.4.1-.8.1-1.2.1-1.9 0-3.7-.2-5.6zM25.6 21c-.1.1-.1.3-.1.4.2-.9 1.3-1.3 2.1-1.2.5 0 .8.4 1 .9l.1.3c0 .1 0 .3.1.4.1.3.3 0 .3-.2 0-.4 0-.7-.3-1-.3-.4-.6-.6-1.1-.6-.8 0-1.8.4-2.1 1zM24.6 21.3c.1-.1.2-.2.3-.2-.5 0-.6.7-.6 1.1v2.8c0 .2-.1.5 0 .7 0 .2 0 .5.1.7.2-.1.2-.4.2-.6.1-.2.1-.4.1-.6l-.1-.6v-.6c0-.4-.1-.8-.2-1.3s-.1-1 .2-1.4zM24.2 25l.2-1c-.3.8-.4 1.7-.7 2.6l-.8 2.7c-.5 1.8-1 3.6-1.1 5.4v1.6c0 .3.1.5.2.8l.1.4c0 .1.1.2.2.3.1-.4 0-.8 0-1.3 0-.4 0-.8-.1-1.3 0-.9-.1-1.7.1-2.6.3-1.8.8-3.6 1.2-5.5.4-.6.6-1.3.7-2.1zM29.5 24.7v-.5c-.1.2 0 .5 0 .6l.1.7c.1.4.2.9.1 1.4 0 .5-.1.9-.3 1.3-.2.4-.4.8-.6 1.3l-.1.3-.1.3c0 .4.4 0 .5-.1.3-.4.4-.8.5-1.3.1-.5.3-.9.3-1.3 0-.5 0-.9-.1-1.4-.2-.4-.3-.9-.3-1.3zM30.8 14.8c-.3-.2-.3-.5-.3-.8-.4 1.1 1.5 1.1 2.1 1.1.9 0 1.9-.1 2.7.2 1 .3 1.2 1.3 1.3 2.2 0 .9-.1 1.7-.2 2.6 0 .1 0 .3-.1.4l.1.3c.3-.3.4-.9.5-1.3.1-.4.1-.9.1-1.3s-.1-.8-.2-1.2c-.1-.5-.3-1-.6-1.4-.7-.7-1.8-.7-2.7-.7h-1.3c-.5.2-1.1.2-1.4-.1zM36.1 22.4c.1-.2.1-.5.1-.8-.1.9-.5 1.6-.8 2.5-.3.8-.5 1.7-.7 2.6-.2.8-.5 1.6-.8 2.3l-.5 1.1-.3.6-.1.3v.3c.4-.2.6-.7.8-1 .2-.4.4-.8.5-1.2l.8-2.6.5-2.1c0-.8.3-1.4.5-2zM33.2 29v-.2c-.1.1-.1.3-.1.4v.6c0 .2-.1.3-.2.5-.1.1-.2.3-.1.4.1.1.3-.2.3-.2 0-.2 0-.3.1-.5v-1zM32.7 20.7c.1-.2.3-.4.4-.7-.3.3-.6.7-.8 1.1l-.7 1.2c-.4.9-.7 1.8-1 2.7l-.7 2.5c-.2.8-.5 1.7-.4 2.6.4-.8.7-1.7.8-2.6.1-.9.4-1.8.6-2.7.5-1.4 1-2.8 1.8-4.1zM32.2 31.8c.1-.2.3-.4.3-.6-.2.1-.3.4-.4.6-.1.2-.3.4-.4.5-.3.4-.6.7-1 1-.7.7-1.4 1.4-2.1 2l-1.2 1-.6.6c-.1.1-.2.2-.3.4-.1.1-.1.2-.2.4.4 0 1-.5 1.3-.8l.5-.5c.1-.2.3-.4.4-.5l2-1.9c.6-.7 1.2-1.4 1.7-2.2zM23.7 36.4c.1 0 .2 0 .3-.1-.1-.1-.6 0-.7.1-.2.1-.5.2-.7.4-.4.3-.7.6-.9.9-.3.3-.6.7-.7 1.1l-.1.4c0 .1.1.2.1.1l.3-.6c.1-.2.2-.5.4-.7l.5-.6c.5-.4.9-.8 1.5-1zM16.3 19.9c0-.3.1-.7.2-1-.2.4-.2.9-.3 1.4-.1.5-.1 1-.2 1.4-.1.9-.2 1.8-.3 2.6l-.3 3c-.1.9-.1 1.9-.1 2.8v1.5c0 .5 0 1 .2 1.5.1-.4.2-.9.2-1.3v-1.4c-.1-.9-.1-1.8-.1-2.7.1-1.9.2-3.8.4-5.7.2-.7.2-1.4.3-2.1zM34.1 41.5c-.1.2-.1.4 0 .6 0-.5.1-.9.5-1.2.4-.3.8-.5 1.3-.5 1 .1 1.7 1 2.6 1.6l1.1.7c.4.1.9.2 1.2 0-.2 0-.4 0-.6-.1l-.6-.3c-.4-.2-.9-.4-1.3-.7-.4-.3-.7-.6-1.2-.9-.5-.3-1-.5-1.6-.4-.6.2-1.2.6-1.4 1.2zM39.4 42c-.2 0-.4-.1-.5-.2.6.6 1.9.4 2.6.1.5-.2 1-.5 1.6-.6.5 0 .9.2 1.2.5.3.2.5.5.7.8.2.3.4.6.7.8.1-.4-.2-.8-.5-1.1-.3-.3-.7-.6-1-.8-.5-.2-.9-.4-1.4-.3-.6.1-1 .5-1.6.7-.6.1-1.2.2-1.8.1zM26.1 46.3c-.3 0-.7.1-1 .2l6.3-.6 3.3-.9c.9-.2 1.9-.1 2.8-.1h.6c-.9-.2-1.8-.5-2.7-.3-.5.1-1.1.3-1.6.5s-1.1.4-1.6.5c-1.9.5-4 .4-6.1.7zM37.8 45.1h-.5c.2.1.5.1.7.1h2.4000000000000004c1-.1 2.1-.4 2.9-1 .2-.2.6-.3.7-.6-.2 0-.5.1-.7.2-.2.1-.4.2-.7.3l-.6.4c-.2.1-.4.2-.6.2-1 .3-2.1.4-3.1.3-.1.1-.3.1-.5.1zM43 44.3h-.2c.1.1.4.1.5.1.2 0 .4.1.6.2.4.1.8.3 1.1.6l.5.3c.1.1.1.1.3 0 .1-.1 0-.2-.1-.3-.1-.1-.3-.2-.5-.3-.1 0-.2 0-.3-.1-.1-.1-.2-.1-.3-.1-.4-.3-1-.4-1.6-.4zM46.2 44v-.1c-.1 0-.1.1-.1.2 0 .2-.1.3-.2.4-.1.1-.2.2-.4.3-.1.1-.4.2-.4.3-.1.2.2.1.3.1l.3-.3c.2-.3.4-.6.5-.9zM16.4 38.4c.1-.1.6-.6.5-.7-1.4 1.2-2.4 2.8-2.1 4.7.2.9.7 1.7 1.3 2.4.6.7 1.5 1.4 2.4 1.6.3.1.5.1.8.1h.4c.1 0 .2 0 .3-.1l-.6-.2-.6-.3-1.2-.6c-.4-.2-.8-.4-1.1-.8-.3-.3-.6-.6-.8-1-1.1-1.5-.8-3.6.4-4.9.2 0 .2-.1.3-.2zM20.6 49.2l-.4-.1c.1.1.4.2.6.2l.6.2c.4.1.8.1 1.3 0 .8-.1 1.7-.5 2.4-1 .1 0 .5-.4.3-.4-.2-.1-.4.1-.6.2l-.5.3c-.2.1-.3.3-.5.3-.8.4-1.6.5-2.5.4-.2 0-.4 0-.7-.1zM21.4 47.9s-.1-.2-.1-.1c-.1.1 0 .1 0 .2l.3.6c.1.2.1.4.1.6 0 .1 0 .4.1.5.1.1.3 0 .3 0 .1-.1.1-.2.1-.3l-.2-.5c-.1-.3-.5-.6-.6-1zM21.1 44v-.5.5c-.1.3-.2.5-.2.7-.1.5-.3.9-.4 1.3-.3.8-.6 1.7-.6 2.6 0 .4.2 1.2.6 1.3l-.1-.6-.1-.7-.1-.6.1-.6.7-2.7.1-.7zM24.2 45.4c-.1-.1-.1-.2-.2-.2-.1.2 0 .2.2.2 0 .2.1.3.2.4.1.2.3.5.3.8.1.5.1.9 0 1.4-.1.2 0 .4 0 .7 0 0 0 .3.1.2.1-.1.1-.2.1-.3.1-.2.1-.3.1-.6v-.7c0-.6-.4-1.4-.8-1.9zM26 39.2c0-.1 0-.2-.1-.3v.6l-.1.7c-.1.5-.3.9-.6 1.3l-.3.6c0 .1-.2.2 0 .3.1.1.2-.1.3-.2.2-.2.3-.4.3-.6.1-.2.2-.4.2-.6.3-.5.4-1.2.3-1.8zM29.8 29c.1-.2.2-.4.3-.7-.3.4-.5.9-.8 1.4l-.6 1.1c-.5.8-.9 1.6-1.5 2.3-.5.6-.9 1.2-1.5 1.8l-.7.8-.7.8c.8-.2 1.5-1 2-1.7l1.6-2.3c.7-1.2 1.3-2.4 1.9-3.5zM19.7 26.7v-.5c-.3.3 0 1 .2 1.3l.7 1.2.7 1.4c.2.4.3.9.5 1.4l.3.7c0 .1.2.1.2 0v-.3c0-.3 0-.5-.2-.8-.1-.2-.2-.4-.4-.6l-.3-.6c-.1-.2-.3-.4-.4-.7l-.8-1.3c-.2-.4-.5-.8-.5-1.2zM33.2 31.2c-.1-.1-.1-.3-.1-.4l.1-.4c-.6.8.3 1.7.8 2.3.7.8 1.5 1.6 1.9 2.6.4.9.4 1.9.3 2.9 0 .5-.2 1-.3 1.4l-.3.7c-.1.2-.3.4-.2.6v.1c.2 0 .4-.3.5-.4.2-.1.3-.3.4-.5.3-.5.4-1 .4-1.6 0-.5-.1-1-.1-1.4 0-.5-.1-.9-.2-1.3-.3-1-.9-1.8-1.6-2.5-.5-.6-1.3-1.2-1.6-2.1zM26.4 40.3h-.6c.1.1.4.1.6 0 .3.1.6.2.8.2.4.1.8.3 1.2.5.7.4 1.4.9 2.2 1.2.5.2 1.1.3 1.6.3s1.1-.1 1.6-.3c-.8-.2-1.6-.1-2.4-.1-.4 0-.8-.2-1.1-.3-.4-.2-.8-.4-1.1-.6-.9-.5-1.8-.8-2.8-.9zM29 24.5c0-.1-.1-.3-.1-.1l.1.3c.1.2.3.3.5.4.4.1 1 .3 1.4.1.1 0 .2-.1.2-.2-.1-.1-.2-.1-.3-.1l-.6.1c-.4-.1-.9-.1-1.2-.5zM21.6 23.7c-.1 0 0 .1 0 0h.5l.7-.3c.1-.1 0-.2-.1-.2h-.2l-.3.2c-.1.2-.3.3-.6.3zM29.5 11.7s.1-.2 0-.2-.1.1-.1.2c-.1.2-.1.4-.1.7 0 .4 0 .9.1 1.3 0 .2.1.5.3.6.1.1.3.4.5.3.1-.1-.1-.4-.1-.5-.1-.1-.3-.3-.3-.4-.2-.8-.4-1.4-.3-2zM23.8 11.4c-.1-.1-.2-.3-.3-.5.3.9 1.2 1.5 2 1.9.4.2.9.4 1.3.4.5 0 .9-.3 1.3-.6.6-.5 1.2-1.2 1.5-2-.6.7-1.2 1.5-1.9 2.1-.8.6-1.8.2-2.5-.2-.5-.1-1-.6-1.4-1.1zM23.9 12.4c0-.3-.1-.6-.2-.9.1.5.3.9.1 1.3-.2.4-.5.8-.9 1-.8.5-1.7.9-2.7 1.1-.9.2-1.9.1-2.6.7-.8.5-1.1 1.5-1.4 2.4l-.4 1.2c-.2-.1.1-1.1.2-1.3.1-.5.3-.9.6-1.4.5-.9 1.3-1.4 2.3-1.5.9-.1 1.9-.2 2.8-.6.8-.3 1.9-.8 2.2-1.7v-.3zM18.9 23.7c0-.2 0-.3.2-.3-.3-.1-.3.3-.3.5s.1.5.3.7c.2.5.5.9 1 1.2.4.3 1 .5 1.5.6.3.1.6.1.9.1.3 0 .5-.1.8-.2.1 0 .3-.1.3-.2 0-.2 0-.2-.2-.2-.2-.1-.5 0-.7 0l-.7.1c-.3.1-.5 0-.7 0-.5-.1-1-.2-1.4-.6-.4-.3-.6-.7-.8-1.1-.1-.4-.1-.5-.2-.6zM25.1 17.1c-.1 0-.3-.1-.2 0 0 0 .2.1.3.1.2.1.4.3.7.3.5 0 .8-.6 1.2-.6.1 0 .5 0 .5-.2s-.3-.4-.5-.3c-.3 0-.3.2-.5.4l-.5.5c-.3.2-.7-.1-1-.2zM24.4 12.8c0-.1 0-.3-.1-.4-.2.3.2 1 .3 1.2.2.4.5.8.6 1.2.1.4.1.9.1 1.3v.7c0 .1 0 .7.2.4.1-.1.2-.4.2-.6v-.6c-.1-.4-.1-.8-.3-1.2l-1-2zM27.6 37.7v-.3c-.2.1-.1.5-.1.6l.1.7.4 1.4.3.6c.1.1.1.2.2.2s.1-.2.1-.3c0-.2-.1-.4-.2-.6-.1-.1-.2-.2-.2-.3l-.1-.3c-.2-.5-.5-1-.5-1.7zM19.4 33.4c-.1-.1-.2-.2-.4-.2.1.2.3.3.5.4l.5.5c.3.4.6.8.8 1.3.2.5.4 1 .6 1.4.1.2.2.5.4.7.1.2.3.4.5.5.1-.2-.1-.4-.2-.6l-.3-.6c-.1-.2-.3-.3-.4-.6l-.3-.6c-.5-.8-1-1.7-1.7-2.2zM29.1 21c-.1-.1-.2-.2-.3-.2 0 .2.4.4.5.5.2.2.3.5.4.7.2.5.3.9.4 1.4.1.4.2.8.4 1.3.1.1.1.2.3.2.1 0 .1-.2.1-.3 0-.2 0-.4-.1-.6-.1-.2-.3-.4-.3-.7l-.3-.7c-.4-.6-.7-1.2-1.1-1.6zM20.1 41.7c0-.1 0-.2-.1-.2-.2-.1-.1.2 0 .3.1.3.2.5.2.8.1.4.2 1-.1 1.4-.1.2-.3.3-.5.4-.2.1-.4.3-.5.4-.1.1-.1.1-.1.3 0 .1.2.2.3.2.2 0 .5-.1.7-.2l.3-.3c.1-.1.2-.2.3-.4.2-.2.2-.6.2-.9 0-.3-.1-.5-.2-.8-.3-.5-.3-.8-.5-1zM15.7 33.8v-.4c-.1.2 0 .5 0 .7 0 .3.1.5.2.8.2.5.5.9.9 1.2.3.3.7.6 1.1.9.2.2.3.3.5.4.2.1.4.3.6.3-.1-.3-.5-.6-.8-.8l-1-.7c-.9-.6-1.4-1.4-1.5-2.4zM18.2 36v.4c.1.1.2.4.4.4.1 0 .1-.2 0-.2-.1-.1-.1 0-.2 0l-.2-.6zM19.6 37v-.2c-.2.1-.2.4-.2.6l-.2.6c-.1.5-.3 1 .3 1.2.4.1.2-.2 0-.4s-.3-.2-.3-.4c0-.4.1-.9.2-1.3.2 0 .2-.1.2-.1zM22.1 44.2c.1.2.2.3.3.3.2 0 .5-.2.4-.4-.1-.3-.4-.1-.3.2 0 .1-.1.1-.1.1-.2 0-.2-.2-.3-.2zM21 43.2l.1-.1c-.3.1-.3.8-.2 1 .2.4.7.3.8-.1.1-.2-.2-.1-.3 0-.1.1-.1.2-.2.1-.4-.2-.4-.6-.2-.9zM22.5 38.8l.1-.4c-.1.1-.2.4-.2.6l-.2.6-.4 1.2c-.1.4-.3.8-.5 1.2-.1.2-.2.4-.2.6 0 .2-.1.5 0 .7.3-.2.4-.7.5-1 .1-.2.1-.4.1-.6.1-.2.1-.4.2-.5.2-.9.4-1.7.6-2.4zM24.9 39.7l.1-.3c-.3.3-.3.9-.3 1.3s-.1.9-.2 1.3-.3.8-.5 1.3l-.1.3c.1.1.2.1.3-.1l.3-.6.2-.8c.1-.3.1-.5.1-.8 0-.5-.1-1.1.1-1.6zM24.1 2.3c.1-.4.2-.7.4-1-.5.6-.7 1.7-.4 2.5.3.9 1.1 1.5 1.9 1.9.8.4 1.6.8 2.4 1.3.8.6 1.4 1.5 1.7 2.3.2.6.3 1.1.2 1.7l-.1.9c0 .2-.1.3-.1.4-.1.2 0 .3 0 .5.4-.3.6-.9.7-1.4.1-.5.1-1.1-.1-1.6s-.4-1-.8-1.4c-.3-.4-.6-.8-1-1.2-.7-.6-1.5-1-2.4-1.4-.6-.3-1.5-.8-2.1-1.5-.4-.6-.4-1.4-.3-2zM23.9 3.6l.3-.6c-.2.1-.3.4-.4.6-.2.2-.3.5-.4.7-.3.5-.5 1-.7 1.5-.4 1-.7 2.1-.7 3.2 0 .6.1 1 .4 1.5.1.1.1.2.2.2s.1 0 .1-.1v-.2l-.1-.7-.3-1.4c0-.2 0-.5.1-.7l.1-.8c.3-1.1.7-2.2 1.4-3.2zM23.7 1.8c0-.5 0-1 .2-1.5-.5.8-.3 1.9-.1 2.7.3.9.9 1.6 1.8 2.1.8.5 1.8.8 2.7 1.1.9.3 1.8.6 2.7 1 .9.4 1.8.8 2.5 1.4.3.3.6.6.8 1 .2.4.2.9.1 1.3s-.3.9-.6 1.2l-.4.6-.3.6c.8-.6 1.6-1.6 1.8-2.6.2-1.1-.6-2-1.5-2.6-1.6-1.1-3.5-1.7-5.4-2.2-.9-.3-1.9-.6-2.7-1.1-.8-.5-1.4-1.3-1.6-2.3.1-.1 0-.4 0-.7zM23.7.4c.3-.2.6-.3 1-.4-1.8.3-3.1 2-3.7 3.6-.7 1.8-.4 4 .4 5.7.2.4.5.8.8 1.2.3.3.6.7 1.1.9-.3-.3-.6-.7-.8-1.1l-.6-1.2c-.2-.4-.4-.8-.6-1.3-.2-.3-.2-.8-.3-1.2-.3-1.8.2-3.6 1.4-5 .4-.5.8-.9 1.3-1.2z"/></svg>