<svg xmlns="http://www.w3.org/2000/svg" viewBox="0 0 523 697" enable-background="new 0 0 523 697"><path d="M4.5 554c2.2-5.9 5.5-11.4 9.2-16.5 6.6-9.2 15.1-16.5 23.5-23.9 4-3.7 8.4-7.3 12.1-11.7 3.7-3.7 8.1-8.8 9.2-14-2.6-.4-4.8 2.6-6.6 4-2.2 1.5-4 3.7-5.9 5.5-3.7 4-7.7 7.7-11.7 11.4-8.1 7.3-16.2 15.8-22 25-3.4 6.2-5.9 12.8-7.8 20.2zm61.7 10.2c-2.6 9.5-3.3 19.8-3.7 29.7 0 9.9 0 19.8.4 29.4.7-1.1.7-2.6 1.1-3.7 3.3-19.1.4-39.3 8.4-57.3 1.8-4.8 4.4-9.2 7.3-13.2l4.8-1.1c5.1-1.5 10.3-2.9 15.4-4 10.3-2.9 20.9-5.1 31.9-5.9 10.6-.7 20.9.4 31.2 2.2 10.6 1.8 21.3 3.7 32.3 4.8 5.1.7 10.3 1.1 15.4 2.2 5.1.7 9.9 2.6 14.7 4.4-1.8-4.4-7.3-6.6-11.4-8.4-4.4-1.8-9.2-2.9-14-3.7-4.4-.7-9.2-.7-13.6-1.5-4.4-.7-8.8-1.8-13.2-2.6-9.9-1.8-20.9-4.4-31.2-2.9-5.9.7-11.7.7-17.6 1.5-5.9 1.1-11.7 2.2-17.6 3.7-6.2 1.8-12.1 3.7-18.4 5.9-2.6 1.1-4.8 1.8-7.3 2.6 1.8-2.9 4-5.9 5.9-8.4 2.9-4 5.5-8.1 8.1-12.1 1.8-3.3 4-6.6 5.1-10.3 1.8 2.2 4.4 4 7 5.5 2.2 1.1 5.1 1.8 7.3.7-.7-1.8-3.7-2.9-5.1-4-1.5-1.1-2.9-2.9-4-4.4-1.1-1.1-1.8-2.9-2.6-4.4-.7-1.1-.7-2.9-1.5-4-1.1-2.6-4-2.9-5.1-.4-1.1 2.6.7 4 1.5 6.2.4 1.5 1.1 2.6 1.8 3.7-1.8 1.1-3.3 2.9-4.8 4.4-1.8 1.8-3.7 4-5.5 6.2l-9.2 13.6c-2.6 4-5.5 7.7-7.7 11.7l-2.2 1.1h1.8c-2 4.4-4.2 8.4-5.7 12.8zm-19.8 16.2c0 4.8.7 9.5 1.1 14.3 1.1 11 2.9 22 5.5 32.7 1.8 6.2 4 12.1 6.2 18.4l-1.8-9.9c-2.2-12.5-3.7-25-4.8-37.4-.4-5.1-1.1-10.3-1.8-15.4-.4-2.6-.4-5.1-.4-7.7s.7-5.1 0-7.3c-4 .5-4 9.4-4 12.3zm227.9-52.1c2.9 2.6 5.5 5.1 8.1 7.7 3.3 2.9 6.2 6.2 9.5 9.5 2.9 2.9 6.2 6.6 9.9 8.8 4.4 2.6 7.7 6.2 11.7 9.2 4.8 3.3 9.5 5.9 14.3 8.8 5.1 2.6 10.3 5.5 14.7 8.8-1.1 1.5-1.8 3.3-2.9 5.1l-1.1 2.2c-3.7-1.8-7-4-11-5.5-1.5-.7-5.5-2.6-8.8-3.7-1.1-1.8-1.8-3.3-3.3-4.4-.4 1.1.4 2.6.7 3.7-.7 0-1.5.4-1.8.7-1.1 1.5.7 3.3 3.3 4.8 2.2 9.5 2.2 19.1 3.3 29l2.2 28.6c.7 7.3 1.5 14.7 1.5 22 .4-9.2.7-18 .7-26.8 0-9.5-.4-19.5-1.1-29-.4-5.9-.7-11.7-2.2-17.6l-1.1-4.8c1.8.7 2.9 1.1 3.7 1.5 4 1.5 7.3 4 11.4 5.5-.7 1.5-1.8 2.9-2.9 4 1.8-.7 3.3-1.8 4.8-3.3 4.4 1.5 8.8 2.6 13.2 3.3 4.4.4 8.8.4 13.2 0-6.2-1.1-12.8-2.9-18.7-5.5-1.5-.4-2.6-1.1-4-1.8 1.8-1.8 3.3-4 4.8-5.9 2.9 2.6 5.1 5.5 6.6 9.2 0-3.7-2.2-7.7-5.1-11 2.9-3.3 5.9-6.2 9.9-8.1 2.6-1.1 5.1-2.2 7.7-2.9 1.5-.4 2.9-.4 4.4-.4.7 0 2.9.4 2.9-.7-.4-1.5-4-2.6-5.5-2.9-2.6-.4-4.8 0-7.3.7-4.8 1.1-9.2 2.9-12.5 6.6-1.5 1.5-2.2 2.9-3.3 4.4l-.4-.4c-8.1-7-18-11.7-26.4-18.4-7-5.9-13.6-12.5-19.8-19.1l-8.8-9.5c-3.7-3.7-7.3-7-11.4-10.3-7.7-6.6-14.3-14.3-22-20.6 2.9-1.8 5.1-4.4 7-7.7l-5.1 3.3c-2.2 1.1-4.8 1.8-7 2.6-4.8 1.5-9.2 2.6-14 4-8.1 2.6-15.8 5.5-24.2 7-19.8 3.3-39.3 2.2-59.1 1.1-12.5-.4-24.6-.7-37.1-.4 9.2.4 18.4 1.1 27.5 2.2 20.2 1.8 40.4 4.4 60.6 2.6 4.8-.4 9.9-1.1 14.7-2.2 5.1-1.1 9.9-2.9 14.7-4.8 6.6-2.2 14.3-3.7 20.6-7-.4 3.7 1.8 7.7 3.7 10.6 1.8 3.7 4.8 6.6 7.7 9.2 2.7 2.8 6 5 8.9 8zm-60.2-9.6c-.4.7.7 1.8 1.1 2.6 1.5 2.2 3.3 4 5.1 5.5 2.2 1.8 4.4 2.6 6.2 4.4 7.7 7.3 16.2 13.6 22.8 21.7 4 4 7 8.4 10.6 12.5 0-2.2-1.5-4.8-2.6-6.6s-2.2-4-3.7-6.2c-2.6-4.4-5.5-8.4-8.4-12.1-6.2-8.1-12.8-15.1-21.7-19.8-2.2-1.1-4.4-2.6-6.6-2.9-1.7-.5-2.4-.5-2.8.9zm40.4 53.6c2.2 4 4.4 8.1 6.2 12.5s3.3 9.2 4.8 13.6c3.3 9.5 6.6 19.1 9.2 29 2.2 7.3 4.4 15.1 3.3 23.1 3.3-12.8-.4-26.1-3.3-38.5-2.2-9.9-4.8-19.5-8.8-28.6-2.2-4.4-4.4-8.8-7.3-12.8-2.6-3.7-5.5-8.1-9.5-10.6-.4 1.8 1.8 4 2.6 5.9 1 2 2.1 3.8 2.8 6.4zm211.5-1.8c19.5 0 37.8 8.1 52.5 20.6-.7-4-4.8-8.1-8.1-11-3.7-3.3-8.1-5.9-12.8-7.7-8.8-3.3-18.4-5.1-27.9-6.2-10.3-1.1-22.8-.7-32.3 4.4l-8.1 3.7-6.6 3.7c-5.5 2.9-10.6 4.4-16.5 1.5-5.9-2.6-10.3-7-15.8-9.9-6.2-3.7-13.6-5.9-20.2-8.1 2.6 2.2 6.6 3.7 9.5 5.1 3.7 1.8 7 3.3 10.3 5.5 5.9 3.7 10.6 9.2 17.3 11.7 10.3 4 19.5-3.7 28.6-7.3 9.9-4.2 19.8-5.7 30.1-6zm12.5 54.7c-2.2 1.1-4.4 1.8-6.2 3.3 2.6 1.5 9.5-1.8 12.1-2.9 3.7-1.8 7.3-3.7 10.6-6.2 3.3-2.6 6.6-5.1 9.5-8.1 3.3-3.3 5.1-7.3 7-11.4 1.1-1.8 2.2-4 2.6-6.2s-1.5-5.5-4-3.7c-1.8 1.5-3.3 2.9-4.4 4.8-1.1 1.8-1.5 4.4-2.9 5.9-3.3 3.3-6.6 7-9.2 10.6-1.1 1.8-2.2 3.7-4 5.1l-5.5 4.4c-1.6 1.4-3.4 2.9-5.6 4.4zm-107.6 2.6c-10.6-2.6-21.3-5.9-31.2-10.6 2.2 1.1 4.4 2.2 6.6 3.7 16.9 10.6 38.2 16.2 58 11.7 10.6-2.6 21.3-6.2 31.9-9.2 9.9-2.9 22-4.4 30.8 2.9-.4-3.3-3.7-6.6-6.6-8.1-3.3-1.8-7-2.2-10.6-2.2-6.2 0-12.5 1.8-18.4 3.3-10.6 2.9-21.3 7-31.9 9.5-9.9 2.3-19.8 1.2-28.6-1zm-237.2-14c-13.2-1.8-26.8-4.4-40.4-5.1 2.9 1.1 7 1.5 10.3 2.2 3.7.7 7.3 1.8 11 2.6 7 1.8 14.3 3.3 21.7 4.8 9.9 2.2 20.2 4.4 30.5 6.6 10.3 1.8 20.2 4.4 30.5 5.9 5.5.7 10.6 1.1 15.8 1.8 4.8.4 9.9 1.1 15.1.7 9.5-.7 19.8-1.8 29-4.8-3.7-2.6-9.5-2.2-14-2.2l-16.5.4c-5.1 0-10.3 0-15.4-.7l-14.7-2.2c-9.9-1.5-19.8-2.2-29.7-4-11.1-2-21.8-4.2-33.2-6zm-62-21.7c3.3 4.4 7.3 8.8 12.1 11.4 3.7 2.2 8.1 3.3 12.1 4.4l11.4 2.2c-7.3-2.6-13.6-6.2-19.8-10.3-4-2.9-8.8-6.2-11.7-10.6-1.5-2.2-2.6-5.9-5.5-4.4-2.3 1.1.3 5.9 1.4 7.3zm62.8-7.7c-2.2-1.8-3.3-1.5-5.9-.4-1.8 1.1-3.7 2.9-5.5 3.7-1.8.7-4.4 1.1-6.6 1.5s-4.4 1.5-6.6 1.8l-8.4 1.5c-3.7 1.1-7.7 1.5-11.4 2.2 1.8.7 4 .7 6.2.7 2.2.4 4.4.4 6.6.7 4.8.4 9.2 0 14-.4 5.5 0 10.3-2.6 14.7-5.9 1-1 4.7-3.9 2.9-5.4zm141.7-268.3l1.8 2.9c-.4 2.2-1.1 4.8-1.5 7.3l-1.8 8.8c-1.1-3.3-2.6-6.6-4-9.5-3.7-8.8-6.6-18.4-13.2-25.3-1.5-1.8-3.3-3.7-5.9-4-4.4-.7-.7 3.3.4 4.8 2.9 4 5.5 7.7 7.3 12.1 3.7 9.2 8.8 17.3 13.6 26.1.4.7.4 1.1.7 1.5-4 18.4-8.1 37.1-15.8 54.7-4.4 11-9.9 22-17.6 31.2 2.6-2.6 5.1-5.5 7.3-8.4 14.3-19.5 22.4-42.6 28.3-66.1.4-1.5.7-3.3 1.1-5.1l3.3 7c-.4-3.7-1.5-7-2.6-10.3l3.3-18.7 3.3 5.5 8.4 15.1c-.4-3.3-2.6-7-3.7-9.9-1.5-3.7-2.9-7-4.4-10.3-.7-2.2-1.8-4.4-2.9-6.6 1.5-9.9 2.6-20.2 3.3-30.1-1.5 2.9-2.2 6.2-2.9 9.2-1.1 3.7-1.8 7-2.6 10.3 0 1.5-.4 2.9-.7 4.4l-8.1-15.4-8.1-14.7c-2.6-4.4-4.8-8.8-7-13.2-4-8.1-8.4-16.5-14-23.9 1.8-1.8 2.9-3.7 4.4-5.5 3.7-4.8 7-9.5 10.6-14.3 1.5-2.2 3.3-4 5.5-5.5 1.1-.7 6.2-3.7 2.9-4.4-2.6-.7-5.9 2.2-7.7 3.7-2.2 1.8-4.4 4-6.2 6.2-4 4.4-6.6 9.9-9.5 15.1-.7 1.1-1.1 1.8-1.5 2.9-4.8-5.9-16.2-15.4-22.8-7 3.3 1.1 6.2 1.1 8.8 3.7s4.4 5.1 6.6 7.7c1.8 2.2 4 4.8 5.9 7.3 1.8 2.2 2.9 4.8 4.4 7.3 4.8 8.8 9.5 17.6 15.4 25.7 6.5 8.9 12 18.5 17.9 27.7zm52.8-75.3c-4.4-2.6-9.5-4.8-14.7-5.1-1.5-.4-2.6 0-3.7 0-1.8-1.5-4-2.6-5.9-4-5.1-3.7-9.9-7.3-15.1-10.6-1.8-1.1-4.4-3.7-6.6-2.9-2.9.7 1.1 5.1 2.2 5.9 2.6 1.8 5.1 3.3 7.3 5.1 1.8 1.5 3.3 2.9 5.1 4 2.6 1.5 5.1 2.9 8.1 4-5.9 3.3-9.9 9.2-12.1 15.4-1.8 5.9-2.6 12.1-2.9 18l1.5-4.4c2.6-9.5 7.7-23.1 18.7-25.3 1.5-.4 3.3-.4 4.8-.4 1.5.4 2.9.4 4.4.7 1.5.4 3.3.7 4.8 1.5 2.6 1.1 5.1 2.2 7.3 3.7l6.2 4.4c.4-2.2-2.2-4.4-3.3-5.9-1.3-2.2-3.5-3.7-6.1-4.1zm-9.5-30.5c1.8-2.2 3.3-5.1 4.8-7.7.7-2.2 2.6-4.8 2.6-7-1.5.4-2.6 2.9-3.3 4.4-1.1 1.8-1.8 3.7-2.9 5.1-2.2 3.3-4.8 6.6-8.1 8.4-7 4-15.1-.7-20.9-4.8-4.4-2.9-8.4-5.9-13.2-8.4 8.8 6.2 16.2 16.9 27.9 17.6 5.8.5 10.2-3.2 13.1-7.6zm-114.2-42.5l-20.2 2.6c2.2.7 5.1.7 7.7.7l6.6.4c4.4.4 9.2 0 13.6-.4 8.4-.7 17.6-4.4 23.1-11 3.7-4.4 6.2-10.6 7-16.2.7-4.8 1.1-11-1.1-15.4-1.8 1.1-1.8 4.4-2.6 6.2-.7 2.2-1.5 4.4-1.8 6.6-.4 2.6-.7 4.8-1.5 7-1.1 2.2-2.2 4-3.7 5.9-2.9 4-7 6.2-10.6 9.2-1.8 1.5-5.1 1.8-7.7 2.6-2.9.7-5.8 1-8.8 1.8zm182.5-44.1c4-5.1 3.3-10.6-.4-15.8-3.3-4.4-6.2-8.4-9.9-12.5-6.6-7-16.5-15.4-26.8-12.5l3.3.4c9.5 1.5 16.2 11.4 21.3 19.1 1.5 2.2 2.9 4 4 6.2.7 1.8 2.6 3.7 2.9 5.9.7 4-3.3 7.7-7.3 7.3-2.9-.4-5.9-.4-8.8-.4 1.8-1.1 2.9-2.9 3.7-5.5 1.5-5.5-4.4-9.9-8.4-12.5-4-2.9-8.4-5.9-12.8-8.8s-10.3-7-15.4-3.7c4.4 0 7.7 1.1 11 4 2.6 2.6 5.5 5.1 8.4 7.3 2.9 2.6 17.3 10.3 11 15.4-3.7 2.9-11.4-.4-15.1-1.8-2.6-.7-5.5-1.8-8.1-2.9-2.6-.7-4.8-2.2-7.3-2.6-12.8-1.8-8.8 18-6.2 24.6 4.8 10.6 13.2 20.2 16.5 31.6-.4-6.2-2.6-12.1-5.5-17.6-4.4-9.2-11.4-19.5-9.5-29.7.4-2.2.7-5.5 3.3-5.5 2.9-.4 5.1 1.5 7.3 2.6 4.4 2.2 8.8 4 13.6 5.5-2.6 0-4.4 1.1-5.5 3.7-4.8 10.6 8.1 19.8 14.3 26.4 2.2 2.2 4.4 4.4 7 6.6s5.1 4 7.3 6.6c1.8 2.2 4.4 5.9 4 8.1-.7 3.3-3.7 5.1-5.5 7.7 2.6-.7 7.3-5.5 7.7-8.4.4-4-2.6-8.1-5.1-10.6-2.6-2.9-5.9-5.5-8.8-8.4s-5.9-6.2-8.8-9.2c-3.3-3.3-7-7.3-8.1-12.1-.4-1.5-.7-4.8 1.1-5.5l2.9.7c1.1.4 2.2.4 3.3.4 4.4 0 9.5-.4 14.3.7 5.5 1.1 10.7-.4 15.1-4.8zm-42.2-62c1.8-4.8-5.1-10.3-8.4-12.8-7.7-5.9-16.9-10.6-26.1-14-8.8-3.3-18.7-5.9-28.6-4.8-3.3.4-6.6 1.1-9.9 2.6-1.1-6.2-5.9-11.7-9.9-16.2-3.3-3.7-7.7-6.6-12.8-7-2.6-.4-5.1 0-6.6 2.2-1.5 1.8-2.2 5.1-1.1 7.3.4 1.5 2.9 4.4 2.6 5.5-.7 1.8-2.6 1.5-4.4 1.5h-15.4c-5.1.4-10.3 1.1-15.4 1.8-5.5 1.1-13.6 2.9-14 9.5-.7 9.9 10.6 17.3 17.3 22.4 5.1 3.7 10.3 7.3 15.4 10.6-1.8-.4-3.3-.7-5.1-.7h-.7c-2.2-1.1-4.8-2.2-7.3-2.9-3.7-1.1-9.5-5.9-11.4.4-.7 2.6 0 5.9 1.5 7.7 1.1 1.1 2.2 1.5 3.3 1.8-1.5-.4-3.3-1.1-4.8-1.8-2.6-1.1-5.1-1.8-8.1-2.2-6.2-.7-10.6 1.8-13.2 7.3-3.7 7.3 2.9 14.7 8.4 19.1 2.6 2.2 5.5 4 8.4 5.9 2.9 1.8 6.6 4 9.9 4.8-.4-1.5-2.6-2.6-3.7-3.3-1.8-1.1-3.3-2.2-4.8-3.3-3.3-2.2-6.6-4.8-9.5-7.7-3.3-3.3-8.1-8.4-5.9-13.2 1.1-2.2 2.6-4.8 4.8-5.5 1.8-.4 5.1.4 7 .7 2.9.7 6.6 2.9 9.9 4 0 2.9.7 5.9 1.5 8.4.7 3.3 2.2 6.2 3.3 9.5 1.5 3.7 1.8 7.7 2.6 11.7 1.1 8.8 2.2 17.6 6.2 25.3-4.8-11.4-3.3-23.9-5.9-35.6-1.1-5.1-5.1-12.8-4.8-19.1.7 0 1.8-.4 2.6-.7 2.2-1.1 3.3-3.7 2.2-5.9l-.4-.4 1.1-.4c4 2.2 8.1 4.4 12.1 6.2 4.4 1.8 9.9 4 14.7 4 1.8 0 3.7-.7 5.1-2.2 4.4 2.2 8.1 5.9 12.8 7.3 6.2 2.2 10.3-2.6 9.2-8.8-1.1-5.1-5.1-9.5-8.1-13.6-1.1-1.5-3.3-4-2.9-5.9.4-2.2 4-3.3 5.9-3.7 5.1-1.1 11 .4 16.2 2.2 3.3 1.1 7 2.9 9.9 5.5-.7-.4-1.8-.7-2.6-1.1-3.7-1.1-8.1 0-9.9 4-1.8 3.7-1.1 8.1-.4 11.7.7 3.3 2.2 9.9-1.5 12.5-1.8 1.5-4.8 1.5-7 1.5l-7.7.4c-5.1 0-10.6.4-15.1 2.9-4.8 2.6-6.6 7.3-6.6 12.5 0 8.8 4.8 17.3 9.5 24.2l8.1 11.4c1.8 2.6 3.7 5.1 5.1 7.7 1.5 2.6 2.6 5.1 4.4 7.3l.7.7c-1.5 2.6-7.3 3.3-9.5 4.4-4 1.8-6.2 5.5-5.9 9.9.7 7.3 6.2 14.7 11 20.6-2.9-7.3-11.4-15.1-8.1-23.5 1.8-5.5 8.8-4.8 13.2-6.6 2.2-1.1 4.8-3.7 4-6.2-.4-2.2-2.6-4.4-3.7-6.6-4.4-8.4-9.9-15.8-15.1-23.5-2.6-4.4-5.5-9.2-6.6-14.3-.7-3.7-1.5-9.9 1.8-12.1 3.3-2.6 9.5-1.8 13.6-2.2 5.1-.4 11-.4 15.8-2.6 5.5-2.6 7.3-8.4 7-14-.4-4.8-4-10.3-2.9-15.1 1.1-5.1 7.7-2.6 10.6-.7 4 2.2 8.1 5.5 10.3 9.5-1.5-4.4-5.5-9.5-9.9-12.5-2.9-6.6-10.3-12.1-16.5-14-3.7-1.1-8.4-1.8-12.5-1.1 3.3-4 6.6-9.2 7.3-14.7 1.8-1.1 4-1.8 6.2-2.2 7-1.5 13.6-1.1 20.6.4 9.2 1.8 18 5.5 26.4 9.5 5.1 2.6 9.9 5.5 14 9.5 1.8 1.8 4.4 3.7 2.9 6.6-1.1 2.2-3.7 3.3-5.9 3.3-12.1 0-23.9-5.9-36-7.3 10.3 2.6 19.8 7.3 30.5 9.2 6.1 1.8 12.4 1.8 15.7-2.9zm-137.3 8.4l-.4-1.5 3.3 2.2c-.4 0-.4.4-.7.4-.8-.4-1.5-.7-2.2-1.1zm56.9-40.4c1.5 1.8 1.8 4 1.8 6.2-4 4-6.2 9.5-5.5 15.4 1.5-3.7 2.2-7 4.8-9.9-.4 3.3-1.1 7-2.2 10.3-1.5.4-2.9.7-4.4 1.5-2.6 1.1-5.1 2.9-6.2 5.9-.7 2.6.4 5.9 1.8 8.1 2.6 4.4 8.4 9.2 8.8 14.7.4 2.9-1.5 2.2-3.3 1.5-2.2-.7-4.4-2.2-6.2-3.3h1.8c-.7-1.1-2.9-1.5-4.4-1.8l-1.1-.4c-.7 0-1.1-.4-1.8-.7 0-1.5-.4-2.9-1.1-4.8-1.5-3.7-7-8.8-4-12.5h-.4c2.9 0 5.9.4 6.2-3.7.4-4.4-2.9-3.7-5.9-3.7.7.7 3.3.7 3.7 1.8.4.7-.7 2.2-1.5 2.6-.4-1.5-3.7-1.5-4.8-.7-2.2 1.1-3.7 4-4 6.2-.4 2.6.7 5.5 1.8 7.7.4.7.7 1.5 1.1 2.6l-5.1-2.9c-9.2-5.5-17.6-12.1-26.1-19.1-3.7-2.9-7.7-6.6-9.2-11-1.8-5.5 2.9-6.6 7.3-7.3 9.9-1.8 20.2-.4 30.1.4 5.9.4 11-1.1 13.6-6.6 1.1-2.2.7-5.5-.7-7.7-.7-1.1-2.6-2.2-2.6-3.7 7-.1 13.3 8.7 17.7 14.9zm-81.5 649.8c1.8 2.2 4.8 3.3 8.1 3.7 1.1 1.8 2.6 3.7 4.4 4.4.4-1.1-.7-2.9-1.5-4.4 4 0 8.4-1.1 11.4-2.9.4 1.8 1.1 3.3 1.8 5.1.4-2.2.4-4.4.4-6.6.7-.7.7-1.5.7-2.2h5.5c3.7 0 7.3-.4 10.6-1.1 7-1.5 14-3.7 19.1-9.2 1.1-1.1 9.2-10.6 5.5-11.7-2.6-.7-4 .4-5.9 2.2-1.5 1.5-2.9 4-4.8 5.1-7 4.4-14 9.2-22 11.4-2.6.7-5.5 1.1-8.4 1.5v-4.4c.4-2.6.7-4.8 1.1-7.3.4-2.2 1.1-5.1 1.1-7.3 0-3.7-3.3-3.3-4.4-.4-.7 2.2-.4 5.1-.7 7.3-.7 4-.7 8.1-.4 12.1h-.3l.4.4v.7c-1.1.7-2.2 1.5-3.3 1.8-2.9.7-5.9 1.5-8.8 1.8-.4-1.1-.4-1.8-.7-2.6-.7-3.7-1.1-7.3-1.1-11 0-8.1 1.5-15.8.7-23.9 0-2.2-.4-4.4-.7-6.6 0-.7-.4-1.8-.7-2.6-1.1-1.5-2.2-.4-2.6.7-1.8 4.4-1.1 8.4-1.5 12.8-.4 5.1-1.1 9.9-.7 14.7.7 4.8 1.5 9.5 2.6 14.3l1.8 4.4c-2 .2-4.2.2-6.7-.2zm158.6-167c.4-6.2.4-12.1.4-18.4l1.1 4.4c1.1 4.8.7 10.3.4 15.1-.4 5.5-1.5 10.6-2.9 15.8-1.5 5.9-3.7 11.4-5.9 16.5-1.1 2.9-2.6 5.5-4 8.4-1.5 2.6-3.3 5.1-4.4 7.7 1.8-.4 3.7-3.7 4.8-4.8 1.5-1.8 2.9-4 4.4-5.9 2.9-4 5.1-8.4 7.3-13.2 4.4-9.5 7.3-19.8 7.7-30.5.4-10.3-1.5-20.6-4.8-30.1-1.5-3.7-3.3-7.3-5.1-11-.4-4.8-.7-9.5-1.5-14.3-1.5-9.5-2.9-18.7-5.9-27.9-2.6-7.7-5.9-17.6-12.1-23.5 4-14 7.7-27.9 11.4-41.9 2.2-8.4 4.8-16.9 6.6-25.3 1.8-8.8 3.3-17.6 4.8-26.8 2.6-17.3 8.8-35.2 2.2-52.5l-2.2 14.7c-1.5 4.4-2.2 9.2-3.3 14-1.8 8.1-3.7 15.8-4.4 23.9-.7 8.4-3.3 16.9-5.1 25.3-1.8 8.8-4 17.6-5.9 26.4l-6.2 29.7c-2.2 10.3-4.8 20.6-8.1 30.8-2.6 8.8-5.5 17.6-9.5 26.1-3.7 8.4-8.8 15.8-13.6 23.5h.4c6.6-7.3 11.7-16.2 16.2-24.6 1.8-3.3 3.7-7 5.1-10.6.7 2.9 2.6 5.9 4 8.4 2.2 3.7 4.4 7.3 7 10.6 2.6 2.9 5.5 5.9 7.7 9.2 2.2 2.9 3.7 7 5.5 10.3s2.9 7 4.4 10.3c.4 1.8.7 3.7.7 5.5 1.5 9.9 1.8 19.8 2.9 29.7.2-1.4.2-3.2-.1-5zm-7.4-56.9l-3.3-4.4c-3.3-4-6.2-8.1-9.5-11.7-2.9-3.7-6.2-7-10.6-8.4l5.5-14.7c1.5-3.7 2.6-7 3.7-10.6l.4 1.5c.4 2.6 1.1 5.5 2.2 8.1 1.8 5.1 4.4 9.9 5.9 15.1 2.1 8.2 3.9 16.6 5.7 25.1zm-160.8-186.9v-6.2c.4-5.1 1.1-10.3 2.9-15.4 1.5-4 4.4-8.8 8.8-10.6s9.2-2.6 14-2.6c2.9-.4 5.9 0 8.8.4 2.6.4 4.8.7 7 0-.4-.7-.4-1.1-.7-1.5-3.3-2.9-9.5-4-14-4.4-4.8-.4-9.9-.4-14.7.7-11 2.9-15.4 16.5-15.8 26.4 0 3.3.4 6.6 1.1 9.9.7 2.9 1.1 6.6 2.9 9.2.8-1.5.1-4-.3-5.9zm6.6-108.3c-1.1-1.5-4.8-1.1-6.6-1.5-2.2-.4-4.8-.4-7-.4-5.1 0-9.5-1.5-14.3-2.6-9.2-2.2-19.1-3.7-28.6-4.8-5.9-.4-12.1-.7-18-1.8h1.5c-4.4-1.1-9.9.7-14 2.2-4.8 1.8-8.8 4.4-12.1 8.1-16.2 16.5-16.2 41.9-13.6 63.1 1.5 9.9 3.7 19.8 5.5 29.7-1.1-17.6-2.9-35.6-1.5-53.2 1.8-20.2 10.6-47 33.8-49.9 2.9.7 5.9 1.8 8.8 2.6 10.6 2.9 21.7 5.1 32.3 8.1 5.9 1.8 11.4 3.3 17.3 3.7 4.8.4 12.5.8 16.5-3.3zm-26 313.2c-1.5-2.2-3.3-4.4-5.1-6.6 11.7-2.6 23.5-5.5 34.9-9.5 7-2.6 13.6-5.1 20.6-8.1.4.4 1.1.7 1.8 1.1l-1.1-1.5 7.7-3.3c.7-.4 1.1-.4 1.5-.7 1.8 4.4 4 8.8 5.9 13.2l-4.4-14 11.7-5.5c4.8-2.2 10.6-5.9 11.4-11.7-1.5 2.6-4.4 4.8-7 5.9-5.9 2.9-11.7 5.1-17.6 7.7l-1.8-6.2c-2.6-8.4-4.8-17.3-7-25.7-2.9-10.3-5.1-20.9-7.3-31.2-2.2-9.9-4-20.2-6.2-30.5l-7.3-31.9c-1.8-10.3-3.3-20.6-8.4-29.7-.4 1.8-.7 3.3-.7 5.1.4 11 .7 22.4 3.3 33.4l7 30.5c1.1 5.1 2.2 10.3 3.7 15.4 1.1 4.8 2.9 9.5 4.4 14.7 2.9 11 5.9 22 9.5 32.7 2.9 8.1 5.9 16.2 9.2 23.9-3.7 1.5-7 2.9-10.6 4.4h-.8c-.7-.4-1.5-1.1-1.8-1.5-2.2-2.2-4.4-4.8-6.2-7.3-3.7-4.8-7-9.9-10.6-14.7-2.6-3.7-5.5-7-8.4-10.3-2.2-2.9-4.4-6.2-7-9.2-3.7-4-7-8.1-10.6-12.1-2.6-2.9-5.1-6.6-8.8-8.8-2.2 4 2.2 11 4.4 14.3s5.5 5.9 8.1 9.2l8.8 9.9c2.9 2.9 6.2 5.9 9.2 8.8 3.7 3.7 7 7.7 10.3 11.7 3.3 3.3 7 7.3 11 10.6-9.2 3.7-18.7 7-28.6 9.9-8.4 2.6-17.3 4.8-25.7 7-2.6-2.6-4.8-5.5-7-8.1-5.1-5.9-9.9-12.1-15.4-17.6-1.5-1.1-9.9-11.4-11.4-8.8-.7 1.8 1.8 4.8 2.9 6.2 1.8 1.8 3.7 3.7 5.5 5.9 3.3 4 6.2 8.1 9.9 11.7l11.7 11 .4.4c-13.2 2.9-26.4 5.9-39.6 8.4-2.9.7-5.5 1.1-8.1 1.8 1.1-1.1 1.5-4 1.8-5.5.4-1.8.7-4 1.1-5.9l2.2-11.7c1.8-8.4 5.5-15.8 5.5-24.6 0-2.2 0-5.1-.7-7.3-.7-1.8-2.9-5.1-4.4-1.8-1.1 1.8-.7 4.8-1.1 7s0 4.8-.7 6.6c-1.5 4.8-2.9 9.5-3.3 14.3-.4 5.1-.4 10.3-.7 15.1v7.3c0 2.6-.4 5.1 0 7.3-12.5 2.9-25.3 6.2-37.8 9.5 18.7-4.4 38.2-7 57.3-10.3 11-1.8 22-4 32.7-6.2 1.9 1.8 4.5 4 7.8 5.9zm-63.5-142.8c-.4-4.8-1.1-9.9-.7-14.7s-.4-9.9-1.1-14.3c-.7-5.1-1.8-10.3-2.9-15.4-1.1-4.8-2.6-9.2-4-14-1.5-4.4-2.6-8.8-5.1-12.8-1.5 3.3-.4 7.7 0 11.4.4 4 .7 7.7 1.5 11.4.7 3.7 1.5 7 2.2 10.6.7 3.3.7 7 1.1 10.3.4 4.8 1.1 9.5 1.5 14.7.4 4.8.4 9.9 1.8 14.3.7 2.6.4 5.1.7 7.7 0 2.6.4 5.1.7 7.7.7 5.1 1.5 10.3 2.6 15.1 2.6 10.6 7.3 22.4 15.4 30.5-1.1-3.3-3.3-6.2-4.8-9.5s-2.6-6.6-3.7-10.3c-2.6-9.2-4-18.4-4.4-27.9-.5-4.9-.5-9.7-.8-14.8zm13.2 74.8c-.7-3.7-2.9-7.3-4.4-10.6-.7-2.2-1.1-4.4-2.2-6.2-.7-1.8-1.1-5.1-2.6-6.2-2.2-1.8-3.3 1.1-2.9 2.9s1.5 3.7 1.8 5.5c1.1 3.7 3.3 7 5.5 9.9 1.5 1.4 3.3 2.9 4.8 4.7zm34.1-157.1c2.6 9.2 2.2 18.7 1.8 28.3 0 4-.4 8.4-.4 12.5-.4 4.4.4 8.4.4 12.8.4 11 1.5 22 1.8 33 .7 12.8.7 26.4-1.5 39.3 4-14.7 4.8-30.8 4.8-45.9 0-10.3-.4-20.6 0-30.8l2.2-25.7c.4-9.5-.4-19.1-2.6-28.3-2.2-9.9-4.4-20.2-8.8-29.4-1.1 1.1-1.8 1.8-2.2 3.3-2.8 10.4 1.6 21 4.5 30.9zm149.8 235.7c1.1-1.5 2.9-4.8 2.6-7 0-1.5 0-2.6-1.8-2.6-.7.4-1.5 1.8-1.8 2.6-1.5 2.2-1.5 4.8-3.7 6.6-4 2.9-11 2.2-15.4 1.8-3.3 0-6.2 0-9.5-.4 2.2 1.1 4.4 1.8 6.6 2.6 5.1 1.8 12.1 3.7 17.6 1.5 2.5-.7 4.3-2.5 5.4-5.1z" fill="#010101"/></svg>